M48
; DRILL file {KiCad 8.0.5} date 2025-01-01T22:16:47+0900
; FORMAT={-:-/ absolute / inch / decimal}
; #@! TF.CreationDate,2025-01-01T22:16:47+09:00
; #@! TF.GenerationSoftware,Kicad,Pcbnew,8.0.5
; #@! TF.FileFunction,NonPlated,1,2,NPTH
FMAT,2
INCH
; #@! TA.AperFunction,NonPlated,NPTH,ComponentDrill
T1C0.0630
; #@! TA.AperFunction,NonPlated,NPTH,ComponentDrill
T2C0.1181
; #@! TA.AperFunction,NonPlated,NPTH,ComponentDrill
T3C0.1260
; #@! TA.AperFunction,NonPlated,NPTH,ComponentDrill
T4C0.1614
%
G90
G05
T1
X4.0478Y-1.6597
X4.0478Y-2.5972
X4.1416Y-5.5972
X4.2353Y-3.3472
X4.3291Y-4.0972
X4.4228Y-4.8472
X4.4478Y-1.6597
X4.4478Y-2.5972
X4.5416Y-5.5972
X4.6353Y-3.3472
X4.7291Y-4.0972
X4.7978Y-2.5972
X4.8228Y-4.8472
X4.9853Y-1.6597
X5.1728Y-3.3472
X5.1728Y-5.5972
X5.1978Y-2.5972
X5.3603Y-4.0972
X5.3853Y-1.6597
X5.5478Y-2.5972
X5.5478Y-4.8472
X5.5728Y-3.3472
X5.5728Y-5.5972
X5.7353Y-1.6597
X5.7603Y-4.0972
X5.9228Y-3.3472
X5.9228Y-5.5972
X5.9478Y-2.5972
X5.9478Y-4.8472
X6.1103Y-4.0972
X6.1353Y-1.6597
X6.2978Y-2.5972
X6.2978Y-4.8472
X6.3228Y-3.3472
X6.3228Y-5.5972
X6.4853Y-1.6597
X6.5103Y-4.0972
X6.6728Y-3.3472
X6.6728Y-5.5972
X6.6978Y-2.5972
X6.6978Y-4.8472
X6.8603Y-4.0972
X6.8853Y-1.6597
X7.0478Y-2.5972
X7.0478Y-4.8472
X7.0728Y-3.3472
X7.0728Y-5.5972
X7.2353Y-1.6597
X7.2603Y-4.0972
X7.4228Y-3.3472
X7.4228Y-5.5972
X7.4478Y-2.5972
X7.4478Y-4.8472
X7.6103Y-4.0972
X7.6353Y-1.6597
X7.7978Y-2.5972
X7.7978Y-4.8472
X7.8228Y-3.3472
X7.8228Y-5.5972
X8.0103Y-4.0972
X8.1728Y-1.6597
X8.1728Y-3.3472
X8.1978Y-2.5972
X8.1978Y-4.8472
X8.3603Y-4.0972
X8.5478Y-2.5972
X8.5478Y-4.8472
X8.5728Y-1.6597
X8.5728Y-3.3472
X8.7603Y-4.0972
X8.9228Y-1.6597
X8.9228Y-3.3472
X8.9478Y-2.5972
X8.9478Y-4.8472
X9.0166Y-5.5972
X9.1103Y-4.0972
X9.2978Y-2.5972
X9.2978Y-4.8472
X9.3228Y-1.6597
X9.3228Y-3.3472
X9.4166Y-5.5972
X9.5103Y-4.0972
X9.6728Y-1.6597
X9.6728Y-3.3472
X9.6978Y-2.5972
X9.6978Y-4.8472
X9.8603Y-4.0972
X10.0478Y-2.5972
X10.0478Y-4.8472
X10.0728Y-1.6597
X10.0728Y-3.3472
X10.2603Y-4.0972
X10.4228Y-1.6597
X10.4228Y-3.3472
X10.4478Y-2.5972
X10.4478Y-4.8472
X10.6103Y-4.0972
X10.6103Y-5.5972
X10.7978Y-2.5972
X10.7978Y-4.8472
X10.8228Y-1.6597
X10.8228Y-3.3472
X11.0103Y-4.0972
X11.0103Y-5.5972
X11.1728Y-3.3472
X11.1978Y-2.5972
X11.1978Y-4.8472
X11.3603Y-1.6597
X11.3603Y-4.0972
X11.3603Y-5.5972
X11.5478Y-2.5972
X11.5478Y-4.8472
X11.5728Y-3.3472
X11.7603Y-1.6597
X11.7603Y-4.0972
X11.7603Y-5.5972
X11.9228Y-3.3472
X11.9478Y-2.5972
X11.9478Y-4.8472
X12.1103Y-1.6597
X12.1103Y-4.0972
X12.1103Y-5.5972
X12.2978Y-2.5972
X12.2978Y-4.8472
X12.3228Y-3.3472
X12.5103Y-1.6597
X12.5103Y-4.0972
X12.5103Y-5.5972
X12.6728Y-3.3472
X12.6978Y-2.5972
X12.6978Y-4.8472
X12.8603Y-1.6597
X12.8603Y-4.0972
X13.0478Y-2.5972
X13.0478Y-4.8472
X13.0478Y-5.5972
X13.0728Y-3.3472
X13.2603Y-1.6597
X13.2603Y-4.0972
X13.4228Y-3.3472
X13.4478Y-2.5972
X13.4478Y-4.8472
X13.4478Y-5.5972
X13.6103Y-1.6597
X13.6103Y-4.0972
X13.7978Y-2.5972
X13.7978Y-4.8472
X13.7978Y-5.5972
X13.8228Y-3.3472
X14.0103Y-1.6597
X14.0103Y-4.0972
X14.1978Y-2.5972
X14.1978Y-4.8472
X14.1978Y-5.5972
X14.4541Y-3.7222
X14.5478Y-1.6597
X14.5478Y-2.5972
X14.5478Y-4.8472
X14.5478Y-5.5972
X14.8541Y-3.7222
X14.9478Y-1.6597
X14.9478Y-2.5972
X14.9478Y-4.8472
X14.9478Y-5.5972
X15.4853Y-1.6597
X15.4853Y-2.5972
X15.4853Y-3.3472
X15.4853Y-4.0972
X15.4853Y-4.8472
X15.8853Y-1.6597
X15.8853Y-2.5972
X15.8853Y-3.3472
X15.8853Y-4.0972
X15.8853Y-4.8472
T2
X4.0978Y-1.5597
X4.0978Y-2.4972
X4.1916Y-5.4972
X4.2853Y-3.2472
X4.3478Y-1.4597
X4.3478Y-2.3972
X4.3791Y-3.9972
X4.4416Y-5.3972
X4.4728Y-4.7472
X4.5353Y-3.1472
X4.6291Y-3.8972
X4.7228Y-4.6472
X4.8478Y-2.4972
X5.0353Y-1.5597
X5.0978Y-2.3972
X5.2228Y-3.2472
X5.2228Y-5.4972
X5.2853Y-1.4597
X5.4103Y-3.9972
X5.4728Y-3.1472
X5.4728Y-5.3972
X5.5978Y-2.4972
X5.5978Y-4.7472
X5.6603Y-3.8972
X5.7853Y-1.5597
X5.8478Y-2.3972
X5.8478Y-4.6472
X5.9728Y-3.2472
X5.9728Y-5.4972
X6.0353Y-1.4597
X6.1603Y-3.9972
X6.2228Y-3.1472
X6.2228Y-5.3972
X6.3478Y-2.4972
X6.3478Y-4.7472
X6.4103Y-3.8972
X6.5353Y-1.5597
X6.5978Y-2.3972
X6.5978Y-4.6472
X6.7228Y-3.2472
X6.7228Y-5.4972
X6.7853Y-1.4597
X6.9103Y-3.9972
X6.9728Y-3.1472
X6.9728Y-5.3972
X7.0978Y-2.4972
X7.0978Y-4.7472
X7.1603Y-3.8972
X7.2853Y-1.5597
X7.3478Y-2.3972
X7.3478Y-4.6472
X7.4728Y-3.2472
X7.4728Y-5.4972
X7.5353Y-1.4597
X7.6603Y-3.9972
X7.7228Y-3.1472
X7.7228Y-5.3972
X7.8478Y-2.4972
X7.8478Y-4.7472
X7.9103Y-3.8972
X8.0978Y-2.3972
X8.0978Y-4.6472
X8.2228Y-1.5597
X8.2228Y-3.2472
X8.4103Y-3.9972
X8.4728Y-1.4597
X8.4728Y-3.1472
X8.5978Y-2.4972
X8.5978Y-4.7472
X8.6603Y-3.8972
X8.8478Y-2.3972
X8.8478Y-4.6472
X8.9728Y-1.5597
X8.9728Y-3.2472
X9.0666Y-5.4972
X9.1603Y-3.9972
X9.2228Y-1.4597
X9.2228Y-3.1472
X9.3166Y-5.3972
X9.3478Y-2.4972
X9.3478Y-4.7472
X9.4103Y-3.8972
X9.5978Y-2.3972
X9.5978Y-4.6472
X9.7228Y-1.5597
X9.7228Y-3.2472
X9.9103Y-3.9972
X9.9728Y-1.4597
X9.9728Y-3.1472
X10.0978Y-2.4972
X10.0978Y-4.7472
X10.1603Y-3.8972
X10.3478Y-2.3972
X10.3478Y-4.6472
X10.4728Y-1.5597
X10.4728Y-3.2472
X10.6603Y-3.9972
X10.6603Y-5.4972
X10.7228Y-1.4597
X10.7228Y-3.1472
X10.8478Y-2.4972
X10.8478Y-4.7472
X10.9103Y-3.8972
X10.9103Y-5.3972
X11.0978Y-2.3972
X11.0978Y-4.6472
X11.2228Y-3.2472
X11.4103Y-1.5597
X11.4103Y-3.9972
X11.4103Y-5.4972
X11.4728Y-3.1472
X11.5978Y-2.4972
X11.5978Y-4.7472
X11.6603Y-1.4597
X11.6603Y-3.8972
X11.6603Y-5.3972
X11.8478Y-2.3972
X11.8478Y-4.6472
X11.9728Y-3.2472
X12.1603Y-1.5597
X12.1603Y-3.9972
X12.1603Y-5.4972
X12.2228Y-3.1472
X12.3478Y-2.4972
X12.3478Y-4.7472
X12.4103Y-1.4597
X12.4103Y-3.8972
X12.4103Y-5.3972
X12.5978Y-2.3972
X12.5978Y-4.6472
X12.7228Y-3.2472
X12.9103Y-1.5597
X12.9103Y-3.9972
X12.9728Y-3.1472
X13.0978Y-2.4972
X13.0978Y-4.7472
X13.0978Y-5.4972
X13.1603Y-1.4597
X13.1603Y-3.8972
X13.3478Y-2.3972
X13.3478Y-4.6472
X13.3478Y-5.3972
X13.4728Y-3.2472
X13.6603Y-1.5597
X13.6603Y-3.9972
X13.7228Y-3.1472
X13.8478Y-2.4972
X13.8478Y-4.7472
X13.8478Y-5.4972
X13.9103Y-1.4597
X13.9103Y-3.8972
X14.0978Y-2.3972
X14.0978Y-4.6472
X14.0978Y-5.3972
X14.5041Y-3.6222
X14.5978Y-1.5597
X14.5978Y-2.4972
X14.5978Y-4.7472
X14.5978Y-5.4972
X14.7541Y-3.5222
X14.8478Y-1.4597
X14.8478Y-2.3972
X14.8478Y-4.6472
X14.8478Y-5.3972
X15.5353Y-1.5597
X15.5353Y-2.4972
X15.5353Y-3.2472
X15.5353Y-3.9972
X15.5353Y-4.7472
X15.7853Y-1.4597
X15.7853Y-2.3972
X15.7853Y-3.1472
X15.7853Y-3.8972
X15.7853Y-4.6472
T3
X1.2622Y-2.2086
X1.2622Y-5.8856
T4
X4.2478Y-1.6597
X4.2478Y-2.5972
X4.3416Y-5.5972
X4.4353Y-3.3472
X4.5291Y-4.0972
X4.6228Y-4.8472
X4.9978Y-2.5972
X5.1853Y-1.6597
X5.3728Y-3.3472
X5.3728Y-5.5972
X5.5603Y-4.0972
X5.7478Y-2.5972
X5.7478Y-4.8472
X5.9353Y-1.6597
X6.1228Y-3.3472
X6.1228Y-5.5972
X6.3103Y-4.0972
X6.4978Y-2.5972
X6.4978Y-4.8472
X6.6853Y-1.6597
X6.8728Y-3.3472
X6.8728Y-5.5972
X7.0603Y-4.0972
X7.2478Y-2.5972
X7.2478Y-4.8472
X7.4353Y-1.6597
X7.6228Y-3.3472
X7.6228Y-5.5972
X7.8103Y-4.0972
X7.9978Y-2.5972
X7.9978Y-4.8472
X8.3728Y-1.6597
X8.3728Y-3.3472
X8.5603Y-4.0972
X8.7478Y-2.5972
X8.7478Y-4.8472
X9.1228Y-1.6597
X9.1228Y-3.3472
X9.2166Y-5.5972
X9.3103Y-4.0972
X9.4978Y-2.5972
X9.4978Y-4.8472
X9.8728Y-1.6597
X9.8728Y-3.3472
X10.0603Y-4.0972
X10.2478Y-2.5972
X10.2478Y-4.8472
X10.6228Y-1.6597
X10.6228Y-3.3472
X10.8103Y-4.0972
X10.8103Y-5.5972
X10.9978Y-2.5972
X10.9978Y-4.8472
X11.3728Y-3.3472
X11.5603Y-1.6597
X11.5603Y-4.0972
X11.5603Y-5.5972
X11.7478Y-2.5972
X11.7478Y-4.8472
X12.1228Y-3.3472
X12.3103Y-1.6597
X12.3103Y-4.0972
X12.3103Y-5.5972
X12.4978Y-2.5972
X12.4978Y-4.8472
X12.8728Y-3.3472
X13.0603Y-1.6597
X13.0603Y-4.0972
X13.2478Y-2.5972
X13.2478Y-4.8472
X13.2478Y-5.5972
X13.6228Y-3.3472
X13.8103Y-1.6597
X13.8103Y-4.0972
X13.9978Y-2.5972
X13.9978Y-4.8472
X13.9978Y-5.5972
X14.6541Y-3.7222
X14.7478Y-1.6597
X14.7478Y-2.5972
X14.7478Y-4.8472
X14.7478Y-5.5972
X15.6853Y-1.6597
X15.6853Y-2.5972
X15.6853Y-3.3472
X15.6853Y-4.0972
X15.6853Y-4.8472
M30
