%TF.GenerationSoftware,KiCad,Pcbnew,8.0.5*%
%TF.CreationDate,2025-01-01T22:16:47+09:00*%
%TF.ProjectId,Davinci-Keyboard,44617669-6e63-4692-9d4b-6579626f6172,rev?*%
%TF.SameCoordinates,Original*%
%TF.FileFunction,Copper,L1,Top*%
%TF.FilePolarity,Positive*%
%FSLAX46Y46*%
G04 Gerber Fmt 4.6, Leading zero omitted, Abs format (unit mm)*
G04 Created by KiCad (PCBNEW 8.0.5) date 2025-01-01 22:16:47*
%MOMM*%
%LPD*%
G01*
G04 APERTURE LIST*
G04 Aperture macros list*
%AMRoundRect*
0 Rectangle with rounded corners*
0 $1 Rounding radius*
0 $2 $3 $4 $5 $6 $7 $8 $9 X,Y pos of 4 corners*
0 Add a 4 corners polygon primitive as box body*
4,1,4,$2,$3,$4,$5,$6,$7,$8,$9,$2,$3,0*
0 Add four circle primitives for the rounded corners*
1,1,$1+$1,$2,$3*
1,1,$1+$1,$4,$5*
1,1,$1+$1,$6,$7*
1,1,$1+$1,$8,$9*
0 Add four rect primitives between the rounded corners*
20,1,$1+$1,$2,$3,$4,$5,0*
20,1,$1+$1,$4,$5,$6,$7,0*
20,1,$1+$1,$6,$7,$8,$9,0*
20,1,$1+$1,$8,$9,$2,$3,0*%
G04 Aperture macros list end*
%TA.AperFunction,ComponentPad*%
%ADD10C,0.500000*%
%TD*%
%TA.AperFunction,SMDPad,CuDef*%
%ADD11RoundRect,0.249000X-1.251000X-1.251000X1.251000X-1.251000X1.251000X1.251000X-1.251000X1.251000X0*%
%TD*%
%TA.AperFunction,SMDPad,CuDef*%
%ADD12RoundRect,0.249000X1.251000X1.251000X-1.251000X1.251000X-1.251000X-1.251000X1.251000X-1.251000X0*%
%TD*%
%TA.AperFunction,ComponentPad*%
%ADD13C,2.000000*%
%TD*%
%TA.AperFunction,ComponentPad*%
%ADD14R,3.200000X2.000000*%
%TD*%
%TA.AperFunction,SMDPad,CuDef*%
%ADD15R,1.050000X0.650000*%
%TD*%
%TA.AperFunction,SMDPad,CuDef*%
%ADD16RoundRect,0.237500X0.237500X-0.300000X0.237500X0.300000X-0.237500X0.300000X-0.237500X-0.300000X0*%
%TD*%
%TA.AperFunction,ComponentPad*%
%ADD17R,2.000000X3.200000*%
%TD*%
%TA.AperFunction,SMDPad,CuDef*%
%ADD18RoundRect,0.237500X-0.237500X0.287500X-0.237500X-0.287500X0.237500X-0.287500X0.237500X0.287500X0*%
%TD*%
%TA.AperFunction,SMDPad,CuDef*%
%ADD19RoundRect,0.237500X0.237500X-0.250000X0.237500X0.250000X-0.237500X0.250000X-0.237500X-0.250000X0*%
%TD*%
%TA.AperFunction,ComponentPad*%
%ADD20O,1.000000X2.100000*%
%TD*%
%TA.AperFunction,ComponentPad*%
%ADD21O,1.000000X1.800000*%
%TD*%
%TA.AperFunction,ComponentPad*%
%ADD22O,1.700000X1.700000*%
%TD*%
%TA.AperFunction,ComponentPad*%
%ADD23R,1.700000X1.700000*%
%TD*%
%TA.AperFunction,HeatsinkPad*%
%ADD24C,0.600000*%
%TD*%
%TA.AperFunction,ViaPad*%
%ADD25C,0.500000*%
%TD*%
%TA.AperFunction,ViaPad*%
%ADD26C,0.600000*%
%TD*%
%TA.AperFunction,ViaPad*%
%ADD27C,0.800000*%
%TD*%
%TA.AperFunction,Conductor*%
%ADD28C,0.300000*%
%TD*%
%TA.AperFunction,Conductor*%
%ADD29C,1.000000*%
%TD*%
%TA.AperFunction,Conductor*%
%ADD30C,0.700000*%
%TD*%
%TA.AperFunction,Conductor*%
%ADD31C,0.250000*%
%TD*%
%TA.AperFunction,Conductor*%
%ADD32C,0.200000*%
%TD*%
%TA.AperFunction,Conductor*%
%ADD33C,0.500000*%
%TD*%
G04 APERTURE END LIST*
D10*
%TO.P,SW87,1,1*%
%TO.N,/ESP32-S3/IO16*%
X366285000Y-138430000D03*
X368685000Y-138430000D03*
X366285000Y-140830000D03*
X368685000Y-140830000D03*
D11*
X367485000Y-139630000D03*
D10*
%TO.P,SW87,2,2*%
%TO.N,Net-(D82-A)*%
X379235000Y-135890000D03*
X381635000Y-135890000D03*
X379235000Y-138290000D03*
X381635000Y-138290000D03*
D12*
X380435000Y-137090000D03*
%TD*%
D10*
%TO.P,SW86,1,1*%
%TO.N,/ESP32-S3/IO16*%
X347235000Y-138430000D03*
X349635000Y-138430000D03*
X347235000Y-140830000D03*
X349635000Y-140830000D03*
D11*
X348435000Y-139630000D03*
D10*
%TO.P,SW86,2,2*%
%TO.N,Net-(D90-K)*%
X360185000Y-135890000D03*
X362585000Y-135890000D03*
X360185000Y-138290000D03*
X362585000Y-138290000D03*
D12*
X361385000Y-137090000D03*
%TD*%
D10*
%TO.P,SW85,1,1*%
%TO.N,/ESP32-S3/IO16*%
X328185000Y-138430000D03*
X330585000Y-138430000D03*
X328185000Y-140830000D03*
X330585000Y-140830000D03*
D11*
X329385000Y-139630000D03*
D10*
%TO.P,SW85,2,2*%
%TO.N,Net-(D81-A)*%
X341135000Y-135890000D03*
X343535000Y-135890000D03*
X341135000Y-138290000D03*
X343535000Y-138290000D03*
D12*
X342335000Y-137090000D03*
%TD*%
D10*
%TO.P,SW84,1,1*%
%TO.N,/ESP32-S3/IO16*%
X304372500Y-138430000D03*
X306772500Y-138430000D03*
X304372500Y-140830000D03*
X306772500Y-140830000D03*
D11*
X305572500Y-139630000D03*
D10*
%TO.P,SW84,2,2*%
%TO.N,Net-(D89-K)*%
X317322500Y-135890000D03*
X319722500Y-135890000D03*
X317322500Y-138290000D03*
X319722500Y-138290000D03*
D12*
X318522500Y-137090000D03*
%TD*%
D10*
%TO.P,SW83,1,1*%
%TO.N,/ESP32-S3/IO16*%
X285322500Y-138430000D03*
X287722500Y-138430000D03*
X285322500Y-140830000D03*
X287722500Y-140830000D03*
D11*
X286522500Y-139630000D03*
D10*
%TO.P,SW83,2,2*%
%TO.N,Net-(D80-A)*%
X298272500Y-135890000D03*
X300672500Y-135890000D03*
X298272500Y-138290000D03*
X300672500Y-138290000D03*
D12*
X299472500Y-137090000D03*
%TD*%
D10*
%TO.P,SW82,1,1*%
%TO.N,/ESP32-S3/IO16*%
X266272500Y-138430000D03*
X268672500Y-138430000D03*
X266272500Y-140830000D03*
X268672500Y-140830000D03*
D11*
X267472500Y-139630000D03*
D10*
%TO.P,SW82,2,2*%
%TO.N,Net-(D88-K)*%
X279222500Y-135890000D03*
X281622500Y-135890000D03*
X279222500Y-138290000D03*
X281622500Y-138290000D03*
D12*
X280422500Y-137090000D03*
%TD*%
D10*
%TO.P,SW81,1,1*%
%TO.N,/ESP32-S3/IO16*%
X225791250Y-138430000D03*
X228191250Y-138430000D03*
X225791250Y-140830000D03*
X228191250Y-140830000D03*
D11*
X226991250Y-139630000D03*
D10*
%TO.P,SW81,2,2*%
%TO.N,Net-(D79-A)*%
X238741250Y-135890000D03*
X241141250Y-135890000D03*
X238741250Y-138290000D03*
X241141250Y-138290000D03*
D12*
X239941250Y-137090000D03*
%TD*%
D10*
%TO.P,SW80,1,1*%
%TO.N,/ESP32-S3/IO16*%
X185310000Y-138430000D03*
X187710000Y-138430000D03*
X185310000Y-140830000D03*
X187710000Y-140830000D03*
D11*
X186510000Y-139630000D03*
D10*
%TO.P,SW80,2,2*%
%TO.N,Net-(D87-K)*%
X198260000Y-135890000D03*
X200660000Y-135890000D03*
X198260000Y-138290000D03*
X200660000Y-138290000D03*
D12*
X199460000Y-137090000D03*
%TD*%
D10*
%TO.P,SW79,1,1*%
%TO.N,/ESP32-S3/IO16*%
X166260000Y-138430000D03*
X168660000Y-138430000D03*
X166260000Y-140830000D03*
X168660000Y-140830000D03*
D11*
X167460000Y-139630000D03*
D10*
%TO.P,SW79,2,2*%
%TO.N,Net-(D78-A)*%
X179210000Y-135890000D03*
X181610000Y-135890000D03*
X179210000Y-138290000D03*
X181610000Y-138290000D03*
D12*
X180410000Y-137090000D03*
%TD*%
D10*
%TO.P,SW78,1,1*%
%TO.N,/ESP32-S3/IO16*%
X147210000Y-138430000D03*
X149610000Y-138430000D03*
X147210000Y-140830000D03*
X149610000Y-140830000D03*
D11*
X148410000Y-139630000D03*
D10*
%TO.P,SW78,2,2*%
%TO.N,Net-(D86-K)*%
X160160000Y-135890000D03*
X162560000Y-135890000D03*
X160160000Y-138290000D03*
X162560000Y-138290000D03*
D12*
X161360000Y-137090000D03*
%TD*%
D10*
%TO.P,SW77,1,1*%
%TO.N,/ESP32-S3/IO16*%
X128160000Y-138430000D03*
X130560000Y-138430000D03*
X128160000Y-140830000D03*
X130560000Y-140830000D03*
D11*
X129360000Y-139630000D03*
D10*
%TO.P,SW77,2,2*%
%TO.N,Net-(D77-A)*%
X141110000Y-135890000D03*
X143510000Y-135890000D03*
X141110000Y-138290000D03*
X143510000Y-138290000D03*
D12*
X142310000Y-137090000D03*
%TD*%
D10*
%TO.P,SW76,1,1*%
%TO.N,/ESP32-S3/IO16*%
X101966250Y-138430000D03*
X104366250Y-138430000D03*
X101966250Y-140830000D03*
X104366250Y-140830000D03*
D11*
X103166250Y-139630000D03*
D10*
%TO.P,SW76,2,2*%
%TO.N,Net-(D85-K)*%
X114916250Y-135890000D03*
X117316250Y-135890000D03*
X114916250Y-138290000D03*
X117316250Y-138290000D03*
D12*
X116116250Y-137090000D03*
%TD*%
D10*
%TO.P,SW75,1,1*%
%TO.N,/ESP32-S3/IO16*%
X390097500Y-119380000D03*
X392497500Y-119380000D03*
X390097500Y-121780000D03*
X392497500Y-121780000D03*
D11*
X391297500Y-120580000D03*
D10*
%TO.P,SW75,2,2*%
%TO.N,Net-(D76-A)*%
X403047500Y-116840000D03*
X405447500Y-116840000D03*
X403047500Y-119240000D03*
X405447500Y-119240000D03*
D12*
X404247500Y-118040000D03*
%TD*%
D10*
%TO.P,SW74,1,1*%
%TO.N,/ESP32-S3/IO16*%
X366285000Y-119380000D03*
X368685000Y-119380000D03*
X366285000Y-121780000D03*
X368685000Y-121780000D03*
D11*
X367485000Y-120580000D03*
D10*
%TO.P,SW74,2,2*%
%TO.N,Net-(D84-K)*%
X379235000Y-116840000D03*
X381635000Y-116840000D03*
X379235000Y-119240000D03*
X381635000Y-119240000D03*
D12*
X380435000Y-118040000D03*
%TD*%
D10*
%TO.P,SW73,1,1*%
%TO.N,/ESP32-S3/IO15*%
X347235000Y-119380000D03*
X349635000Y-119380000D03*
X347235000Y-121780000D03*
X349635000Y-121780000D03*
D11*
X348435000Y-120580000D03*
D10*
%TO.P,SW73,2,2*%
%TO.N,Net-(D68-A)*%
X360185000Y-116840000D03*
X362585000Y-116840000D03*
X360185000Y-119240000D03*
X362585000Y-119240000D03*
D12*
X361385000Y-118040000D03*
%TD*%
D10*
%TO.P,SW72,1,1*%
%TO.N,/ESP32-S3/IO15*%
X328185000Y-119380000D03*
X330585000Y-119380000D03*
X328185000Y-121780000D03*
X330585000Y-121780000D03*
D11*
X329385000Y-120580000D03*
D10*
%TO.P,SW72,2,2*%
%TO.N,Net-(D67-A)*%
X341135000Y-116840000D03*
X343535000Y-116840000D03*
X341135000Y-119240000D03*
X343535000Y-119240000D03*
D12*
X342335000Y-118040000D03*
%TD*%
D10*
%TO.P,SW71,1,1*%
%TO.N,/ESP32-S3/IO15*%
X309135000Y-119380000D03*
X311535000Y-119380000D03*
X309135000Y-121780000D03*
X311535000Y-121780000D03*
D11*
X310335000Y-120580000D03*
D10*
%TO.P,SW71,2,2*%
%TO.N,Net-(D75-K)*%
X322085000Y-116840000D03*
X324485000Y-116840000D03*
X322085000Y-119240000D03*
X324485000Y-119240000D03*
D12*
X323285000Y-118040000D03*
%TD*%
D10*
%TO.P,SW70,1,1*%
%TO.N,/ESP32-S3/IO15*%
X290085000Y-119380000D03*
X292485000Y-119380000D03*
X290085000Y-121780000D03*
X292485000Y-121780000D03*
D11*
X291285000Y-120580000D03*
D10*
%TO.P,SW70,2,2*%
%TO.N,Net-(D66-A)*%
X303035000Y-116840000D03*
X305435000Y-116840000D03*
X303035000Y-119240000D03*
X305435000Y-119240000D03*
D12*
X304235000Y-118040000D03*
%TD*%
D10*
%TO.P,SW69,1,1*%
%TO.N,/ESP32-S3/IO15*%
X271035000Y-119380000D03*
X273435000Y-119380000D03*
X271035000Y-121780000D03*
X273435000Y-121780000D03*
D11*
X272235000Y-120580000D03*
D10*
%TO.P,SW69,2,2*%
%TO.N,Net-(D74-K)*%
X283985000Y-116840000D03*
X286385000Y-116840000D03*
X283985000Y-119240000D03*
X286385000Y-119240000D03*
D12*
X285185000Y-118040000D03*
%TD*%
D10*
%TO.P,SW68,1,1*%
%TO.N,/ESP32-S3/IO15*%
X251985000Y-119380000D03*
X254385000Y-119380000D03*
X251985000Y-121780000D03*
X254385000Y-121780000D03*
D11*
X253185000Y-120580000D03*
D10*
%TO.P,SW68,2,2*%
%TO.N,Net-(D65-A)*%
X264935000Y-116840000D03*
X267335000Y-116840000D03*
X264935000Y-119240000D03*
X267335000Y-119240000D03*
D12*
X266135000Y-118040000D03*
%TD*%
D10*
%TO.P,SW67,1,1*%
%TO.N,/ESP32-S3/IO15*%
X232935000Y-119380000D03*
X235335000Y-119380000D03*
X232935000Y-121780000D03*
X235335000Y-121780000D03*
D11*
X234135000Y-120580000D03*
D10*
%TO.P,SW67,2,2*%
%TO.N,Net-(D73-K)*%
X245885000Y-116840000D03*
X248285000Y-116840000D03*
X245885000Y-119240000D03*
X248285000Y-119240000D03*
D12*
X247085000Y-118040000D03*
%TD*%
D10*
%TO.P,SW66,1,1*%
%TO.N,/ESP32-S3/IO15*%
X213885000Y-119380000D03*
X216285000Y-119380000D03*
X213885000Y-121780000D03*
X216285000Y-121780000D03*
D11*
X215085000Y-120580000D03*
D10*
%TO.P,SW66,2,2*%
%TO.N,Net-(D64-A)*%
X226835000Y-116840000D03*
X229235000Y-116840000D03*
X226835000Y-119240000D03*
X229235000Y-119240000D03*
D12*
X228035000Y-118040000D03*
%TD*%
D10*
%TO.P,SW65,1,1*%
%TO.N,/ESP32-S3/IO15*%
X194835000Y-119380000D03*
X197235000Y-119380000D03*
X194835000Y-121780000D03*
X197235000Y-121780000D03*
D11*
X196035000Y-120580000D03*
D10*
%TO.P,SW65,2,2*%
%TO.N,Net-(D72-K)*%
X207785000Y-116840000D03*
X210185000Y-116840000D03*
X207785000Y-119240000D03*
X210185000Y-119240000D03*
D12*
X208985000Y-118040000D03*
%TD*%
D10*
%TO.P,SW64,1,1*%
%TO.N,/ESP32-S3/IO15*%
X175785000Y-119380000D03*
X178185000Y-119380000D03*
X175785000Y-121780000D03*
X178185000Y-121780000D03*
D11*
X176985000Y-120580000D03*
D10*
%TO.P,SW64,2,2*%
%TO.N,Net-(D63-A)*%
X188735000Y-116840000D03*
X191135000Y-116840000D03*
X188735000Y-119240000D03*
X191135000Y-119240000D03*
D12*
X189935000Y-118040000D03*
%TD*%
D10*
%TO.P,SW63,1,1*%
%TO.N,/ESP32-S3/IO15*%
X156735000Y-119380000D03*
X159135000Y-119380000D03*
X156735000Y-121780000D03*
X159135000Y-121780000D03*
D11*
X157935000Y-120580000D03*
D10*
%TO.P,SW63,2,2*%
%TO.N,Net-(D71-K)*%
X169685000Y-116840000D03*
X172085000Y-116840000D03*
X169685000Y-119240000D03*
X172085000Y-119240000D03*
D12*
X170885000Y-118040000D03*
%TD*%
D10*
%TO.P,SW62,1,1*%
%TO.N,/ESP32-S3/IO15*%
X137685000Y-119380000D03*
X140085000Y-119380000D03*
X137685000Y-121780000D03*
X140085000Y-121780000D03*
D11*
X138885000Y-120580000D03*
D10*
%TO.P,SW62,2,2*%
%TO.N,Net-(D62-A)*%
X150635000Y-116840000D03*
X153035000Y-116840000D03*
X150635000Y-119240000D03*
X153035000Y-119240000D03*
D12*
X151835000Y-118040000D03*
%TD*%
D10*
%TO.P,SW61,1,1*%
%TO.N,/ESP32-S3/IO15*%
X109110000Y-119380000D03*
X111510000Y-119380000D03*
X109110000Y-121780000D03*
X111510000Y-121780000D03*
D11*
X110310000Y-120580000D03*
D10*
%TO.P,SW61,2,2*%
%TO.N,Net-(D70-K)*%
X122060000Y-116840000D03*
X124460000Y-116840000D03*
X122060000Y-119240000D03*
X124460000Y-119240000D03*
D12*
X123260000Y-118040000D03*
%TD*%
D10*
%TO.P,SW60,1,1*%
%TO.N,/ESP32-S3/IO15*%
X390097500Y-100330000D03*
X392497500Y-100330000D03*
X390097500Y-102730000D03*
X392497500Y-102730000D03*
D11*
X391297500Y-101530000D03*
D10*
%TO.P,SW60,2,2*%
%TO.N,Net-(D61-A)*%
X403047500Y-97790000D03*
X405447500Y-97790000D03*
X403047500Y-100190000D03*
X405447500Y-100190000D03*
D12*
X404247500Y-98990000D03*
%TD*%
D10*
%TO.P,SW59,1,1*%
%TO.N,/ESP32-S3/IO15*%
X342472500Y-100330000D03*
X344872500Y-100330000D03*
X342472500Y-102730000D03*
X344872500Y-102730000D03*
D11*
X343672500Y-101530000D03*
D10*
%TO.P,SW59,2,2*%
%TO.N,Net-(D69-K)*%
X355422500Y-97790000D03*
X357822500Y-97790000D03*
X355422500Y-100190000D03*
X357822500Y-100190000D03*
D12*
X356622500Y-98990000D03*
%TD*%
D10*
%TO.P,SW58,1,1*%
%TO.N,/ESP32-S3/IO7*%
X323422500Y-100330000D03*
X325822500Y-100330000D03*
X323422500Y-102730000D03*
X325822500Y-102730000D03*
D11*
X324622500Y-101530000D03*
D10*
%TO.P,SW58,2,2*%
%TO.N,Net-(D53-A)*%
X336372500Y-97790000D03*
X338772500Y-97790000D03*
X336372500Y-100190000D03*
X338772500Y-100190000D03*
D12*
X337572500Y-98990000D03*
%TD*%
D10*
%TO.P,SW57,1,1*%
%TO.N,/ESP32-S3/IO7*%
X304372500Y-100330000D03*
X306772500Y-100330000D03*
X304372500Y-102730000D03*
X306772500Y-102730000D03*
D11*
X305572500Y-101530000D03*
D10*
%TO.P,SW57,2,2*%
%TO.N,Net-(D52-A)*%
X317322500Y-97790000D03*
X319722500Y-97790000D03*
X317322500Y-100190000D03*
X319722500Y-100190000D03*
D12*
X318522500Y-98990000D03*
%TD*%
D10*
%TO.P,SW56,1,1*%
%TO.N,/ESP32-S3/IO7*%
X285322500Y-100330000D03*
X287722500Y-100330000D03*
X285322500Y-102730000D03*
X287722500Y-102730000D03*
D11*
X286522500Y-101530000D03*
D10*
%TO.P,SW56,2,2*%
%TO.N,Net-(D60-K)*%
X298272500Y-97790000D03*
X300672500Y-97790000D03*
X298272500Y-100190000D03*
X300672500Y-100190000D03*
D12*
X299472500Y-98990000D03*
%TD*%
D10*
%TO.P,SW55,1,1*%
%TO.N,/ESP32-S3/IO7*%
X266272500Y-100330000D03*
X268672500Y-100330000D03*
X266272500Y-102730000D03*
X268672500Y-102730000D03*
D11*
X267472500Y-101530000D03*
D10*
%TO.P,SW55,2,2*%
%TO.N,Net-(D51-A)*%
X279222500Y-97790000D03*
X281622500Y-97790000D03*
X279222500Y-100190000D03*
X281622500Y-100190000D03*
D12*
X280422500Y-98990000D03*
%TD*%
D10*
%TO.P,SW54,1,1*%
%TO.N,/ESP32-S3/IO7*%
X247222500Y-100330000D03*
X249622500Y-100330000D03*
X247222500Y-102730000D03*
X249622500Y-102730000D03*
D11*
X248422500Y-101530000D03*
D10*
%TO.P,SW54,2,2*%
%TO.N,Net-(D59-K)*%
X260172500Y-97790000D03*
X262572500Y-97790000D03*
X260172500Y-100190000D03*
X262572500Y-100190000D03*
D12*
X261372500Y-98990000D03*
%TD*%
D10*
%TO.P,SW53,1,1*%
%TO.N,/ESP32-S3/IO7*%
X228172500Y-100330000D03*
X230572500Y-100330000D03*
X228172500Y-102730000D03*
X230572500Y-102730000D03*
D11*
X229372500Y-101530000D03*
D10*
%TO.P,SW53,2,2*%
%TO.N,Net-(D50-A)*%
X241122500Y-97790000D03*
X243522500Y-97790000D03*
X241122500Y-100190000D03*
X243522500Y-100190000D03*
D12*
X242322500Y-98990000D03*
%TD*%
D10*
%TO.P,SW52,1,1*%
%TO.N,/ESP32-S3/IO7*%
X209122500Y-100330000D03*
X211522500Y-100330000D03*
X209122500Y-102730000D03*
X211522500Y-102730000D03*
D11*
X210322500Y-101530000D03*
D10*
%TO.P,SW52,2,2*%
%TO.N,Net-(D58-K)*%
X222072500Y-97790000D03*
X224472500Y-97790000D03*
X222072500Y-100190000D03*
X224472500Y-100190000D03*
D12*
X223272500Y-98990000D03*
%TD*%
D10*
%TO.P,SW51,1,1*%
%TO.N,/ESP32-S3/IO7*%
X190072500Y-100330000D03*
X192472500Y-100330000D03*
X190072500Y-102730000D03*
X192472500Y-102730000D03*
D11*
X191272500Y-101530000D03*
D10*
%TO.P,SW51,2,2*%
%TO.N,Net-(D49-A)*%
X203022500Y-97790000D03*
X205422500Y-97790000D03*
X203022500Y-100190000D03*
X205422500Y-100190000D03*
D12*
X204222500Y-98990000D03*
%TD*%
D10*
%TO.P,SW50,1,1*%
%TO.N,/ESP32-S3/IO7*%
X171022500Y-100330000D03*
X173422500Y-100330000D03*
X171022500Y-102730000D03*
X173422500Y-102730000D03*
D11*
X172222500Y-101530000D03*
D10*
%TO.P,SW50,2,2*%
%TO.N,Net-(D57-K)*%
X183972500Y-97790000D03*
X186372500Y-97790000D03*
X183972500Y-100190000D03*
X186372500Y-100190000D03*
D12*
X185172500Y-98990000D03*
%TD*%
D10*
%TO.P,SW49,1,1*%
%TO.N,/ESP32-S3/IO7*%
X151972500Y-100330000D03*
X154372500Y-100330000D03*
X151972500Y-102730000D03*
X154372500Y-102730000D03*
D11*
X153172500Y-101530000D03*
D10*
%TO.P,SW49,2,2*%
%TO.N,Net-(D48-A)*%
X164922500Y-97790000D03*
X167322500Y-97790000D03*
X164922500Y-100190000D03*
X167322500Y-100190000D03*
D12*
X166122500Y-98990000D03*
%TD*%
D10*
%TO.P,SW48,1,1*%
%TO.N,/ESP32-S3/IO7*%
X132922500Y-100330000D03*
X135322500Y-100330000D03*
X132922500Y-102730000D03*
X135322500Y-102730000D03*
D11*
X134122500Y-101530000D03*
D10*
%TO.P,SW48,2,2*%
%TO.N,Net-(D56-K)*%
X145872500Y-97790000D03*
X148272500Y-97790000D03*
X145872500Y-100190000D03*
X148272500Y-100190000D03*
D12*
X147072500Y-98990000D03*
%TD*%
D10*
%TO.P,SW47,1,1*%
%TO.N,/ESP32-S3/IO7*%
X106728750Y-100330000D03*
X109128750Y-100330000D03*
X106728750Y-102730000D03*
X109128750Y-102730000D03*
D11*
X107928750Y-101530000D03*
D10*
%TO.P,SW47,2,2*%
%TO.N,Net-(D47-A)*%
X119678750Y-97790000D03*
X122078750Y-97790000D03*
X119678750Y-100190000D03*
X122078750Y-100190000D03*
D12*
X120878750Y-98990000D03*
%TD*%
D10*
%TO.P,SW46,1,1*%
%TO.N,/ESP32-S3/IO7*%
X390097500Y-81280000D03*
X392497500Y-81280000D03*
X390097500Y-83680000D03*
X392497500Y-83680000D03*
D11*
X391297500Y-82480000D03*
D10*
%TO.P,SW46,2,2*%
%TO.N,Net-(D55-K)*%
X403047500Y-78740000D03*
X405447500Y-78740000D03*
X403047500Y-81140000D03*
X405447500Y-81140000D03*
D12*
X404247500Y-79940000D03*
%TD*%
D10*
%TO.P,SW45,1,1*%
%TO.N,/ESP32-S3/IO7*%
X363903750Y-90805000D03*
X366303750Y-90805000D03*
X363903750Y-93205000D03*
X366303750Y-93205000D03*
D11*
X365103750Y-92005000D03*
D10*
%TO.P,SW45,2,2*%
%TO.N,Net-(D46-A)*%
X376853750Y-88265000D03*
X379253750Y-88265000D03*
X376853750Y-90665000D03*
X379253750Y-90665000D03*
D12*
X378053750Y-89465000D03*
%TD*%
D10*
%TO.P,SW44,1,1*%
%TO.N,/ESP32-S3/IO7*%
X337710000Y-81280000D03*
X340110000Y-81280000D03*
X337710000Y-83680000D03*
X340110000Y-83680000D03*
D11*
X338910000Y-82480000D03*
D10*
%TO.P,SW44,2,2*%
%TO.N,Net-(D54-K)*%
X350660000Y-78740000D03*
X353060000Y-78740000D03*
X350660000Y-81140000D03*
X353060000Y-81140000D03*
D12*
X351860000Y-79940000D03*
%TD*%
D10*
%TO.P,SW43,1,1*%
%TO.N,/ESP32-S3/IO6*%
X318660000Y-81280000D03*
X321060000Y-81280000D03*
X318660000Y-83680000D03*
X321060000Y-83680000D03*
D11*
X319860000Y-82480000D03*
D10*
%TO.P,SW43,2,2*%
%TO.N,Net-(D38-A)*%
X331610000Y-78740000D03*
X334010000Y-78740000D03*
X331610000Y-81140000D03*
X334010000Y-81140000D03*
D12*
X332810000Y-79940000D03*
%TD*%
D10*
%TO.P,SW42,1,1*%
%TO.N,/ESP32-S3/IO6*%
X299610000Y-81280000D03*
X302010000Y-81280000D03*
X299610000Y-83680000D03*
X302010000Y-83680000D03*
D11*
X300810000Y-82480000D03*
D10*
%TO.P,SW42,2,2*%
%TO.N,Net-(D37-A)*%
X312560000Y-78740000D03*
X314960000Y-78740000D03*
X312560000Y-81140000D03*
X314960000Y-81140000D03*
D12*
X313760000Y-79940000D03*
%TD*%
D10*
%TO.P,SW41,1,1*%
%TO.N,/ESP32-S3/IO6*%
X280560000Y-81280000D03*
X282960000Y-81280000D03*
X280560000Y-83680000D03*
X282960000Y-83680000D03*
D11*
X281760000Y-82480000D03*
D10*
%TO.P,SW41,2,2*%
%TO.N,Net-(D45-K)*%
X293510000Y-78740000D03*
X295910000Y-78740000D03*
X293510000Y-81140000D03*
X295910000Y-81140000D03*
D12*
X294710000Y-79940000D03*
%TD*%
D10*
%TO.P,SW40,1,1*%
%TO.N,/ESP32-S3/IO6*%
X261510000Y-81280000D03*
X263910000Y-81280000D03*
X261510000Y-83680000D03*
X263910000Y-83680000D03*
D11*
X262710000Y-82480000D03*
D10*
%TO.P,SW40,2,2*%
%TO.N,Net-(D36-A)*%
X274460000Y-78740000D03*
X276860000Y-78740000D03*
X274460000Y-81140000D03*
X276860000Y-81140000D03*
D12*
X275660000Y-79940000D03*
%TD*%
D10*
%TO.P,SW39,1,1*%
%TO.N,/ESP32-S3/IO6*%
X242460000Y-81280000D03*
X244860000Y-81280000D03*
X242460000Y-83680000D03*
X244860000Y-83680000D03*
D11*
X243660000Y-82480000D03*
D10*
%TO.P,SW39,2,2*%
%TO.N,Net-(D44-K)*%
X255410000Y-78740000D03*
X257810000Y-78740000D03*
X255410000Y-81140000D03*
X257810000Y-81140000D03*
D12*
X256610000Y-79940000D03*
%TD*%
D10*
%TO.P,SW38,1,1*%
%TO.N,/ESP32-S3/IO6*%
X223410000Y-81280000D03*
X225810000Y-81280000D03*
X223410000Y-83680000D03*
X225810000Y-83680000D03*
D11*
X224610000Y-82480000D03*
D10*
%TO.P,SW38,2,2*%
%TO.N,Net-(D35-A)*%
X236360000Y-78740000D03*
X238760000Y-78740000D03*
X236360000Y-81140000D03*
X238760000Y-81140000D03*
D12*
X237560000Y-79940000D03*
%TD*%
D10*
%TO.P,SW37,1,1*%
%TO.N,/ESP32-S3/IO6*%
X204360000Y-81280000D03*
X206760000Y-81280000D03*
X204360000Y-83680000D03*
X206760000Y-83680000D03*
D11*
X205560000Y-82480000D03*
D10*
%TO.P,SW37,2,2*%
%TO.N,Net-(D43-K)*%
X217310000Y-78740000D03*
X219710000Y-78740000D03*
X217310000Y-81140000D03*
X219710000Y-81140000D03*
D12*
X218510000Y-79940000D03*
%TD*%
D10*
%TO.P,SW36,1,1*%
%TO.N,/ESP32-S3/IO6*%
X185310000Y-81280000D03*
X187710000Y-81280000D03*
X185310000Y-83680000D03*
X187710000Y-83680000D03*
D11*
X186510000Y-82480000D03*
D10*
%TO.P,SW36,2,2*%
%TO.N,Net-(D34-A)*%
X198260000Y-78740000D03*
X200660000Y-78740000D03*
X198260000Y-81140000D03*
X200660000Y-81140000D03*
D12*
X199460000Y-79940000D03*
%TD*%
D10*
%TO.P,SW35,1,1*%
%TO.N,/ESP32-S3/IO6*%
X166260000Y-81280000D03*
X168660000Y-81280000D03*
X166260000Y-83680000D03*
X168660000Y-83680000D03*
D11*
X167460000Y-82480000D03*
D10*
%TO.P,SW35,2,2*%
%TO.N,Net-(D42-K)*%
X179210000Y-78740000D03*
X181610000Y-78740000D03*
X179210000Y-81140000D03*
X181610000Y-81140000D03*
D12*
X180410000Y-79940000D03*
%TD*%
D10*
%TO.P,SW34,1,1*%
%TO.N,/ESP32-S3/IO6*%
X147210000Y-81280000D03*
X149610000Y-81280000D03*
X147210000Y-83680000D03*
X149610000Y-83680000D03*
D11*
X148410000Y-82480000D03*
D10*
%TO.P,SW34,2,2*%
%TO.N,Net-(D33-A)*%
X160160000Y-78740000D03*
X162560000Y-78740000D03*
X160160000Y-81140000D03*
X162560000Y-81140000D03*
D12*
X161360000Y-79940000D03*
%TD*%
D10*
%TO.P,SW33,1,1*%
%TO.N,/ESP32-S3/IO6*%
X128160000Y-81280000D03*
X130560000Y-81280000D03*
X128160000Y-83680000D03*
X130560000Y-83680000D03*
D11*
X129360000Y-82480000D03*
D10*
%TO.P,SW33,2,2*%
%TO.N,Net-(D41-K)*%
X141110000Y-78740000D03*
X143510000Y-78740000D03*
X141110000Y-81140000D03*
X143510000Y-81140000D03*
D12*
X142310000Y-79940000D03*
%TD*%
D10*
%TO.P,SW32,1,1*%
%TO.N,/ESP32-S3/IO6*%
X104347500Y-81280000D03*
X106747500Y-81280000D03*
X104347500Y-83680000D03*
X106747500Y-83680000D03*
D11*
X105547500Y-82480000D03*
D10*
%TO.P,SW32,2,2*%
%TO.N,Net-(D32-A)*%
X117297500Y-78740000D03*
X119697500Y-78740000D03*
X117297500Y-81140000D03*
X119697500Y-81140000D03*
D12*
X118497500Y-79940000D03*
%TD*%
D10*
%TO.P,SW31,1,1*%
%TO.N,/ESP32-S3/IO6*%
X390097500Y-62230000D03*
X392497500Y-62230000D03*
X390097500Y-64630000D03*
X392497500Y-64630000D03*
D11*
X391297500Y-63430000D03*
D10*
%TO.P,SW31,2,2*%
%TO.N,Net-(D40-K)*%
X403047500Y-59690000D03*
X405447500Y-59690000D03*
X403047500Y-62090000D03*
X405447500Y-62090000D03*
D12*
X404247500Y-60890000D03*
%TD*%
D10*
%TO.P,SW30,1,1*%
%TO.N,/ESP32-S3/IO6*%
X366285000Y-62230000D03*
X368685000Y-62230000D03*
X366285000Y-64630000D03*
X368685000Y-64630000D03*
D11*
X367485000Y-63430000D03*
D10*
%TO.P,SW30,2,2*%
%TO.N,Net-(D31-A)*%
X379235000Y-59690000D03*
X381635000Y-59690000D03*
X379235000Y-62090000D03*
X381635000Y-62090000D03*
D12*
X380435000Y-60890000D03*
%TD*%
D10*
%TO.P,SW29,1,1*%
%TO.N,/ESP32-S3/IO6*%
X347235000Y-62230000D03*
X349635000Y-62230000D03*
X347235000Y-64630000D03*
X349635000Y-64630000D03*
D11*
X348435000Y-63430000D03*
D10*
%TO.P,SW29,2,2*%
%TO.N,Net-(D39-K)*%
X360185000Y-59690000D03*
X362585000Y-59690000D03*
X360185000Y-62090000D03*
X362585000Y-62090000D03*
D12*
X361385000Y-60890000D03*
%TD*%
D10*
%TO.P,SW28,1,1*%
%TO.N,/ESP32-S3/IO5*%
X328185000Y-62230000D03*
X330585000Y-62230000D03*
X328185000Y-64630000D03*
X330585000Y-64630000D03*
D11*
X329385000Y-63430000D03*
D10*
%TO.P,SW28,2,2*%
%TO.N,Net-(D23-A)*%
X341135000Y-59690000D03*
X343535000Y-59690000D03*
X341135000Y-62090000D03*
X343535000Y-62090000D03*
D12*
X342335000Y-60890000D03*
%TD*%
D10*
%TO.P,SW27,1,1*%
%TO.N,/ESP32-S3/IO5*%
X309135000Y-62230000D03*
X311535000Y-62230000D03*
X309135000Y-64630000D03*
X311535000Y-64630000D03*
D11*
X310335000Y-63430000D03*
D10*
%TO.P,SW27,2,2*%
%TO.N,Net-(D30-K)*%
X322085000Y-59690000D03*
X324485000Y-59690000D03*
X322085000Y-62090000D03*
X324485000Y-62090000D03*
D12*
X323285000Y-60890000D03*
%TD*%
D10*
%TO.P,SW26,1,1*%
%TO.N,/ESP32-S3/IO5*%
X290085000Y-62230000D03*
X292485000Y-62230000D03*
X290085000Y-64630000D03*
X292485000Y-64630000D03*
D11*
X291285000Y-63430000D03*
D10*
%TO.P,SW26,2,2*%
%TO.N,Net-(D22-A)*%
X303035000Y-59690000D03*
X305435000Y-59690000D03*
X303035000Y-62090000D03*
X305435000Y-62090000D03*
D12*
X304235000Y-60890000D03*
%TD*%
D10*
%TO.P,SW25,1,1*%
%TO.N,/ESP32-S3/IO5*%
X271035000Y-62230000D03*
X273435000Y-62230000D03*
X271035000Y-64630000D03*
X273435000Y-64630000D03*
D11*
X272235000Y-63430000D03*
D10*
%TO.P,SW25,2,2*%
%TO.N,Net-(D29-K)*%
X283985000Y-59690000D03*
X286385000Y-59690000D03*
X283985000Y-62090000D03*
X286385000Y-62090000D03*
D12*
X285185000Y-60890000D03*
%TD*%
D10*
%TO.P,SW24,1,1*%
%TO.N,/ESP32-S3/IO5*%
X251985000Y-62230000D03*
X254385000Y-62230000D03*
X251985000Y-64630000D03*
X254385000Y-64630000D03*
D11*
X253185000Y-63430000D03*
D10*
%TO.P,SW24,2,2*%
%TO.N,Net-(D21-A)*%
X264935000Y-59690000D03*
X267335000Y-59690000D03*
X264935000Y-62090000D03*
X267335000Y-62090000D03*
D12*
X266135000Y-60890000D03*
%TD*%
D10*
%TO.P,SW23,1,1*%
%TO.N,/ESP32-S3/IO5*%
X232935000Y-62230000D03*
X235335000Y-62230000D03*
X232935000Y-64630000D03*
X235335000Y-64630000D03*
D11*
X234135000Y-63430000D03*
D10*
%TO.P,SW23,2,2*%
%TO.N,Net-(D28-K)*%
X245885000Y-59690000D03*
X248285000Y-59690000D03*
X245885000Y-62090000D03*
X248285000Y-62090000D03*
D12*
X247085000Y-60890000D03*
%TD*%
D10*
%TO.P,SW22,1,1*%
%TO.N,/ESP32-S3/IO5*%
X213885000Y-62230000D03*
X216285000Y-62230000D03*
X213885000Y-64630000D03*
X216285000Y-64630000D03*
D11*
X215085000Y-63430000D03*
D10*
%TO.P,SW22,2,2*%
%TO.N,Net-(D20-A)*%
X226835000Y-59690000D03*
X229235000Y-59690000D03*
X226835000Y-62090000D03*
X229235000Y-62090000D03*
D12*
X228035000Y-60890000D03*
%TD*%
D10*
%TO.P,SW21,1,1*%
%TO.N,/ESP32-S3/IO5*%
X194835000Y-62230000D03*
X197235000Y-62230000D03*
X194835000Y-64630000D03*
X197235000Y-64630000D03*
D11*
X196035000Y-63430000D03*
D10*
%TO.P,SW21,2,2*%
%TO.N,Net-(D27-K)*%
X207785000Y-59690000D03*
X210185000Y-59690000D03*
X207785000Y-62090000D03*
X210185000Y-62090000D03*
D12*
X208985000Y-60890000D03*
%TD*%
D10*
%TO.P,SW20,1,1*%
%TO.N,/ESP32-S3/IO5*%
X175785000Y-62230000D03*
X178185000Y-62230000D03*
X175785000Y-64630000D03*
X178185000Y-64630000D03*
D11*
X176985000Y-63430000D03*
D10*
%TO.P,SW20,2,2*%
%TO.N,Net-(D19-A)*%
X188735000Y-59690000D03*
X191135000Y-59690000D03*
X188735000Y-62090000D03*
X191135000Y-62090000D03*
D12*
X189935000Y-60890000D03*
%TD*%
D10*
%TO.P,SW19,1,1*%
%TO.N,/ESP32-S3/IO5*%
X156735000Y-62230000D03*
X159135000Y-62230000D03*
X156735000Y-64630000D03*
X159135000Y-64630000D03*
D11*
X157935000Y-63430000D03*
D10*
%TO.P,SW19,2,2*%
%TO.N,Net-(D26-K)*%
X169685000Y-59690000D03*
X172085000Y-59690000D03*
X169685000Y-62090000D03*
X172085000Y-62090000D03*
D12*
X170885000Y-60890000D03*
%TD*%
D10*
%TO.P,SW18,1,1*%
%TO.N,/ESP32-S3/IO5*%
X137685000Y-62230000D03*
X140085000Y-62230000D03*
X137685000Y-64630000D03*
X140085000Y-64630000D03*
D11*
X138885000Y-63430000D03*
D10*
%TO.P,SW18,2,2*%
%TO.N,Net-(D18-A)*%
X150635000Y-59690000D03*
X153035000Y-59690000D03*
X150635000Y-62090000D03*
X153035000Y-62090000D03*
D12*
X151835000Y-60890000D03*
%TD*%
D10*
%TO.P,SW17,1,1*%
%TO.N,/ESP32-S3/IO5*%
X118635000Y-62230000D03*
X121035000Y-62230000D03*
X118635000Y-64630000D03*
X121035000Y-64630000D03*
D11*
X119835000Y-63430000D03*
D10*
%TO.P,SW17,2,2*%
%TO.N,Net-(D25-K)*%
X131585000Y-59690000D03*
X133985000Y-59690000D03*
X131585000Y-62090000D03*
X133985000Y-62090000D03*
D12*
X132785000Y-60890000D03*
%TD*%
D10*
%TO.P,SW16,1,1*%
%TO.N,/ESP32-S3/IO5*%
X99585000Y-62230000D03*
X101985000Y-62230000D03*
X99585000Y-64630000D03*
X101985000Y-64630000D03*
D11*
X100785000Y-63430000D03*
D10*
%TO.P,SW16,2,2*%
%TO.N,Net-(D17-A)*%
X112535000Y-59690000D03*
X114935000Y-59690000D03*
X112535000Y-62090000D03*
X114935000Y-62090000D03*
D12*
X113735000Y-60890000D03*
%TD*%
D10*
%TO.P,SW15,1,1*%
%TO.N,/ESP32-S3/IO5*%
X390097500Y-38417500D03*
X392497500Y-38417500D03*
X390097500Y-40817500D03*
X392497500Y-40817500D03*
D11*
X391297500Y-39617500D03*
D10*
%TO.P,SW15,2,2*%
%TO.N,Net-(D24-K)*%
X403047500Y-35877500D03*
X405447500Y-35877500D03*
X403047500Y-38277500D03*
X405447500Y-38277500D03*
D12*
X404247500Y-37077500D03*
%TD*%
D10*
%TO.P,SW14,1,1*%
%TO.N,/ESP32-S3/IO4*%
X366285000Y-38417500D03*
X368685000Y-38417500D03*
X366285000Y-40817500D03*
X368685000Y-40817500D03*
D11*
X367485000Y-39617500D03*
D10*
%TO.P,SW14,2,2*%
%TO.N,Net-(D9-A)*%
X379235000Y-35877500D03*
X381635000Y-35877500D03*
X379235000Y-38277500D03*
X381635000Y-38277500D03*
D12*
X380435000Y-37077500D03*
%TD*%
D10*
%TO.P,SW13,1,1*%
%TO.N,/ESP32-S3/IO4*%
X342472500Y-38417500D03*
X344872500Y-38417500D03*
X342472500Y-40817500D03*
X344872500Y-40817500D03*
D11*
X343672500Y-39617500D03*
D10*
%TO.P,SW13,2,2*%
%TO.N,Net-(D16-K)*%
X355422500Y-35877500D03*
X357822500Y-35877500D03*
X355422500Y-38277500D03*
X357822500Y-38277500D03*
D12*
X356622500Y-37077500D03*
%TD*%
D10*
%TO.P,SW12,1,1*%
%TO.N,/ESP32-S3/IO4*%
X323422500Y-38417500D03*
X325822500Y-38417500D03*
X323422500Y-40817500D03*
X325822500Y-40817500D03*
D11*
X324622500Y-39617500D03*
D10*
%TO.P,SW12,2,2*%
%TO.N,Net-(D8-A)*%
X336372500Y-35877500D03*
X338772500Y-35877500D03*
X336372500Y-38277500D03*
X338772500Y-38277500D03*
D12*
X337572500Y-37077500D03*
%TD*%
D10*
%TO.P,SW11,1,1*%
%TO.N,/ESP32-S3/IO4*%
X304372500Y-38417500D03*
X306772500Y-38417500D03*
X304372500Y-40817500D03*
X306772500Y-40817500D03*
D11*
X305572500Y-39617500D03*
D10*
%TO.P,SW11,2,2*%
%TO.N,Net-(D15-K)*%
X317322500Y-35877500D03*
X319722500Y-35877500D03*
X317322500Y-38277500D03*
X319722500Y-38277500D03*
D12*
X318522500Y-37077500D03*
%TD*%
D10*
%TO.P,SW10,1,1*%
%TO.N,/ESP32-S3/IO4*%
X285322500Y-38417500D03*
X287722500Y-38417500D03*
X285322500Y-40817500D03*
X287722500Y-40817500D03*
D11*
X286522500Y-39617500D03*
D10*
%TO.P,SW10,2,2*%
%TO.N,Net-(D7-A)*%
X298272500Y-35877500D03*
X300672500Y-35877500D03*
X298272500Y-38277500D03*
X300672500Y-38277500D03*
D12*
X299472500Y-37077500D03*
%TD*%
D10*
%TO.P,SW9,1,1*%
%TO.N,/ESP32-S3/IO4*%
X261510000Y-38417500D03*
X263910000Y-38417500D03*
X261510000Y-40817500D03*
X263910000Y-40817500D03*
D11*
X262710000Y-39617500D03*
D10*
%TO.P,SW9,2,2*%
%TO.N,Net-(D14-K)*%
X274460000Y-35877500D03*
X276860000Y-35877500D03*
X274460000Y-38277500D03*
X276860000Y-38277500D03*
D12*
X275660000Y-37077500D03*
%TD*%
D10*
%TO.P,SW8,1,1*%
%TO.N,/ESP32-S3/IO4*%
X242460000Y-38417500D03*
X244860000Y-38417500D03*
X242460000Y-40817500D03*
X244860000Y-40817500D03*
D11*
X243660000Y-39617500D03*
D10*
%TO.P,SW8,2,2*%
%TO.N,Net-(D6-A)*%
X255410000Y-35877500D03*
X257810000Y-35877500D03*
X255410000Y-38277500D03*
X257810000Y-38277500D03*
D12*
X256610000Y-37077500D03*
%TD*%
D10*
%TO.P,SW7,1,1*%
%TO.N,/ESP32-S3/IO4*%
X223410000Y-38417500D03*
X225810000Y-38417500D03*
X223410000Y-40817500D03*
X225810000Y-40817500D03*
D11*
X224610000Y-39617500D03*
D10*
%TO.P,SW7,2,2*%
%TO.N,Net-(D13-K)*%
X236360000Y-35877500D03*
X238760000Y-35877500D03*
X236360000Y-38277500D03*
X238760000Y-38277500D03*
D12*
X237560000Y-37077500D03*
%TD*%
D10*
%TO.P,SW6,1,1*%
%TO.N,/ESP32-S3/IO4*%
X204360000Y-38417500D03*
X206760000Y-38417500D03*
X204360000Y-40817500D03*
X206760000Y-40817500D03*
D11*
X205560000Y-39617500D03*
D10*
%TO.P,SW6,2,2*%
%TO.N,Net-(D5-A)*%
X217310000Y-35877500D03*
X219710000Y-35877500D03*
X217310000Y-38277500D03*
X219710000Y-38277500D03*
D12*
X218510000Y-37077500D03*
%TD*%
D10*
%TO.P,SW5,1,1*%
%TO.N,/ESP32-S3/IO4*%
X180547500Y-38417500D03*
X182947500Y-38417500D03*
X180547500Y-40817500D03*
X182947500Y-40817500D03*
D11*
X181747500Y-39617500D03*
D10*
%TO.P,SW5,2,2*%
%TO.N,Net-(D12-K)*%
X193497500Y-35877500D03*
X195897500Y-35877500D03*
X193497500Y-38277500D03*
X195897500Y-38277500D03*
D12*
X194697500Y-37077500D03*
%TD*%
D10*
%TO.P,SW4,1,1*%
%TO.N,/ESP32-S3/IO4*%
X161497500Y-38417500D03*
X163897500Y-38417500D03*
X161497500Y-40817500D03*
X163897500Y-40817500D03*
D11*
X162697500Y-39617500D03*
D10*
%TO.P,SW4,2,2*%
%TO.N,Net-(D4-A)*%
X174447500Y-35877500D03*
X176847500Y-35877500D03*
X174447500Y-38277500D03*
X176847500Y-38277500D03*
D12*
X175647500Y-37077500D03*
%TD*%
D10*
%TO.P,SW3,1,1*%
%TO.N,/ESP32-S3/IO4*%
X142447500Y-38417500D03*
X144847500Y-38417500D03*
X142447500Y-40817500D03*
X144847500Y-40817500D03*
D11*
X143647500Y-39617500D03*
D10*
%TO.P,SW3,2,2*%
%TO.N,Net-(D11-K)*%
X155397500Y-35877500D03*
X157797500Y-35877500D03*
X155397500Y-38277500D03*
X157797500Y-38277500D03*
D12*
X156597500Y-37077500D03*
%TD*%
D10*
%TO.P,SW2,1,1*%
%TO.N,/ESP32-S3/IO4*%
X123397500Y-38417500D03*
X125797500Y-38417500D03*
X123397500Y-40817500D03*
X125797500Y-40817500D03*
D11*
X124597500Y-39617500D03*
D10*
%TO.P,SW2,2,2*%
%TO.N,Net-(D3-A)*%
X136347500Y-35877500D03*
X138747500Y-35877500D03*
X136347500Y-38277500D03*
X138747500Y-38277500D03*
D12*
X137547500Y-37077500D03*
%TD*%
D10*
%TO.P,SW1,1,1*%
%TO.N,/ESP32-S3/IO4*%
X99585000Y-38417500D03*
X101985000Y-38417500D03*
X99585000Y-40817500D03*
X101985000Y-40817500D03*
D11*
X100785000Y-39617500D03*
D10*
%TO.P,SW1,2,2*%
%TO.N,Net-(D10-K)*%
X112535000Y-35877500D03*
X114935000Y-35877500D03*
X112535000Y-38277500D03*
X114935000Y-38277500D03*
D12*
X113735000Y-37077500D03*
%TD*%
D13*
%TO.P,EN2,S2,S2*%
%TO.N,/ESP32-S3/enc2_SW_IO48*%
X90820000Y-88340000D03*
%TO.P,EN2,S1,S1*%
%TO.N,+3.3V*%
X90820000Y-83340000D03*
D14*
%TO.P,EN2,MP*%
%TO.N,N/C*%
X83820000Y-91440000D03*
X83820000Y-80240000D03*
D13*
%TO.P,EN2,C,C*%
%TO.N,GND*%
X76320000Y-85840000D03*
%TO.P,EN2,B,B*%
%TO.N,Net-(EN2-PadB)*%
X76320000Y-88340000D03*
%TO.P,EN2,A,A*%
%TO.N,Net-(EN2-PadA)*%
X76320000Y-83340000D03*
%TD*%
D15*
%TO.P,S1,4*%
%TO.N,/ESP32-S3/en*%
X65245000Y-56616600D03*
%TO.P,S1,3*%
X61095000Y-56616600D03*
%TO.P,S1,2*%
%TO.N,GND*%
X65245000Y-54466600D03*
%TO.P,S1,1*%
X61095000Y-54466600D03*
%TD*%
D16*
%TO.P,C6,2*%
%TO.N,GND*%
X57836000Y-54552100D03*
%TO.P,C6,1*%
%TO.N,/ESP32-S3/IO0*%
X57836000Y-56277100D03*
%TD*%
D13*
%TO.P,EN3,S2,S2*%
%TO.N,/ESP32-S3/enc3_SW_IO47*%
X66273000Y-115840000D03*
%TO.P,EN3,S1,S1*%
%TO.N,+3.3V*%
X61273000Y-115840000D03*
D17*
%TO.P,EN3,MP*%
%TO.N,N/C*%
X69373000Y-122840000D03*
X58173000Y-122840000D03*
D13*
%TO.P,EN3,C,C*%
%TO.N,GND*%
X63773000Y-130340000D03*
%TO.P,EN3,B,B*%
%TO.N,Net-(EN3-PadB)*%
X66273000Y-130340000D03*
%TO.P,EN3,A,A*%
%TO.N,Net-(EN3-PadA)*%
X61273000Y-130340000D03*
%TD*%
D18*
%TO.P,D1,2,A*%
%TO.N,Net-(D1-A)*%
X39171000Y-55740000D03*
%TO.P,D1,1,K*%
%TO.N,GND*%
X39171000Y-53990000D03*
%TD*%
D16*
%TO.P,C4,2*%
%TO.N,GND*%
X59360000Y-54552100D03*
%TO.P,C4,1*%
%TO.N,/ESP32-S3/en*%
X59360000Y-56277100D03*
%TD*%
D19*
%TO.P,R11,2*%
%TO.N,+3.3V*%
X66853000Y-54629100D03*
%TO.P,R11,1*%
%TO.N,/ESP32-S3/en*%
X66853000Y-56454100D03*
%TD*%
D18*
%TO.P,D2,2,A*%
%TO.N,Net-(D2-A)*%
X35996000Y-55754000D03*
%TO.P,D2,1,K*%
%TO.N,GND*%
X35996000Y-54004000D03*
%TD*%
D13*
%TO.P,EN1,S2,S2*%
%TO.N,/ESP32-S3/enc1_SW_IO38*%
X36773000Y-83340000D03*
%TO.P,EN1,S1,S1*%
%TO.N,+3.3V*%
X36773000Y-88340000D03*
D14*
%TO.P,EN1,MP*%
%TO.N,N/C*%
X43773000Y-80240000D03*
X43773000Y-91440000D03*
D13*
%TO.P,EN1,C,C*%
%TO.N,GND*%
X51273000Y-85840000D03*
%TO.P,EN1,B,B*%
%TO.N,Net-(EN1-PadB)*%
X51273000Y-83340000D03*
%TO.P,EN1,A,A*%
%TO.N,Net-(EN1-PadA)*%
X51273000Y-88340000D03*
%TD*%
D15*
%TO.P,S2,4*%
%TO.N,/ESP32-S3/IO0*%
X56101000Y-56489600D03*
%TO.P,S2,3*%
X51951000Y-56489600D03*
%TO.P,S2,2*%
%TO.N,GND*%
X56101000Y-54339600D03*
%TO.P,S2,1*%
X51951000Y-54339600D03*
%TD*%
D20*
%TO.P,J2,S1,SHIELD*%
%TO.N,GND*%
X46443000Y-59635000D03*
D21*
X46443000Y-55455000D03*
D20*
X37803000Y-59635000D03*
D21*
X37803000Y-55455000D03*
%TD*%
D22*
%TO.P,J1,2,Pin_2*%
%TO.N,Net-(J1-Pin_2)*%
X33324000Y-61102000D03*
D23*
%TO.P,J1,1,Pin_1*%
%TO.N,GND*%
X30784000Y-61102000D03*
%TD*%
D24*
%TO.P,U4,41,GND*%
%TO.N,GND*%
X58969000Y-60857600D03*
X58969000Y-62257600D03*
X59669000Y-60157600D03*
X59669000Y-61557600D03*
X59669000Y-62957600D03*
X60369000Y-60857600D03*
X60369000Y-62257600D03*
X61069000Y-60157600D03*
X61069000Y-61557600D03*
X61069000Y-62957600D03*
X61769000Y-60857600D03*
X61769000Y-62257600D03*
%TD*%
D25*
%TO.N,GND*%
X62132600Y-85536800D03*
X59592600Y-116118400D03*
X32313000Y-141620000D03*
X51951000Y-54339600D03*
X65245000Y-54466600D03*
X67517400Y-92344000D03*
X34700600Y-59933600D03*
X44809800Y-65064400D03*
X55376200Y-78374000D03*
X56595400Y-57596800D03*
X87278600Y-88432400D03*
X57255800Y-65216800D03*
X62386600Y-81320400D03*
X36326200Y-85435200D03*
X67669800Y-79644000D03*
X73867400Y-79644000D03*
X52633000Y-141620000D03*
X55935000Y-92090000D03*
X51566200Y-80202800D03*
X86059400Y-80914000D03*
X39475800Y-62829200D03*
X83773400Y-88584800D03*
X35996000Y-54004000D03*
X65434600Y-69636400D03*
X36528300Y-72481200D03*
X32313000Y-85740000D03*
X65383800Y-58308000D03*
X49889800Y-80101200D03*
X54411000Y-59527200D03*
X63809000Y-104028000D03*
X36908000Y-79404000D03*
X57865400Y-101081600D03*
X41761800Y-70754000D03*
X78033000Y-60340000D03*
X42676200Y-74157600D03*
X56189000Y-54339600D03*
X46283000Y-82438000D03*
X69520000Y-54171100D03*
X61116600Y-54466600D03*
X65180600Y-65013600D03*
X54360200Y-82996800D03*
X95813000Y-78120000D03*
X78287000Y-85689200D03*
X55122200Y-105145600D03*
X59948200Y-79593200D03*
X73867400Y-88737200D03*
X95813000Y-141620000D03*
X55274600Y-112105200D03*
X73765800Y-81422000D03*
X48111800Y-79796400D03*
X95813000Y-60340000D03*
X54157000Y-69382400D03*
X58170200Y-125668800D03*
X95813000Y-121300000D03*
X64418600Y-79644000D03*
X47481400Y-88431900D03*
X49966000Y-86959200D03*
X41609400Y-68772800D03*
X49940600Y-84698600D03*
X32313000Y-121300000D03*
X57205000Y-69636400D03*
X40847400Y-58892200D03*
X75493000Y-75580000D03*
X41152200Y-90870800D03*
X58779800Y-88940400D03*
X41203000Y-64099200D03*
X42879400Y-56225200D03*
X58932200Y-81828400D03*
X54207800Y-64759600D03*
X49788200Y-77104000D03*
X32313000Y-103520000D03*
X95813000Y-103520000D03*
X75493000Y-141620000D03*
X54004600Y-89042000D03*
X75493000Y-121300000D03*
X54004600Y-93918800D03*
X31144600Y-65928000D03*
X33430600Y-71820800D03*
X81385800Y-90972400D03*
X81385800Y-79745600D03*
X57611400Y-117490000D03*
X75493000Y-103520000D03*
X54157000Y-97627200D03*
X50855000Y-92090000D03*
X43184200Y-82311000D03*
X44809800Y-66588400D03*
X57814600Y-84978000D03*
X45323000Y-60210000D03*
X52633000Y-121300000D03*
X35444800Y-63663650D03*
X57154200Y-60594000D03*
X39171000Y-53990000D03*
X34853000Y-62067200D03*
X62335800Y-124856000D03*
D26*
%TO.N,+3.3V*%
X62412000Y-123306600D03*
X57383000Y-128411500D03*
D27*
X52074200Y-93664800D03*
D26*
X75264000Y-90335800D03*
D25*
X67619000Y-55107600D03*
D27*
X69496050Y-55872150D03*
D26*
%TO.N,VDD*%
X38830600Y-70669450D03*
X41838000Y-69738000D03*
%TO.N,/ESP32-S3/en*%
X55074000Y-76646800D03*
X46283000Y-74564000D03*
X65245000Y-56616600D03*
X46537000Y-76103000D03*
%TO.N,/ESP32-S3/IO0*%
X51951000Y-56489600D03*
X50119000Y-70347600D03*
X49977800Y-73764800D03*
%TO.N,Net-(D1-A)*%
X39171000Y-55740000D03*
%TO.N,Net-(D2-A)*%
X35996000Y-55768000D03*
D25*
%TO.N,/ESP32-S3/D+*%
X42940379Y-61256074D03*
D26*
X44188000Y-63320000D03*
D25*
%TO.N,/ESP32-S3/DTR*%
X43997000Y-65293000D03*
D26*
X42969250Y-70511750D03*
%TO.N,Net-(Q2-G)*%
X46363000Y-70500000D03*
X42920000Y-72278000D03*
D27*
%TO.N,/ESP32-S3/enc1_A_IO41*%
X50119000Y-61457600D03*
X49005400Y-90206900D03*
%TO.N,/ESP32-S3/enc1_B_IO42*%
X50119000Y-60187600D03*
X47299000Y-79009000D03*
D25*
%TO.N,/ESP32-S3/enc2_A_IO39*%
X50208000Y-63997600D03*
X52248000Y-72797602D03*
D26*
%TO.N,/ESP32-S3/RX*%
X46188000Y-68468000D03*
X50119000Y-58917600D03*
D25*
%TO.N,/ESP32-S3/enc2_B_IO40*%
X50119000Y-62727600D03*
X50759000Y-76799200D03*
%TO.N,/ESP32-S3/enc3_A_IO2*%
X51359000Y-78124000D03*
X51359000Y-66172128D03*
D26*
%TO.N,/ESP32-S3/TX*%
X50119000Y-57647600D03*
X45188000Y-68468000D03*
%TO.N,/ESP32-S3/enc3_B_IO1*%
X53293400Y-69990200D03*
X66627500Y-128308000D03*
X55808000Y-114061000D03*
X53313499Y-81751134D03*
D25*
%TO.N,/ESP32-S3/enc1_SW_IO38*%
X47984800Y-76672200D03*
D26*
X48271012Y-67130500D03*
D25*
%TO.N,/ESP32-S3/enc3_SW_IO47*%
X54411000Y-80152000D03*
X54424000Y-71597600D03*
D26*
%TO.N,Net-(Q3-E)*%
X35996000Y-57593000D03*
D27*
X37367600Y-65352750D03*
D26*
X44523000Y-60520000D03*
X39723000Y-60520000D03*
%TD*%
D28*
%TO.N,GND*%
X59445500Y-54466600D02*
X59360000Y-54552100D01*
X57623500Y-54339600D02*
X57836000Y-54552100D01*
X51951000Y-54339600D02*
X56101000Y-54339600D01*
X65245000Y-54466600D02*
X61116600Y-54466600D01*
X61116600Y-54466600D02*
X61095000Y-54466600D01*
X56101000Y-54339600D02*
X56189000Y-54339600D01*
X61095000Y-54466600D02*
X59445500Y-54466600D01*
X56189000Y-54339600D02*
X57623500Y-54339600D01*
%TO.N,+3.3V*%
X67140500Y-54629100D02*
X67619000Y-55107600D01*
D29*
X55403200Y-90335800D02*
X52074200Y-93664800D01*
D28*
X66853000Y-54629100D02*
X67140500Y-54629100D01*
X61273000Y-115840000D02*
X61273000Y-102863600D01*
X84356000Y-89804000D02*
X75795800Y-89804000D01*
D29*
X55403200Y-90335800D02*
X69498600Y-76240400D01*
D28*
X57383000Y-128386400D02*
X57383000Y-128411500D01*
X62412000Y-123306600D02*
X62412000Y-123357400D01*
X75795800Y-89804000D02*
X75264000Y-90335800D01*
D30*
X69498600Y-55874700D02*
X69496050Y-55872150D01*
D29*
X69498600Y-76240400D02*
X69498600Y-55874700D01*
D28*
X61273000Y-102863600D02*
X52074200Y-93664800D01*
D29*
X75264000Y-90335800D02*
X55403200Y-90335800D01*
D28*
X90820000Y-83340000D02*
X84356000Y-89804000D01*
X62412000Y-123357400D02*
X57383000Y-128386400D01*
%TO.N,VDD*%
X39762050Y-69738000D02*
X38830600Y-70669450D01*
X41838000Y-69738000D02*
X39762050Y-69738000D01*
%TO.N,/ESP32-S3/en*%
X59699500Y-56616600D02*
X59360000Y-56277100D01*
X61095000Y-56616600D02*
X59699500Y-56616600D01*
X46283000Y-74564000D02*
X46283000Y-75849000D01*
X55074000Y-60563100D02*
X59360000Y-56277100D01*
X66690500Y-56616600D02*
X66853000Y-56454100D01*
X46283000Y-75849000D02*
X46537000Y-76103000D01*
X61095000Y-56616600D02*
X65245000Y-56616600D01*
X65245000Y-56616600D02*
X66690500Y-56616600D01*
X55074000Y-76646800D02*
X55074000Y-60563100D01*
%TO.N,/ESP32-S3/IO0*%
X49977800Y-73764800D02*
X50143800Y-73598800D01*
X50143800Y-70372400D02*
X50119000Y-70347600D01*
X50143800Y-73598800D02*
X50143800Y-70372400D01*
X56101000Y-56489600D02*
X51951000Y-56489600D01*
X56101000Y-56489600D02*
X57623500Y-56489600D01*
X57623500Y-56489600D02*
X57836000Y-56277100D01*
D31*
%TO.N,/ESP32-S3/D+*%
X42930200Y-61266253D02*
X42940379Y-61256074D01*
X42930200Y-62062200D02*
X44188000Y-63320000D01*
X42930200Y-62062200D02*
X42930200Y-61266253D01*
D28*
%TO.N,/ESP32-S3/DTR*%
X42969250Y-66320750D02*
X42969250Y-70511750D01*
X43997000Y-65293000D02*
X42969250Y-66320750D01*
%TO.N,Net-(Q2-G)*%
X44698000Y-70500000D02*
X42920000Y-72278000D01*
X46363000Y-70500000D02*
X44698000Y-70500000D01*
%TO.N,/ESP32-S3/enc1_A_IO41*%
X48924600Y-90126100D02*
X49005400Y-90206900D01*
X50119000Y-61457600D02*
X48920600Y-62656000D01*
X48920600Y-62656000D02*
X48924600Y-62660000D01*
X48924600Y-62660000D02*
X48924600Y-90126100D01*
%TO.N,/ESP32-S3/enc1_B_IO42*%
X47248200Y-78958200D02*
X47248200Y-63066400D01*
X47244200Y-63062400D02*
X50119000Y-60187600D01*
X47299000Y-79009000D02*
X47248200Y-78958200D01*
X47248200Y-63066400D02*
X47244200Y-63062400D01*
D32*
%TO.N,/ESP32-S3/enc2_A_IO39*%
X52248000Y-66037600D02*
X50208000Y-63997600D01*
X52248000Y-72797602D02*
X52248000Y-66037600D01*
D28*
%TO.N,/ESP32-S3/RX*%
X46486200Y-68169800D02*
X46486200Y-63304800D01*
X46486200Y-63304800D02*
X46184000Y-63002600D01*
X50119000Y-59067600D02*
X50119000Y-58917600D01*
X46188000Y-68468000D02*
X46486200Y-68169800D01*
X46184000Y-63002600D02*
X50119000Y-59067600D01*
D32*
%TO.N,/ESP32-S3/enc2_B_IO40*%
X49377800Y-63468800D02*
X50119000Y-62727600D01*
X50759000Y-76799200D02*
X49377800Y-75418000D01*
X49377800Y-75418000D02*
X49377800Y-63468800D01*
D28*
%TO.N,/ESP32-S3/enc3_A_IO2*%
X51359000Y-66172128D02*
X51359000Y-78124000D01*
%TO.N,/ESP32-S3/TX*%
X45188000Y-68468000D02*
X45521000Y-68135000D01*
X45521000Y-62309082D02*
X50119000Y-57711082D01*
X45521000Y-68135000D02*
X45521000Y-62309082D01*
X50119000Y-57711082D02*
X50119000Y-57647600D01*
%TO.N,/ESP32-S3/enc3_B_IO1*%
X55808000Y-114061000D02*
X66627500Y-124880500D01*
X53313499Y-70010299D02*
X53313499Y-81751134D01*
X66627500Y-124880500D02*
X66627500Y-128308000D01*
X53293400Y-69990200D02*
X53313499Y-70010299D01*
%TO.N,/ESP32-S3/enc1_SW_IO38*%
X48271012Y-67130500D02*
X48010200Y-67391312D01*
X48010200Y-76646800D02*
X47984800Y-76672200D01*
X48010200Y-67391312D02*
X48010200Y-76646800D01*
%TO.N,/ESP32-S3/enc3_SW_IO47*%
X54411000Y-80152000D02*
X54424000Y-80139000D01*
X54424000Y-80139000D02*
X54424000Y-71597600D01*
D33*
%TO.N,Net-(Q3-E)*%
X44523000Y-60520000D02*
X43987400Y-59984400D01*
D31*
X40030000Y-58862200D02*
X40030000Y-60213000D01*
D33*
X40258600Y-59984400D02*
X40030000Y-60213000D01*
D29*
X37367600Y-62875400D02*
X39723000Y-60520000D01*
D31*
X38760800Y-57593000D02*
X40030000Y-58862200D01*
D33*
X43987400Y-59984400D02*
X40258600Y-59984400D01*
D29*
X37367600Y-65352750D02*
X37367600Y-62875400D01*
D31*
X35996000Y-57593000D02*
X38760800Y-57593000D01*
D33*
X40030000Y-60213000D02*
X39723000Y-60520000D01*
%TD*%
M02*
