M48
; DRILL file {KiCad 8.0.5} date 2025-01-01T22:16:47+0900
; FORMAT={-:-/ absolute / inch / decimal}
; #@! TF.CreationDate,2025-01-01T22:16:47+09:00
; #@! TF.GenerationSoftware,Kicad,Pcbnew,8.0.5
; #@! TF.FileFunction,Plated,1,2,PTH
FMAT,2
INCH
; #@! TA.AperFunction,Plated,PTH,ComponentDrill
T1C0.0098
; #@! TA.AperFunction,Plated,PTH,ViaDrill
T2C0.0118
; #@! TA.AperFunction,Plated,PTH,ComponentDrill
T3C0.0118
; #@! TA.AperFunction,Plated,PTH,ViaDrill
T4C0.0157
; #@! TA.AperFunction,Plated,PTH,ComponentDrill
T5C0.0236
; #@! TA.AperFunction,Plated,PTH,ComponentDrill
T6C0.0394
; #@! TA.AperFunction,Plated,PTH,ComponentDrill
T7C0.0591
%
G90
G05
T1
X2.3216Y-2.396
X2.3216Y-2.4511
X2.3492Y-2.3684
X2.3492Y-2.4235
X2.3492Y-2.4786
X2.3767Y-2.396
X2.3767Y-2.4511
X2.4043Y-2.3684
X2.4043Y-2.4235
X2.4043Y-2.4786
X2.4319Y-2.396
X2.4319Y-2.4511
T2
X1.2262Y-2.5956
X1.2722Y-3.3756
X1.2722Y-4.0756
X1.2722Y-4.7756
X1.2722Y-5.5756
X1.3162Y-2.8276
X1.3662Y-2.3596
X1.3722Y-2.4436
X1.3955Y-2.5064
X1.4172Y-2.1261
X1.4172Y-2.1956
X1.4172Y-2.2674
X1.4302Y-3.3636
X1.4381Y-2.8536
X1.4531Y-3.1261
X1.5288Y-2.7823
X1.5422Y-2.1256
X1.5422Y-2.1945
X1.5542Y-2.4736
X1.5639Y-2.3827
X1.6082Y-2.3186
X1.6202Y-3.5776
X1.6222Y-2.5236
X1.6382Y-2.7076
X1.6442Y-2.7856
X1.6472Y-2.7456
X1.6802Y-2.9196
X1.6882Y-2.2136
X1.6898Y-2.8456
X1.6906Y-2.4117
X1.6917Y-2.7761
X1.7002Y-3.2406
X1.7322Y-2.5706
X1.7397Y-2.4929
X1.7529Y-2.3827
X1.7642Y-2.5616
X1.7642Y-2.6216
X1.7791Y-2.6956
X1.7844Y-2.3705
X1.8184Y-2.6956
X1.8222Y-2.9356
X1.8222Y-3.2456
X1.8253Y-2.7756
X1.8322Y-2.9962
X1.8693Y-3.4816
X1.8892Y-3.0186
X1.8942Y-3.1416
X1.9004Y-2.6429
X1.9602Y-3.0356
X1.9642Y-3.1536
X1.9662Y-3.3346
X1.9672Y-3.4236
X1.9676Y-2.9041
X1.9732Y-2.2696
X1.9732Y-2.3196
X1.9732Y-2.4696
X1.9732Y-2.7696
X1.9767Y-2.5196
X1.9984Y-3.0236
X2.0022Y-3.6256
X2.022Y-2.6052
X2.022Y-3.0757
X2.0302Y-3.1576
X2.0453Y-2.1394
X2.0453Y-2.224
X2.057Y-2.866
X2.0722Y-4.7756
X2.0722Y-5.5756
X2.0982Y-2.7555
X2.099Y-3.2185
X2.1262Y-3.5056
X2.1262Y-3.6976
X2.1322Y-2.7316
X2.1322Y-3.8436
X2.1342Y-2.5496
X2.1402Y-3.2676
X2.1422Y-2.3436
X2.1422Y-3.1556
X2.1427Y-2.8188
X2.1683Y-3.0176
X2.1702Y-4.1396
X2.1762Y-4.4136
X2.1802Y-3.0856
X2.1972Y-4.4906
X2.2022Y-3.6256
X2.2122Y-2.1394
X2.2282Y-2.2676
X2.2502Y-2.3856
X2.2522Y-2.7416
X2.2542Y-2.5676
X2.2592Y-5.0556
X2.2682Y-4.6256
X2.2762Y-3.3456
X2.2782Y-3.9796
X2.2902Y-4.9476
X2.3142Y-3.5016
X2.3202Y-3.2216
X2.3462Y-4.5716
X2.3602Y-3.1336
X2.4062Y-2.1444
X2.4462Y-3.3676
X2.4542Y-4.9156
X2.4562Y-3.2016
X2.4572Y-4.8546
X2.5122Y-4.0956
X2.5362Y-3.1356
X2.5662Y-2.5596
X2.5687Y-2.1444
X2.5687Y-2.229
X2.5742Y-2.2956
X2.5762Y-2.7416
X2.6231Y-5.0515
X2.6582Y-3.6356
X2.6622Y-2.1696
X2.6642Y-3.1356
X2.737Y-2.1327
X2.9042Y-3.2056
X2.9082Y-3.1356
X2.9082Y-3.4936
X2.9631Y-3.5565
X2.9722Y-2.9756
X2.9722Y-4.0756
X2.9722Y-4.7756
X2.9722Y-5.5756
X3.0722Y-2.3756
X3.0822Y-3.3736
X3.2042Y-3.1396
X3.2042Y-3.5816
X3.2982Y-3.4876
X3.3882Y-3.1856
X3.4362Y-3.4816
X3.7722Y-2.3756
X3.7722Y-3.0756
X3.7722Y-4.0756
X3.7722Y-4.7756
X3.7722Y-5.5756
T3
X3.9207Y-1.5125
X3.9207Y-1.607
X3.9207Y-2.45
X3.9207Y-2.5445
X4.0144Y-5.45
X4.0144Y-5.5445
X4.0152Y-1.5125
X4.0152Y-1.607
X4.0152Y-2.45
X4.0152Y-2.5445
X4.1082Y-3.2
X4.1082Y-3.2945
X4.1089Y-5.45
X4.1089Y-5.5445
X4.2019Y-3.95
X4.2019Y-4.0445
X4.2027Y-3.2
X4.2027Y-3.2945
X4.2957Y-4.7
X4.2957Y-4.7945
X4.2964Y-3.95
X4.2964Y-4.0445
X4.3902Y-4.7
X4.3902Y-4.7945
X4.4305Y-1.4125
X4.4305Y-1.507
X4.4305Y-2.35
X4.4305Y-2.4445
X4.5243Y-5.35
X4.5243Y-5.4445
X4.525Y-1.4125
X4.525Y-1.507
X4.525Y-2.35
X4.525Y-2.4445
X4.618Y-3.1
X4.618Y-3.1945
X4.6187Y-5.35
X4.6187Y-5.4445
X4.6707Y-2.45
X4.6707Y-2.5445
X4.7118Y-3.85
X4.7118Y-3.9445
X4.7125Y-3.1
X4.7125Y-3.1945
X4.7652Y-2.45
X4.7652Y-2.5445
X4.8055Y-4.6
X4.8055Y-4.6945
X4.8062Y-3.85
X4.8062Y-3.9445
X4.8582Y-1.5125
X4.8582Y-1.607
X4.9Y-4.6
X4.9Y-4.6945
X4.9527Y-1.5125
X4.9527Y-1.607
X5.0457Y-3.2
X5.0457Y-3.2945
X5.0457Y-5.45
X5.0457Y-5.5445
X5.1402Y-3.2
X5.1402Y-3.2945
X5.1402Y-5.45
X5.1402Y-5.5445
X5.1805Y-2.35
X5.1805Y-2.4445
X5.2332Y-3.95
X5.2332Y-4.0445
X5.275Y-2.35
X5.275Y-2.4445
X5.3277Y-3.95
X5.3277Y-4.0445
X5.368Y-1.4125
X5.368Y-1.507
X5.4207Y-2.45
X5.4207Y-2.5445
X5.4207Y-4.7
X5.4207Y-4.7945
X5.4625Y-1.4125
X5.4625Y-1.507
X5.5152Y-2.45
X5.5152Y-2.5445
X5.5152Y-4.7
X5.5152Y-4.7945
X5.5555Y-3.1
X5.5555Y-3.1945
X5.5555Y-5.35
X5.5555Y-5.4445
X5.6082Y-1.5125
X5.6082Y-1.607
X5.65Y-3.1
X5.65Y-3.1945
X5.65Y-5.35
X5.65Y-5.4445
X5.7027Y-1.5125
X5.7027Y-1.607
X5.743Y-3.85
X5.743Y-3.9445
X5.7957Y-3.2
X5.7957Y-3.2945
X5.7957Y-5.45
X5.7957Y-5.5445
X5.8375Y-3.85
X5.8375Y-3.9445
X5.8902Y-3.2
X5.8902Y-3.2945
X5.8902Y-5.45
X5.8902Y-5.5445
X5.9305Y-2.35
X5.9305Y-2.4445
X5.9305Y-4.6
X5.9305Y-4.6945
X5.9832Y-3.95
X5.9832Y-4.0445
X6.025Y-2.35
X6.025Y-2.4445
X6.025Y-4.6
X6.025Y-4.6945
X6.0777Y-3.95
X6.0777Y-4.0445
X6.118Y-1.4125
X6.118Y-1.507
X6.1707Y-2.45
X6.1707Y-2.5445
X6.1707Y-4.7
X6.1707Y-4.7945
X6.2125Y-1.4125
X6.2125Y-1.507
X6.2652Y-2.45
X6.2652Y-2.5445
X6.2652Y-4.7
X6.2652Y-4.7945
X6.3055Y-3.1
X6.3055Y-3.1945
X6.3055Y-5.35
X6.3055Y-5.4445
X6.3582Y-1.5125
X6.3582Y-1.607
X6.4Y-3.1
X6.4Y-3.1945
X6.4Y-5.35
X6.4Y-5.4445
X6.4527Y-1.5125
X6.4527Y-1.607
X6.493Y-3.85
X6.493Y-3.9445
X6.5457Y-3.2
X6.5457Y-3.2945
X6.5457Y-5.45
X6.5457Y-5.5445
X6.5875Y-3.85
X6.5875Y-3.9445
X6.6402Y-3.2
X6.6402Y-3.2945
X6.6402Y-5.45
X6.6402Y-5.5445
X6.6805Y-2.35
X6.6805Y-2.4445
X6.6805Y-4.6
X6.6805Y-4.6945
X6.7332Y-3.95
X6.7332Y-4.0445
X6.775Y-2.35
X6.775Y-2.4445
X6.775Y-4.6
X6.775Y-4.6945
X6.8277Y-3.95
X6.8277Y-4.0445
X6.868Y-1.4125
X6.868Y-1.507
X6.9207Y-2.45
X6.9207Y-2.5445
X6.9207Y-4.7
X6.9207Y-4.7945
X6.9625Y-1.4125
X6.9625Y-1.507
X7.0152Y-2.45
X7.0152Y-2.5445
X7.0152Y-4.7
X7.0152Y-4.7945
X7.0555Y-3.1
X7.0555Y-3.1945
X7.0555Y-5.35
X7.0555Y-5.4445
X7.1082Y-1.5125
X7.1082Y-1.607
X7.15Y-3.1
X7.15Y-3.1945
X7.15Y-5.35
X7.15Y-5.4445
X7.2027Y-1.5125
X7.2027Y-1.607
X7.243Y-3.85
X7.243Y-3.9445
X7.2957Y-3.2
X7.2957Y-3.2945
X7.2957Y-5.45
X7.2957Y-5.5445
X7.3375Y-3.85
X7.3375Y-3.9445
X7.3902Y-3.2
X7.3902Y-3.2945
X7.3902Y-5.45
X7.3902Y-5.5445
X7.4305Y-2.35
X7.4305Y-2.4445
X7.4305Y-4.6
X7.4305Y-4.6945
X7.4832Y-3.95
X7.4832Y-4.0445
X7.525Y-2.35
X7.525Y-2.4445
X7.525Y-4.6
X7.525Y-4.6945
X7.5777Y-3.95
X7.5777Y-4.0445
X7.618Y-1.4125
X7.618Y-1.507
X7.6707Y-2.45
X7.6707Y-2.5445
X7.6707Y-4.7
X7.6707Y-4.7945
X7.7125Y-1.4125
X7.7125Y-1.507
X7.7652Y-2.45
X7.7652Y-2.5445
X7.7652Y-4.7
X7.7652Y-4.7945
X7.8055Y-3.1
X7.8055Y-3.1945
X7.8055Y-5.35
X7.8055Y-5.4445
X7.9Y-3.1
X7.9Y-3.1945
X7.9Y-5.35
X7.9Y-5.4445
X7.993Y-3.85
X7.993Y-3.9445
X8.0457Y-1.5125
X8.0457Y-1.607
X8.0457Y-3.2
X8.0457Y-3.2945
X8.0875Y-3.85
X8.0875Y-3.9445
X8.1402Y-1.5125
X8.1402Y-1.607
X8.1402Y-3.2
X8.1402Y-3.2945
X8.1805Y-2.35
X8.1805Y-2.4445
X8.1805Y-4.6
X8.1805Y-4.6945
X8.2332Y-3.95
X8.2332Y-4.0445
X8.275Y-2.35
X8.275Y-2.4445
X8.275Y-4.6
X8.275Y-4.6945
X8.3277Y-3.95
X8.3277Y-4.0445
X8.4207Y-2.45
X8.4207Y-2.5445
X8.4207Y-4.7
X8.4207Y-4.7945
X8.5152Y-2.45
X8.5152Y-2.5445
X8.5152Y-4.7
X8.5152Y-4.7945
X8.5555Y-1.4125
X8.5555Y-1.507
X8.5555Y-3.1
X8.5555Y-3.1945
X8.65Y-1.4125
X8.65Y-1.507
X8.65Y-3.1
X8.65Y-3.1945
X8.743Y-3.85
X8.743Y-3.9445
X8.7957Y-1.5125
X8.7957Y-1.607
X8.7957Y-3.2
X8.7957Y-3.2945
X8.8375Y-3.85
X8.8375Y-3.9445
X8.8894Y-5.45
X8.8894Y-5.5445
X8.8902Y-1.5125
X8.8902Y-1.607
X8.8902Y-3.2
X8.8902Y-3.2945
X8.9305Y-2.35
X8.9305Y-2.4445
X8.9305Y-4.6
X8.9305Y-4.6945
X8.9832Y-3.95
X8.9832Y-4.0445
X8.9839Y-5.45
X8.9839Y-5.5445
X9.025Y-2.35
X9.025Y-2.4445
X9.025Y-4.6
X9.025Y-4.6945
X9.0777Y-3.95
X9.0777Y-4.0445
X9.1707Y-2.45
X9.1707Y-2.5445
X9.1707Y-4.7
X9.1707Y-4.7945
X9.2652Y-2.45
X9.2652Y-2.5445
X9.2652Y-4.7
X9.2652Y-4.7945
X9.3055Y-1.4125
X9.3055Y-1.507
X9.3055Y-3.1
X9.3055Y-3.1945
X9.3993Y-5.35
X9.3993Y-5.4445
X9.4Y-1.4125
X9.4Y-1.507
X9.4Y-3.1
X9.4Y-3.1945
X9.493Y-3.85
X9.493Y-3.9445
X9.4938Y-5.35
X9.4938Y-5.4445
X9.5457Y-1.5125
X9.5457Y-1.607
X9.5457Y-3.2
X9.5457Y-3.2945
X9.5875Y-3.85
X9.5875Y-3.9445
X9.6402Y-1.5125
X9.6402Y-1.607
X9.6402Y-3.2
X9.6402Y-3.2945
X9.6805Y-2.35
X9.6805Y-2.4445
X9.6805Y-4.6
X9.6805Y-4.6945
X9.7332Y-3.95
X9.7332Y-4.0445
X9.775Y-2.35
X9.775Y-2.4445
X9.775Y-4.6
X9.775Y-4.6945
X9.8277Y-3.95
X9.8277Y-4.0445
X9.9207Y-2.45
X9.9207Y-2.5445
X9.9207Y-4.7
X9.9207Y-4.7945
X10.0152Y-2.45
X10.0152Y-2.5445
X10.0152Y-4.7
X10.0152Y-4.7945
X10.0555Y-1.4125
X10.0555Y-1.507
X10.0555Y-3.1
X10.0555Y-3.1945
X10.15Y-1.4125
X10.15Y-1.507
X10.15Y-3.1
X10.15Y-3.1945
X10.243Y-3.85
X10.243Y-3.9445
X10.2957Y-1.5125
X10.2957Y-1.607
X10.2957Y-3.2
X10.2957Y-3.2945
X10.3375Y-3.85
X10.3375Y-3.9445
X10.3902Y-1.5125
X10.3902Y-1.607
X10.3902Y-3.2
X10.3902Y-3.2945
X10.4305Y-2.35
X10.4305Y-2.4445
X10.4305Y-4.6
X10.4305Y-4.6945
X10.4832Y-3.95
X10.4832Y-4.0445
X10.4832Y-5.45
X10.4832Y-5.5445
X10.525Y-2.35
X10.525Y-2.4445
X10.525Y-4.6
X10.525Y-4.6945
X10.5777Y-3.95
X10.5777Y-4.0445
X10.5777Y-5.45
X10.5777Y-5.5445
X10.6707Y-2.45
X10.6707Y-2.5445
X10.6707Y-4.7
X10.6707Y-4.7945
X10.7652Y-2.45
X10.7652Y-2.5445
X10.7652Y-4.7
X10.7652Y-4.7945
X10.8055Y-1.4125
X10.8055Y-1.507
X10.8055Y-3.1
X10.8055Y-3.1945
X10.9Y-1.4125
X10.9Y-1.507
X10.9Y-3.1
X10.9Y-3.1945
X10.993Y-3.85
X10.993Y-3.9445
X10.993Y-5.35
X10.993Y-5.4445
X11.0457Y-3.2
X11.0457Y-3.2945
X11.0875Y-3.85
X11.0875Y-3.9445
X11.0875Y-5.35
X11.0875Y-5.4445
X11.1402Y-3.2
X11.1402Y-3.2945
X11.1805Y-2.35
X11.1805Y-2.4445
X11.1805Y-4.6
X11.1805Y-4.6945
X11.2332Y-1.5125
X11.2332Y-1.607
X11.2332Y-3.95
X11.2332Y-4.0445
X11.2332Y-5.45
X11.2332Y-5.5445
X11.275Y-2.35
X11.275Y-2.4445
X11.275Y-4.6
X11.275Y-4.6945
X11.3277Y-1.5125
X11.3277Y-1.607
X11.3277Y-3.95
X11.3277Y-4.0445
X11.3277Y-5.45
X11.3277Y-5.5445
X11.4207Y-2.45
X11.4207Y-2.5445
X11.4207Y-4.7
X11.4207Y-4.7945
X11.5152Y-2.45
X11.5152Y-2.5445
X11.5152Y-4.7
X11.5152Y-4.7945
X11.5555Y-3.1
X11.5555Y-3.1945
X11.65Y-3.1
X11.65Y-3.1945
X11.743Y-1.4125
X11.743Y-1.507
X11.743Y-3.85
X11.743Y-3.9445
X11.743Y-5.35
X11.743Y-5.4445
X11.7957Y-3.2
X11.7957Y-3.2945
X11.8375Y-1.4125
X11.8375Y-1.507
X11.8375Y-3.85
X11.8375Y-3.9445
X11.8375Y-5.35
X11.8375Y-5.4445
X11.8902Y-3.2
X11.8902Y-3.2945
X11.9305Y-2.35
X11.9305Y-2.4445
X11.9305Y-4.6
X11.9305Y-4.6945
X11.9832Y-1.5125
X11.9832Y-1.607
X11.9832Y-3.95
X11.9832Y-4.0445
X11.9832Y-5.45
X11.9832Y-5.5445
X12.025Y-2.35
X12.025Y-2.4445
X12.025Y-4.6
X12.025Y-4.6945
X12.0777Y-1.5125
X12.0777Y-1.607
X12.0777Y-3.95
X12.0777Y-4.0445
X12.0777Y-5.45
X12.0777Y-5.5445
X12.1707Y-2.45
X12.1707Y-2.5445
X12.1707Y-4.7
X12.1707Y-4.7945
X12.2652Y-2.45
X12.2652Y-2.5445
X12.2652Y-4.7
X12.2652Y-4.7945
X12.3055Y-3.1
X12.3055Y-3.1945
X12.4Y-3.1
X12.4Y-3.1945
X12.493Y-1.4125
X12.493Y-1.507
X12.493Y-3.85
X12.493Y-3.9445
X12.493Y-5.35
X12.493Y-5.4445
X12.5457Y-3.2
X12.5457Y-3.2945
X12.5875Y-1.4125
X12.5875Y-1.507
X12.5875Y-3.85
X12.5875Y-3.9445
X12.5875Y-5.35
X12.5875Y-5.4445
X12.6402Y-3.2
X12.6402Y-3.2945
X12.6805Y-2.35
X12.6805Y-2.4445
X12.6805Y-4.6
X12.6805Y-4.6945
X12.7332Y-1.5125
X12.7332Y-1.607
X12.7332Y-3.95
X12.7332Y-4.0445
X12.775Y-2.35
X12.775Y-2.4445
X12.775Y-4.6
X12.775Y-4.6945
X12.8277Y-1.5125
X12.8277Y-1.607
X12.8277Y-3.95
X12.8277Y-4.0445
X12.9207Y-2.45
X12.9207Y-2.5445
X12.9207Y-4.7
X12.9207Y-4.7945
X12.9207Y-5.45
X12.9207Y-5.5445
X13.0152Y-2.45
X13.0152Y-2.5445
X13.0152Y-4.7
X13.0152Y-4.7945
X13.0152Y-5.45
X13.0152Y-5.5445
X13.0555Y-3.1
X13.0555Y-3.1945
X13.15Y-3.1
X13.15Y-3.1945
X13.243Y-1.4125
X13.243Y-1.507
X13.243Y-3.85
X13.243Y-3.9445
X13.2957Y-3.2
X13.2957Y-3.2945
X13.3375Y-1.4125
X13.3375Y-1.507
X13.3375Y-3.85
X13.3375Y-3.9445
X13.3902Y-3.2
X13.3902Y-3.2945
X13.4305Y-2.35
X13.4305Y-2.4445
X13.4305Y-4.6
X13.4305Y-4.6945
X13.4305Y-5.35
X13.4305Y-5.4445
X13.4832Y-1.5125
X13.4832Y-1.607
X13.4832Y-3.95
X13.4832Y-4.0445
X13.525Y-2.35
X13.525Y-2.4445
X13.525Y-4.6
X13.525Y-4.6945
X13.525Y-5.35
X13.525Y-5.4445
X13.5777Y-1.5125
X13.5777Y-1.607
X13.5777Y-3.95
X13.5777Y-4.0445
X13.6707Y-2.45
X13.6707Y-2.5445
X13.6707Y-4.7
X13.6707Y-4.7945
X13.6707Y-5.45
X13.6707Y-5.5445
X13.7652Y-2.45
X13.7652Y-2.5445
X13.7652Y-4.7
X13.7652Y-4.7945
X13.7652Y-5.45
X13.7652Y-5.5445
X13.8055Y-3.1
X13.8055Y-3.1945
X13.9Y-3.1
X13.9Y-3.1945
X13.993Y-1.4125
X13.993Y-1.507
X13.993Y-3.85
X13.993Y-3.9445
X14.0875Y-1.4125
X14.0875Y-1.507
X14.0875Y-3.85
X14.0875Y-3.9445
X14.1805Y-2.35
X14.1805Y-2.4445
X14.1805Y-4.6
X14.1805Y-4.6945
X14.1805Y-5.35
X14.1805Y-5.4445
X14.275Y-2.35
X14.275Y-2.4445
X14.275Y-4.6
X14.275Y-4.6945
X14.275Y-5.35
X14.275Y-5.4445
X14.3269Y-3.575
X14.3269Y-3.6695
X14.4207Y-1.5125
X14.4207Y-1.607
X14.4207Y-2.45
X14.4207Y-2.5445
X14.4207Y-4.7
X14.4207Y-4.7945
X14.4207Y-5.45
X14.4207Y-5.5445
X14.4214Y-3.575
X14.4214Y-3.6695
X14.5152Y-1.5125
X14.5152Y-1.607
X14.5152Y-2.45
X14.5152Y-2.5445
X14.5152Y-4.7
X14.5152Y-4.7945
X14.5152Y-5.45
X14.5152Y-5.5445
X14.8368Y-3.475
X14.8368Y-3.5695
X14.9305Y-1.4125
X14.9305Y-1.507
X14.9305Y-2.35
X14.9305Y-2.4445
X14.9305Y-4.6
X14.9305Y-4.6945
X14.9305Y-5.35
X14.9305Y-5.4445
X14.9313Y-3.475
X14.9313Y-3.5695
X15.025Y-1.4125
X15.025Y-1.507
X15.025Y-2.35
X15.025Y-2.4445
X15.025Y-4.6
X15.025Y-4.6945
X15.025Y-5.35
X15.025Y-5.4445
X15.3582Y-1.5125
X15.3582Y-1.607
X15.3582Y-2.45
X15.3582Y-2.5445
X15.3582Y-3.2
X15.3582Y-3.2945
X15.3582Y-3.95
X15.3582Y-4.0445
X15.3582Y-4.7
X15.3582Y-4.7945
X15.4527Y-1.5125
X15.4527Y-1.607
X15.4527Y-2.45
X15.4527Y-2.5445
X15.4527Y-3.2
X15.4527Y-3.2945
X15.4527Y-3.95
X15.4527Y-4.0445
X15.4527Y-4.7
X15.4527Y-4.7945
X15.868Y-1.4125
X15.868Y-1.507
X15.868Y-2.35
X15.868Y-2.4445
X15.868Y-3.1
X15.868Y-3.1945
X15.868Y-3.85
X15.868Y-3.9445
X15.868Y-4.6
X15.868Y-4.6945
X15.9625Y-1.4125
X15.9625Y-1.507
X15.9625Y-2.35
X15.9625Y-2.4445
X15.9625Y-3.1
X15.9625Y-3.1945
X15.9625Y-3.85
X15.9625Y-3.9445
X15.9625Y-4.6
X15.9625Y-4.6945
T4
X1.4712Y-2.5729
X1.8622Y-3.1106
X1.9293Y-3.5515
X1.9732Y-2.3696
X1.9732Y-2.4196
X2.0502Y-3.6876
X2.7361Y-2.1997
T6
X1.212Y-2.4056
X1.312Y-2.4056
X1.4478Y-3.2811
X1.4478Y-3.478
X2.0186Y-3.2811
X2.0186Y-3.3795
X2.0186Y-3.478
X2.4123Y-4.5606
X2.4123Y-5.1315
X2.5107Y-5.1315
X2.6092Y-4.5606
X2.6092Y-5.1315
X3.0047Y-3.2811
X3.0047Y-3.3795
X3.0047Y-3.478
X3.5756Y-3.2811
X3.5756Y-3.478
T5
G00X1.4883Y-2.1675
M15
G01X1.4883Y-2.199
M16
G05
G00X1.4883Y-2.3262
M15
G01X1.4883Y-2.3695
M16
G05
G00X1.8285Y-2.1675
M15
G01X1.8285Y-2.199
M16
G05
G00X1.8285Y-2.3262
M15
G01X1.8285Y-2.3695
M16
G05
T7
G00X1.6978Y-3.1591
M15
G01X1.7489Y-3.1591
M16
G05
G00X1.6978Y-3.6
M15
G01X1.7489Y-3.6
M16
G05
G00X2.2903Y-4.8106
M15
G01X2.2903Y-4.8618
M16
G05
G00X2.7312Y-4.8106
M15
G01X2.7312Y-4.8618
M16
G05
G00X3.3256Y-3.1591
M15
G01X3.2744Y-3.1591
M16
G05
G00X3.3256Y-3.6
M15
G01X3.2744Y-3.6
M16
G05
M30
