%TF.GenerationSoftware,KiCad,Pcbnew,8.0.5*%
%TF.CreationDate,2025-01-01T22:16:47+09:00*%
%TF.ProjectId,Davinci-Keyboard,44617669-6e63-4692-9d4b-6579626f6172,rev?*%
%TF.SameCoordinates,Original*%
%TF.FileFunction,Legend,Top*%
%TF.FilePolarity,Positive*%
%FSLAX46Y46*%
G04 Gerber Fmt 4.6, Leading zero omitted, Abs format (unit mm)*
G04 Created by KiCad (PCBNEW 8.0.5) date 2025-01-01 22:16:47*
%MOMM*%
%LPD*%
G01*
G04 APERTURE LIST*
G04 Aperture macros list*
%AMRoundRect*
0 Rectangle with rounded corners*
0 $1 Rounding radius*
0 $2 $3 $4 $5 $6 $7 $8 $9 X,Y pos of 4 corners*
0 Add a 4 corners polygon primitive as box body*
4,1,4,$2,$3,$4,$5,$6,$7,$8,$9,$2,$3,0*
0 Add four circle primitives for the rounded corners*
1,1,$1+$1,$2,$3*
1,1,$1+$1,$4,$5*
1,1,$1+$1,$6,$7*
1,1,$1+$1,$8,$9*
0 Add four rect primitives between the rounded corners*
20,1,$1+$1,$2,$3,$4,$5,0*
20,1,$1+$1,$4,$5,$6,$7,0*
20,1,$1+$1,$6,$7,$8,$9,0*
20,1,$1+$1,$8,$9,$2,$3,0*%
G04 Aperture macros list end*
%ADD10C,0.150000*%
%ADD11C,0.127000*%
%ADD12C,0.120000*%
%ADD13C,4.100000*%
%ADD14C,1.600000*%
%ADD15C,3.000000*%
%ADD16C,3.200000*%
%ADD17C,2.000000*%
%ADD18R,3.200000X2.000000*%
%ADD19RoundRect,0.102000X-0.525000X-0.325000X0.525000X-0.325000X0.525000X0.325000X-0.525000X0.325000X0*%
%ADD20RoundRect,0.237500X0.237500X-0.300000X0.237500X0.300000X-0.237500X0.300000X-0.237500X-0.300000X0*%
%ADD21R,2.000000X3.200000*%
%ADD22RoundRect,0.237500X-0.237500X0.287500X-0.237500X-0.287500X0.237500X-0.287500X0.237500X0.287500X0*%
%ADD23RoundRect,0.237500X0.237500X-0.250000X0.237500X0.250000X-0.237500X0.250000X-0.237500X-0.250000X0*%
%ADD24O,1.000000X2.100000*%
%ADD25O,1.000000X1.800000*%
%ADD26O,1.700000X1.700000*%
%ADD27R,1.700000X1.700000*%
G04 APERTURE END LIST*
D10*
X78751009Y-87054285D02*
X78751009Y-86720952D01*
X79274819Y-86578095D02*
X79274819Y-87054285D01*
X79274819Y-87054285D02*
X78274819Y-87054285D01*
X78274819Y-87054285D02*
X78274819Y-86578095D01*
X79274819Y-86149523D02*
X78274819Y-86149523D01*
X78274819Y-86149523D02*
X79274819Y-85578095D01*
X79274819Y-85578095D02*
X78274819Y-85578095D01*
X78370057Y-85149523D02*
X78322438Y-85101904D01*
X78322438Y-85101904D02*
X78274819Y-85006666D01*
X78274819Y-85006666D02*
X78274819Y-84768571D01*
X78274819Y-84768571D02*
X78322438Y-84673333D01*
X78322438Y-84673333D02*
X78370057Y-84625714D01*
X78370057Y-84625714D02*
X78465295Y-84578095D01*
X78465295Y-84578095D02*
X78560533Y-84578095D01*
X78560533Y-84578095D02*
X78703390Y-84625714D01*
X78703390Y-84625714D02*
X79274819Y-85197142D01*
X79274819Y-85197142D02*
X79274819Y-84578095D01*
X62381483Y-55974861D02*
X62524567Y-56022555D01*
X62524567Y-56022555D02*
X62763041Y-56022555D01*
X62763041Y-56022555D02*
X62858431Y-55974861D01*
X62858431Y-55974861D02*
X62906126Y-55927166D01*
X62906126Y-55927166D02*
X62953820Y-55831776D01*
X62953820Y-55831776D02*
X62953820Y-55736386D01*
X62953820Y-55736386D02*
X62906126Y-55640997D01*
X62906126Y-55640997D02*
X62858431Y-55593302D01*
X62858431Y-55593302D02*
X62763041Y-55545607D01*
X62763041Y-55545607D02*
X62572262Y-55497912D01*
X62572262Y-55497912D02*
X62476872Y-55450218D01*
X62476872Y-55450218D02*
X62429178Y-55402523D01*
X62429178Y-55402523D02*
X62381483Y-55307133D01*
X62381483Y-55307133D02*
X62381483Y-55211744D01*
X62381483Y-55211744D02*
X62429178Y-55116354D01*
X62429178Y-55116354D02*
X62476872Y-55068659D01*
X62476872Y-55068659D02*
X62572262Y-55020964D01*
X62572262Y-55020964D02*
X62810736Y-55020964D01*
X62810736Y-55020964D02*
X62953820Y-55068659D01*
X63907716Y-56022555D02*
X63335379Y-56022555D01*
X63621548Y-56022555D02*
X63621548Y-55020964D01*
X63621548Y-55020964D02*
X63526158Y-55164049D01*
X63526158Y-55164049D02*
X63430768Y-55259438D01*
X63430768Y-55259438D02*
X63335379Y-55307133D01*
X62558714Y-127771009D02*
X62892047Y-127771009D01*
X63034904Y-128294819D02*
X62558714Y-128294819D01*
X62558714Y-128294819D02*
X62558714Y-127294819D01*
X62558714Y-127294819D02*
X63034904Y-127294819D01*
X63463476Y-128294819D02*
X63463476Y-127294819D01*
X63463476Y-127294819D02*
X64034904Y-128294819D01*
X64034904Y-128294819D02*
X64034904Y-127294819D01*
X64415857Y-127294819D02*
X65034904Y-127294819D01*
X65034904Y-127294819D02*
X64701571Y-127675771D01*
X64701571Y-127675771D02*
X64844428Y-127675771D01*
X64844428Y-127675771D02*
X64939666Y-127723390D01*
X64939666Y-127723390D02*
X64987285Y-127771009D01*
X64987285Y-127771009D02*
X65034904Y-127866247D01*
X65034904Y-127866247D02*
X65034904Y-128104342D01*
X65034904Y-128104342D02*
X64987285Y-128199580D01*
X64987285Y-128199580D02*
X64939666Y-128247200D01*
X64939666Y-128247200D02*
X64844428Y-128294819D01*
X64844428Y-128294819D02*
X64558714Y-128294819D01*
X64558714Y-128294819D02*
X64463476Y-128247200D01*
X64463476Y-128247200D02*
X64415857Y-128199580D01*
X48704009Y-87054285D02*
X48704009Y-86720952D01*
X49227819Y-86578095D02*
X49227819Y-87054285D01*
X49227819Y-87054285D02*
X48227819Y-87054285D01*
X48227819Y-87054285D02*
X48227819Y-86578095D01*
X49227819Y-86149523D02*
X48227819Y-86149523D01*
X48227819Y-86149523D02*
X49227819Y-85578095D01*
X49227819Y-85578095D02*
X48227819Y-85578095D01*
X49227819Y-84578095D02*
X49227819Y-85149523D01*
X49227819Y-84863809D02*
X48227819Y-84863809D01*
X48227819Y-84863809D02*
X48370676Y-84959047D01*
X48370676Y-84959047D02*
X48465914Y-85054285D01*
X48465914Y-85054285D02*
X48513533Y-85149523D01*
X53237483Y-55822461D02*
X53380567Y-55870155D01*
X53380567Y-55870155D02*
X53619041Y-55870155D01*
X53619041Y-55870155D02*
X53714431Y-55822461D01*
X53714431Y-55822461D02*
X53762126Y-55774766D01*
X53762126Y-55774766D02*
X53809820Y-55679376D01*
X53809820Y-55679376D02*
X53809820Y-55583986D01*
X53809820Y-55583986D02*
X53762126Y-55488597D01*
X53762126Y-55488597D02*
X53714431Y-55440902D01*
X53714431Y-55440902D02*
X53619041Y-55393207D01*
X53619041Y-55393207D02*
X53428262Y-55345512D01*
X53428262Y-55345512D02*
X53332872Y-55297818D01*
X53332872Y-55297818D02*
X53285178Y-55250123D01*
X53285178Y-55250123D02*
X53237483Y-55154733D01*
X53237483Y-55154733D02*
X53237483Y-55059344D01*
X53237483Y-55059344D02*
X53285178Y-54963954D01*
X53285178Y-54963954D02*
X53332872Y-54916259D01*
X53332872Y-54916259D02*
X53428262Y-54868564D01*
X53428262Y-54868564D02*
X53666736Y-54868564D01*
X53666736Y-54868564D02*
X53809820Y-54916259D01*
X54191379Y-54963954D02*
X54239074Y-54916259D01*
X54239074Y-54916259D02*
X54334463Y-54868564D01*
X54334463Y-54868564D02*
X54572937Y-54868564D01*
X54572937Y-54868564D02*
X54668327Y-54916259D01*
X54668327Y-54916259D02*
X54716022Y-54963954D01*
X54716022Y-54963954D02*
X54763716Y-55059344D01*
X54763716Y-55059344D02*
X54763716Y-55154733D01*
X54763716Y-55154733D02*
X54716022Y-55297818D01*
X54716022Y-55297818D02*
X54143684Y-55870155D01*
X54143684Y-55870155D02*
X54763716Y-55870155D01*
D11*
%TO.C,S1*%
X60370000Y-54391600D02*
G75*
G02*
X60270000Y-54391600I-50000J0D01*
G01*
X60270000Y-54391600D02*
G75*
G02*
X60370000Y-54391600I50000J0D01*
G01*
X60381803Y-54391600D02*
G75*
G02*
X60158197Y-54391600I-111803J0D01*
G01*
X60158197Y-54391600D02*
G75*
G02*
X60381803Y-54391600I111803J0D01*
G01*
X65270000Y-55041600D02*
X65270000Y-56041600D01*
X61920000Y-57141600D02*
X64420000Y-57141600D01*
X61920000Y-53941600D02*
X64420000Y-53941600D01*
X61070000Y-55041600D02*
X61070000Y-56041600D01*
D12*
%TO.C,C6*%
X58346000Y-55560867D02*
X58346000Y-55268333D01*
X57326000Y-55560867D02*
X57326000Y-55268333D01*
%TO.C,D1*%
X39906000Y-55665000D02*
X39906000Y-53205000D01*
X39906000Y-53205000D02*
X38436000Y-53205000D01*
X38436000Y-53205000D02*
X38436000Y-55665000D01*
%TO.C,C4*%
X59870000Y-55560867D02*
X59870000Y-55268333D01*
X58850000Y-55560867D02*
X58850000Y-55268333D01*
%TO.C,R11*%
X67375500Y-55796324D02*
X67375500Y-55286876D01*
X66330500Y-55796324D02*
X66330500Y-55286876D01*
%TO.C,D2*%
X36731000Y-55679000D02*
X36731000Y-53219000D01*
X36731000Y-53219000D02*
X35261000Y-53219000D01*
X35261000Y-53219000D02*
X35261000Y-55679000D01*
D11*
%TO.C,S2*%
X51226000Y-54264600D02*
G75*
G02*
X51126000Y-54264600I-50000J0D01*
G01*
X51126000Y-54264600D02*
G75*
G02*
X51226000Y-54264600I50000J0D01*
G01*
X51237803Y-54264600D02*
G75*
G02*
X51014197Y-54264600I-111803J0D01*
G01*
X51014197Y-54264600D02*
G75*
G02*
X51237803Y-54264600I111803J0D01*
G01*
X56126000Y-54914600D02*
X56126000Y-55914600D01*
X52776000Y-57014600D02*
X55276000Y-57014600D01*
X52776000Y-53814600D02*
X55276000Y-53814600D01*
X51926000Y-54914600D02*
X51926000Y-55914600D01*
%TD*%
%LPC*%
D13*
%TO.C,SW87*%
X374595000Y-142170000D03*
D14*
X379675000Y-142170000D03*
X369515000Y-142170000D03*
D15*
X370785000Y-139630000D03*
X377135000Y-137090000D03*
%TD*%
D13*
%TO.C,SW86*%
X355545000Y-142170000D03*
D14*
X360625000Y-142170000D03*
X350465000Y-142170000D03*
D15*
X351735000Y-139630000D03*
X358085000Y-137090000D03*
%TD*%
D13*
%TO.C,SW85*%
X336495000Y-142170000D03*
D14*
X341575000Y-142170000D03*
X331415000Y-142170000D03*
D15*
X332685000Y-139630000D03*
X339035000Y-137090000D03*
%TD*%
D13*
%TO.C,SW84*%
X312682500Y-142170000D03*
D14*
X317762500Y-142170000D03*
X307602500Y-142170000D03*
D15*
X308872500Y-139630000D03*
X315222500Y-137090000D03*
%TD*%
D13*
%TO.C,SW83*%
X293632500Y-142170000D03*
D14*
X298712500Y-142170000D03*
X288552500Y-142170000D03*
D15*
X289822500Y-139630000D03*
X296172500Y-137090000D03*
%TD*%
D13*
%TO.C,SW82*%
X274582500Y-142170000D03*
D14*
X279662500Y-142170000D03*
X269502500Y-142170000D03*
D15*
X270772500Y-139630000D03*
X277122500Y-137090000D03*
%TD*%
D13*
%TO.C,SW81*%
X234101250Y-142170000D03*
D14*
X239181250Y-142170000D03*
X229021250Y-142170000D03*
D15*
X230291250Y-139630000D03*
X236641250Y-137090000D03*
%TD*%
D13*
%TO.C,SW80*%
X193620000Y-142170000D03*
D14*
X198700000Y-142170000D03*
X188540000Y-142170000D03*
D15*
X189810000Y-139630000D03*
X196160000Y-137090000D03*
%TD*%
D13*
%TO.C,SW79*%
X174570000Y-142170000D03*
D14*
X179650000Y-142170000D03*
X169490000Y-142170000D03*
D15*
X170760000Y-139630000D03*
X177110000Y-137090000D03*
%TD*%
D13*
%TO.C,SW78*%
X155520000Y-142170000D03*
D14*
X160600000Y-142170000D03*
X150440000Y-142170000D03*
D15*
X151710000Y-139630000D03*
X158060000Y-137090000D03*
%TD*%
D13*
%TO.C,SW77*%
X136470000Y-142170000D03*
D14*
X141550000Y-142170000D03*
X131390000Y-142170000D03*
D15*
X132660000Y-139630000D03*
X139010000Y-137090000D03*
%TD*%
D13*
%TO.C,SW76*%
X110276250Y-142170000D03*
D14*
X115356250Y-142170000D03*
X105196250Y-142170000D03*
D15*
X106466250Y-139630000D03*
X112816250Y-137090000D03*
%TD*%
D13*
%TO.C,SW75*%
X398407500Y-123120000D03*
D14*
X403487500Y-123120000D03*
X393327500Y-123120000D03*
D15*
X394597500Y-120580000D03*
X400947500Y-118040000D03*
%TD*%
D13*
%TO.C,SW74*%
X374595000Y-123120000D03*
D14*
X379675000Y-123120000D03*
X369515000Y-123120000D03*
D15*
X370785000Y-120580000D03*
X377135000Y-118040000D03*
%TD*%
D13*
%TO.C,SW73*%
X355545000Y-123120000D03*
D14*
X360625000Y-123120000D03*
X350465000Y-123120000D03*
D15*
X351735000Y-120580000D03*
X358085000Y-118040000D03*
%TD*%
D13*
%TO.C,SW72*%
X336495000Y-123120000D03*
D14*
X341575000Y-123120000D03*
X331415000Y-123120000D03*
D15*
X332685000Y-120580000D03*
X339035000Y-118040000D03*
%TD*%
D13*
%TO.C,SW71*%
X317445000Y-123120000D03*
D14*
X322525000Y-123120000D03*
X312365000Y-123120000D03*
D15*
X313635000Y-120580000D03*
X319985000Y-118040000D03*
%TD*%
D13*
%TO.C,SW70*%
X298395000Y-123120000D03*
D14*
X303475000Y-123120000D03*
X293315000Y-123120000D03*
D15*
X294585000Y-120580000D03*
X300935000Y-118040000D03*
%TD*%
D13*
%TO.C,SW69*%
X279345000Y-123120000D03*
D14*
X284425000Y-123120000D03*
X274265000Y-123120000D03*
D15*
X275535000Y-120580000D03*
X281885000Y-118040000D03*
%TD*%
D13*
%TO.C,SW68*%
X260295000Y-123120000D03*
D14*
X265375000Y-123120000D03*
X255215000Y-123120000D03*
D15*
X256485000Y-120580000D03*
X262835000Y-118040000D03*
%TD*%
D13*
%TO.C,SW67*%
X241245000Y-123120000D03*
D14*
X246325000Y-123120000D03*
X236165000Y-123120000D03*
D15*
X237435000Y-120580000D03*
X243785000Y-118040000D03*
%TD*%
D13*
%TO.C,SW66*%
X222195000Y-123120000D03*
D14*
X227275000Y-123120000D03*
X217115000Y-123120000D03*
D15*
X218385000Y-120580000D03*
X224735000Y-118040000D03*
%TD*%
D13*
%TO.C,SW65*%
X203145000Y-123120000D03*
D14*
X208225000Y-123120000D03*
X198065000Y-123120000D03*
D15*
X199335000Y-120580000D03*
X205685000Y-118040000D03*
%TD*%
D13*
%TO.C,SW64*%
X184095000Y-123120000D03*
D14*
X189175000Y-123120000D03*
X179015000Y-123120000D03*
D15*
X180285000Y-120580000D03*
X186635000Y-118040000D03*
%TD*%
D13*
%TO.C,SW63*%
X165045000Y-123120000D03*
D14*
X170125000Y-123120000D03*
X159965000Y-123120000D03*
D15*
X161235000Y-120580000D03*
X167585000Y-118040000D03*
%TD*%
D13*
%TO.C,SW62*%
X145995000Y-123120000D03*
D14*
X151075000Y-123120000D03*
X140915000Y-123120000D03*
D15*
X142185000Y-120580000D03*
X148535000Y-118040000D03*
%TD*%
D13*
%TO.C,SW61*%
X117420000Y-123120000D03*
D14*
X122500000Y-123120000D03*
X112340000Y-123120000D03*
D15*
X113610000Y-120580000D03*
X119960000Y-118040000D03*
%TD*%
D13*
%TO.C,SW60*%
X398407500Y-104070000D03*
D14*
X403487500Y-104070000D03*
X393327500Y-104070000D03*
D15*
X394597500Y-101530000D03*
X400947500Y-98990000D03*
%TD*%
D13*
%TO.C,SW59*%
X350782500Y-104070000D03*
D14*
X355862500Y-104070000D03*
X345702500Y-104070000D03*
D15*
X346972500Y-101530000D03*
X353322500Y-98990000D03*
%TD*%
D13*
%TO.C,SW58*%
X331732500Y-104070000D03*
D14*
X336812500Y-104070000D03*
X326652500Y-104070000D03*
D15*
X327922500Y-101530000D03*
X334272500Y-98990000D03*
%TD*%
D13*
%TO.C,SW57*%
X312682500Y-104070000D03*
D14*
X317762500Y-104070000D03*
X307602500Y-104070000D03*
D15*
X308872500Y-101530000D03*
X315222500Y-98990000D03*
%TD*%
D13*
%TO.C,SW56*%
X293632500Y-104070000D03*
D14*
X298712500Y-104070000D03*
X288552500Y-104070000D03*
D15*
X289822500Y-101530000D03*
X296172500Y-98990000D03*
%TD*%
D13*
%TO.C,SW55*%
X274582500Y-104070000D03*
D14*
X279662500Y-104070000D03*
X269502500Y-104070000D03*
D15*
X270772500Y-101530000D03*
X277122500Y-98990000D03*
%TD*%
D13*
%TO.C,SW54*%
X255532500Y-104070000D03*
D14*
X260612500Y-104070000D03*
X250452500Y-104070000D03*
D15*
X251722500Y-101530000D03*
X258072500Y-98990000D03*
%TD*%
D13*
%TO.C,SW53*%
X236482500Y-104070000D03*
D14*
X241562500Y-104070000D03*
X231402500Y-104070000D03*
D15*
X232672500Y-101530000D03*
X239022500Y-98990000D03*
%TD*%
D13*
%TO.C,SW52*%
X217432500Y-104070000D03*
D14*
X222512500Y-104070000D03*
X212352500Y-104070000D03*
D15*
X213622500Y-101530000D03*
X219972500Y-98990000D03*
%TD*%
D13*
%TO.C,SW51*%
X198382500Y-104070000D03*
D14*
X203462500Y-104070000D03*
X193302500Y-104070000D03*
D15*
X194572500Y-101530000D03*
X200922500Y-98990000D03*
%TD*%
D13*
%TO.C,SW50*%
X179332500Y-104070000D03*
D14*
X184412500Y-104070000D03*
X174252500Y-104070000D03*
D15*
X175522500Y-101530000D03*
X181872500Y-98990000D03*
%TD*%
D13*
%TO.C,SW49*%
X160282500Y-104070000D03*
D14*
X165362500Y-104070000D03*
X155202500Y-104070000D03*
D15*
X156472500Y-101530000D03*
X162822500Y-98990000D03*
%TD*%
D13*
%TO.C,SW48*%
X141232500Y-104070000D03*
D14*
X146312500Y-104070000D03*
X136152500Y-104070000D03*
D15*
X137422500Y-101530000D03*
X143772500Y-98990000D03*
%TD*%
D13*
%TO.C,SW47*%
X115038750Y-104070000D03*
D14*
X120118750Y-104070000D03*
X109958750Y-104070000D03*
D15*
X111228750Y-101530000D03*
X117578750Y-98990000D03*
%TD*%
D13*
%TO.C,SW46*%
X398407500Y-85020000D03*
D14*
X403487500Y-85020000D03*
X393327500Y-85020000D03*
D15*
X394597500Y-82480000D03*
X400947500Y-79940000D03*
%TD*%
D13*
%TO.C,SW45*%
X372213750Y-94545000D03*
D14*
X377293750Y-94545000D03*
X367133750Y-94545000D03*
D15*
X368403750Y-92005000D03*
X374753750Y-89465000D03*
%TD*%
D13*
%TO.C,SW44*%
X346020000Y-85020000D03*
D14*
X351100000Y-85020000D03*
X340940000Y-85020000D03*
D15*
X342210000Y-82480000D03*
X348560000Y-79940000D03*
%TD*%
D13*
%TO.C,SW43*%
X326970000Y-85020000D03*
D14*
X332050000Y-85020000D03*
X321890000Y-85020000D03*
D15*
X323160000Y-82480000D03*
X329510000Y-79940000D03*
%TD*%
D13*
%TO.C,SW42*%
X307920000Y-85020000D03*
D14*
X313000000Y-85020000D03*
X302840000Y-85020000D03*
D15*
X304110000Y-82480000D03*
X310460000Y-79940000D03*
%TD*%
D13*
%TO.C,SW41*%
X288870000Y-85020000D03*
D14*
X293950000Y-85020000D03*
X283790000Y-85020000D03*
D15*
X285060000Y-82480000D03*
X291410000Y-79940000D03*
%TD*%
D13*
%TO.C,SW40*%
X269820000Y-85020000D03*
D14*
X274900000Y-85020000D03*
X264740000Y-85020000D03*
D15*
X266010000Y-82480000D03*
X272360000Y-79940000D03*
%TD*%
D13*
%TO.C,SW39*%
X250770000Y-85020000D03*
D14*
X255850000Y-85020000D03*
X245690000Y-85020000D03*
D15*
X246960000Y-82480000D03*
X253310000Y-79940000D03*
%TD*%
D13*
%TO.C,SW38*%
X231720000Y-85020000D03*
D14*
X236800000Y-85020000D03*
X226640000Y-85020000D03*
D15*
X227910000Y-82480000D03*
X234260000Y-79940000D03*
%TD*%
D13*
%TO.C,SW37*%
X212670000Y-85020000D03*
D14*
X217750000Y-85020000D03*
X207590000Y-85020000D03*
D15*
X208860000Y-82480000D03*
X215210000Y-79940000D03*
%TD*%
D13*
%TO.C,SW36*%
X193620000Y-85020000D03*
D14*
X198700000Y-85020000D03*
X188540000Y-85020000D03*
D15*
X189810000Y-82480000D03*
X196160000Y-79940000D03*
%TD*%
D13*
%TO.C,SW35*%
X174570000Y-85020000D03*
D14*
X179650000Y-85020000D03*
X169490000Y-85020000D03*
D15*
X170760000Y-82480000D03*
X177110000Y-79940000D03*
%TD*%
D13*
%TO.C,SW34*%
X155520000Y-85020000D03*
D14*
X160600000Y-85020000D03*
X150440000Y-85020000D03*
D15*
X151710000Y-82480000D03*
X158060000Y-79940000D03*
%TD*%
D13*
%TO.C,SW33*%
X136470000Y-85020000D03*
D14*
X141550000Y-85020000D03*
X131390000Y-85020000D03*
D15*
X132660000Y-82480000D03*
X139010000Y-79940000D03*
%TD*%
D13*
%TO.C,SW32*%
X112657500Y-85020000D03*
D14*
X117737500Y-85020000D03*
X107577500Y-85020000D03*
D15*
X108847500Y-82480000D03*
X115197500Y-79940000D03*
%TD*%
D13*
%TO.C,SW31*%
X398407500Y-65970000D03*
D14*
X403487500Y-65970000D03*
X393327500Y-65970000D03*
D15*
X394597500Y-63430000D03*
X400947500Y-60890000D03*
%TD*%
D13*
%TO.C,SW30*%
X374595000Y-65970000D03*
D14*
X379675000Y-65970000D03*
X369515000Y-65970000D03*
D15*
X370785000Y-63430000D03*
X377135000Y-60890000D03*
%TD*%
D13*
%TO.C,SW29*%
X355545000Y-65970000D03*
D14*
X360625000Y-65970000D03*
X350465000Y-65970000D03*
D15*
X351735000Y-63430000D03*
X358085000Y-60890000D03*
%TD*%
D13*
%TO.C,SW28*%
X336495000Y-65970000D03*
D14*
X341575000Y-65970000D03*
X331415000Y-65970000D03*
D15*
X332685000Y-63430000D03*
X339035000Y-60890000D03*
%TD*%
D13*
%TO.C,SW27*%
X317445000Y-65970000D03*
D14*
X322525000Y-65970000D03*
X312365000Y-65970000D03*
D15*
X313635000Y-63430000D03*
X319985000Y-60890000D03*
%TD*%
D13*
%TO.C,SW26*%
X298395000Y-65970000D03*
D14*
X303475000Y-65970000D03*
X293315000Y-65970000D03*
D15*
X294585000Y-63430000D03*
X300935000Y-60890000D03*
%TD*%
D13*
%TO.C,SW25*%
X279345000Y-65970000D03*
D14*
X284425000Y-65970000D03*
X274265000Y-65970000D03*
D15*
X275535000Y-63430000D03*
X281885000Y-60890000D03*
%TD*%
D13*
%TO.C,SW24*%
X260295000Y-65970000D03*
D14*
X265375000Y-65970000D03*
X255215000Y-65970000D03*
D15*
X256485000Y-63430000D03*
X262835000Y-60890000D03*
%TD*%
D13*
%TO.C,SW23*%
X241245000Y-65970000D03*
D14*
X246325000Y-65970000D03*
X236165000Y-65970000D03*
D15*
X237435000Y-63430000D03*
X243785000Y-60890000D03*
%TD*%
D13*
%TO.C,SW22*%
X222195000Y-65970000D03*
D14*
X227275000Y-65970000D03*
X217115000Y-65970000D03*
D15*
X218385000Y-63430000D03*
X224735000Y-60890000D03*
%TD*%
D13*
%TO.C,SW21*%
X203145000Y-65970000D03*
D14*
X208225000Y-65970000D03*
X198065000Y-65970000D03*
D15*
X199335000Y-63430000D03*
X205685000Y-60890000D03*
%TD*%
D13*
%TO.C,SW20*%
X184095000Y-65970000D03*
D14*
X189175000Y-65970000D03*
X179015000Y-65970000D03*
D15*
X180285000Y-63430000D03*
X186635000Y-60890000D03*
%TD*%
D13*
%TO.C,SW19*%
X165045000Y-65970000D03*
D14*
X170125000Y-65970000D03*
X159965000Y-65970000D03*
D15*
X161235000Y-63430000D03*
X167585000Y-60890000D03*
%TD*%
D13*
%TO.C,SW18*%
X145995000Y-65970000D03*
D14*
X151075000Y-65970000D03*
X140915000Y-65970000D03*
D15*
X142185000Y-63430000D03*
X148535000Y-60890000D03*
%TD*%
D13*
%TO.C,SW17*%
X126945000Y-65970000D03*
D14*
X132025000Y-65970000D03*
X121865000Y-65970000D03*
D15*
X123135000Y-63430000D03*
X129485000Y-60890000D03*
%TD*%
D13*
%TO.C,SW16*%
X107895000Y-65970000D03*
D14*
X112975000Y-65970000D03*
X102815000Y-65970000D03*
D15*
X104085000Y-63430000D03*
X110435000Y-60890000D03*
%TD*%
D13*
%TO.C,SW15*%
X398407500Y-42157500D03*
D14*
X403487500Y-42157500D03*
X393327500Y-42157500D03*
D15*
X394597500Y-39617500D03*
X400947500Y-37077500D03*
%TD*%
D13*
%TO.C,SW14*%
X374595000Y-42157500D03*
D14*
X379675000Y-42157500D03*
X369515000Y-42157500D03*
D15*
X370785000Y-39617500D03*
X377135000Y-37077500D03*
%TD*%
D13*
%TO.C,SW13*%
X350782500Y-42157500D03*
D14*
X355862500Y-42157500D03*
X345702500Y-42157500D03*
D15*
X346972500Y-39617500D03*
X353322500Y-37077500D03*
%TD*%
D13*
%TO.C,SW12*%
X331732500Y-42157500D03*
D14*
X336812500Y-42157500D03*
X326652500Y-42157500D03*
D15*
X327922500Y-39617500D03*
X334272500Y-37077500D03*
%TD*%
D13*
%TO.C,SW11*%
X312682500Y-42157500D03*
D14*
X317762500Y-42157500D03*
X307602500Y-42157500D03*
D15*
X308872500Y-39617500D03*
X315222500Y-37077500D03*
%TD*%
D13*
%TO.C,SW10*%
X293632500Y-42157500D03*
D14*
X298712500Y-42157500D03*
X288552500Y-42157500D03*
D15*
X289822500Y-39617500D03*
X296172500Y-37077500D03*
%TD*%
D13*
%TO.C,SW9*%
X269820000Y-42157500D03*
D14*
X274900000Y-42157500D03*
X264740000Y-42157500D03*
D15*
X266010000Y-39617500D03*
X272360000Y-37077500D03*
%TD*%
D13*
%TO.C,SW8*%
X250770000Y-42157500D03*
D14*
X255850000Y-42157500D03*
X245690000Y-42157500D03*
D15*
X246960000Y-39617500D03*
X253310000Y-37077500D03*
%TD*%
D13*
%TO.C,SW7*%
X231720000Y-42157500D03*
D14*
X236800000Y-42157500D03*
X226640000Y-42157500D03*
D15*
X227910000Y-39617500D03*
X234260000Y-37077500D03*
%TD*%
D13*
%TO.C,SW6*%
X212670000Y-42157500D03*
D14*
X217750000Y-42157500D03*
X207590000Y-42157500D03*
D15*
X208860000Y-39617500D03*
X215210000Y-37077500D03*
%TD*%
D13*
%TO.C,SW5*%
X188857500Y-42157500D03*
D14*
X193937500Y-42157500D03*
X183777500Y-42157500D03*
D15*
X185047500Y-39617500D03*
X191397500Y-37077500D03*
%TD*%
D13*
%TO.C,SW4*%
X169807500Y-42157500D03*
D14*
X174887500Y-42157500D03*
X164727500Y-42157500D03*
D15*
X165997500Y-39617500D03*
X172347500Y-37077500D03*
%TD*%
D13*
%TO.C,SW3*%
X150757500Y-42157500D03*
D14*
X155837500Y-42157500D03*
X145677500Y-42157500D03*
D15*
X146947500Y-39617500D03*
X153297500Y-37077500D03*
%TD*%
D13*
%TO.C,SW2*%
X131707500Y-42157500D03*
D14*
X136787500Y-42157500D03*
X126627500Y-42157500D03*
D15*
X127897500Y-39617500D03*
X134247500Y-37077500D03*
%TD*%
D13*
%TO.C,SW1*%
X107895000Y-42157500D03*
D14*
X112975000Y-42157500D03*
X102815000Y-42157500D03*
D15*
X104085000Y-39617500D03*
X110435000Y-37077500D03*
%TD*%
D16*
%TO.C,REF\u002A\u002A*%
X32059000Y-56098200D03*
%TD*%
D17*
%TO.C,EN2*%
X90820000Y-88340000D03*
X90820000Y-83340000D03*
D18*
X83820000Y-91440000D03*
X83820000Y-80240000D03*
D17*
X76320000Y-85840000D03*
X76320000Y-88340000D03*
X76320000Y-83340000D03*
%TD*%
D19*
%TO.C,S1*%
X65245000Y-56616600D03*
X61095000Y-56616600D03*
X65245000Y-54466600D03*
X61095000Y-54466600D03*
%TD*%
D20*
%TO.C,C6*%
X57836000Y-54552100D03*
X57836000Y-56277100D03*
%TD*%
D16*
%TO.C,REF\u002A\u002A*%
X32059000Y-149494000D03*
%TD*%
D17*
%TO.C,EN3*%
X66273000Y-115840000D03*
X61273000Y-115840000D03*
D21*
X69373000Y-122840000D03*
X58173000Y-122840000D03*
D17*
X63773000Y-130340000D03*
X66273000Y-130340000D03*
X61273000Y-130340000D03*
%TD*%
D22*
%TO.C,D1*%
X39171000Y-55740000D03*
X39171000Y-53990000D03*
%TD*%
D20*
%TO.C,C4*%
X59360000Y-54552100D03*
X59360000Y-56277100D03*
%TD*%
D23*
%TO.C,R11*%
X66853000Y-54629100D03*
X66853000Y-56454100D03*
%TD*%
D22*
%TO.C,D2*%
X35996000Y-55754000D03*
X35996000Y-54004000D03*
%TD*%
D17*
%TO.C,EN1*%
X36773000Y-83340000D03*
X36773000Y-88340000D03*
D18*
X43773000Y-80240000D03*
X43773000Y-91440000D03*
D17*
X51273000Y-85840000D03*
X51273000Y-83340000D03*
X51273000Y-88340000D03*
%TD*%
D19*
%TO.C,S2*%
X56101000Y-56489600D03*
X51951000Y-56489600D03*
X56101000Y-54339600D03*
X51951000Y-54339600D03*
%TD*%
D24*
%TO.C,J2*%
X46443000Y-59635000D03*
D25*
X46443000Y-55455000D03*
D24*
X37803000Y-59635000D03*
D25*
X37803000Y-55455000D03*
%TD*%
D26*
%TO.C,J1*%
X33324000Y-61102000D03*
D27*
X30784000Y-61102000D03*
%TD*%
%LPD*%
M02*
