%TF.GenerationSoftware,KiCad,Pcbnew,8.0.5*%
%TF.CreationDate,2025-01-01T22:16:47+09:00*%
%TF.ProjectId,Davinci-Keyboard,44617669-6e63-4692-9d4b-6579626f6172,rev?*%
%TF.SameCoordinates,Original*%
%TF.FileFunction,Paste,Bot*%
%TF.FilePolarity,Positive*%
%FSLAX46Y46*%
G04 Gerber Fmt 4.6, Leading zero omitted, Abs format (unit mm)*
G04 Created by KiCad (PCBNEW 8.0.5) date 2025-01-01 22:16:47*
%MOMM*%
%LPD*%
G01*
G04 APERTURE LIST*
G04 Aperture macros list*
%AMRoundRect*
0 Rectangle with rounded corners*
0 $1 Rounding radius*
0 $2 $3 $4 $5 $6 $7 $8 $9 X,Y pos of 4 corners*
0 Add a 4 corners polygon primitive as box body*
4,1,4,$2,$3,$4,$5,$6,$7,$8,$9,$2,$3,0*
0 Add four circle primitives for the rounded corners*
1,1,$1+$1,$2,$3*
1,1,$1+$1,$4,$5*
1,1,$1+$1,$6,$7*
1,1,$1+$1,$8,$9*
0 Add four rect primitives between the rounded corners*
20,1,$1+$1,$2,$3,$4,$5,0*
20,1,$1+$1,$4,$5,$6,$7,0*
20,1,$1+$1,$6,$7,$8,$9,0*
20,1,$1+$1,$8,$9,$2,$3,0*%
G04 Aperture macros list end*
%ADD10C,0.120000*%
%ADD11C,0.100000*%
%ADD12RoundRect,0.225000X-0.375000X0.225000X-0.375000X-0.225000X0.375000X-0.225000X0.375000X0.225000X0*%
%ADD13RoundRect,0.225000X0.375000X-0.225000X0.375000X0.225000X-0.375000X0.225000X-0.375000X-0.225000X0*%
%ADD14RoundRect,0.237500X-0.250000X-0.237500X0.250000X-0.237500X0.250000X0.237500X-0.250000X0.237500X0*%
%ADD15RoundRect,0.150000X-0.150000X0.587500X-0.150000X-0.587500X0.150000X-0.587500X0.150000X0.587500X0*%
%ADD16RoundRect,0.237500X-0.237500X0.250000X-0.237500X-0.250000X0.237500X-0.250000X0.237500X0.250000X0*%
%ADD17RoundRect,0.237500X0.237500X-0.300000X0.237500X0.300000X-0.237500X0.300000X-0.237500X-0.300000X0*%
%ADD18RoundRect,0.237500X0.237500X-0.250000X0.237500X0.250000X-0.237500X0.250000X-0.237500X-0.250000X0*%
%ADD19O,1.000000X2.100000*%
%ADD20O,1.000000X1.800000*%
%ADD21RoundRect,0.150000X-0.150000X-0.425000X0.150000X-0.425000X0.150000X0.425000X-0.150000X0.425000X0*%
%ADD22RoundRect,0.075000X-0.075000X-0.500000X0.075000X-0.500000X0.075000X0.500000X-0.075000X0.500000X0*%
%ADD23RoundRect,0.237500X-0.237500X0.300000X-0.237500X-0.300000X0.237500X-0.300000X0.237500X0.300000X0*%
%ADD24R,2.066000X3.201599*%
%ADD25R,2.066000X0.901600*%
%ADD26RoundRect,0.150000X-0.150000X0.687500X-0.150000X-0.687500X0.150000X-0.687500X0.150000X0.687500X0*%
%ADD27RoundRect,0.250000X-1.080000X0.595000X-1.080000X-0.595000X1.080000X-0.595000X1.080000X0.595000X0*%
%ADD28RoundRect,0.237500X0.250000X0.237500X-0.250000X0.237500X-0.250000X-0.237500X0.250000X-0.237500X0*%
%ADD29R,0.431800X1.447800*%
%ADD30RoundRect,0.237500X-0.300000X-0.237500X0.300000X-0.237500X0.300000X0.237500X-0.300000X0.237500X0*%
%ADD31RoundRect,0.150000X0.150000X-0.587500X0.150000X0.587500X-0.150000X0.587500X-0.150000X-0.587500X0*%
%ADD32RoundRect,0.237500X0.300000X0.237500X-0.300000X0.237500X-0.300000X-0.237500X0.300000X-0.237500X0*%
%ADD33R,1.500000X0.900000*%
%ADD34R,0.900000X1.500000*%
%ADD35R,0.900000X0.900000*%
G04 APERTURE END LIST*
D10*
%TO.C,SW87*%
X366485000Y-138830000D02*
G75*
G02*
X366685000Y-138630000I200000J0D01*
G01*
X368285000Y-138630000D02*
G75*
G02*
X368485000Y-138830000I0J-200000D01*
G01*
X368485000Y-140430000D02*
G75*
G02*
X368285000Y-140630000I-200000J0D01*
G01*
X366685000Y-140630000D02*
G75*
G02*
X366485000Y-140430000I0J200000D01*
G01*
X379435000Y-136290000D02*
G75*
G02*
X379635000Y-136090000I200000J0D01*
G01*
X381235000Y-136090000D02*
G75*
G02*
X381435000Y-136290000I0J-200000D01*
G01*
X379635000Y-138090000D02*
G75*
G02*
X379435000Y-137890000I0J200000D01*
G01*
X381435000Y-137890000D02*
G75*
G02*
X381235000Y-138090000I-200000J0D01*
G01*
X366685000Y-138630000D02*
X368285000Y-138630000D01*
X368485000Y-138830000D02*
X368485000Y-140430000D01*
X368285000Y-140630000D02*
X366685000Y-140630000D01*
X366485000Y-140430000D02*
X366485000Y-138830000D01*
D11*
X368485000Y-138830000D02*
X368485000Y-140430000D01*
X368285000Y-140630000D01*
X366685000Y-140630000D01*
X366485000Y-140430000D01*
X366485000Y-138830000D01*
X366685000Y-138630000D01*
X368285000Y-138630000D01*
X368485000Y-138830000D01*
G36*
X368485000Y-138830000D02*
G01*
X368485000Y-140430000D01*
X368285000Y-140630000D01*
X366685000Y-140630000D01*
X366485000Y-140430000D01*
X366485000Y-138830000D01*
X366685000Y-138630000D01*
X368285000Y-138630000D01*
X368485000Y-138830000D01*
G37*
D10*
X379435000Y-136290000D02*
X379435000Y-137890000D01*
X379635000Y-138090000D02*
X381235000Y-138090000D01*
X381435000Y-137890000D02*
X381435000Y-136290000D01*
X379635000Y-136090000D02*
X381235000Y-136090000D01*
D11*
X381435000Y-136290000D02*
X381435000Y-137890000D01*
X381235000Y-138090000D01*
X379635000Y-138090000D01*
X379435000Y-137890000D01*
X379435000Y-136290000D01*
X379635000Y-136090000D01*
X381235000Y-136090000D01*
X381435000Y-136290000D01*
G36*
X381435000Y-136290000D02*
G01*
X381435000Y-137890000D01*
X381235000Y-138090000D01*
X379635000Y-138090000D01*
X379435000Y-137890000D01*
X379435000Y-136290000D01*
X379635000Y-136090000D01*
X381235000Y-136090000D01*
X381435000Y-136290000D01*
G37*
D10*
%TO.C,SW86*%
X347435000Y-138830000D02*
G75*
G02*
X347635000Y-138630000I200000J0D01*
G01*
X349235000Y-138630000D02*
G75*
G02*
X349435000Y-138830000I0J-200000D01*
G01*
X349435000Y-140430000D02*
G75*
G02*
X349235000Y-140630000I-200000J0D01*
G01*
X347635000Y-140630000D02*
G75*
G02*
X347435000Y-140430000I0J200000D01*
G01*
X360385000Y-136290000D02*
G75*
G02*
X360585000Y-136090000I200000J0D01*
G01*
X362185000Y-136090000D02*
G75*
G02*
X362385000Y-136290000I0J-200000D01*
G01*
X360585000Y-138090000D02*
G75*
G02*
X360385000Y-137890000I0J200000D01*
G01*
X362385000Y-137890000D02*
G75*
G02*
X362185000Y-138090000I-200000J0D01*
G01*
X347635000Y-138630000D02*
X349235000Y-138630000D01*
X349435000Y-138830000D02*
X349435000Y-140430000D01*
X349235000Y-140630000D02*
X347635000Y-140630000D01*
X347435000Y-140430000D02*
X347435000Y-138830000D01*
D11*
X349435000Y-138830000D02*
X349435000Y-140430000D01*
X349235000Y-140630000D01*
X347635000Y-140630000D01*
X347435000Y-140430000D01*
X347435000Y-138830000D01*
X347635000Y-138630000D01*
X349235000Y-138630000D01*
X349435000Y-138830000D01*
G36*
X349435000Y-138830000D02*
G01*
X349435000Y-140430000D01*
X349235000Y-140630000D01*
X347635000Y-140630000D01*
X347435000Y-140430000D01*
X347435000Y-138830000D01*
X347635000Y-138630000D01*
X349235000Y-138630000D01*
X349435000Y-138830000D01*
G37*
D10*
X360385000Y-136290000D02*
X360385000Y-137890000D01*
X360585000Y-138090000D02*
X362185000Y-138090000D01*
X362385000Y-137890000D02*
X362385000Y-136290000D01*
X360585000Y-136090000D02*
X362185000Y-136090000D01*
D11*
X362385000Y-136290000D02*
X362385000Y-137890000D01*
X362185000Y-138090000D01*
X360585000Y-138090000D01*
X360385000Y-137890000D01*
X360385000Y-136290000D01*
X360585000Y-136090000D01*
X362185000Y-136090000D01*
X362385000Y-136290000D01*
G36*
X362385000Y-136290000D02*
G01*
X362385000Y-137890000D01*
X362185000Y-138090000D01*
X360585000Y-138090000D01*
X360385000Y-137890000D01*
X360385000Y-136290000D01*
X360585000Y-136090000D01*
X362185000Y-136090000D01*
X362385000Y-136290000D01*
G37*
D10*
%TO.C,SW85*%
X328385000Y-138830000D02*
G75*
G02*
X328585000Y-138630000I200000J0D01*
G01*
X330185000Y-138630000D02*
G75*
G02*
X330385000Y-138830000I0J-200000D01*
G01*
X330385000Y-140430000D02*
G75*
G02*
X330185000Y-140630000I-200000J0D01*
G01*
X328585000Y-140630000D02*
G75*
G02*
X328385000Y-140430000I0J200000D01*
G01*
X341335000Y-136290000D02*
G75*
G02*
X341535000Y-136090000I200000J0D01*
G01*
X343135000Y-136090000D02*
G75*
G02*
X343335000Y-136290000I0J-200000D01*
G01*
X341535000Y-138090000D02*
G75*
G02*
X341335000Y-137890000I0J200000D01*
G01*
X343335000Y-137890000D02*
G75*
G02*
X343135000Y-138090000I-200000J0D01*
G01*
X328585000Y-138630000D02*
X330185000Y-138630000D01*
X330385000Y-138830000D02*
X330385000Y-140430000D01*
X330185000Y-140630000D02*
X328585000Y-140630000D01*
X328385000Y-140430000D02*
X328385000Y-138830000D01*
D11*
X330385000Y-138830000D02*
X330385000Y-140430000D01*
X330185000Y-140630000D01*
X328585000Y-140630000D01*
X328385000Y-140430000D01*
X328385000Y-138830000D01*
X328585000Y-138630000D01*
X330185000Y-138630000D01*
X330385000Y-138830000D01*
G36*
X330385000Y-138830000D02*
G01*
X330385000Y-140430000D01*
X330185000Y-140630000D01*
X328585000Y-140630000D01*
X328385000Y-140430000D01*
X328385000Y-138830000D01*
X328585000Y-138630000D01*
X330185000Y-138630000D01*
X330385000Y-138830000D01*
G37*
D10*
X341335000Y-136290000D02*
X341335000Y-137890000D01*
X341535000Y-138090000D02*
X343135000Y-138090000D01*
X343335000Y-137890000D02*
X343335000Y-136290000D01*
X341535000Y-136090000D02*
X343135000Y-136090000D01*
D11*
X343335000Y-136290000D02*
X343335000Y-137890000D01*
X343135000Y-138090000D01*
X341535000Y-138090000D01*
X341335000Y-137890000D01*
X341335000Y-136290000D01*
X341535000Y-136090000D01*
X343135000Y-136090000D01*
X343335000Y-136290000D01*
G36*
X343335000Y-136290000D02*
G01*
X343335000Y-137890000D01*
X343135000Y-138090000D01*
X341535000Y-138090000D01*
X341335000Y-137890000D01*
X341335000Y-136290000D01*
X341535000Y-136090000D01*
X343135000Y-136090000D01*
X343335000Y-136290000D01*
G37*
D10*
%TO.C,SW84*%
X304572500Y-138830000D02*
G75*
G02*
X304772500Y-138630000I200000J0D01*
G01*
X306372500Y-138630000D02*
G75*
G02*
X306572500Y-138830000I0J-200000D01*
G01*
X306572500Y-140430000D02*
G75*
G02*
X306372500Y-140630000I-200000J0D01*
G01*
X304772500Y-140630000D02*
G75*
G02*
X304572500Y-140430000I0J200000D01*
G01*
X317522500Y-136290000D02*
G75*
G02*
X317722500Y-136090000I200000J0D01*
G01*
X319322500Y-136090000D02*
G75*
G02*
X319522500Y-136290000I0J-200000D01*
G01*
X317722500Y-138090000D02*
G75*
G02*
X317522500Y-137890000I0J200000D01*
G01*
X319522500Y-137890000D02*
G75*
G02*
X319322500Y-138090000I-200000J0D01*
G01*
X304772500Y-138630000D02*
X306372500Y-138630000D01*
X306572500Y-138830000D02*
X306572500Y-140430000D01*
X306372500Y-140630000D02*
X304772500Y-140630000D01*
X304572500Y-140430000D02*
X304572500Y-138830000D01*
D11*
X306572500Y-138830000D02*
X306572500Y-140430000D01*
X306372500Y-140630000D01*
X304772500Y-140630000D01*
X304572500Y-140430000D01*
X304572500Y-138830000D01*
X304772500Y-138630000D01*
X306372500Y-138630000D01*
X306572500Y-138830000D01*
G36*
X306572500Y-138830000D02*
G01*
X306572500Y-140430000D01*
X306372500Y-140630000D01*
X304772500Y-140630000D01*
X304572500Y-140430000D01*
X304572500Y-138830000D01*
X304772500Y-138630000D01*
X306372500Y-138630000D01*
X306572500Y-138830000D01*
G37*
D10*
X317522500Y-136290000D02*
X317522500Y-137890000D01*
X317722500Y-138090000D02*
X319322500Y-138090000D01*
X319522500Y-137890000D02*
X319522500Y-136290000D01*
X317722500Y-136090000D02*
X319322500Y-136090000D01*
D11*
X319522500Y-136290000D02*
X319522500Y-137890000D01*
X319322500Y-138090000D01*
X317722500Y-138090000D01*
X317522500Y-137890000D01*
X317522500Y-136290000D01*
X317722500Y-136090000D01*
X319322500Y-136090000D01*
X319522500Y-136290000D01*
G36*
X319522500Y-136290000D02*
G01*
X319522500Y-137890000D01*
X319322500Y-138090000D01*
X317722500Y-138090000D01*
X317522500Y-137890000D01*
X317522500Y-136290000D01*
X317722500Y-136090000D01*
X319322500Y-136090000D01*
X319522500Y-136290000D01*
G37*
D10*
%TO.C,SW83*%
X285522500Y-138830000D02*
G75*
G02*
X285722500Y-138630000I200000J0D01*
G01*
X287322500Y-138630000D02*
G75*
G02*
X287522500Y-138830000I0J-200000D01*
G01*
X287522500Y-140430000D02*
G75*
G02*
X287322500Y-140630000I-200000J0D01*
G01*
X285722500Y-140630000D02*
G75*
G02*
X285522500Y-140430000I0J200000D01*
G01*
X298472500Y-136290000D02*
G75*
G02*
X298672500Y-136090000I200000J0D01*
G01*
X300272500Y-136090000D02*
G75*
G02*
X300472500Y-136290000I0J-200000D01*
G01*
X298672500Y-138090000D02*
G75*
G02*
X298472500Y-137890000I0J200000D01*
G01*
X300472500Y-137890000D02*
G75*
G02*
X300272500Y-138090000I-200000J0D01*
G01*
X285722500Y-138630000D02*
X287322500Y-138630000D01*
X287522500Y-138830000D02*
X287522500Y-140430000D01*
X287322500Y-140630000D02*
X285722500Y-140630000D01*
X285522500Y-140430000D02*
X285522500Y-138830000D01*
D11*
X287522500Y-138830000D02*
X287522500Y-140430000D01*
X287322500Y-140630000D01*
X285722500Y-140630000D01*
X285522500Y-140430000D01*
X285522500Y-138830000D01*
X285722500Y-138630000D01*
X287322500Y-138630000D01*
X287522500Y-138830000D01*
G36*
X287522500Y-138830000D02*
G01*
X287522500Y-140430000D01*
X287322500Y-140630000D01*
X285722500Y-140630000D01*
X285522500Y-140430000D01*
X285522500Y-138830000D01*
X285722500Y-138630000D01*
X287322500Y-138630000D01*
X287522500Y-138830000D01*
G37*
D10*
X298472500Y-136290000D02*
X298472500Y-137890000D01*
X298672500Y-138090000D02*
X300272500Y-138090000D01*
X300472500Y-137890000D02*
X300472500Y-136290000D01*
X298672500Y-136090000D02*
X300272500Y-136090000D01*
D11*
X300472500Y-136290000D02*
X300472500Y-137890000D01*
X300272500Y-138090000D01*
X298672500Y-138090000D01*
X298472500Y-137890000D01*
X298472500Y-136290000D01*
X298672500Y-136090000D01*
X300272500Y-136090000D01*
X300472500Y-136290000D01*
G36*
X300472500Y-136290000D02*
G01*
X300472500Y-137890000D01*
X300272500Y-138090000D01*
X298672500Y-138090000D01*
X298472500Y-137890000D01*
X298472500Y-136290000D01*
X298672500Y-136090000D01*
X300272500Y-136090000D01*
X300472500Y-136290000D01*
G37*
D10*
%TO.C,SW82*%
X266472500Y-138830000D02*
G75*
G02*
X266672500Y-138630000I200000J0D01*
G01*
X268272500Y-138630000D02*
G75*
G02*
X268472500Y-138830000I0J-200000D01*
G01*
X268472500Y-140430000D02*
G75*
G02*
X268272500Y-140630000I-200000J0D01*
G01*
X266672500Y-140630000D02*
G75*
G02*
X266472500Y-140430000I0J200000D01*
G01*
X279422500Y-136290000D02*
G75*
G02*
X279622500Y-136090000I200000J0D01*
G01*
X281222500Y-136090000D02*
G75*
G02*
X281422500Y-136290000I0J-200000D01*
G01*
X279622500Y-138090000D02*
G75*
G02*
X279422500Y-137890000I0J200000D01*
G01*
X281422500Y-137890000D02*
G75*
G02*
X281222500Y-138090000I-200000J0D01*
G01*
X266672500Y-138630000D02*
X268272500Y-138630000D01*
X268472500Y-138830000D02*
X268472500Y-140430000D01*
X268272500Y-140630000D02*
X266672500Y-140630000D01*
X266472500Y-140430000D02*
X266472500Y-138830000D01*
D11*
X268472500Y-138830000D02*
X268472500Y-140430000D01*
X268272500Y-140630000D01*
X266672500Y-140630000D01*
X266472500Y-140430000D01*
X266472500Y-138830000D01*
X266672500Y-138630000D01*
X268272500Y-138630000D01*
X268472500Y-138830000D01*
G36*
X268472500Y-138830000D02*
G01*
X268472500Y-140430000D01*
X268272500Y-140630000D01*
X266672500Y-140630000D01*
X266472500Y-140430000D01*
X266472500Y-138830000D01*
X266672500Y-138630000D01*
X268272500Y-138630000D01*
X268472500Y-138830000D01*
G37*
D10*
X279422500Y-136290000D02*
X279422500Y-137890000D01*
X279622500Y-138090000D02*
X281222500Y-138090000D01*
X281422500Y-137890000D02*
X281422500Y-136290000D01*
X279622500Y-136090000D02*
X281222500Y-136090000D01*
D11*
X281422500Y-136290000D02*
X281422500Y-137890000D01*
X281222500Y-138090000D01*
X279622500Y-138090000D01*
X279422500Y-137890000D01*
X279422500Y-136290000D01*
X279622500Y-136090000D01*
X281222500Y-136090000D01*
X281422500Y-136290000D01*
G36*
X281422500Y-136290000D02*
G01*
X281422500Y-137890000D01*
X281222500Y-138090000D01*
X279622500Y-138090000D01*
X279422500Y-137890000D01*
X279422500Y-136290000D01*
X279622500Y-136090000D01*
X281222500Y-136090000D01*
X281422500Y-136290000D01*
G37*
D10*
%TO.C,SW81*%
X225991250Y-138830000D02*
G75*
G02*
X226191250Y-138630000I200000J0D01*
G01*
X227791250Y-138630000D02*
G75*
G02*
X227991250Y-138830000I0J-200000D01*
G01*
X227991250Y-140430000D02*
G75*
G02*
X227791250Y-140630000I-200000J0D01*
G01*
X226191250Y-140630000D02*
G75*
G02*
X225991250Y-140430000I0J200000D01*
G01*
X238941250Y-136290000D02*
G75*
G02*
X239141250Y-136090000I200000J0D01*
G01*
X240741250Y-136090000D02*
G75*
G02*
X240941250Y-136290000I0J-200000D01*
G01*
X239141250Y-138090000D02*
G75*
G02*
X238941250Y-137890000I0J200000D01*
G01*
X240941250Y-137890000D02*
G75*
G02*
X240741250Y-138090000I-200000J0D01*
G01*
X226191250Y-138630000D02*
X227791250Y-138630000D01*
X227991250Y-138830000D02*
X227991250Y-140430000D01*
X227791250Y-140630000D02*
X226191250Y-140630000D01*
X225991250Y-140430000D02*
X225991250Y-138830000D01*
D11*
X227991250Y-138830000D02*
X227991250Y-140430000D01*
X227791250Y-140630000D01*
X226191250Y-140630000D01*
X225991250Y-140430000D01*
X225991250Y-138830000D01*
X226191250Y-138630000D01*
X227791250Y-138630000D01*
X227991250Y-138830000D01*
G36*
X227991250Y-138830000D02*
G01*
X227991250Y-140430000D01*
X227791250Y-140630000D01*
X226191250Y-140630000D01*
X225991250Y-140430000D01*
X225991250Y-138830000D01*
X226191250Y-138630000D01*
X227791250Y-138630000D01*
X227991250Y-138830000D01*
G37*
D10*
X238941250Y-136290000D02*
X238941250Y-137890000D01*
X239141250Y-138090000D02*
X240741250Y-138090000D01*
X240941250Y-137890000D02*
X240941250Y-136290000D01*
X239141250Y-136090000D02*
X240741250Y-136090000D01*
D11*
X240941250Y-136290000D02*
X240941250Y-137890000D01*
X240741250Y-138090000D01*
X239141250Y-138090000D01*
X238941250Y-137890000D01*
X238941250Y-136290000D01*
X239141250Y-136090000D01*
X240741250Y-136090000D01*
X240941250Y-136290000D01*
G36*
X240941250Y-136290000D02*
G01*
X240941250Y-137890000D01*
X240741250Y-138090000D01*
X239141250Y-138090000D01*
X238941250Y-137890000D01*
X238941250Y-136290000D01*
X239141250Y-136090000D01*
X240741250Y-136090000D01*
X240941250Y-136290000D01*
G37*
D10*
%TO.C,SW80*%
X185510000Y-138830000D02*
G75*
G02*
X185710000Y-138630000I200000J0D01*
G01*
X187310000Y-138630000D02*
G75*
G02*
X187510000Y-138830000I0J-200000D01*
G01*
X187510000Y-140430000D02*
G75*
G02*
X187310000Y-140630000I-200000J0D01*
G01*
X185710000Y-140630000D02*
G75*
G02*
X185510000Y-140430000I0J200000D01*
G01*
X198460000Y-136290000D02*
G75*
G02*
X198660000Y-136090000I200000J0D01*
G01*
X200260000Y-136090000D02*
G75*
G02*
X200460000Y-136290000I0J-200000D01*
G01*
X198660000Y-138090000D02*
G75*
G02*
X198460000Y-137890000I0J200000D01*
G01*
X200460000Y-137890000D02*
G75*
G02*
X200260000Y-138090000I-200000J0D01*
G01*
X185710000Y-138630000D02*
X187310000Y-138630000D01*
X187510000Y-138830000D02*
X187510000Y-140430000D01*
X187310000Y-140630000D02*
X185710000Y-140630000D01*
X185510000Y-140430000D02*
X185510000Y-138830000D01*
D11*
X187510000Y-138830000D02*
X187510000Y-140430000D01*
X187310000Y-140630000D01*
X185710000Y-140630000D01*
X185510000Y-140430000D01*
X185510000Y-138830000D01*
X185710000Y-138630000D01*
X187310000Y-138630000D01*
X187510000Y-138830000D01*
G36*
X187510000Y-138830000D02*
G01*
X187510000Y-140430000D01*
X187310000Y-140630000D01*
X185710000Y-140630000D01*
X185510000Y-140430000D01*
X185510000Y-138830000D01*
X185710000Y-138630000D01*
X187310000Y-138630000D01*
X187510000Y-138830000D01*
G37*
D10*
X198460000Y-136290000D02*
X198460000Y-137890000D01*
X198660000Y-138090000D02*
X200260000Y-138090000D01*
X200460000Y-137890000D02*
X200460000Y-136290000D01*
X198660000Y-136090000D02*
X200260000Y-136090000D01*
D11*
X200460000Y-136290000D02*
X200460000Y-137890000D01*
X200260000Y-138090000D01*
X198660000Y-138090000D01*
X198460000Y-137890000D01*
X198460000Y-136290000D01*
X198660000Y-136090000D01*
X200260000Y-136090000D01*
X200460000Y-136290000D01*
G36*
X200460000Y-136290000D02*
G01*
X200460000Y-137890000D01*
X200260000Y-138090000D01*
X198660000Y-138090000D01*
X198460000Y-137890000D01*
X198460000Y-136290000D01*
X198660000Y-136090000D01*
X200260000Y-136090000D01*
X200460000Y-136290000D01*
G37*
D10*
%TO.C,SW79*%
X166460000Y-138830000D02*
G75*
G02*
X166660000Y-138630000I200000J0D01*
G01*
X168260000Y-138630000D02*
G75*
G02*
X168460000Y-138830000I0J-200000D01*
G01*
X168460000Y-140430000D02*
G75*
G02*
X168260000Y-140630000I-200000J0D01*
G01*
X166660000Y-140630000D02*
G75*
G02*
X166460000Y-140430000I0J200000D01*
G01*
X179410000Y-136290000D02*
G75*
G02*
X179610000Y-136090000I200000J0D01*
G01*
X181210000Y-136090000D02*
G75*
G02*
X181410000Y-136290000I0J-200000D01*
G01*
X179610000Y-138090000D02*
G75*
G02*
X179410000Y-137890000I0J200000D01*
G01*
X181410000Y-137890000D02*
G75*
G02*
X181210000Y-138090000I-200000J0D01*
G01*
X166660000Y-138630000D02*
X168260000Y-138630000D01*
X168460000Y-138830000D02*
X168460000Y-140430000D01*
X168260000Y-140630000D02*
X166660000Y-140630000D01*
X166460000Y-140430000D02*
X166460000Y-138830000D01*
D11*
X168460000Y-138830000D02*
X168460000Y-140430000D01*
X168260000Y-140630000D01*
X166660000Y-140630000D01*
X166460000Y-140430000D01*
X166460000Y-138830000D01*
X166660000Y-138630000D01*
X168260000Y-138630000D01*
X168460000Y-138830000D01*
G36*
X168460000Y-138830000D02*
G01*
X168460000Y-140430000D01*
X168260000Y-140630000D01*
X166660000Y-140630000D01*
X166460000Y-140430000D01*
X166460000Y-138830000D01*
X166660000Y-138630000D01*
X168260000Y-138630000D01*
X168460000Y-138830000D01*
G37*
D10*
X179410000Y-136290000D02*
X179410000Y-137890000D01*
X179610000Y-138090000D02*
X181210000Y-138090000D01*
X181410000Y-137890000D02*
X181410000Y-136290000D01*
X179610000Y-136090000D02*
X181210000Y-136090000D01*
D11*
X181410000Y-136290000D02*
X181410000Y-137890000D01*
X181210000Y-138090000D01*
X179610000Y-138090000D01*
X179410000Y-137890000D01*
X179410000Y-136290000D01*
X179610000Y-136090000D01*
X181210000Y-136090000D01*
X181410000Y-136290000D01*
G36*
X181410000Y-136290000D02*
G01*
X181410000Y-137890000D01*
X181210000Y-138090000D01*
X179610000Y-138090000D01*
X179410000Y-137890000D01*
X179410000Y-136290000D01*
X179610000Y-136090000D01*
X181210000Y-136090000D01*
X181410000Y-136290000D01*
G37*
D10*
%TO.C,SW78*%
X147410000Y-138830000D02*
G75*
G02*
X147610000Y-138630000I200000J0D01*
G01*
X149210000Y-138630000D02*
G75*
G02*
X149410000Y-138830000I0J-200000D01*
G01*
X149410000Y-140430000D02*
G75*
G02*
X149210000Y-140630000I-200000J0D01*
G01*
X147610000Y-140630000D02*
G75*
G02*
X147410000Y-140430000I0J200000D01*
G01*
X160360000Y-136290000D02*
G75*
G02*
X160560000Y-136090000I200000J0D01*
G01*
X162160000Y-136090000D02*
G75*
G02*
X162360000Y-136290000I0J-200000D01*
G01*
X160560000Y-138090000D02*
G75*
G02*
X160360000Y-137890000I0J200000D01*
G01*
X162360000Y-137890000D02*
G75*
G02*
X162160000Y-138090000I-200000J0D01*
G01*
X147610000Y-138630000D02*
X149210000Y-138630000D01*
X149410000Y-138830000D02*
X149410000Y-140430000D01*
X149210000Y-140630000D02*
X147610000Y-140630000D01*
X147410000Y-140430000D02*
X147410000Y-138830000D01*
D11*
X149410000Y-138830000D02*
X149410000Y-140430000D01*
X149210000Y-140630000D01*
X147610000Y-140630000D01*
X147410000Y-140430000D01*
X147410000Y-138830000D01*
X147610000Y-138630000D01*
X149210000Y-138630000D01*
X149410000Y-138830000D01*
G36*
X149410000Y-138830000D02*
G01*
X149410000Y-140430000D01*
X149210000Y-140630000D01*
X147610000Y-140630000D01*
X147410000Y-140430000D01*
X147410000Y-138830000D01*
X147610000Y-138630000D01*
X149210000Y-138630000D01*
X149410000Y-138830000D01*
G37*
D10*
X160360000Y-136290000D02*
X160360000Y-137890000D01*
X160560000Y-138090000D02*
X162160000Y-138090000D01*
X162360000Y-137890000D02*
X162360000Y-136290000D01*
X160560000Y-136090000D02*
X162160000Y-136090000D01*
D11*
X162360000Y-136290000D02*
X162360000Y-137890000D01*
X162160000Y-138090000D01*
X160560000Y-138090000D01*
X160360000Y-137890000D01*
X160360000Y-136290000D01*
X160560000Y-136090000D01*
X162160000Y-136090000D01*
X162360000Y-136290000D01*
G36*
X162360000Y-136290000D02*
G01*
X162360000Y-137890000D01*
X162160000Y-138090000D01*
X160560000Y-138090000D01*
X160360000Y-137890000D01*
X160360000Y-136290000D01*
X160560000Y-136090000D01*
X162160000Y-136090000D01*
X162360000Y-136290000D01*
G37*
D10*
%TO.C,SW77*%
X128360000Y-138830000D02*
G75*
G02*
X128560000Y-138630000I200000J0D01*
G01*
X130160000Y-138630000D02*
G75*
G02*
X130360000Y-138830000I0J-200000D01*
G01*
X130360000Y-140430000D02*
G75*
G02*
X130160000Y-140630000I-200000J0D01*
G01*
X128560000Y-140630000D02*
G75*
G02*
X128360000Y-140430000I0J200000D01*
G01*
X141310000Y-136290000D02*
G75*
G02*
X141510000Y-136090000I200000J0D01*
G01*
X143110000Y-136090000D02*
G75*
G02*
X143310000Y-136290000I0J-200000D01*
G01*
X141510000Y-138090000D02*
G75*
G02*
X141310000Y-137890000I0J200000D01*
G01*
X143310000Y-137890000D02*
G75*
G02*
X143110000Y-138090000I-200000J0D01*
G01*
X128560000Y-138630000D02*
X130160000Y-138630000D01*
X130360000Y-138830000D02*
X130360000Y-140430000D01*
X130160000Y-140630000D02*
X128560000Y-140630000D01*
X128360000Y-140430000D02*
X128360000Y-138830000D01*
D11*
X130360000Y-138830000D02*
X130360000Y-140430000D01*
X130160000Y-140630000D01*
X128560000Y-140630000D01*
X128360000Y-140430000D01*
X128360000Y-138830000D01*
X128560000Y-138630000D01*
X130160000Y-138630000D01*
X130360000Y-138830000D01*
G36*
X130360000Y-138830000D02*
G01*
X130360000Y-140430000D01*
X130160000Y-140630000D01*
X128560000Y-140630000D01*
X128360000Y-140430000D01*
X128360000Y-138830000D01*
X128560000Y-138630000D01*
X130160000Y-138630000D01*
X130360000Y-138830000D01*
G37*
D10*
X141310000Y-136290000D02*
X141310000Y-137890000D01*
X141510000Y-138090000D02*
X143110000Y-138090000D01*
X143310000Y-137890000D02*
X143310000Y-136290000D01*
X141510000Y-136090000D02*
X143110000Y-136090000D01*
D11*
X143310000Y-136290000D02*
X143310000Y-137890000D01*
X143110000Y-138090000D01*
X141510000Y-138090000D01*
X141310000Y-137890000D01*
X141310000Y-136290000D01*
X141510000Y-136090000D01*
X143110000Y-136090000D01*
X143310000Y-136290000D01*
G36*
X143310000Y-136290000D02*
G01*
X143310000Y-137890000D01*
X143110000Y-138090000D01*
X141510000Y-138090000D01*
X141310000Y-137890000D01*
X141310000Y-136290000D01*
X141510000Y-136090000D01*
X143110000Y-136090000D01*
X143310000Y-136290000D01*
G37*
D10*
%TO.C,SW76*%
X102166250Y-138830000D02*
G75*
G02*
X102366250Y-138630000I200000J0D01*
G01*
X103966250Y-138630000D02*
G75*
G02*
X104166250Y-138830000I0J-200000D01*
G01*
X104166250Y-140430000D02*
G75*
G02*
X103966250Y-140630000I-200000J0D01*
G01*
X102366250Y-140630000D02*
G75*
G02*
X102166250Y-140430000I0J200000D01*
G01*
X115116250Y-136290000D02*
G75*
G02*
X115316250Y-136090000I200000J0D01*
G01*
X116916250Y-136090000D02*
G75*
G02*
X117116250Y-136290000I0J-200000D01*
G01*
X115316250Y-138090000D02*
G75*
G02*
X115116250Y-137890000I0J200000D01*
G01*
X117116250Y-137890000D02*
G75*
G02*
X116916250Y-138090000I-200000J0D01*
G01*
X102366250Y-138630000D02*
X103966250Y-138630000D01*
X104166250Y-138830000D02*
X104166250Y-140430000D01*
X103966250Y-140630000D02*
X102366250Y-140630000D01*
X102166250Y-140430000D02*
X102166250Y-138830000D01*
D11*
X104166250Y-138830000D02*
X104166250Y-140430000D01*
X103966250Y-140630000D01*
X102366250Y-140630000D01*
X102166250Y-140430000D01*
X102166250Y-138830000D01*
X102366250Y-138630000D01*
X103966250Y-138630000D01*
X104166250Y-138830000D01*
G36*
X104166250Y-138830000D02*
G01*
X104166250Y-140430000D01*
X103966250Y-140630000D01*
X102366250Y-140630000D01*
X102166250Y-140430000D01*
X102166250Y-138830000D01*
X102366250Y-138630000D01*
X103966250Y-138630000D01*
X104166250Y-138830000D01*
G37*
D10*
X115116250Y-136290000D02*
X115116250Y-137890000D01*
X115316250Y-138090000D02*
X116916250Y-138090000D01*
X117116250Y-137890000D02*
X117116250Y-136290000D01*
X115316250Y-136090000D02*
X116916250Y-136090000D01*
D11*
X117116250Y-136290000D02*
X117116250Y-137890000D01*
X116916250Y-138090000D01*
X115316250Y-138090000D01*
X115116250Y-137890000D01*
X115116250Y-136290000D01*
X115316250Y-136090000D01*
X116916250Y-136090000D01*
X117116250Y-136290000D01*
G36*
X117116250Y-136290000D02*
G01*
X117116250Y-137890000D01*
X116916250Y-138090000D01*
X115316250Y-138090000D01*
X115116250Y-137890000D01*
X115116250Y-136290000D01*
X115316250Y-136090000D01*
X116916250Y-136090000D01*
X117116250Y-136290000D01*
G37*
D10*
%TO.C,SW75*%
X390297500Y-119780000D02*
G75*
G02*
X390497500Y-119580000I200000J0D01*
G01*
X392097500Y-119580000D02*
G75*
G02*
X392297500Y-119780000I0J-200000D01*
G01*
X392297500Y-121380000D02*
G75*
G02*
X392097500Y-121580000I-200000J0D01*
G01*
X390497500Y-121580000D02*
G75*
G02*
X390297500Y-121380000I0J200000D01*
G01*
X403247500Y-117240000D02*
G75*
G02*
X403447500Y-117040000I200000J0D01*
G01*
X405047500Y-117040000D02*
G75*
G02*
X405247500Y-117240000I0J-200000D01*
G01*
X403447500Y-119040000D02*
G75*
G02*
X403247500Y-118840000I0J200000D01*
G01*
X405247500Y-118840000D02*
G75*
G02*
X405047500Y-119040000I-200000J0D01*
G01*
X390497500Y-119580000D02*
X392097500Y-119580000D01*
X392297500Y-119780000D02*
X392297500Y-121380000D01*
X392097500Y-121580000D02*
X390497500Y-121580000D01*
X390297500Y-121380000D02*
X390297500Y-119780000D01*
D11*
X392297500Y-119780000D02*
X392297500Y-121380000D01*
X392097500Y-121580000D01*
X390497500Y-121580000D01*
X390297500Y-121380000D01*
X390297500Y-119780000D01*
X390497500Y-119580000D01*
X392097500Y-119580000D01*
X392297500Y-119780000D01*
G36*
X392297500Y-119780000D02*
G01*
X392297500Y-121380000D01*
X392097500Y-121580000D01*
X390497500Y-121580000D01*
X390297500Y-121380000D01*
X390297500Y-119780000D01*
X390497500Y-119580000D01*
X392097500Y-119580000D01*
X392297500Y-119780000D01*
G37*
D10*
X403247500Y-117240000D02*
X403247500Y-118840000D01*
X403447500Y-119040000D02*
X405047500Y-119040000D01*
X405247500Y-118840000D02*
X405247500Y-117240000D01*
X403447500Y-117040000D02*
X405047500Y-117040000D01*
D11*
X405247500Y-117240000D02*
X405247500Y-118840000D01*
X405047500Y-119040000D01*
X403447500Y-119040000D01*
X403247500Y-118840000D01*
X403247500Y-117240000D01*
X403447500Y-117040000D01*
X405047500Y-117040000D01*
X405247500Y-117240000D01*
G36*
X405247500Y-117240000D02*
G01*
X405247500Y-118840000D01*
X405047500Y-119040000D01*
X403447500Y-119040000D01*
X403247500Y-118840000D01*
X403247500Y-117240000D01*
X403447500Y-117040000D01*
X405047500Y-117040000D01*
X405247500Y-117240000D01*
G37*
D10*
%TO.C,SW74*%
X366485000Y-119780000D02*
G75*
G02*
X366685000Y-119580000I200000J0D01*
G01*
X368285000Y-119580000D02*
G75*
G02*
X368485000Y-119780000I0J-200000D01*
G01*
X368485000Y-121380000D02*
G75*
G02*
X368285000Y-121580000I-200000J0D01*
G01*
X366685000Y-121580000D02*
G75*
G02*
X366485000Y-121380000I0J200000D01*
G01*
X379435000Y-117240000D02*
G75*
G02*
X379635000Y-117040000I200000J0D01*
G01*
X381235000Y-117040000D02*
G75*
G02*
X381435000Y-117240000I0J-200000D01*
G01*
X379635000Y-119040000D02*
G75*
G02*
X379435000Y-118840000I0J200000D01*
G01*
X381435000Y-118840000D02*
G75*
G02*
X381235000Y-119040000I-200000J0D01*
G01*
X366685000Y-119580000D02*
X368285000Y-119580000D01*
X368485000Y-119780000D02*
X368485000Y-121380000D01*
X368285000Y-121580000D02*
X366685000Y-121580000D01*
X366485000Y-121380000D02*
X366485000Y-119780000D01*
D11*
X368485000Y-119780000D02*
X368485000Y-121380000D01*
X368285000Y-121580000D01*
X366685000Y-121580000D01*
X366485000Y-121380000D01*
X366485000Y-119780000D01*
X366685000Y-119580000D01*
X368285000Y-119580000D01*
X368485000Y-119780000D01*
G36*
X368485000Y-119780000D02*
G01*
X368485000Y-121380000D01*
X368285000Y-121580000D01*
X366685000Y-121580000D01*
X366485000Y-121380000D01*
X366485000Y-119780000D01*
X366685000Y-119580000D01*
X368285000Y-119580000D01*
X368485000Y-119780000D01*
G37*
D10*
X379435000Y-117240000D02*
X379435000Y-118840000D01*
X379635000Y-119040000D02*
X381235000Y-119040000D01*
X381435000Y-118840000D02*
X381435000Y-117240000D01*
X379635000Y-117040000D02*
X381235000Y-117040000D01*
D11*
X381435000Y-117240000D02*
X381435000Y-118840000D01*
X381235000Y-119040000D01*
X379635000Y-119040000D01*
X379435000Y-118840000D01*
X379435000Y-117240000D01*
X379635000Y-117040000D01*
X381235000Y-117040000D01*
X381435000Y-117240000D01*
G36*
X381435000Y-117240000D02*
G01*
X381435000Y-118840000D01*
X381235000Y-119040000D01*
X379635000Y-119040000D01*
X379435000Y-118840000D01*
X379435000Y-117240000D01*
X379635000Y-117040000D01*
X381235000Y-117040000D01*
X381435000Y-117240000D01*
G37*
D10*
%TO.C,SW73*%
X347435000Y-119780000D02*
G75*
G02*
X347635000Y-119580000I200000J0D01*
G01*
X349235000Y-119580000D02*
G75*
G02*
X349435000Y-119780000I0J-200000D01*
G01*
X349435000Y-121380000D02*
G75*
G02*
X349235000Y-121580000I-200000J0D01*
G01*
X347635000Y-121580000D02*
G75*
G02*
X347435000Y-121380000I0J200000D01*
G01*
X360385000Y-117240000D02*
G75*
G02*
X360585000Y-117040000I200000J0D01*
G01*
X362185000Y-117040000D02*
G75*
G02*
X362385000Y-117240000I0J-200000D01*
G01*
X360585000Y-119040000D02*
G75*
G02*
X360385000Y-118840000I0J200000D01*
G01*
X362385000Y-118840000D02*
G75*
G02*
X362185000Y-119040000I-200000J0D01*
G01*
X347635000Y-119580000D02*
X349235000Y-119580000D01*
X349435000Y-119780000D02*
X349435000Y-121380000D01*
X349235000Y-121580000D02*
X347635000Y-121580000D01*
X347435000Y-121380000D02*
X347435000Y-119780000D01*
D11*
X349435000Y-119780000D02*
X349435000Y-121380000D01*
X349235000Y-121580000D01*
X347635000Y-121580000D01*
X347435000Y-121380000D01*
X347435000Y-119780000D01*
X347635000Y-119580000D01*
X349235000Y-119580000D01*
X349435000Y-119780000D01*
G36*
X349435000Y-119780000D02*
G01*
X349435000Y-121380000D01*
X349235000Y-121580000D01*
X347635000Y-121580000D01*
X347435000Y-121380000D01*
X347435000Y-119780000D01*
X347635000Y-119580000D01*
X349235000Y-119580000D01*
X349435000Y-119780000D01*
G37*
D10*
X360385000Y-117240000D02*
X360385000Y-118840000D01*
X360585000Y-119040000D02*
X362185000Y-119040000D01*
X362385000Y-118840000D02*
X362385000Y-117240000D01*
X360585000Y-117040000D02*
X362185000Y-117040000D01*
D11*
X362385000Y-117240000D02*
X362385000Y-118840000D01*
X362185000Y-119040000D01*
X360585000Y-119040000D01*
X360385000Y-118840000D01*
X360385000Y-117240000D01*
X360585000Y-117040000D01*
X362185000Y-117040000D01*
X362385000Y-117240000D01*
G36*
X362385000Y-117240000D02*
G01*
X362385000Y-118840000D01*
X362185000Y-119040000D01*
X360585000Y-119040000D01*
X360385000Y-118840000D01*
X360385000Y-117240000D01*
X360585000Y-117040000D01*
X362185000Y-117040000D01*
X362385000Y-117240000D01*
G37*
D10*
%TO.C,SW72*%
X328385000Y-119780000D02*
G75*
G02*
X328585000Y-119580000I200000J0D01*
G01*
X330185000Y-119580000D02*
G75*
G02*
X330385000Y-119780000I0J-200000D01*
G01*
X330385000Y-121380000D02*
G75*
G02*
X330185000Y-121580000I-200000J0D01*
G01*
X328585000Y-121580000D02*
G75*
G02*
X328385000Y-121380000I0J200000D01*
G01*
X341335000Y-117240000D02*
G75*
G02*
X341535000Y-117040000I200000J0D01*
G01*
X343135000Y-117040000D02*
G75*
G02*
X343335000Y-117240000I0J-200000D01*
G01*
X341535000Y-119040000D02*
G75*
G02*
X341335000Y-118840000I0J200000D01*
G01*
X343335000Y-118840000D02*
G75*
G02*
X343135000Y-119040000I-200000J0D01*
G01*
X328585000Y-119580000D02*
X330185000Y-119580000D01*
X330385000Y-119780000D02*
X330385000Y-121380000D01*
X330185000Y-121580000D02*
X328585000Y-121580000D01*
X328385000Y-121380000D02*
X328385000Y-119780000D01*
D11*
X330385000Y-119780000D02*
X330385000Y-121380000D01*
X330185000Y-121580000D01*
X328585000Y-121580000D01*
X328385000Y-121380000D01*
X328385000Y-119780000D01*
X328585000Y-119580000D01*
X330185000Y-119580000D01*
X330385000Y-119780000D01*
G36*
X330385000Y-119780000D02*
G01*
X330385000Y-121380000D01*
X330185000Y-121580000D01*
X328585000Y-121580000D01*
X328385000Y-121380000D01*
X328385000Y-119780000D01*
X328585000Y-119580000D01*
X330185000Y-119580000D01*
X330385000Y-119780000D01*
G37*
D10*
X341335000Y-117240000D02*
X341335000Y-118840000D01*
X341535000Y-119040000D02*
X343135000Y-119040000D01*
X343335000Y-118840000D02*
X343335000Y-117240000D01*
X341535000Y-117040000D02*
X343135000Y-117040000D01*
D11*
X343335000Y-117240000D02*
X343335000Y-118840000D01*
X343135000Y-119040000D01*
X341535000Y-119040000D01*
X341335000Y-118840000D01*
X341335000Y-117240000D01*
X341535000Y-117040000D01*
X343135000Y-117040000D01*
X343335000Y-117240000D01*
G36*
X343335000Y-117240000D02*
G01*
X343335000Y-118840000D01*
X343135000Y-119040000D01*
X341535000Y-119040000D01*
X341335000Y-118840000D01*
X341335000Y-117240000D01*
X341535000Y-117040000D01*
X343135000Y-117040000D01*
X343335000Y-117240000D01*
G37*
D10*
%TO.C,SW71*%
X309335000Y-119780000D02*
G75*
G02*
X309535000Y-119580000I200000J0D01*
G01*
X311135000Y-119580000D02*
G75*
G02*
X311335000Y-119780000I0J-200000D01*
G01*
X311335000Y-121380000D02*
G75*
G02*
X311135000Y-121580000I-200000J0D01*
G01*
X309535000Y-121580000D02*
G75*
G02*
X309335000Y-121380000I0J200000D01*
G01*
X322285000Y-117240000D02*
G75*
G02*
X322485000Y-117040000I200000J0D01*
G01*
X324085000Y-117040000D02*
G75*
G02*
X324285000Y-117240000I0J-200000D01*
G01*
X322485000Y-119040000D02*
G75*
G02*
X322285000Y-118840000I0J200000D01*
G01*
X324285000Y-118840000D02*
G75*
G02*
X324085000Y-119040000I-200000J0D01*
G01*
X309535000Y-119580000D02*
X311135000Y-119580000D01*
X311335000Y-119780000D02*
X311335000Y-121380000D01*
X311135000Y-121580000D02*
X309535000Y-121580000D01*
X309335000Y-121380000D02*
X309335000Y-119780000D01*
D11*
X311335000Y-119780000D02*
X311335000Y-121380000D01*
X311135000Y-121580000D01*
X309535000Y-121580000D01*
X309335000Y-121380000D01*
X309335000Y-119780000D01*
X309535000Y-119580000D01*
X311135000Y-119580000D01*
X311335000Y-119780000D01*
G36*
X311335000Y-119780000D02*
G01*
X311335000Y-121380000D01*
X311135000Y-121580000D01*
X309535000Y-121580000D01*
X309335000Y-121380000D01*
X309335000Y-119780000D01*
X309535000Y-119580000D01*
X311135000Y-119580000D01*
X311335000Y-119780000D01*
G37*
D10*
X322285000Y-117240000D02*
X322285000Y-118840000D01*
X322485000Y-119040000D02*
X324085000Y-119040000D01*
X324285000Y-118840000D02*
X324285000Y-117240000D01*
X322485000Y-117040000D02*
X324085000Y-117040000D01*
D11*
X324285000Y-117240000D02*
X324285000Y-118840000D01*
X324085000Y-119040000D01*
X322485000Y-119040000D01*
X322285000Y-118840000D01*
X322285000Y-117240000D01*
X322485000Y-117040000D01*
X324085000Y-117040000D01*
X324285000Y-117240000D01*
G36*
X324285000Y-117240000D02*
G01*
X324285000Y-118840000D01*
X324085000Y-119040000D01*
X322485000Y-119040000D01*
X322285000Y-118840000D01*
X322285000Y-117240000D01*
X322485000Y-117040000D01*
X324085000Y-117040000D01*
X324285000Y-117240000D01*
G37*
D10*
%TO.C,SW70*%
X290285000Y-119780000D02*
G75*
G02*
X290485000Y-119580000I200000J0D01*
G01*
X292085000Y-119580000D02*
G75*
G02*
X292285000Y-119780000I0J-200000D01*
G01*
X292285000Y-121380000D02*
G75*
G02*
X292085000Y-121580000I-200000J0D01*
G01*
X290485000Y-121580000D02*
G75*
G02*
X290285000Y-121380000I0J200000D01*
G01*
X303235000Y-117240000D02*
G75*
G02*
X303435000Y-117040000I200000J0D01*
G01*
X305035000Y-117040000D02*
G75*
G02*
X305235000Y-117240000I0J-200000D01*
G01*
X303435000Y-119040000D02*
G75*
G02*
X303235000Y-118840000I0J200000D01*
G01*
X305235000Y-118840000D02*
G75*
G02*
X305035000Y-119040000I-200000J0D01*
G01*
X290485000Y-119580000D02*
X292085000Y-119580000D01*
X292285000Y-119780000D02*
X292285000Y-121380000D01*
X292085000Y-121580000D02*
X290485000Y-121580000D01*
X290285000Y-121380000D02*
X290285000Y-119780000D01*
D11*
X292285000Y-119780000D02*
X292285000Y-121380000D01*
X292085000Y-121580000D01*
X290485000Y-121580000D01*
X290285000Y-121380000D01*
X290285000Y-119780000D01*
X290485000Y-119580000D01*
X292085000Y-119580000D01*
X292285000Y-119780000D01*
G36*
X292285000Y-119780000D02*
G01*
X292285000Y-121380000D01*
X292085000Y-121580000D01*
X290485000Y-121580000D01*
X290285000Y-121380000D01*
X290285000Y-119780000D01*
X290485000Y-119580000D01*
X292085000Y-119580000D01*
X292285000Y-119780000D01*
G37*
D10*
X303235000Y-117240000D02*
X303235000Y-118840000D01*
X303435000Y-119040000D02*
X305035000Y-119040000D01*
X305235000Y-118840000D02*
X305235000Y-117240000D01*
X303435000Y-117040000D02*
X305035000Y-117040000D01*
D11*
X305235000Y-117240000D02*
X305235000Y-118840000D01*
X305035000Y-119040000D01*
X303435000Y-119040000D01*
X303235000Y-118840000D01*
X303235000Y-117240000D01*
X303435000Y-117040000D01*
X305035000Y-117040000D01*
X305235000Y-117240000D01*
G36*
X305235000Y-117240000D02*
G01*
X305235000Y-118840000D01*
X305035000Y-119040000D01*
X303435000Y-119040000D01*
X303235000Y-118840000D01*
X303235000Y-117240000D01*
X303435000Y-117040000D01*
X305035000Y-117040000D01*
X305235000Y-117240000D01*
G37*
D10*
%TO.C,SW69*%
X271235000Y-119780000D02*
G75*
G02*
X271435000Y-119580000I200000J0D01*
G01*
X273035000Y-119580000D02*
G75*
G02*
X273235000Y-119780000I0J-200000D01*
G01*
X273235000Y-121380000D02*
G75*
G02*
X273035000Y-121580000I-200000J0D01*
G01*
X271435000Y-121580000D02*
G75*
G02*
X271235000Y-121380000I0J200000D01*
G01*
X284185000Y-117240000D02*
G75*
G02*
X284385000Y-117040000I200000J0D01*
G01*
X285985000Y-117040000D02*
G75*
G02*
X286185000Y-117240000I0J-200000D01*
G01*
X284385000Y-119040000D02*
G75*
G02*
X284185000Y-118840000I0J200000D01*
G01*
X286185000Y-118840000D02*
G75*
G02*
X285985000Y-119040000I-200000J0D01*
G01*
X271435000Y-119580000D02*
X273035000Y-119580000D01*
X273235000Y-119780000D02*
X273235000Y-121380000D01*
X273035000Y-121580000D02*
X271435000Y-121580000D01*
X271235000Y-121380000D02*
X271235000Y-119780000D01*
D11*
X273235000Y-119780000D02*
X273235000Y-121380000D01*
X273035000Y-121580000D01*
X271435000Y-121580000D01*
X271235000Y-121380000D01*
X271235000Y-119780000D01*
X271435000Y-119580000D01*
X273035000Y-119580000D01*
X273235000Y-119780000D01*
G36*
X273235000Y-119780000D02*
G01*
X273235000Y-121380000D01*
X273035000Y-121580000D01*
X271435000Y-121580000D01*
X271235000Y-121380000D01*
X271235000Y-119780000D01*
X271435000Y-119580000D01*
X273035000Y-119580000D01*
X273235000Y-119780000D01*
G37*
D10*
X284185000Y-117240000D02*
X284185000Y-118840000D01*
X284385000Y-119040000D02*
X285985000Y-119040000D01*
X286185000Y-118840000D02*
X286185000Y-117240000D01*
X284385000Y-117040000D02*
X285985000Y-117040000D01*
D11*
X286185000Y-117240000D02*
X286185000Y-118840000D01*
X285985000Y-119040000D01*
X284385000Y-119040000D01*
X284185000Y-118840000D01*
X284185000Y-117240000D01*
X284385000Y-117040000D01*
X285985000Y-117040000D01*
X286185000Y-117240000D01*
G36*
X286185000Y-117240000D02*
G01*
X286185000Y-118840000D01*
X285985000Y-119040000D01*
X284385000Y-119040000D01*
X284185000Y-118840000D01*
X284185000Y-117240000D01*
X284385000Y-117040000D01*
X285985000Y-117040000D01*
X286185000Y-117240000D01*
G37*
D10*
%TO.C,SW68*%
X252185000Y-119780000D02*
G75*
G02*
X252385000Y-119580000I200000J0D01*
G01*
X253985000Y-119580000D02*
G75*
G02*
X254185000Y-119780000I0J-200000D01*
G01*
X254185000Y-121380000D02*
G75*
G02*
X253985000Y-121580000I-200000J0D01*
G01*
X252385000Y-121580000D02*
G75*
G02*
X252185000Y-121380000I0J200000D01*
G01*
X265135000Y-117240000D02*
G75*
G02*
X265335000Y-117040000I200000J0D01*
G01*
X266935000Y-117040000D02*
G75*
G02*
X267135000Y-117240000I0J-200000D01*
G01*
X265335000Y-119040000D02*
G75*
G02*
X265135000Y-118840000I0J200000D01*
G01*
X267135000Y-118840000D02*
G75*
G02*
X266935000Y-119040000I-200000J0D01*
G01*
X252385000Y-119580000D02*
X253985000Y-119580000D01*
X254185000Y-119780000D02*
X254185000Y-121380000D01*
X253985000Y-121580000D02*
X252385000Y-121580000D01*
X252185000Y-121380000D02*
X252185000Y-119780000D01*
D11*
X254185000Y-119780000D02*
X254185000Y-121380000D01*
X253985000Y-121580000D01*
X252385000Y-121580000D01*
X252185000Y-121380000D01*
X252185000Y-119780000D01*
X252385000Y-119580000D01*
X253985000Y-119580000D01*
X254185000Y-119780000D01*
G36*
X254185000Y-119780000D02*
G01*
X254185000Y-121380000D01*
X253985000Y-121580000D01*
X252385000Y-121580000D01*
X252185000Y-121380000D01*
X252185000Y-119780000D01*
X252385000Y-119580000D01*
X253985000Y-119580000D01*
X254185000Y-119780000D01*
G37*
D10*
X265135000Y-117240000D02*
X265135000Y-118840000D01*
X265335000Y-119040000D02*
X266935000Y-119040000D01*
X267135000Y-118840000D02*
X267135000Y-117240000D01*
X265335000Y-117040000D02*
X266935000Y-117040000D01*
D11*
X267135000Y-117240000D02*
X267135000Y-118840000D01*
X266935000Y-119040000D01*
X265335000Y-119040000D01*
X265135000Y-118840000D01*
X265135000Y-117240000D01*
X265335000Y-117040000D01*
X266935000Y-117040000D01*
X267135000Y-117240000D01*
G36*
X267135000Y-117240000D02*
G01*
X267135000Y-118840000D01*
X266935000Y-119040000D01*
X265335000Y-119040000D01*
X265135000Y-118840000D01*
X265135000Y-117240000D01*
X265335000Y-117040000D01*
X266935000Y-117040000D01*
X267135000Y-117240000D01*
G37*
D10*
%TO.C,SW67*%
X233135000Y-119780000D02*
G75*
G02*
X233335000Y-119580000I200000J0D01*
G01*
X234935000Y-119580000D02*
G75*
G02*
X235135000Y-119780000I0J-200000D01*
G01*
X235135000Y-121380000D02*
G75*
G02*
X234935000Y-121580000I-200000J0D01*
G01*
X233335000Y-121580000D02*
G75*
G02*
X233135000Y-121380000I0J200000D01*
G01*
X246085000Y-117240000D02*
G75*
G02*
X246285000Y-117040000I200000J0D01*
G01*
X247885000Y-117040000D02*
G75*
G02*
X248085000Y-117240000I0J-200000D01*
G01*
X246285000Y-119040000D02*
G75*
G02*
X246085000Y-118840000I0J200000D01*
G01*
X248085000Y-118840000D02*
G75*
G02*
X247885000Y-119040000I-200000J0D01*
G01*
X233335000Y-119580000D02*
X234935000Y-119580000D01*
X235135000Y-119780000D02*
X235135000Y-121380000D01*
X234935000Y-121580000D02*
X233335000Y-121580000D01*
X233135000Y-121380000D02*
X233135000Y-119780000D01*
D11*
X235135000Y-119780000D02*
X235135000Y-121380000D01*
X234935000Y-121580000D01*
X233335000Y-121580000D01*
X233135000Y-121380000D01*
X233135000Y-119780000D01*
X233335000Y-119580000D01*
X234935000Y-119580000D01*
X235135000Y-119780000D01*
G36*
X235135000Y-119780000D02*
G01*
X235135000Y-121380000D01*
X234935000Y-121580000D01*
X233335000Y-121580000D01*
X233135000Y-121380000D01*
X233135000Y-119780000D01*
X233335000Y-119580000D01*
X234935000Y-119580000D01*
X235135000Y-119780000D01*
G37*
D10*
X246085000Y-117240000D02*
X246085000Y-118840000D01*
X246285000Y-119040000D02*
X247885000Y-119040000D01*
X248085000Y-118840000D02*
X248085000Y-117240000D01*
X246285000Y-117040000D02*
X247885000Y-117040000D01*
D11*
X248085000Y-117240000D02*
X248085000Y-118840000D01*
X247885000Y-119040000D01*
X246285000Y-119040000D01*
X246085000Y-118840000D01*
X246085000Y-117240000D01*
X246285000Y-117040000D01*
X247885000Y-117040000D01*
X248085000Y-117240000D01*
G36*
X248085000Y-117240000D02*
G01*
X248085000Y-118840000D01*
X247885000Y-119040000D01*
X246285000Y-119040000D01*
X246085000Y-118840000D01*
X246085000Y-117240000D01*
X246285000Y-117040000D01*
X247885000Y-117040000D01*
X248085000Y-117240000D01*
G37*
D10*
%TO.C,SW66*%
X214085000Y-119780000D02*
G75*
G02*
X214285000Y-119580000I200000J0D01*
G01*
X215885000Y-119580000D02*
G75*
G02*
X216085000Y-119780000I0J-200000D01*
G01*
X216085000Y-121380000D02*
G75*
G02*
X215885000Y-121580000I-200000J0D01*
G01*
X214285000Y-121580000D02*
G75*
G02*
X214085000Y-121380000I0J200000D01*
G01*
X227035000Y-117240000D02*
G75*
G02*
X227235000Y-117040000I200000J0D01*
G01*
X228835000Y-117040000D02*
G75*
G02*
X229035000Y-117240000I0J-200000D01*
G01*
X227235000Y-119040000D02*
G75*
G02*
X227035000Y-118840000I0J200000D01*
G01*
X229035000Y-118840000D02*
G75*
G02*
X228835000Y-119040000I-200000J0D01*
G01*
X214285000Y-119580000D02*
X215885000Y-119580000D01*
X216085000Y-119780000D02*
X216085000Y-121380000D01*
X215885000Y-121580000D02*
X214285000Y-121580000D01*
X214085000Y-121380000D02*
X214085000Y-119780000D01*
D11*
X216085000Y-119780000D02*
X216085000Y-121380000D01*
X215885000Y-121580000D01*
X214285000Y-121580000D01*
X214085000Y-121380000D01*
X214085000Y-119780000D01*
X214285000Y-119580000D01*
X215885000Y-119580000D01*
X216085000Y-119780000D01*
G36*
X216085000Y-119780000D02*
G01*
X216085000Y-121380000D01*
X215885000Y-121580000D01*
X214285000Y-121580000D01*
X214085000Y-121380000D01*
X214085000Y-119780000D01*
X214285000Y-119580000D01*
X215885000Y-119580000D01*
X216085000Y-119780000D01*
G37*
D10*
X227035000Y-117240000D02*
X227035000Y-118840000D01*
X227235000Y-119040000D02*
X228835000Y-119040000D01*
X229035000Y-118840000D02*
X229035000Y-117240000D01*
X227235000Y-117040000D02*
X228835000Y-117040000D01*
D11*
X229035000Y-117240000D02*
X229035000Y-118840000D01*
X228835000Y-119040000D01*
X227235000Y-119040000D01*
X227035000Y-118840000D01*
X227035000Y-117240000D01*
X227235000Y-117040000D01*
X228835000Y-117040000D01*
X229035000Y-117240000D01*
G36*
X229035000Y-117240000D02*
G01*
X229035000Y-118840000D01*
X228835000Y-119040000D01*
X227235000Y-119040000D01*
X227035000Y-118840000D01*
X227035000Y-117240000D01*
X227235000Y-117040000D01*
X228835000Y-117040000D01*
X229035000Y-117240000D01*
G37*
D10*
%TO.C,SW65*%
X195035000Y-119780000D02*
G75*
G02*
X195235000Y-119580000I200000J0D01*
G01*
X196835000Y-119580000D02*
G75*
G02*
X197035000Y-119780000I0J-200000D01*
G01*
X197035000Y-121380000D02*
G75*
G02*
X196835000Y-121580000I-200000J0D01*
G01*
X195235000Y-121580000D02*
G75*
G02*
X195035000Y-121380000I0J200000D01*
G01*
X207985000Y-117240000D02*
G75*
G02*
X208185000Y-117040000I200000J0D01*
G01*
X209785000Y-117040000D02*
G75*
G02*
X209985000Y-117240000I0J-200000D01*
G01*
X208185000Y-119040000D02*
G75*
G02*
X207985000Y-118840000I0J200000D01*
G01*
X209985000Y-118840000D02*
G75*
G02*
X209785000Y-119040000I-200000J0D01*
G01*
X195235000Y-119580000D02*
X196835000Y-119580000D01*
X197035000Y-119780000D02*
X197035000Y-121380000D01*
X196835000Y-121580000D02*
X195235000Y-121580000D01*
X195035000Y-121380000D02*
X195035000Y-119780000D01*
D11*
X197035000Y-119780000D02*
X197035000Y-121380000D01*
X196835000Y-121580000D01*
X195235000Y-121580000D01*
X195035000Y-121380000D01*
X195035000Y-119780000D01*
X195235000Y-119580000D01*
X196835000Y-119580000D01*
X197035000Y-119780000D01*
G36*
X197035000Y-119780000D02*
G01*
X197035000Y-121380000D01*
X196835000Y-121580000D01*
X195235000Y-121580000D01*
X195035000Y-121380000D01*
X195035000Y-119780000D01*
X195235000Y-119580000D01*
X196835000Y-119580000D01*
X197035000Y-119780000D01*
G37*
D10*
X207985000Y-117240000D02*
X207985000Y-118840000D01*
X208185000Y-119040000D02*
X209785000Y-119040000D01*
X209985000Y-118840000D02*
X209985000Y-117240000D01*
X208185000Y-117040000D02*
X209785000Y-117040000D01*
D11*
X209985000Y-117240000D02*
X209985000Y-118840000D01*
X209785000Y-119040000D01*
X208185000Y-119040000D01*
X207985000Y-118840000D01*
X207985000Y-117240000D01*
X208185000Y-117040000D01*
X209785000Y-117040000D01*
X209985000Y-117240000D01*
G36*
X209985000Y-117240000D02*
G01*
X209985000Y-118840000D01*
X209785000Y-119040000D01*
X208185000Y-119040000D01*
X207985000Y-118840000D01*
X207985000Y-117240000D01*
X208185000Y-117040000D01*
X209785000Y-117040000D01*
X209985000Y-117240000D01*
G37*
D10*
%TO.C,SW64*%
X175985000Y-119780000D02*
G75*
G02*
X176185000Y-119580000I200000J0D01*
G01*
X177785000Y-119580000D02*
G75*
G02*
X177985000Y-119780000I0J-200000D01*
G01*
X177985000Y-121380000D02*
G75*
G02*
X177785000Y-121580000I-200000J0D01*
G01*
X176185000Y-121580000D02*
G75*
G02*
X175985000Y-121380000I0J200000D01*
G01*
X188935000Y-117240000D02*
G75*
G02*
X189135000Y-117040000I200000J0D01*
G01*
X190735000Y-117040000D02*
G75*
G02*
X190935000Y-117240000I0J-200000D01*
G01*
X189135000Y-119040000D02*
G75*
G02*
X188935000Y-118840000I0J200000D01*
G01*
X190935000Y-118840000D02*
G75*
G02*
X190735000Y-119040000I-200000J0D01*
G01*
X176185000Y-119580000D02*
X177785000Y-119580000D01*
X177985000Y-119780000D02*
X177985000Y-121380000D01*
X177785000Y-121580000D02*
X176185000Y-121580000D01*
X175985000Y-121380000D02*
X175985000Y-119780000D01*
D11*
X177985000Y-119780000D02*
X177985000Y-121380000D01*
X177785000Y-121580000D01*
X176185000Y-121580000D01*
X175985000Y-121380000D01*
X175985000Y-119780000D01*
X176185000Y-119580000D01*
X177785000Y-119580000D01*
X177985000Y-119780000D01*
G36*
X177985000Y-119780000D02*
G01*
X177985000Y-121380000D01*
X177785000Y-121580000D01*
X176185000Y-121580000D01*
X175985000Y-121380000D01*
X175985000Y-119780000D01*
X176185000Y-119580000D01*
X177785000Y-119580000D01*
X177985000Y-119780000D01*
G37*
D10*
X188935000Y-117240000D02*
X188935000Y-118840000D01*
X189135000Y-119040000D02*
X190735000Y-119040000D01*
X190935000Y-118840000D02*
X190935000Y-117240000D01*
X189135000Y-117040000D02*
X190735000Y-117040000D01*
D11*
X190935000Y-117240000D02*
X190935000Y-118840000D01*
X190735000Y-119040000D01*
X189135000Y-119040000D01*
X188935000Y-118840000D01*
X188935000Y-117240000D01*
X189135000Y-117040000D01*
X190735000Y-117040000D01*
X190935000Y-117240000D01*
G36*
X190935000Y-117240000D02*
G01*
X190935000Y-118840000D01*
X190735000Y-119040000D01*
X189135000Y-119040000D01*
X188935000Y-118840000D01*
X188935000Y-117240000D01*
X189135000Y-117040000D01*
X190735000Y-117040000D01*
X190935000Y-117240000D01*
G37*
D10*
%TO.C,SW63*%
X156935000Y-119780000D02*
G75*
G02*
X157135000Y-119580000I200000J0D01*
G01*
X158735000Y-119580000D02*
G75*
G02*
X158935000Y-119780000I0J-200000D01*
G01*
X158935000Y-121380000D02*
G75*
G02*
X158735000Y-121580000I-200000J0D01*
G01*
X157135000Y-121580000D02*
G75*
G02*
X156935000Y-121380000I0J200000D01*
G01*
X169885000Y-117240000D02*
G75*
G02*
X170085000Y-117040000I200000J0D01*
G01*
X171685000Y-117040000D02*
G75*
G02*
X171885000Y-117240000I0J-200000D01*
G01*
X170085000Y-119040000D02*
G75*
G02*
X169885000Y-118840000I0J200000D01*
G01*
X171885000Y-118840000D02*
G75*
G02*
X171685000Y-119040000I-200000J0D01*
G01*
X157135000Y-119580000D02*
X158735000Y-119580000D01*
X158935000Y-119780000D02*
X158935000Y-121380000D01*
X158735000Y-121580000D02*
X157135000Y-121580000D01*
X156935000Y-121380000D02*
X156935000Y-119780000D01*
D11*
X158935000Y-119780000D02*
X158935000Y-121380000D01*
X158735000Y-121580000D01*
X157135000Y-121580000D01*
X156935000Y-121380000D01*
X156935000Y-119780000D01*
X157135000Y-119580000D01*
X158735000Y-119580000D01*
X158935000Y-119780000D01*
G36*
X158935000Y-119780000D02*
G01*
X158935000Y-121380000D01*
X158735000Y-121580000D01*
X157135000Y-121580000D01*
X156935000Y-121380000D01*
X156935000Y-119780000D01*
X157135000Y-119580000D01*
X158735000Y-119580000D01*
X158935000Y-119780000D01*
G37*
D10*
X169885000Y-117240000D02*
X169885000Y-118840000D01*
X170085000Y-119040000D02*
X171685000Y-119040000D01*
X171885000Y-118840000D02*
X171885000Y-117240000D01*
X170085000Y-117040000D02*
X171685000Y-117040000D01*
D11*
X171885000Y-117240000D02*
X171885000Y-118840000D01*
X171685000Y-119040000D01*
X170085000Y-119040000D01*
X169885000Y-118840000D01*
X169885000Y-117240000D01*
X170085000Y-117040000D01*
X171685000Y-117040000D01*
X171885000Y-117240000D01*
G36*
X171885000Y-117240000D02*
G01*
X171885000Y-118840000D01*
X171685000Y-119040000D01*
X170085000Y-119040000D01*
X169885000Y-118840000D01*
X169885000Y-117240000D01*
X170085000Y-117040000D01*
X171685000Y-117040000D01*
X171885000Y-117240000D01*
G37*
D10*
%TO.C,SW62*%
X137885000Y-119780000D02*
G75*
G02*
X138085000Y-119580000I200000J0D01*
G01*
X139685000Y-119580000D02*
G75*
G02*
X139885000Y-119780000I0J-200000D01*
G01*
X139885000Y-121380000D02*
G75*
G02*
X139685000Y-121580000I-200000J0D01*
G01*
X138085000Y-121580000D02*
G75*
G02*
X137885000Y-121380000I0J200000D01*
G01*
X150835000Y-117240000D02*
G75*
G02*
X151035000Y-117040000I200000J0D01*
G01*
X152635000Y-117040000D02*
G75*
G02*
X152835000Y-117240000I0J-200000D01*
G01*
X151035000Y-119040000D02*
G75*
G02*
X150835000Y-118840000I0J200000D01*
G01*
X152835000Y-118840000D02*
G75*
G02*
X152635000Y-119040000I-200000J0D01*
G01*
X138085000Y-119580000D02*
X139685000Y-119580000D01*
X139885000Y-119780000D02*
X139885000Y-121380000D01*
X139685000Y-121580000D02*
X138085000Y-121580000D01*
X137885000Y-121380000D02*
X137885000Y-119780000D01*
D11*
X139885000Y-119780000D02*
X139885000Y-121380000D01*
X139685000Y-121580000D01*
X138085000Y-121580000D01*
X137885000Y-121380000D01*
X137885000Y-119780000D01*
X138085000Y-119580000D01*
X139685000Y-119580000D01*
X139885000Y-119780000D01*
G36*
X139885000Y-119780000D02*
G01*
X139885000Y-121380000D01*
X139685000Y-121580000D01*
X138085000Y-121580000D01*
X137885000Y-121380000D01*
X137885000Y-119780000D01*
X138085000Y-119580000D01*
X139685000Y-119580000D01*
X139885000Y-119780000D01*
G37*
D10*
X150835000Y-117240000D02*
X150835000Y-118840000D01*
X151035000Y-119040000D02*
X152635000Y-119040000D01*
X152835000Y-118840000D02*
X152835000Y-117240000D01*
X151035000Y-117040000D02*
X152635000Y-117040000D01*
D11*
X152835000Y-117240000D02*
X152835000Y-118840000D01*
X152635000Y-119040000D01*
X151035000Y-119040000D01*
X150835000Y-118840000D01*
X150835000Y-117240000D01*
X151035000Y-117040000D01*
X152635000Y-117040000D01*
X152835000Y-117240000D01*
G36*
X152835000Y-117240000D02*
G01*
X152835000Y-118840000D01*
X152635000Y-119040000D01*
X151035000Y-119040000D01*
X150835000Y-118840000D01*
X150835000Y-117240000D01*
X151035000Y-117040000D01*
X152635000Y-117040000D01*
X152835000Y-117240000D01*
G37*
D10*
%TO.C,SW61*%
X109310000Y-119780000D02*
G75*
G02*
X109510000Y-119580000I200000J0D01*
G01*
X111110000Y-119580000D02*
G75*
G02*
X111310000Y-119780000I0J-200000D01*
G01*
X111310000Y-121380000D02*
G75*
G02*
X111110000Y-121580000I-200000J0D01*
G01*
X109510000Y-121580000D02*
G75*
G02*
X109310000Y-121380000I0J200000D01*
G01*
X122260000Y-117240000D02*
G75*
G02*
X122460000Y-117040000I200000J0D01*
G01*
X124060000Y-117040000D02*
G75*
G02*
X124260000Y-117240000I0J-200000D01*
G01*
X122460000Y-119040000D02*
G75*
G02*
X122260000Y-118840000I0J200000D01*
G01*
X124260000Y-118840000D02*
G75*
G02*
X124060000Y-119040000I-200000J0D01*
G01*
X109510000Y-119580000D02*
X111110000Y-119580000D01*
X111310000Y-119780000D02*
X111310000Y-121380000D01*
X111110000Y-121580000D02*
X109510000Y-121580000D01*
X109310000Y-121380000D02*
X109310000Y-119780000D01*
D11*
X111310000Y-119780000D02*
X111310000Y-121380000D01*
X111110000Y-121580000D01*
X109510000Y-121580000D01*
X109310000Y-121380000D01*
X109310000Y-119780000D01*
X109510000Y-119580000D01*
X111110000Y-119580000D01*
X111310000Y-119780000D01*
G36*
X111310000Y-119780000D02*
G01*
X111310000Y-121380000D01*
X111110000Y-121580000D01*
X109510000Y-121580000D01*
X109310000Y-121380000D01*
X109310000Y-119780000D01*
X109510000Y-119580000D01*
X111110000Y-119580000D01*
X111310000Y-119780000D01*
G37*
D10*
X122260000Y-117240000D02*
X122260000Y-118840000D01*
X122460000Y-119040000D02*
X124060000Y-119040000D01*
X124260000Y-118840000D02*
X124260000Y-117240000D01*
X122460000Y-117040000D02*
X124060000Y-117040000D01*
D11*
X124260000Y-117240000D02*
X124260000Y-118840000D01*
X124060000Y-119040000D01*
X122460000Y-119040000D01*
X122260000Y-118840000D01*
X122260000Y-117240000D01*
X122460000Y-117040000D01*
X124060000Y-117040000D01*
X124260000Y-117240000D01*
G36*
X124260000Y-117240000D02*
G01*
X124260000Y-118840000D01*
X124060000Y-119040000D01*
X122460000Y-119040000D01*
X122260000Y-118840000D01*
X122260000Y-117240000D01*
X122460000Y-117040000D01*
X124060000Y-117040000D01*
X124260000Y-117240000D01*
G37*
D10*
%TO.C,SW60*%
X390297500Y-100730000D02*
G75*
G02*
X390497500Y-100530000I200000J0D01*
G01*
X392097500Y-100530000D02*
G75*
G02*
X392297500Y-100730000I0J-200000D01*
G01*
X392297500Y-102330000D02*
G75*
G02*
X392097500Y-102530000I-200000J0D01*
G01*
X390497500Y-102530000D02*
G75*
G02*
X390297500Y-102330000I0J200000D01*
G01*
X403247500Y-98190000D02*
G75*
G02*
X403447500Y-97990000I200000J0D01*
G01*
X405047500Y-97990000D02*
G75*
G02*
X405247500Y-98190000I0J-200000D01*
G01*
X403447500Y-99990000D02*
G75*
G02*
X403247500Y-99790000I0J200000D01*
G01*
X405247500Y-99790000D02*
G75*
G02*
X405047500Y-99990000I-200000J0D01*
G01*
X390497500Y-100530000D02*
X392097500Y-100530000D01*
X392297500Y-100730000D02*
X392297500Y-102330000D01*
X392097500Y-102530000D02*
X390497500Y-102530000D01*
X390297500Y-102330000D02*
X390297500Y-100730000D01*
D11*
X392297500Y-100730000D02*
X392297500Y-102330000D01*
X392097500Y-102530000D01*
X390497500Y-102530000D01*
X390297500Y-102330000D01*
X390297500Y-100730000D01*
X390497500Y-100530000D01*
X392097500Y-100530000D01*
X392297500Y-100730000D01*
G36*
X392297500Y-100730000D02*
G01*
X392297500Y-102330000D01*
X392097500Y-102530000D01*
X390497500Y-102530000D01*
X390297500Y-102330000D01*
X390297500Y-100730000D01*
X390497500Y-100530000D01*
X392097500Y-100530000D01*
X392297500Y-100730000D01*
G37*
D10*
X403247500Y-98190000D02*
X403247500Y-99790000D01*
X403447500Y-99990000D02*
X405047500Y-99990000D01*
X405247500Y-99790000D02*
X405247500Y-98190000D01*
X403447500Y-97990000D02*
X405047500Y-97990000D01*
D11*
X405247500Y-98190000D02*
X405247500Y-99790000D01*
X405047500Y-99990000D01*
X403447500Y-99990000D01*
X403247500Y-99790000D01*
X403247500Y-98190000D01*
X403447500Y-97990000D01*
X405047500Y-97990000D01*
X405247500Y-98190000D01*
G36*
X405247500Y-98190000D02*
G01*
X405247500Y-99790000D01*
X405047500Y-99990000D01*
X403447500Y-99990000D01*
X403247500Y-99790000D01*
X403247500Y-98190000D01*
X403447500Y-97990000D01*
X405047500Y-97990000D01*
X405247500Y-98190000D01*
G37*
D10*
%TO.C,SW59*%
X342672500Y-100730000D02*
G75*
G02*
X342872500Y-100530000I200000J0D01*
G01*
X344472500Y-100530000D02*
G75*
G02*
X344672500Y-100730000I0J-200000D01*
G01*
X344672500Y-102330000D02*
G75*
G02*
X344472500Y-102530000I-200000J0D01*
G01*
X342872500Y-102530000D02*
G75*
G02*
X342672500Y-102330000I0J200000D01*
G01*
X355622500Y-98190000D02*
G75*
G02*
X355822500Y-97990000I200000J0D01*
G01*
X357422500Y-97990000D02*
G75*
G02*
X357622500Y-98190000I0J-200000D01*
G01*
X355822500Y-99990000D02*
G75*
G02*
X355622500Y-99790000I0J200000D01*
G01*
X357622500Y-99790000D02*
G75*
G02*
X357422500Y-99990000I-200000J0D01*
G01*
X342872500Y-100530000D02*
X344472500Y-100530000D01*
X344672500Y-100730000D02*
X344672500Y-102330000D01*
X344472500Y-102530000D02*
X342872500Y-102530000D01*
X342672500Y-102330000D02*
X342672500Y-100730000D01*
D11*
X344672500Y-100730000D02*
X344672500Y-102330000D01*
X344472500Y-102530000D01*
X342872500Y-102530000D01*
X342672500Y-102330000D01*
X342672500Y-100730000D01*
X342872500Y-100530000D01*
X344472500Y-100530000D01*
X344672500Y-100730000D01*
G36*
X344672500Y-100730000D02*
G01*
X344672500Y-102330000D01*
X344472500Y-102530000D01*
X342872500Y-102530000D01*
X342672500Y-102330000D01*
X342672500Y-100730000D01*
X342872500Y-100530000D01*
X344472500Y-100530000D01*
X344672500Y-100730000D01*
G37*
D10*
X355622500Y-98190000D02*
X355622500Y-99790000D01*
X355822500Y-99990000D02*
X357422500Y-99990000D01*
X357622500Y-99790000D02*
X357622500Y-98190000D01*
X355822500Y-97990000D02*
X357422500Y-97990000D01*
D11*
X357622500Y-98190000D02*
X357622500Y-99790000D01*
X357422500Y-99990000D01*
X355822500Y-99990000D01*
X355622500Y-99790000D01*
X355622500Y-98190000D01*
X355822500Y-97990000D01*
X357422500Y-97990000D01*
X357622500Y-98190000D01*
G36*
X357622500Y-98190000D02*
G01*
X357622500Y-99790000D01*
X357422500Y-99990000D01*
X355822500Y-99990000D01*
X355622500Y-99790000D01*
X355622500Y-98190000D01*
X355822500Y-97990000D01*
X357422500Y-97990000D01*
X357622500Y-98190000D01*
G37*
D10*
%TO.C,SW58*%
X323622500Y-100730000D02*
G75*
G02*
X323822500Y-100530000I200000J0D01*
G01*
X325422500Y-100530000D02*
G75*
G02*
X325622500Y-100730000I0J-200000D01*
G01*
X325622500Y-102330000D02*
G75*
G02*
X325422500Y-102530000I-200000J0D01*
G01*
X323822500Y-102530000D02*
G75*
G02*
X323622500Y-102330000I0J200000D01*
G01*
X336572500Y-98190000D02*
G75*
G02*
X336772500Y-97990000I200000J0D01*
G01*
X338372500Y-97990000D02*
G75*
G02*
X338572500Y-98190000I0J-200000D01*
G01*
X336772500Y-99990000D02*
G75*
G02*
X336572500Y-99790000I0J200000D01*
G01*
X338572500Y-99790000D02*
G75*
G02*
X338372500Y-99990000I-200000J0D01*
G01*
X323822500Y-100530000D02*
X325422500Y-100530000D01*
X325622500Y-100730000D02*
X325622500Y-102330000D01*
X325422500Y-102530000D02*
X323822500Y-102530000D01*
X323622500Y-102330000D02*
X323622500Y-100730000D01*
D11*
X325622500Y-100730000D02*
X325622500Y-102330000D01*
X325422500Y-102530000D01*
X323822500Y-102530000D01*
X323622500Y-102330000D01*
X323622500Y-100730000D01*
X323822500Y-100530000D01*
X325422500Y-100530000D01*
X325622500Y-100730000D01*
G36*
X325622500Y-100730000D02*
G01*
X325622500Y-102330000D01*
X325422500Y-102530000D01*
X323822500Y-102530000D01*
X323622500Y-102330000D01*
X323622500Y-100730000D01*
X323822500Y-100530000D01*
X325422500Y-100530000D01*
X325622500Y-100730000D01*
G37*
D10*
X336572500Y-98190000D02*
X336572500Y-99790000D01*
X336772500Y-99990000D02*
X338372500Y-99990000D01*
X338572500Y-99790000D02*
X338572500Y-98190000D01*
X336772500Y-97990000D02*
X338372500Y-97990000D01*
D11*
X338572500Y-98190000D02*
X338572500Y-99790000D01*
X338372500Y-99990000D01*
X336772500Y-99990000D01*
X336572500Y-99790000D01*
X336572500Y-98190000D01*
X336772500Y-97990000D01*
X338372500Y-97990000D01*
X338572500Y-98190000D01*
G36*
X338572500Y-98190000D02*
G01*
X338572500Y-99790000D01*
X338372500Y-99990000D01*
X336772500Y-99990000D01*
X336572500Y-99790000D01*
X336572500Y-98190000D01*
X336772500Y-97990000D01*
X338372500Y-97990000D01*
X338572500Y-98190000D01*
G37*
D10*
%TO.C,SW57*%
X304572500Y-100730000D02*
G75*
G02*
X304772500Y-100530000I200000J0D01*
G01*
X306372500Y-100530000D02*
G75*
G02*
X306572500Y-100730000I0J-200000D01*
G01*
X306572500Y-102330000D02*
G75*
G02*
X306372500Y-102530000I-200000J0D01*
G01*
X304772500Y-102530000D02*
G75*
G02*
X304572500Y-102330000I0J200000D01*
G01*
X317522500Y-98190000D02*
G75*
G02*
X317722500Y-97990000I200000J0D01*
G01*
X319322500Y-97990000D02*
G75*
G02*
X319522500Y-98190000I0J-200000D01*
G01*
X317722500Y-99990000D02*
G75*
G02*
X317522500Y-99790000I0J200000D01*
G01*
X319522500Y-99790000D02*
G75*
G02*
X319322500Y-99990000I-200000J0D01*
G01*
X304772500Y-100530000D02*
X306372500Y-100530000D01*
X306572500Y-100730000D02*
X306572500Y-102330000D01*
X306372500Y-102530000D02*
X304772500Y-102530000D01*
X304572500Y-102330000D02*
X304572500Y-100730000D01*
D11*
X306572500Y-100730000D02*
X306572500Y-102330000D01*
X306372500Y-102530000D01*
X304772500Y-102530000D01*
X304572500Y-102330000D01*
X304572500Y-100730000D01*
X304772500Y-100530000D01*
X306372500Y-100530000D01*
X306572500Y-100730000D01*
G36*
X306572500Y-100730000D02*
G01*
X306572500Y-102330000D01*
X306372500Y-102530000D01*
X304772500Y-102530000D01*
X304572500Y-102330000D01*
X304572500Y-100730000D01*
X304772500Y-100530000D01*
X306372500Y-100530000D01*
X306572500Y-100730000D01*
G37*
D10*
X317522500Y-98190000D02*
X317522500Y-99790000D01*
X317722500Y-99990000D02*
X319322500Y-99990000D01*
X319522500Y-99790000D02*
X319522500Y-98190000D01*
X317722500Y-97990000D02*
X319322500Y-97990000D01*
D11*
X319522500Y-98190000D02*
X319522500Y-99790000D01*
X319322500Y-99990000D01*
X317722500Y-99990000D01*
X317522500Y-99790000D01*
X317522500Y-98190000D01*
X317722500Y-97990000D01*
X319322500Y-97990000D01*
X319522500Y-98190000D01*
G36*
X319522500Y-98190000D02*
G01*
X319522500Y-99790000D01*
X319322500Y-99990000D01*
X317722500Y-99990000D01*
X317522500Y-99790000D01*
X317522500Y-98190000D01*
X317722500Y-97990000D01*
X319322500Y-97990000D01*
X319522500Y-98190000D01*
G37*
D10*
%TO.C,SW56*%
X285522500Y-100730000D02*
G75*
G02*
X285722500Y-100530000I200000J0D01*
G01*
X287322500Y-100530000D02*
G75*
G02*
X287522500Y-100730000I0J-200000D01*
G01*
X287522500Y-102330000D02*
G75*
G02*
X287322500Y-102530000I-200000J0D01*
G01*
X285722500Y-102530000D02*
G75*
G02*
X285522500Y-102330000I0J200000D01*
G01*
X298472500Y-98190000D02*
G75*
G02*
X298672500Y-97990000I200000J0D01*
G01*
X300272500Y-97990000D02*
G75*
G02*
X300472500Y-98190000I0J-200000D01*
G01*
X298672500Y-99990000D02*
G75*
G02*
X298472500Y-99790000I0J200000D01*
G01*
X300472500Y-99790000D02*
G75*
G02*
X300272500Y-99990000I-200000J0D01*
G01*
X285722500Y-100530000D02*
X287322500Y-100530000D01*
X287522500Y-100730000D02*
X287522500Y-102330000D01*
X287322500Y-102530000D02*
X285722500Y-102530000D01*
X285522500Y-102330000D02*
X285522500Y-100730000D01*
D11*
X287522500Y-100730000D02*
X287522500Y-102330000D01*
X287322500Y-102530000D01*
X285722500Y-102530000D01*
X285522500Y-102330000D01*
X285522500Y-100730000D01*
X285722500Y-100530000D01*
X287322500Y-100530000D01*
X287522500Y-100730000D01*
G36*
X287522500Y-100730000D02*
G01*
X287522500Y-102330000D01*
X287322500Y-102530000D01*
X285722500Y-102530000D01*
X285522500Y-102330000D01*
X285522500Y-100730000D01*
X285722500Y-100530000D01*
X287322500Y-100530000D01*
X287522500Y-100730000D01*
G37*
D10*
X298472500Y-98190000D02*
X298472500Y-99790000D01*
X298672500Y-99990000D02*
X300272500Y-99990000D01*
X300472500Y-99790000D02*
X300472500Y-98190000D01*
X298672500Y-97990000D02*
X300272500Y-97990000D01*
D11*
X300472500Y-98190000D02*
X300472500Y-99790000D01*
X300272500Y-99990000D01*
X298672500Y-99990000D01*
X298472500Y-99790000D01*
X298472500Y-98190000D01*
X298672500Y-97990000D01*
X300272500Y-97990000D01*
X300472500Y-98190000D01*
G36*
X300472500Y-98190000D02*
G01*
X300472500Y-99790000D01*
X300272500Y-99990000D01*
X298672500Y-99990000D01*
X298472500Y-99790000D01*
X298472500Y-98190000D01*
X298672500Y-97990000D01*
X300272500Y-97990000D01*
X300472500Y-98190000D01*
G37*
D10*
%TO.C,SW55*%
X266472500Y-100730000D02*
G75*
G02*
X266672500Y-100530000I200000J0D01*
G01*
X268272500Y-100530000D02*
G75*
G02*
X268472500Y-100730000I0J-200000D01*
G01*
X268472500Y-102330000D02*
G75*
G02*
X268272500Y-102530000I-200000J0D01*
G01*
X266672500Y-102530000D02*
G75*
G02*
X266472500Y-102330000I0J200000D01*
G01*
X279422500Y-98190000D02*
G75*
G02*
X279622500Y-97990000I200000J0D01*
G01*
X281222500Y-97990000D02*
G75*
G02*
X281422500Y-98190000I0J-200000D01*
G01*
X279622500Y-99990000D02*
G75*
G02*
X279422500Y-99790000I0J200000D01*
G01*
X281422500Y-99790000D02*
G75*
G02*
X281222500Y-99990000I-200000J0D01*
G01*
X266672500Y-100530000D02*
X268272500Y-100530000D01*
X268472500Y-100730000D02*
X268472500Y-102330000D01*
X268272500Y-102530000D02*
X266672500Y-102530000D01*
X266472500Y-102330000D02*
X266472500Y-100730000D01*
D11*
X268472500Y-100730000D02*
X268472500Y-102330000D01*
X268272500Y-102530000D01*
X266672500Y-102530000D01*
X266472500Y-102330000D01*
X266472500Y-100730000D01*
X266672500Y-100530000D01*
X268272500Y-100530000D01*
X268472500Y-100730000D01*
G36*
X268472500Y-100730000D02*
G01*
X268472500Y-102330000D01*
X268272500Y-102530000D01*
X266672500Y-102530000D01*
X266472500Y-102330000D01*
X266472500Y-100730000D01*
X266672500Y-100530000D01*
X268272500Y-100530000D01*
X268472500Y-100730000D01*
G37*
D10*
X279422500Y-98190000D02*
X279422500Y-99790000D01*
X279622500Y-99990000D02*
X281222500Y-99990000D01*
X281422500Y-99790000D02*
X281422500Y-98190000D01*
X279622500Y-97990000D02*
X281222500Y-97990000D01*
D11*
X281422500Y-98190000D02*
X281422500Y-99790000D01*
X281222500Y-99990000D01*
X279622500Y-99990000D01*
X279422500Y-99790000D01*
X279422500Y-98190000D01*
X279622500Y-97990000D01*
X281222500Y-97990000D01*
X281422500Y-98190000D01*
G36*
X281422500Y-98190000D02*
G01*
X281422500Y-99790000D01*
X281222500Y-99990000D01*
X279622500Y-99990000D01*
X279422500Y-99790000D01*
X279422500Y-98190000D01*
X279622500Y-97990000D01*
X281222500Y-97990000D01*
X281422500Y-98190000D01*
G37*
D10*
%TO.C,SW54*%
X247422500Y-100730000D02*
G75*
G02*
X247622500Y-100530000I200000J0D01*
G01*
X249222500Y-100530000D02*
G75*
G02*
X249422500Y-100730000I0J-200000D01*
G01*
X249422500Y-102330000D02*
G75*
G02*
X249222500Y-102530000I-200000J0D01*
G01*
X247622500Y-102530000D02*
G75*
G02*
X247422500Y-102330000I0J200000D01*
G01*
X260372500Y-98190000D02*
G75*
G02*
X260572500Y-97990000I200000J0D01*
G01*
X262172500Y-97990000D02*
G75*
G02*
X262372500Y-98190000I0J-200000D01*
G01*
X260572500Y-99990000D02*
G75*
G02*
X260372500Y-99790000I0J200000D01*
G01*
X262372500Y-99790000D02*
G75*
G02*
X262172500Y-99990000I-200000J0D01*
G01*
X247622500Y-100530000D02*
X249222500Y-100530000D01*
X249422500Y-100730000D02*
X249422500Y-102330000D01*
X249222500Y-102530000D02*
X247622500Y-102530000D01*
X247422500Y-102330000D02*
X247422500Y-100730000D01*
D11*
X249422500Y-100730000D02*
X249422500Y-102330000D01*
X249222500Y-102530000D01*
X247622500Y-102530000D01*
X247422500Y-102330000D01*
X247422500Y-100730000D01*
X247622500Y-100530000D01*
X249222500Y-100530000D01*
X249422500Y-100730000D01*
G36*
X249422500Y-100730000D02*
G01*
X249422500Y-102330000D01*
X249222500Y-102530000D01*
X247622500Y-102530000D01*
X247422500Y-102330000D01*
X247422500Y-100730000D01*
X247622500Y-100530000D01*
X249222500Y-100530000D01*
X249422500Y-100730000D01*
G37*
D10*
X260372500Y-98190000D02*
X260372500Y-99790000D01*
X260572500Y-99990000D02*
X262172500Y-99990000D01*
X262372500Y-99790000D02*
X262372500Y-98190000D01*
X260572500Y-97990000D02*
X262172500Y-97990000D01*
D11*
X262372500Y-98190000D02*
X262372500Y-99790000D01*
X262172500Y-99990000D01*
X260572500Y-99990000D01*
X260372500Y-99790000D01*
X260372500Y-98190000D01*
X260572500Y-97990000D01*
X262172500Y-97990000D01*
X262372500Y-98190000D01*
G36*
X262372500Y-98190000D02*
G01*
X262372500Y-99790000D01*
X262172500Y-99990000D01*
X260572500Y-99990000D01*
X260372500Y-99790000D01*
X260372500Y-98190000D01*
X260572500Y-97990000D01*
X262172500Y-97990000D01*
X262372500Y-98190000D01*
G37*
D10*
%TO.C,SW53*%
X228372500Y-100730000D02*
G75*
G02*
X228572500Y-100530000I200000J0D01*
G01*
X230172500Y-100530000D02*
G75*
G02*
X230372500Y-100730000I0J-200000D01*
G01*
X230372500Y-102330000D02*
G75*
G02*
X230172500Y-102530000I-200000J0D01*
G01*
X228572500Y-102530000D02*
G75*
G02*
X228372500Y-102330000I0J200000D01*
G01*
X241322500Y-98190000D02*
G75*
G02*
X241522500Y-97990000I200000J0D01*
G01*
X243122500Y-97990000D02*
G75*
G02*
X243322500Y-98190000I0J-200000D01*
G01*
X241522500Y-99990000D02*
G75*
G02*
X241322500Y-99790000I0J200000D01*
G01*
X243322500Y-99790000D02*
G75*
G02*
X243122500Y-99990000I-200000J0D01*
G01*
X228572500Y-100530000D02*
X230172500Y-100530000D01*
X230372500Y-100730000D02*
X230372500Y-102330000D01*
X230172500Y-102530000D02*
X228572500Y-102530000D01*
X228372500Y-102330000D02*
X228372500Y-100730000D01*
D11*
X230372500Y-100730000D02*
X230372500Y-102330000D01*
X230172500Y-102530000D01*
X228572500Y-102530000D01*
X228372500Y-102330000D01*
X228372500Y-100730000D01*
X228572500Y-100530000D01*
X230172500Y-100530000D01*
X230372500Y-100730000D01*
G36*
X230372500Y-100730000D02*
G01*
X230372500Y-102330000D01*
X230172500Y-102530000D01*
X228572500Y-102530000D01*
X228372500Y-102330000D01*
X228372500Y-100730000D01*
X228572500Y-100530000D01*
X230172500Y-100530000D01*
X230372500Y-100730000D01*
G37*
D10*
X241322500Y-98190000D02*
X241322500Y-99790000D01*
X241522500Y-99990000D02*
X243122500Y-99990000D01*
X243322500Y-99790000D02*
X243322500Y-98190000D01*
X241522500Y-97990000D02*
X243122500Y-97990000D01*
D11*
X243322500Y-98190000D02*
X243322500Y-99790000D01*
X243122500Y-99990000D01*
X241522500Y-99990000D01*
X241322500Y-99790000D01*
X241322500Y-98190000D01*
X241522500Y-97990000D01*
X243122500Y-97990000D01*
X243322500Y-98190000D01*
G36*
X243322500Y-98190000D02*
G01*
X243322500Y-99790000D01*
X243122500Y-99990000D01*
X241522500Y-99990000D01*
X241322500Y-99790000D01*
X241322500Y-98190000D01*
X241522500Y-97990000D01*
X243122500Y-97990000D01*
X243322500Y-98190000D01*
G37*
D10*
%TO.C,SW52*%
X209322500Y-100730000D02*
G75*
G02*
X209522500Y-100530000I200000J0D01*
G01*
X211122500Y-100530000D02*
G75*
G02*
X211322500Y-100730000I0J-200000D01*
G01*
X211322500Y-102330000D02*
G75*
G02*
X211122500Y-102530000I-200000J0D01*
G01*
X209522500Y-102530000D02*
G75*
G02*
X209322500Y-102330000I0J200000D01*
G01*
X222272500Y-98190000D02*
G75*
G02*
X222472500Y-97990000I200000J0D01*
G01*
X224072500Y-97990000D02*
G75*
G02*
X224272500Y-98190000I0J-200000D01*
G01*
X222472500Y-99990000D02*
G75*
G02*
X222272500Y-99790000I0J200000D01*
G01*
X224272500Y-99790000D02*
G75*
G02*
X224072500Y-99990000I-200000J0D01*
G01*
X209522500Y-100530000D02*
X211122500Y-100530000D01*
X211322500Y-100730000D02*
X211322500Y-102330000D01*
X211122500Y-102530000D02*
X209522500Y-102530000D01*
X209322500Y-102330000D02*
X209322500Y-100730000D01*
D11*
X211322500Y-100730000D02*
X211322500Y-102330000D01*
X211122500Y-102530000D01*
X209522500Y-102530000D01*
X209322500Y-102330000D01*
X209322500Y-100730000D01*
X209522500Y-100530000D01*
X211122500Y-100530000D01*
X211322500Y-100730000D01*
G36*
X211322500Y-100730000D02*
G01*
X211322500Y-102330000D01*
X211122500Y-102530000D01*
X209522500Y-102530000D01*
X209322500Y-102330000D01*
X209322500Y-100730000D01*
X209522500Y-100530000D01*
X211122500Y-100530000D01*
X211322500Y-100730000D01*
G37*
D10*
X222272500Y-98190000D02*
X222272500Y-99790000D01*
X222472500Y-99990000D02*
X224072500Y-99990000D01*
X224272500Y-99790000D02*
X224272500Y-98190000D01*
X222472500Y-97990000D02*
X224072500Y-97990000D01*
D11*
X224272500Y-98190000D02*
X224272500Y-99790000D01*
X224072500Y-99990000D01*
X222472500Y-99990000D01*
X222272500Y-99790000D01*
X222272500Y-98190000D01*
X222472500Y-97990000D01*
X224072500Y-97990000D01*
X224272500Y-98190000D01*
G36*
X224272500Y-98190000D02*
G01*
X224272500Y-99790000D01*
X224072500Y-99990000D01*
X222472500Y-99990000D01*
X222272500Y-99790000D01*
X222272500Y-98190000D01*
X222472500Y-97990000D01*
X224072500Y-97990000D01*
X224272500Y-98190000D01*
G37*
D10*
%TO.C,SW51*%
X190272500Y-100730000D02*
G75*
G02*
X190472500Y-100530000I200000J0D01*
G01*
X192072500Y-100530000D02*
G75*
G02*
X192272500Y-100730000I0J-200000D01*
G01*
X192272500Y-102330000D02*
G75*
G02*
X192072500Y-102530000I-200000J0D01*
G01*
X190472500Y-102530000D02*
G75*
G02*
X190272500Y-102330000I0J200000D01*
G01*
X203222500Y-98190000D02*
G75*
G02*
X203422500Y-97990000I200000J0D01*
G01*
X205022500Y-97990000D02*
G75*
G02*
X205222500Y-98190000I0J-200000D01*
G01*
X203422500Y-99990000D02*
G75*
G02*
X203222500Y-99790000I0J200000D01*
G01*
X205222500Y-99790000D02*
G75*
G02*
X205022500Y-99990000I-200000J0D01*
G01*
X190472500Y-100530000D02*
X192072500Y-100530000D01*
X192272500Y-100730000D02*
X192272500Y-102330000D01*
X192072500Y-102530000D02*
X190472500Y-102530000D01*
X190272500Y-102330000D02*
X190272500Y-100730000D01*
D11*
X192272500Y-100730000D02*
X192272500Y-102330000D01*
X192072500Y-102530000D01*
X190472500Y-102530000D01*
X190272500Y-102330000D01*
X190272500Y-100730000D01*
X190472500Y-100530000D01*
X192072500Y-100530000D01*
X192272500Y-100730000D01*
G36*
X192272500Y-100730000D02*
G01*
X192272500Y-102330000D01*
X192072500Y-102530000D01*
X190472500Y-102530000D01*
X190272500Y-102330000D01*
X190272500Y-100730000D01*
X190472500Y-100530000D01*
X192072500Y-100530000D01*
X192272500Y-100730000D01*
G37*
D10*
X203222500Y-98190000D02*
X203222500Y-99790000D01*
X203422500Y-99990000D02*
X205022500Y-99990000D01*
X205222500Y-99790000D02*
X205222500Y-98190000D01*
X203422500Y-97990000D02*
X205022500Y-97990000D01*
D11*
X205222500Y-98190000D02*
X205222500Y-99790000D01*
X205022500Y-99990000D01*
X203422500Y-99990000D01*
X203222500Y-99790000D01*
X203222500Y-98190000D01*
X203422500Y-97990000D01*
X205022500Y-97990000D01*
X205222500Y-98190000D01*
G36*
X205222500Y-98190000D02*
G01*
X205222500Y-99790000D01*
X205022500Y-99990000D01*
X203422500Y-99990000D01*
X203222500Y-99790000D01*
X203222500Y-98190000D01*
X203422500Y-97990000D01*
X205022500Y-97990000D01*
X205222500Y-98190000D01*
G37*
D10*
%TO.C,SW50*%
X171222500Y-100730000D02*
G75*
G02*
X171422500Y-100530000I200000J0D01*
G01*
X173022500Y-100530000D02*
G75*
G02*
X173222500Y-100730000I0J-200000D01*
G01*
X173222500Y-102330000D02*
G75*
G02*
X173022500Y-102530000I-200000J0D01*
G01*
X171422500Y-102530000D02*
G75*
G02*
X171222500Y-102330000I0J200000D01*
G01*
X184172500Y-98190000D02*
G75*
G02*
X184372500Y-97990000I200000J0D01*
G01*
X185972500Y-97990000D02*
G75*
G02*
X186172500Y-98190000I0J-200000D01*
G01*
X184372500Y-99990000D02*
G75*
G02*
X184172500Y-99790000I0J200000D01*
G01*
X186172500Y-99790000D02*
G75*
G02*
X185972500Y-99990000I-200000J0D01*
G01*
X171422500Y-100530000D02*
X173022500Y-100530000D01*
X173222500Y-100730000D02*
X173222500Y-102330000D01*
X173022500Y-102530000D02*
X171422500Y-102530000D01*
X171222500Y-102330000D02*
X171222500Y-100730000D01*
D11*
X173222500Y-100730000D02*
X173222500Y-102330000D01*
X173022500Y-102530000D01*
X171422500Y-102530000D01*
X171222500Y-102330000D01*
X171222500Y-100730000D01*
X171422500Y-100530000D01*
X173022500Y-100530000D01*
X173222500Y-100730000D01*
G36*
X173222500Y-100730000D02*
G01*
X173222500Y-102330000D01*
X173022500Y-102530000D01*
X171422500Y-102530000D01*
X171222500Y-102330000D01*
X171222500Y-100730000D01*
X171422500Y-100530000D01*
X173022500Y-100530000D01*
X173222500Y-100730000D01*
G37*
D10*
X184172500Y-98190000D02*
X184172500Y-99790000D01*
X184372500Y-99990000D02*
X185972500Y-99990000D01*
X186172500Y-99790000D02*
X186172500Y-98190000D01*
X184372500Y-97990000D02*
X185972500Y-97990000D01*
D11*
X186172500Y-98190000D02*
X186172500Y-99790000D01*
X185972500Y-99990000D01*
X184372500Y-99990000D01*
X184172500Y-99790000D01*
X184172500Y-98190000D01*
X184372500Y-97990000D01*
X185972500Y-97990000D01*
X186172500Y-98190000D01*
G36*
X186172500Y-98190000D02*
G01*
X186172500Y-99790000D01*
X185972500Y-99990000D01*
X184372500Y-99990000D01*
X184172500Y-99790000D01*
X184172500Y-98190000D01*
X184372500Y-97990000D01*
X185972500Y-97990000D01*
X186172500Y-98190000D01*
G37*
D10*
%TO.C,SW49*%
X152172500Y-100730000D02*
G75*
G02*
X152372500Y-100530000I200000J0D01*
G01*
X153972500Y-100530000D02*
G75*
G02*
X154172500Y-100730000I0J-200000D01*
G01*
X154172500Y-102330000D02*
G75*
G02*
X153972500Y-102530000I-200000J0D01*
G01*
X152372500Y-102530000D02*
G75*
G02*
X152172500Y-102330000I0J200000D01*
G01*
X165122500Y-98190000D02*
G75*
G02*
X165322500Y-97990000I200000J0D01*
G01*
X166922500Y-97990000D02*
G75*
G02*
X167122500Y-98190000I0J-200000D01*
G01*
X165322500Y-99990000D02*
G75*
G02*
X165122500Y-99790000I0J200000D01*
G01*
X167122500Y-99790000D02*
G75*
G02*
X166922500Y-99990000I-200000J0D01*
G01*
X152372500Y-100530000D02*
X153972500Y-100530000D01*
X154172500Y-100730000D02*
X154172500Y-102330000D01*
X153972500Y-102530000D02*
X152372500Y-102530000D01*
X152172500Y-102330000D02*
X152172500Y-100730000D01*
D11*
X154172500Y-100730000D02*
X154172500Y-102330000D01*
X153972500Y-102530000D01*
X152372500Y-102530000D01*
X152172500Y-102330000D01*
X152172500Y-100730000D01*
X152372500Y-100530000D01*
X153972500Y-100530000D01*
X154172500Y-100730000D01*
G36*
X154172500Y-100730000D02*
G01*
X154172500Y-102330000D01*
X153972500Y-102530000D01*
X152372500Y-102530000D01*
X152172500Y-102330000D01*
X152172500Y-100730000D01*
X152372500Y-100530000D01*
X153972500Y-100530000D01*
X154172500Y-100730000D01*
G37*
D10*
X165122500Y-98190000D02*
X165122500Y-99790000D01*
X165322500Y-99990000D02*
X166922500Y-99990000D01*
X167122500Y-99790000D02*
X167122500Y-98190000D01*
X165322500Y-97990000D02*
X166922500Y-97990000D01*
D11*
X167122500Y-98190000D02*
X167122500Y-99790000D01*
X166922500Y-99990000D01*
X165322500Y-99990000D01*
X165122500Y-99790000D01*
X165122500Y-98190000D01*
X165322500Y-97990000D01*
X166922500Y-97990000D01*
X167122500Y-98190000D01*
G36*
X167122500Y-98190000D02*
G01*
X167122500Y-99790000D01*
X166922500Y-99990000D01*
X165322500Y-99990000D01*
X165122500Y-99790000D01*
X165122500Y-98190000D01*
X165322500Y-97990000D01*
X166922500Y-97990000D01*
X167122500Y-98190000D01*
G37*
D10*
%TO.C,SW48*%
X133122500Y-100730000D02*
G75*
G02*
X133322500Y-100530000I200000J0D01*
G01*
X134922500Y-100530000D02*
G75*
G02*
X135122500Y-100730000I0J-200000D01*
G01*
X135122500Y-102330000D02*
G75*
G02*
X134922500Y-102530000I-200000J0D01*
G01*
X133322500Y-102530000D02*
G75*
G02*
X133122500Y-102330000I0J200000D01*
G01*
X146072500Y-98190000D02*
G75*
G02*
X146272500Y-97990000I200000J0D01*
G01*
X147872500Y-97990000D02*
G75*
G02*
X148072500Y-98190000I0J-200000D01*
G01*
X146272500Y-99990000D02*
G75*
G02*
X146072500Y-99790000I0J200000D01*
G01*
X148072500Y-99790000D02*
G75*
G02*
X147872500Y-99990000I-200000J0D01*
G01*
X133322500Y-100530000D02*
X134922500Y-100530000D01*
X135122500Y-100730000D02*
X135122500Y-102330000D01*
X134922500Y-102530000D02*
X133322500Y-102530000D01*
X133122500Y-102330000D02*
X133122500Y-100730000D01*
D11*
X135122500Y-100730000D02*
X135122500Y-102330000D01*
X134922500Y-102530000D01*
X133322500Y-102530000D01*
X133122500Y-102330000D01*
X133122500Y-100730000D01*
X133322500Y-100530000D01*
X134922500Y-100530000D01*
X135122500Y-100730000D01*
G36*
X135122500Y-100730000D02*
G01*
X135122500Y-102330000D01*
X134922500Y-102530000D01*
X133322500Y-102530000D01*
X133122500Y-102330000D01*
X133122500Y-100730000D01*
X133322500Y-100530000D01*
X134922500Y-100530000D01*
X135122500Y-100730000D01*
G37*
D10*
X146072500Y-98190000D02*
X146072500Y-99790000D01*
X146272500Y-99990000D02*
X147872500Y-99990000D01*
X148072500Y-99790000D02*
X148072500Y-98190000D01*
X146272500Y-97990000D02*
X147872500Y-97990000D01*
D11*
X148072500Y-98190000D02*
X148072500Y-99790000D01*
X147872500Y-99990000D01*
X146272500Y-99990000D01*
X146072500Y-99790000D01*
X146072500Y-98190000D01*
X146272500Y-97990000D01*
X147872500Y-97990000D01*
X148072500Y-98190000D01*
G36*
X148072500Y-98190000D02*
G01*
X148072500Y-99790000D01*
X147872500Y-99990000D01*
X146272500Y-99990000D01*
X146072500Y-99790000D01*
X146072500Y-98190000D01*
X146272500Y-97990000D01*
X147872500Y-97990000D01*
X148072500Y-98190000D01*
G37*
D10*
%TO.C,SW47*%
X106928750Y-100730000D02*
G75*
G02*
X107128750Y-100530000I200000J0D01*
G01*
X108728750Y-100530000D02*
G75*
G02*
X108928750Y-100730000I0J-200000D01*
G01*
X108928750Y-102330000D02*
G75*
G02*
X108728750Y-102530000I-200000J0D01*
G01*
X107128750Y-102530000D02*
G75*
G02*
X106928750Y-102330000I0J200000D01*
G01*
X119878750Y-98190000D02*
G75*
G02*
X120078750Y-97990000I200000J0D01*
G01*
X121678750Y-97990000D02*
G75*
G02*
X121878750Y-98190000I0J-200000D01*
G01*
X120078750Y-99990000D02*
G75*
G02*
X119878750Y-99790000I0J200000D01*
G01*
X121878750Y-99790000D02*
G75*
G02*
X121678750Y-99990000I-200000J0D01*
G01*
X107128750Y-100530000D02*
X108728750Y-100530000D01*
X108928750Y-100730000D02*
X108928750Y-102330000D01*
X108728750Y-102530000D02*
X107128750Y-102530000D01*
X106928750Y-102330000D02*
X106928750Y-100730000D01*
D11*
X108928750Y-100730000D02*
X108928750Y-102330000D01*
X108728750Y-102530000D01*
X107128750Y-102530000D01*
X106928750Y-102330000D01*
X106928750Y-100730000D01*
X107128750Y-100530000D01*
X108728750Y-100530000D01*
X108928750Y-100730000D01*
G36*
X108928750Y-100730000D02*
G01*
X108928750Y-102330000D01*
X108728750Y-102530000D01*
X107128750Y-102530000D01*
X106928750Y-102330000D01*
X106928750Y-100730000D01*
X107128750Y-100530000D01*
X108728750Y-100530000D01*
X108928750Y-100730000D01*
G37*
D10*
X119878750Y-98190000D02*
X119878750Y-99790000D01*
X120078750Y-99990000D02*
X121678750Y-99990000D01*
X121878750Y-99790000D02*
X121878750Y-98190000D01*
X120078750Y-97990000D02*
X121678750Y-97990000D01*
D11*
X121878750Y-98190000D02*
X121878750Y-99790000D01*
X121678750Y-99990000D01*
X120078750Y-99990000D01*
X119878750Y-99790000D01*
X119878750Y-98190000D01*
X120078750Y-97990000D01*
X121678750Y-97990000D01*
X121878750Y-98190000D01*
G36*
X121878750Y-98190000D02*
G01*
X121878750Y-99790000D01*
X121678750Y-99990000D01*
X120078750Y-99990000D01*
X119878750Y-99790000D01*
X119878750Y-98190000D01*
X120078750Y-97990000D01*
X121678750Y-97990000D01*
X121878750Y-98190000D01*
G37*
D10*
%TO.C,SW46*%
X390297500Y-81680000D02*
G75*
G02*
X390497500Y-81480000I200000J0D01*
G01*
X392097500Y-81480000D02*
G75*
G02*
X392297500Y-81680000I0J-200000D01*
G01*
X392297500Y-83280000D02*
G75*
G02*
X392097500Y-83480000I-200000J0D01*
G01*
X390497500Y-83480000D02*
G75*
G02*
X390297500Y-83280000I0J200000D01*
G01*
X403247500Y-79140000D02*
G75*
G02*
X403447500Y-78940000I200000J0D01*
G01*
X405047500Y-78940000D02*
G75*
G02*
X405247500Y-79140000I0J-200000D01*
G01*
X403447500Y-80940000D02*
G75*
G02*
X403247500Y-80740000I0J200000D01*
G01*
X405247500Y-80740000D02*
G75*
G02*
X405047500Y-80940000I-200000J0D01*
G01*
X390497500Y-81480000D02*
X392097500Y-81480000D01*
X392297500Y-81680000D02*
X392297500Y-83280000D01*
X392097500Y-83480000D02*
X390497500Y-83480000D01*
X390297500Y-83280000D02*
X390297500Y-81680000D01*
D11*
X392297500Y-81680000D02*
X392297500Y-83280000D01*
X392097500Y-83480000D01*
X390497500Y-83480000D01*
X390297500Y-83280000D01*
X390297500Y-81680000D01*
X390497500Y-81480000D01*
X392097500Y-81480000D01*
X392297500Y-81680000D01*
G36*
X392297500Y-81680000D02*
G01*
X392297500Y-83280000D01*
X392097500Y-83480000D01*
X390497500Y-83480000D01*
X390297500Y-83280000D01*
X390297500Y-81680000D01*
X390497500Y-81480000D01*
X392097500Y-81480000D01*
X392297500Y-81680000D01*
G37*
D10*
X403247500Y-79140000D02*
X403247500Y-80740000D01*
X403447500Y-80940000D02*
X405047500Y-80940000D01*
X405247500Y-80740000D02*
X405247500Y-79140000D01*
X403447500Y-78940000D02*
X405047500Y-78940000D01*
D11*
X405247500Y-79140000D02*
X405247500Y-80740000D01*
X405047500Y-80940000D01*
X403447500Y-80940000D01*
X403247500Y-80740000D01*
X403247500Y-79140000D01*
X403447500Y-78940000D01*
X405047500Y-78940000D01*
X405247500Y-79140000D01*
G36*
X405247500Y-79140000D02*
G01*
X405247500Y-80740000D01*
X405047500Y-80940000D01*
X403447500Y-80940000D01*
X403247500Y-80740000D01*
X403247500Y-79140000D01*
X403447500Y-78940000D01*
X405047500Y-78940000D01*
X405247500Y-79140000D01*
G37*
D10*
%TO.C,SW45*%
X364103750Y-91205000D02*
G75*
G02*
X364303750Y-91005000I200000J0D01*
G01*
X365903750Y-91005000D02*
G75*
G02*
X366103750Y-91205000I0J-200000D01*
G01*
X366103750Y-92805000D02*
G75*
G02*
X365903750Y-93005000I-200000J0D01*
G01*
X364303750Y-93005000D02*
G75*
G02*
X364103750Y-92805000I0J200000D01*
G01*
X377053750Y-88665000D02*
G75*
G02*
X377253750Y-88465000I200000J0D01*
G01*
X378853750Y-88465000D02*
G75*
G02*
X379053750Y-88665000I0J-200000D01*
G01*
X377253750Y-90465000D02*
G75*
G02*
X377053750Y-90265000I0J200000D01*
G01*
X379053750Y-90265000D02*
G75*
G02*
X378853750Y-90465000I-200000J0D01*
G01*
X364303750Y-91005000D02*
X365903750Y-91005000D01*
X366103750Y-91205000D02*
X366103750Y-92805000D01*
X365903750Y-93005000D02*
X364303750Y-93005000D01*
X364103750Y-92805000D02*
X364103750Y-91205000D01*
D11*
X366103750Y-91205000D02*
X366103750Y-92805000D01*
X365903750Y-93005000D01*
X364303750Y-93005000D01*
X364103750Y-92805000D01*
X364103750Y-91205000D01*
X364303750Y-91005000D01*
X365903750Y-91005000D01*
X366103750Y-91205000D01*
G36*
X366103750Y-91205000D02*
G01*
X366103750Y-92805000D01*
X365903750Y-93005000D01*
X364303750Y-93005000D01*
X364103750Y-92805000D01*
X364103750Y-91205000D01*
X364303750Y-91005000D01*
X365903750Y-91005000D01*
X366103750Y-91205000D01*
G37*
D10*
X377053750Y-88665000D02*
X377053750Y-90265000D01*
X377253750Y-90465000D02*
X378853750Y-90465000D01*
X379053750Y-90265000D02*
X379053750Y-88665000D01*
X377253750Y-88465000D02*
X378853750Y-88465000D01*
D11*
X379053750Y-88665000D02*
X379053750Y-90265000D01*
X378853750Y-90465000D01*
X377253750Y-90465000D01*
X377053750Y-90265000D01*
X377053750Y-88665000D01*
X377253750Y-88465000D01*
X378853750Y-88465000D01*
X379053750Y-88665000D01*
G36*
X379053750Y-88665000D02*
G01*
X379053750Y-90265000D01*
X378853750Y-90465000D01*
X377253750Y-90465000D01*
X377053750Y-90265000D01*
X377053750Y-88665000D01*
X377253750Y-88465000D01*
X378853750Y-88465000D01*
X379053750Y-88665000D01*
G37*
D10*
%TO.C,SW44*%
X337910000Y-81680000D02*
G75*
G02*
X338110000Y-81480000I200000J0D01*
G01*
X339710000Y-81480000D02*
G75*
G02*
X339910000Y-81680000I0J-200000D01*
G01*
X339910000Y-83280000D02*
G75*
G02*
X339710000Y-83480000I-200000J0D01*
G01*
X338110000Y-83480000D02*
G75*
G02*
X337910000Y-83280000I0J200000D01*
G01*
X350860000Y-79140000D02*
G75*
G02*
X351060000Y-78940000I200000J0D01*
G01*
X352660000Y-78940000D02*
G75*
G02*
X352860000Y-79140000I0J-200000D01*
G01*
X351060000Y-80940000D02*
G75*
G02*
X350860000Y-80740000I0J200000D01*
G01*
X352860000Y-80740000D02*
G75*
G02*
X352660000Y-80940000I-200000J0D01*
G01*
X338110000Y-81480000D02*
X339710000Y-81480000D01*
X339910000Y-81680000D02*
X339910000Y-83280000D01*
X339710000Y-83480000D02*
X338110000Y-83480000D01*
X337910000Y-83280000D02*
X337910000Y-81680000D01*
D11*
X339910000Y-81680000D02*
X339910000Y-83280000D01*
X339710000Y-83480000D01*
X338110000Y-83480000D01*
X337910000Y-83280000D01*
X337910000Y-81680000D01*
X338110000Y-81480000D01*
X339710000Y-81480000D01*
X339910000Y-81680000D01*
G36*
X339910000Y-81680000D02*
G01*
X339910000Y-83280000D01*
X339710000Y-83480000D01*
X338110000Y-83480000D01*
X337910000Y-83280000D01*
X337910000Y-81680000D01*
X338110000Y-81480000D01*
X339710000Y-81480000D01*
X339910000Y-81680000D01*
G37*
D10*
X350860000Y-79140000D02*
X350860000Y-80740000D01*
X351060000Y-80940000D02*
X352660000Y-80940000D01*
X352860000Y-80740000D02*
X352860000Y-79140000D01*
X351060000Y-78940000D02*
X352660000Y-78940000D01*
D11*
X352860000Y-79140000D02*
X352860000Y-80740000D01*
X352660000Y-80940000D01*
X351060000Y-80940000D01*
X350860000Y-80740000D01*
X350860000Y-79140000D01*
X351060000Y-78940000D01*
X352660000Y-78940000D01*
X352860000Y-79140000D01*
G36*
X352860000Y-79140000D02*
G01*
X352860000Y-80740000D01*
X352660000Y-80940000D01*
X351060000Y-80940000D01*
X350860000Y-80740000D01*
X350860000Y-79140000D01*
X351060000Y-78940000D01*
X352660000Y-78940000D01*
X352860000Y-79140000D01*
G37*
D10*
%TO.C,SW43*%
X318860000Y-81680000D02*
G75*
G02*
X319060000Y-81480000I200000J0D01*
G01*
X320660000Y-81480000D02*
G75*
G02*
X320860000Y-81680000I0J-200000D01*
G01*
X320860000Y-83280000D02*
G75*
G02*
X320660000Y-83480000I-200000J0D01*
G01*
X319060000Y-83480000D02*
G75*
G02*
X318860000Y-83280000I0J200000D01*
G01*
X331810000Y-79140000D02*
G75*
G02*
X332010000Y-78940000I200000J0D01*
G01*
X333610000Y-78940000D02*
G75*
G02*
X333810000Y-79140000I0J-200000D01*
G01*
X332010000Y-80940000D02*
G75*
G02*
X331810000Y-80740000I0J200000D01*
G01*
X333810000Y-80740000D02*
G75*
G02*
X333610000Y-80940000I-200000J0D01*
G01*
X319060000Y-81480000D02*
X320660000Y-81480000D01*
X320860000Y-81680000D02*
X320860000Y-83280000D01*
X320660000Y-83480000D02*
X319060000Y-83480000D01*
X318860000Y-83280000D02*
X318860000Y-81680000D01*
D11*
X320860000Y-81680000D02*
X320860000Y-83280000D01*
X320660000Y-83480000D01*
X319060000Y-83480000D01*
X318860000Y-83280000D01*
X318860000Y-81680000D01*
X319060000Y-81480000D01*
X320660000Y-81480000D01*
X320860000Y-81680000D01*
G36*
X320860000Y-81680000D02*
G01*
X320860000Y-83280000D01*
X320660000Y-83480000D01*
X319060000Y-83480000D01*
X318860000Y-83280000D01*
X318860000Y-81680000D01*
X319060000Y-81480000D01*
X320660000Y-81480000D01*
X320860000Y-81680000D01*
G37*
D10*
X331810000Y-79140000D02*
X331810000Y-80740000D01*
X332010000Y-80940000D02*
X333610000Y-80940000D01*
X333810000Y-80740000D02*
X333810000Y-79140000D01*
X332010000Y-78940000D02*
X333610000Y-78940000D01*
D11*
X333810000Y-79140000D02*
X333810000Y-80740000D01*
X333610000Y-80940000D01*
X332010000Y-80940000D01*
X331810000Y-80740000D01*
X331810000Y-79140000D01*
X332010000Y-78940000D01*
X333610000Y-78940000D01*
X333810000Y-79140000D01*
G36*
X333810000Y-79140000D02*
G01*
X333810000Y-80740000D01*
X333610000Y-80940000D01*
X332010000Y-80940000D01*
X331810000Y-80740000D01*
X331810000Y-79140000D01*
X332010000Y-78940000D01*
X333610000Y-78940000D01*
X333810000Y-79140000D01*
G37*
D10*
%TO.C,SW42*%
X299810000Y-81680000D02*
G75*
G02*
X300010000Y-81480000I200000J0D01*
G01*
X301610000Y-81480000D02*
G75*
G02*
X301810000Y-81680000I0J-200000D01*
G01*
X301810000Y-83280000D02*
G75*
G02*
X301610000Y-83480000I-200000J0D01*
G01*
X300010000Y-83480000D02*
G75*
G02*
X299810000Y-83280000I0J200000D01*
G01*
X312760000Y-79140000D02*
G75*
G02*
X312960000Y-78940000I200000J0D01*
G01*
X314560000Y-78940000D02*
G75*
G02*
X314760000Y-79140000I0J-200000D01*
G01*
X312960000Y-80940000D02*
G75*
G02*
X312760000Y-80740000I0J200000D01*
G01*
X314760000Y-80740000D02*
G75*
G02*
X314560000Y-80940000I-200000J0D01*
G01*
X300010000Y-81480000D02*
X301610000Y-81480000D01*
X301810000Y-81680000D02*
X301810000Y-83280000D01*
X301610000Y-83480000D02*
X300010000Y-83480000D01*
X299810000Y-83280000D02*
X299810000Y-81680000D01*
D11*
X301810000Y-81680000D02*
X301810000Y-83280000D01*
X301610000Y-83480000D01*
X300010000Y-83480000D01*
X299810000Y-83280000D01*
X299810000Y-81680000D01*
X300010000Y-81480000D01*
X301610000Y-81480000D01*
X301810000Y-81680000D01*
G36*
X301810000Y-81680000D02*
G01*
X301810000Y-83280000D01*
X301610000Y-83480000D01*
X300010000Y-83480000D01*
X299810000Y-83280000D01*
X299810000Y-81680000D01*
X300010000Y-81480000D01*
X301610000Y-81480000D01*
X301810000Y-81680000D01*
G37*
D10*
X312760000Y-79140000D02*
X312760000Y-80740000D01*
X312960000Y-80940000D02*
X314560000Y-80940000D01*
X314760000Y-80740000D02*
X314760000Y-79140000D01*
X312960000Y-78940000D02*
X314560000Y-78940000D01*
D11*
X314760000Y-79140000D02*
X314760000Y-80740000D01*
X314560000Y-80940000D01*
X312960000Y-80940000D01*
X312760000Y-80740000D01*
X312760000Y-79140000D01*
X312960000Y-78940000D01*
X314560000Y-78940000D01*
X314760000Y-79140000D01*
G36*
X314760000Y-79140000D02*
G01*
X314760000Y-80740000D01*
X314560000Y-80940000D01*
X312960000Y-80940000D01*
X312760000Y-80740000D01*
X312760000Y-79140000D01*
X312960000Y-78940000D01*
X314560000Y-78940000D01*
X314760000Y-79140000D01*
G37*
D10*
%TO.C,SW41*%
X280760000Y-81680000D02*
G75*
G02*
X280960000Y-81480000I200000J0D01*
G01*
X282560000Y-81480000D02*
G75*
G02*
X282760000Y-81680000I0J-200000D01*
G01*
X282760000Y-83280000D02*
G75*
G02*
X282560000Y-83480000I-200000J0D01*
G01*
X280960000Y-83480000D02*
G75*
G02*
X280760000Y-83280000I0J200000D01*
G01*
X293710000Y-79140000D02*
G75*
G02*
X293910000Y-78940000I200000J0D01*
G01*
X295510000Y-78940000D02*
G75*
G02*
X295710000Y-79140000I0J-200000D01*
G01*
X293910000Y-80940000D02*
G75*
G02*
X293710000Y-80740000I0J200000D01*
G01*
X295710000Y-80740000D02*
G75*
G02*
X295510000Y-80940000I-200000J0D01*
G01*
X280960000Y-81480000D02*
X282560000Y-81480000D01*
X282760000Y-81680000D02*
X282760000Y-83280000D01*
X282560000Y-83480000D02*
X280960000Y-83480000D01*
X280760000Y-83280000D02*
X280760000Y-81680000D01*
D11*
X282760000Y-81680000D02*
X282760000Y-83280000D01*
X282560000Y-83480000D01*
X280960000Y-83480000D01*
X280760000Y-83280000D01*
X280760000Y-81680000D01*
X280960000Y-81480000D01*
X282560000Y-81480000D01*
X282760000Y-81680000D01*
G36*
X282760000Y-81680000D02*
G01*
X282760000Y-83280000D01*
X282560000Y-83480000D01*
X280960000Y-83480000D01*
X280760000Y-83280000D01*
X280760000Y-81680000D01*
X280960000Y-81480000D01*
X282560000Y-81480000D01*
X282760000Y-81680000D01*
G37*
D10*
X293710000Y-79140000D02*
X293710000Y-80740000D01*
X293910000Y-80940000D02*
X295510000Y-80940000D01*
X295710000Y-80740000D02*
X295710000Y-79140000D01*
X293910000Y-78940000D02*
X295510000Y-78940000D01*
D11*
X295710000Y-79140000D02*
X295710000Y-80740000D01*
X295510000Y-80940000D01*
X293910000Y-80940000D01*
X293710000Y-80740000D01*
X293710000Y-79140000D01*
X293910000Y-78940000D01*
X295510000Y-78940000D01*
X295710000Y-79140000D01*
G36*
X295710000Y-79140000D02*
G01*
X295710000Y-80740000D01*
X295510000Y-80940000D01*
X293910000Y-80940000D01*
X293710000Y-80740000D01*
X293710000Y-79140000D01*
X293910000Y-78940000D01*
X295510000Y-78940000D01*
X295710000Y-79140000D01*
G37*
D10*
%TO.C,SW40*%
X261710000Y-81680000D02*
G75*
G02*
X261910000Y-81480000I200000J0D01*
G01*
X263510000Y-81480000D02*
G75*
G02*
X263710000Y-81680000I0J-200000D01*
G01*
X263710000Y-83280000D02*
G75*
G02*
X263510000Y-83480000I-200000J0D01*
G01*
X261910000Y-83480000D02*
G75*
G02*
X261710000Y-83280000I0J200000D01*
G01*
X274660000Y-79140000D02*
G75*
G02*
X274860000Y-78940000I200000J0D01*
G01*
X276460000Y-78940000D02*
G75*
G02*
X276660000Y-79140000I0J-200000D01*
G01*
X274860000Y-80940000D02*
G75*
G02*
X274660000Y-80740000I0J200000D01*
G01*
X276660000Y-80740000D02*
G75*
G02*
X276460000Y-80940000I-200000J0D01*
G01*
X261910000Y-81480000D02*
X263510000Y-81480000D01*
X263710000Y-81680000D02*
X263710000Y-83280000D01*
X263510000Y-83480000D02*
X261910000Y-83480000D01*
X261710000Y-83280000D02*
X261710000Y-81680000D01*
D11*
X263710000Y-81680000D02*
X263710000Y-83280000D01*
X263510000Y-83480000D01*
X261910000Y-83480000D01*
X261710000Y-83280000D01*
X261710000Y-81680000D01*
X261910000Y-81480000D01*
X263510000Y-81480000D01*
X263710000Y-81680000D01*
G36*
X263710000Y-81680000D02*
G01*
X263710000Y-83280000D01*
X263510000Y-83480000D01*
X261910000Y-83480000D01*
X261710000Y-83280000D01*
X261710000Y-81680000D01*
X261910000Y-81480000D01*
X263510000Y-81480000D01*
X263710000Y-81680000D01*
G37*
D10*
X274660000Y-79140000D02*
X274660000Y-80740000D01*
X274860000Y-80940000D02*
X276460000Y-80940000D01*
X276660000Y-80740000D02*
X276660000Y-79140000D01*
X274860000Y-78940000D02*
X276460000Y-78940000D01*
D11*
X276660000Y-79140000D02*
X276660000Y-80740000D01*
X276460000Y-80940000D01*
X274860000Y-80940000D01*
X274660000Y-80740000D01*
X274660000Y-79140000D01*
X274860000Y-78940000D01*
X276460000Y-78940000D01*
X276660000Y-79140000D01*
G36*
X276660000Y-79140000D02*
G01*
X276660000Y-80740000D01*
X276460000Y-80940000D01*
X274860000Y-80940000D01*
X274660000Y-80740000D01*
X274660000Y-79140000D01*
X274860000Y-78940000D01*
X276460000Y-78940000D01*
X276660000Y-79140000D01*
G37*
D10*
%TO.C,SW39*%
X242660000Y-81680000D02*
G75*
G02*
X242860000Y-81480000I200000J0D01*
G01*
X244460000Y-81480000D02*
G75*
G02*
X244660000Y-81680000I0J-200000D01*
G01*
X244660000Y-83280000D02*
G75*
G02*
X244460000Y-83480000I-200000J0D01*
G01*
X242860000Y-83480000D02*
G75*
G02*
X242660000Y-83280000I0J200000D01*
G01*
X255610000Y-79140000D02*
G75*
G02*
X255810000Y-78940000I200000J0D01*
G01*
X257410000Y-78940000D02*
G75*
G02*
X257610000Y-79140000I0J-200000D01*
G01*
X255810000Y-80940000D02*
G75*
G02*
X255610000Y-80740000I0J200000D01*
G01*
X257610000Y-80740000D02*
G75*
G02*
X257410000Y-80940000I-200000J0D01*
G01*
X242860000Y-81480000D02*
X244460000Y-81480000D01*
X244660000Y-81680000D02*
X244660000Y-83280000D01*
X244460000Y-83480000D02*
X242860000Y-83480000D01*
X242660000Y-83280000D02*
X242660000Y-81680000D01*
D11*
X244660000Y-81680000D02*
X244660000Y-83280000D01*
X244460000Y-83480000D01*
X242860000Y-83480000D01*
X242660000Y-83280000D01*
X242660000Y-81680000D01*
X242860000Y-81480000D01*
X244460000Y-81480000D01*
X244660000Y-81680000D01*
G36*
X244660000Y-81680000D02*
G01*
X244660000Y-83280000D01*
X244460000Y-83480000D01*
X242860000Y-83480000D01*
X242660000Y-83280000D01*
X242660000Y-81680000D01*
X242860000Y-81480000D01*
X244460000Y-81480000D01*
X244660000Y-81680000D01*
G37*
D10*
X255610000Y-79140000D02*
X255610000Y-80740000D01*
X255810000Y-80940000D02*
X257410000Y-80940000D01*
X257610000Y-80740000D02*
X257610000Y-79140000D01*
X255810000Y-78940000D02*
X257410000Y-78940000D01*
D11*
X257610000Y-79140000D02*
X257610000Y-80740000D01*
X257410000Y-80940000D01*
X255810000Y-80940000D01*
X255610000Y-80740000D01*
X255610000Y-79140000D01*
X255810000Y-78940000D01*
X257410000Y-78940000D01*
X257610000Y-79140000D01*
G36*
X257610000Y-79140000D02*
G01*
X257610000Y-80740000D01*
X257410000Y-80940000D01*
X255810000Y-80940000D01*
X255610000Y-80740000D01*
X255610000Y-79140000D01*
X255810000Y-78940000D01*
X257410000Y-78940000D01*
X257610000Y-79140000D01*
G37*
D10*
%TO.C,SW38*%
X223610000Y-81680000D02*
G75*
G02*
X223810000Y-81480000I200000J0D01*
G01*
X225410000Y-81480000D02*
G75*
G02*
X225610000Y-81680000I0J-200000D01*
G01*
X225610000Y-83280000D02*
G75*
G02*
X225410000Y-83480000I-200000J0D01*
G01*
X223810000Y-83480000D02*
G75*
G02*
X223610000Y-83280000I0J200000D01*
G01*
X236560000Y-79140000D02*
G75*
G02*
X236760000Y-78940000I200000J0D01*
G01*
X238360000Y-78940000D02*
G75*
G02*
X238560000Y-79140000I0J-200000D01*
G01*
X236760000Y-80940000D02*
G75*
G02*
X236560000Y-80740000I0J200000D01*
G01*
X238560000Y-80740000D02*
G75*
G02*
X238360000Y-80940000I-200000J0D01*
G01*
X223810000Y-81480000D02*
X225410000Y-81480000D01*
X225610000Y-81680000D02*
X225610000Y-83280000D01*
X225410000Y-83480000D02*
X223810000Y-83480000D01*
X223610000Y-83280000D02*
X223610000Y-81680000D01*
D11*
X225610000Y-81680000D02*
X225610000Y-83280000D01*
X225410000Y-83480000D01*
X223810000Y-83480000D01*
X223610000Y-83280000D01*
X223610000Y-81680000D01*
X223810000Y-81480000D01*
X225410000Y-81480000D01*
X225610000Y-81680000D01*
G36*
X225610000Y-81680000D02*
G01*
X225610000Y-83280000D01*
X225410000Y-83480000D01*
X223810000Y-83480000D01*
X223610000Y-83280000D01*
X223610000Y-81680000D01*
X223810000Y-81480000D01*
X225410000Y-81480000D01*
X225610000Y-81680000D01*
G37*
D10*
X236560000Y-79140000D02*
X236560000Y-80740000D01*
X236760000Y-80940000D02*
X238360000Y-80940000D01*
X238560000Y-80740000D02*
X238560000Y-79140000D01*
X236760000Y-78940000D02*
X238360000Y-78940000D01*
D11*
X238560000Y-79140000D02*
X238560000Y-80740000D01*
X238360000Y-80940000D01*
X236760000Y-80940000D01*
X236560000Y-80740000D01*
X236560000Y-79140000D01*
X236760000Y-78940000D01*
X238360000Y-78940000D01*
X238560000Y-79140000D01*
G36*
X238560000Y-79140000D02*
G01*
X238560000Y-80740000D01*
X238360000Y-80940000D01*
X236760000Y-80940000D01*
X236560000Y-80740000D01*
X236560000Y-79140000D01*
X236760000Y-78940000D01*
X238360000Y-78940000D01*
X238560000Y-79140000D01*
G37*
D10*
%TO.C,SW37*%
X204560000Y-81680000D02*
G75*
G02*
X204760000Y-81480000I200000J0D01*
G01*
X206360000Y-81480000D02*
G75*
G02*
X206560000Y-81680000I0J-200000D01*
G01*
X206560000Y-83280000D02*
G75*
G02*
X206360000Y-83480000I-200000J0D01*
G01*
X204760000Y-83480000D02*
G75*
G02*
X204560000Y-83280000I0J200000D01*
G01*
X217510000Y-79140000D02*
G75*
G02*
X217710000Y-78940000I200000J0D01*
G01*
X219310000Y-78940000D02*
G75*
G02*
X219510000Y-79140000I0J-200000D01*
G01*
X217710000Y-80940000D02*
G75*
G02*
X217510000Y-80740000I0J200000D01*
G01*
X219510000Y-80740000D02*
G75*
G02*
X219310000Y-80940000I-200000J0D01*
G01*
X204760000Y-81480000D02*
X206360000Y-81480000D01*
X206560000Y-81680000D02*
X206560000Y-83280000D01*
X206360000Y-83480000D02*
X204760000Y-83480000D01*
X204560000Y-83280000D02*
X204560000Y-81680000D01*
D11*
X206560000Y-81680000D02*
X206560000Y-83280000D01*
X206360000Y-83480000D01*
X204760000Y-83480000D01*
X204560000Y-83280000D01*
X204560000Y-81680000D01*
X204760000Y-81480000D01*
X206360000Y-81480000D01*
X206560000Y-81680000D01*
G36*
X206560000Y-81680000D02*
G01*
X206560000Y-83280000D01*
X206360000Y-83480000D01*
X204760000Y-83480000D01*
X204560000Y-83280000D01*
X204560000Y-81680000D01*
X204760000Y-81480000D01*
X206360000Y-81480000D01*
X206560000Y-81680000D01*
G37*
D10*
X217510000Y-79140000D02*
X217510000Y-80740000D01*
X217710000Y-80940000D02*
X219310000Y-80940000D01*
X219510000Y-80740000D02*
X219510000Y-79140000D01*
X217710000Y-78940000D02*
X219310000Y-78940000D01*
D11*
X219510000Y-79140000D02*
X219510000Y-80740000D01*
X219310000Y-80940000D01*
X217710000Y-80940000D01*
X217510000Y-80740000D01*
X217510000Y-79140000D01*
X217710000Y-78940000D01*
X219310000Y-78940000D01*
X219510000Y-79140000D01*
G36*
X219510000Y-79140000D02*
G01*
X219510000Y-80740000D01*
X219310000Y-80940000D01*
X217710000Y-80940000D01*
X217510000Y-80740000D01*
X217510000Y-79140000D01*
X217710000Y-78940000D01*
X219310000Y-78940000D01*
X219510000Y-79140000D01*
G37*
D10*
%TO.C,SW36*%
X185510000Y-81680000D02*
G75*
G02*
X185710000Y-81480000I200000J0D01*
G01*
X187310000Y-81480000D02*
G75*
G02*
X187510000Y-81680000I0J-200000D01*
G01*
X187510000Y-83280000D02*
G75*
G02*
X187310000Y-83480000I-200000J0D01*
G01*
X185710000Y-83480000D02*
G75*
G02*
X185510000Y-83280000I0J200000D01*
G01*
X198460000Y-79140000D02*
G75*
G02*
X198660000Y-78940000I200000J0D01*
G01*
X200260000Y-78940000D02*
G75*
G02*
X200460000Y-79140000I0J-200000D01*
G01*
X198660000Y-80940000D02*
G75*
G02*
X198460000Y-80740000I0J200000D01*
G01*
X200460000Y-80740000D02*
G75*
G02*
X200260000Y-80940000I-200000J0D01*
G01*
X185710000Y-81480000D02*
X187310000Y-81480000D01*
X187510000Y-81680000D02*
X187510000Y-83280000D01*
X187310000Y-83480000D02*
X185710000Y-83480000D01*
X185510000Y-83280000D02*
X185510000Y-81680000D01*
D11*
X187510000Y-81680000D02*
X187510000Y-83280000D01*
X187310000Y-83480000D01*
X185710000Y-83480000D01*
X185510000Y-83280000D01*
X185510000Y-81680000D01*
X185710000Y-81480000D01*
X187310000Y-81480000D01*
X187510000Y-81680000D01*
G36*
X187510000Y-81680000D02*
G01*
X187510000Y-83280000D01*
X187310000Y-83480000D01*
X185710000Y-83480000D01*
X185510000Y-83280000D01*
X185510000Y-81680000D01*
X185710000Y-81480000D01*
X187310000Y-81480000D01*
X187510000Y-81680000D01*
G37*
D10*
X198460000Y-79140000D02*
X198460000Y-80740000D01*
X198660000Y-80940000D02*
X200260000Y-80940000D01*
X200460000Y-80740000D02*
X200460000Y-79140000D01*
X198660000Y-78940000D02*
X200260000Y-78940000D01*
D11*
X200460000Y-79140000D02*
X200460000Y-80740000D01*
X200260000Y-80940000D01*
X198660000Y-80940000D01*
X198460000Y-80740000D01*
X198460000Y-79140000D01*
X198660000Y-78940000D01*
X200260000Y-78940000D01*
X200460000Y-79140000D01*
G36*
X200460000Y-79140000D02*
G01*
X200460000Y-80740000D01*
X200260000Y-80940000D01*
X198660000Y-80940000D01*
X198460000Y-80740000D01*
X198460000Y-79140000D01*
X198660000Y-78940000D01*
X200260000Y-78940000D01*
X200460000Y-79140000D01*
G37*
D10*
%TO.C,SW35*%
X166460000Y-81680000D02*
G75*
G02*
X166660000Y-81480000I200000J0D01*
G01*
X168260000Y-81480000D02*
G75*
G02*
X168460000Y-81680000I0J-200000D01*
G01*
X168460000Y-83280000D02*
G75*
G02*
X168260000Y-83480000I-200000J0D01*
G01*
X166660000Y-83480000D02*
G75*
G02*
X166460000Y-83280000I0J200000D01*
G01*
X179410000Y-79140000D02*
G75*
G02*
X179610000Y-78940000I200000J0D01*
G01*
X181210000Y-78940000D02*
G75*
G02*
X181410000Y-79140000I0J-200000D01*
G01*
X179610000Y-80940000D02*
G75*
G02*
X179410000Y-80740000I0J200000D01*
G01*
X181410000Y-80740000D02*
G75*
G02*
X181210000Y-80940000I-200000J0D01*
G01*
X166660000Y-81480000D02*
X168260000Y-81480000D01*
X168460000Y-81680000D02*
X168460000Y-83280000D01*
X168260000Y-83480000D02*
X166660000Y-83480000D01*
X166460000Y-83280000D02*
X166460000Y-81680000D01*
D11*
X168460000Y-81680000D02*
X168460000Y-83280000D01*
X168260000Y-83480000D01*
X166660000Y-83480000D01*
X166460000Y-83280000D01*
X166460000Y-81680000D01*
X166660000Y-81480000D01*
X168260000Y-81480000D01*
X168460000Y-81680000D01*
G36*
X168460000Y-81680000D02*
G01*
X168460000Y-83280000D01*
X168260000Y-83480000D01*
X166660000Y-83480000D01*
X166460000Y-83280000D01*
X166460000Y-81680000D01*
X166660000Y-81480000D01*
X168260000Y-81480000D01*
X168460000Y-81680000D01*
G37*
D10*
X179410000Y-79140000D02*
X179410000Y-80740000D01*
X179610000Y-80940000D02*
X181210000Y-80940000D01*
X181410000Y-80740000D02*
X181410000Y-79140000D01*
X179610000Y-78940000D02*
X181210000Y-78940000D01*
D11*
X181410000Y-79140000D02*
X181410000Y-80740000D01*
X181210000Y-80940000D01*
X179610000Y-80940000D01*
X179410000Y-80740000D01*
X179410000Y-79140000D01*
X179610000Y-78940000D01*
X181210000Y-78940000D01*
X181410000Y-79140000D01*
G36*
X181410000Y-79140000D02*
G01*
X181410000Y-80740000D01*
X181210000Y-80940000D01*
X179610000Y-80940000D01*
X179410000Y-80740000D01*
X179410000Y-79140000D01*
X179610000Y-78940000D01*
X181210000Y-78940000D01*
X181410000Y-79140000D01*
G37*
D10*
%TO.C,SW34*%
X147410000Y-81680000D02*
G75*
G02*
X147610000Y-81480000I200000J0D01*
G01*
X149210000Y-81480000D02*
G75*
G02*
X149410000Y-81680000I0J-200000D01*
G01*
X149410000Y-83280000D02*
G75*
G02*
X149210000Y-83480000I-200000J0D01*
G01*
X147610000Y-83480000D02*
G75*
G02*
X147410000Y-83280000I0J200000D01*
G01*
X160360000Y-79140000D02*
G75*
G02*
X160560000Y-78940000I200000J0D01*
G01*
X162160000Y-78940000D02*
G75*
G02*
X162360000Y-79140000I0J-200000D01*
G01*
X160560000Y-80940000D02*
G75*
G02*
X160360000Y-80740000I0J200000D01*
G01*
X162360000Y-80740000D02*
G75*
G02*
X162160000Y-80940000I-200000J0D01*
G01*
X147610000Y-81480000D02*
X149210000Y-81480000D01*
X149410000Y-81680000D02*
X149410000Y-83280000D01*
X149210000Y-83480000D02*
X147610000Y-83480000D01*
X147410000Y-83280000D02*
X147410000Y-81680000D01*
D11*
X149410000Y-81680000D02*
X149410000Y-83280000D01*
X149210000Y-83480000D01*
X147610000Y-83480000D01*
X147410000Y-83280000D01*
X147410000Y-81680000D01*
X147610000Y-81480000D01*
X149210000Y-81480000D01*
X149410000Y-81680000D01*
G36*
X149410000Y-81680000D02*
G01*
X149410000Y-83280000D01*
X149210000Y-83480000D01*
X147610000Y-83480000D01*
X147410000Y-83280000D01*
X147410000Y-81680000D01*
X147610000Y-81480000D01*
X149210000Y-81480000D01*
X149410000Y-81680000D01*
G37*
D10*
X160360000Y-79140000D02*
X160360000Y-80740000D01*
X160560000Y-80940000D02*
X162160000Y-80940000D01*
X162360000Y-80740000D02*
X162360000Y-79140000D01*
X160560000Y-78940000D02*
X162160000Y-78940000D01*
D11*
X162360000Y-79140000D02*
X162360000Y-80740000D01*
X162160000Y-80940000D01*
X160560000Y-80940000D01*
X160360000Y-80740000D01*
X160360000Y-79140000D01*
X160560000Y-78940000D01*
X162160000Y-78940000D01*
X162360000Y-79140000D01*
G36*
X162360000Y-79140000D02*
G01*
X162360000Y-80740000D01*
X162160000Y-80940000D01*
X160560000Y-80940000D01*
X160360000Y-80740000D01*
X160360000Y-79140000D01*
X160560000Y-78940000D01*
X162160000Y-78940000D01*
X162360000Y-79140000D01*
G37*
D10*
%TO.C,SW33*%
X128360000Y-81680000D02*
G75*
G02*
X128560000Y-81480000I200000J0D01*
G01*
X130160000Y-81480000D02*
G75*
G02*
X130360000Y-81680000I0J-200000D01*
G01*
X130360000Y-83280000D02*
G75*
G02*
X130160000Y-83480000I-200000J0D01*
G01*
X128560000Y-83480000D02*
G75*
G02*
X128360000Y-83280000I0J200000D01*
G01*
X141310000Y-79140000D02*
G75*
G02*
X141510000Y-78940000I200000J0D01*
G01*
X143110000Y-78940000D02*
G75*
G02*
X143310000Y-79140000I0J-200000D01*
G01*
X141510000Y-80940000D02*
G75*
G02*
X141310000Y-80740000I0J200000D01*
G01*
X143310000Y-80740000D02*
G75*
G02*
X143110000Y-80940000I-200000J0D01*
G01*
X128560000Y-81480000D02*
X130160000Y-81480000D01*
X130360000Y-81680000D02*
X130360000Y-83280000D01*
X130160000Y-83480000D02*
X128560000Y-83480000D01*
X128360000Y-83280000D02*
X128360000Y-81680000D01*
D11*
X130360000Y-81680000D02*
X130360000Y-83280000D01*
X130160000Y-83480000D01*
X128560000Y-83480000D01*
X128360000Y-83280000D01*
X128360000Y-81680000D01*
X128560000Y-81480000D01*
X130160000Y-81480000D01*
X130360000Y-81680000D01*
G36*
X130360000Y-81680000D02*
G01*
X130360000Y-83280000D01*
X130160000Y-83480000D01*
X128560000Y-83480000D01*
X128360000Y-83280000D01*
X128360000Y-81680000D01*
X128560000Y-81480000D01*
X130160000Y-81480000D01*
X130360000Y-81680000D01*
G37*
D10*
X141310000Y-79140000D02*
X141310000Y-80740000D01*
X141510000Y-80940000D02*
X143110000Y-80940000D01*
X143310000Y-80740000D02*
X143310000Y-79140000D01*
X141510000Y-78940000D02*
X143110000Y-78940000D01*
D11*
X143310000Y-79140000D02*
X143310000Y-80740000D01*
X143110000Y-80940000D01*
X141510000Y-80940000D01*
X141310000Y-80740000D01*
X141310000Y-79140000D01*
X141510000Y-78940000D01*
X143110000Y-78940000D01*
X143310000Y-79140000D01*
G36*
X143310000Y-79140000D02*
G01*
X143310000Y-80740000D01*
X143110000Y-80940000D01*
X141510000Y-80940000D01*
X141310000Y-80740000D01*
X141310000Y-79140000D01*
X141510000Y-78940000D01*
X143110000Y-78940000D01*
X143310000Y-79140000D01*
G37*
D10*
%TO.C,SW32*%
X104547500Y-81680000D02*
G75*
G02*
X104747500Y-81480000I200000J0D01*
G01*
X106347500Y-81480000D02*
G75*
G02*
X106547500Y-81680000I0J-200000D01*
G01*
X106547500Y-83280000D02*
G75*
G02*
X106347500Y-83480000I-200000J0D01*
G01*
X104747500Y-83480000D02*
G75*
G02*
X104547500Y-83280000I0J200000D01*
G01*
X117497500Y-79140000D02*
G75*
G02*
X117697500Y-78940000I200000J0D01*
G01*
X119297500Y-78940000D02*
G75*
G02*
X119497500Y-79140000I0J-200000D01*
G01*
X117697500Y-80940000D02*
G75*
G02*
X117497500Y-80740000I0J200000D01*
G01*
X119497500Y-80740000D02*
G75*
G02*
X119297500Y-80940000I-200000J0D01*
G01*
X104747500Y-81480000D02*
X106347500Y-81480000D01*
X106547500Y-81680000D02*
X106547500Y-83280000D01*
X106347500Y-83480000D02*
X104747500Y-83480000D01*
X104547500Y-83280000D02*
X104547500Y-81680000D01*
D11*
X106547500Y-81680000D02*
X106547500Y-83280000D01*
X106347500Y-83480000D01*
X104747500Y-83480000D01*
X104547500Y-83280000D01*
X104547500Y-81680000D01*
X104747500Y-81480000D01*
X106347500Y-81480000D01*
X106547500Y-81680000D01*
G36*
X106547500Y-81680000D02*
G01*
X106547500Y-83280000D01*
X106347500Y-83480000D01*
X104747500Y-83480000D01*
X104547500Y-83280000D01*
X104547500Y-81680000D01*
X104747500Y-81480000D01*
X106347500Y-81480000D01*
X106547500Y-81680000D01*
G37*
D10*
X117497500Y-79140000D02*
X117497500Y-80740000D01*
X117697500Y-80940000D02*
X119297500Y-80940000D01*
X119497500Y-80740000D02*
X119497500Y-79140000D01*
X117697500Y-78940000D02*
X119297500Y-78940000D01*
D11*
X119497500Y-79140000D02*
X119497500Y-80740000D01*
X119297500Y-80940000D01*
X117697500Y-80940000D01*
X117497500Y-80740000D01*
X117497500Y-79140000D01*
X117697500Y-78940000D01*
X119297500Y-78940000D01*
X119497500Y-79140000D01*
G36*
X119497500Y-79140000D02*
G01*
X119497500Y-80740000D01*
X119297500Y-80940000D01*
X117697500Y-80940000D01*
X117497500Y-80740000D01*
X117497500Y-79140000D01*
X117697500Y-78940000D01*
X119297500Y-78940000D01*
X119497500Y-79140000D01*
G37*
D10*
%TO.C,SW31*%
X390297500Y-62630000D02*
G75*
G02*
X390497500Y-62430000I200000J0D01*
G01*
X392097500Y-62430000D02*
G75*
G02*
X392297500Y-62630000I0J-200000D01*
G01*
X392297500Y-64230000D02*
G75*
G02*
X392097500Y-64430000I-200000J0D01*
G01*
X390497500Y-64430000D02*
G75*
G02*
X390297500Y-64230000I0J200000D01*
G01*
X403247500Y-60090000D02*
G75*
G02*
X403447500Y-59890000I200000J0D01*
G01*
X405047500Y-59890000D02*
G75*
G02*
X405247500Y-60090000I0J-200000D01*
G01*
X403447500Y-61890000D02*
G75*
G02*
X403247500Y-61690000I0J200000D01*
G01*
X405247500Y-61690000D02*
G75*
G02*
X405047500Y-61890000I-200000J0D01*
G01*
X390497500Y-62430000D02*
X392097500Y-62430000D01*
X392297500Y-62630000D02*
X392297500Y-64230000D01*
X392097500Y-64430000D02*
X390497500Y-64430000D01*
X390297500Y-64230000D02*
X390297500Y-62630000D01*
D11*
X392297500Y-62630000D02*
X392297500Y-64230000D01*
X392097500Y-64430000D01*
X390497500Y-64430000D01*
X390297500Y-64230000D01*
X390297500Y-62630000D01*
X390497500Y-62430000D01*
X392097500Y-62430000D01*
X392297500Y-62630000D01*
G36*
X392297500Y-62630000D02*
G01*
X392297500Y-64230000D01*
X392097500Y-64430000D01*
X390497500Y-64430000D01*
X390297500Y-64230000D01*
X390297500Y-62630000D01*
X390497500Y-62430000D01*
X392097500Y-62430000D01*
X392297500Y-62630000D01*
G37*
D10*
X403247500Y-60090000D02*
X403247500Y-61690000D01*
X403447500Y-61890000D02*
X405047500Y-61890000D01*
X405247500Y-61690000D02*
X405247500Y-60090000D01*
X403447500Y-59890000D02*
X405047500Y-59890000D01*
D11*
X405247500Y-60090000D02*
X405247500Y-61690000D01*
X405047500Y-61890000D01*
X403447500Y-61890000D01*
X403247500Y-61690000D01*
X403247500Y-60090000D01*
X403447500Y-59890000D01*
X405047500Y-59890000D01*
X405247500Y-60090000D01*
G36*
X405247500Y-60090000D02*
G01*
X405247500Y-61690000D01*
X405047500Y-61890000D01*
X403447500Y-61890000D01*
X403247500Y-61690000D01*
X403247500Y-60090000D01*
X403447500Y-59890000D01*
X405047500Y-59890000D01*
X405247500Y-60090000D01*
G37*
D10*
%TO.C,SW30*%
X366485000Y-62630000D02*
G75*
G02*
X366685000Y-62430000I200000J0D01*
G01*
X368285000Y-62430000D02*
G75*
G02*
X368485000Y-62630000I0J-200000D01*
G01*
X368485000Y-64230000D02*
G75*
G02*
X368285000Y-64430000I-200000J0D01*
G01*
X366685000Y-64430000D02*
G75*
G02*
X366485000Y-64230000I0J200000D01*
G01*
X379435000Y-60090000D02*
G75*
G02*
X379635000Y-59890000I200000J0D01*
G01*
X381235000Y-59890000D02*
G75*
G02*
X381435000Y-60090000I0J-200000D01*
G01*
X379635000Y-61890000D02*
G75*
G02*
X379435000Y-61690000I0J200000D01*
G01*
X381435000Y-61690000D02*
G75*
G02*
X381235000Y-61890000I-200000J0D01*
G01*
X366685000Y-62430000D02*
X368285000Y-62430000D01*
X368485000Y-62630000D02*
X368485000Y-64230000D01*
X368285000Y-64430000D02*
X366685000Y-64430000D01*
X366485000Y-64230000D02*
X366485000Y-62630000D01*
D11*
X368485000Y-62630000D02*
X368485000Y-64230000D01*
X368285000Y-64430000D01*
X366685000Y-64430000D01*
X366485000Y-64230000D01*
X366485000Y-62630000D01*
X366685000Y-62430000D01*
X368285000Y-62430000D01*
X368485000Y-62630000D01*
G36*
X368485000Y-62630000D02*
G01*
X368485000Y-64230000D01*
X368285000Y-64430000D01*
X366685000Y-64430000D01*
X366485000Y-64230000D01*
X366485000Y-62630000D01*
X366685000Y-62430000D01*
X368285000Y-62430000D01*
X368485000Y-62630000D01*
G37*
D10*
X379435000Y-60090000D02*
X379435000Y-61690000D01*
X379635000Y-61890000D02*
X381235000Y-61890000D01*
X381435000Y-61690000D02*
X381435000Y-60090000D01*
X379635000Y-59890000D02*
X381235000Y-59890000D01*
D11*
X381435000Y-60090000D02*
X381435000Y-61690000D01*
X381235000Y-61890000D01*
X379635000Y-61890000D01*
X379435000Y-61690000D01*
X379435000Y-60090000D01*
X379635000Y-59890000D01*
X381235000Y-59890000D01*
X381435000Y-60090000D01*
G36*
X381435000Y-60090000D02*
G01*
X381435000Y-61690000D01*
X381235000Y-61890000D01*
X379635000Y-61890000D01*
X379435000Y-61690000D01*
X379435000Y-60090000D01*
X379635000Y-59890000D01*
X381235000Y-59890000D01*
X381435000Y-60090000D01*
G37*
D10*
%TO.C,SW29*%
X347435000Y-62630000D02*
G75*
G02*
X347635000Y-62430000I200000J0D01*
G01*
X349235000Y-62430000D02*
G75*
G02*
X349435000Y-62630000I0J-200000D01*
G01*
X349435000Y-64230000D02*
G75*
G02*
X349235000Y-64430000I-200000J0D01*
G01*
X347635000Y-64430000D02*
G75*
G02*
X347435000Y-64230000I0J200000D01*
G01*
X360385000Y-60090000D02*
G75*
G02*
X360585000Y-59890000I200000J0D01*
G01*
X362185000Y-59890000D02*
G75*
G02*
X362385000Y-60090000I0J-200000D01*
G01*
X360585000Y-61890000D02*
G75*
G02*
X360385000Y-61690000I0J200000D01*
G01*
X362385000Y-61690000D02*
G75*
G02*
X362185000Y-61890000I-200000J0D01*
G01*
X347635000Y-62430000D02*
X349235000Y-62430000D01*
X349435000Y-62630000D02*
X349435000Y-64230000D01*
X349235000Y-64430000D02*
X347635000Y-64430000D01*
X347435000Y-64230000D02*
X347435000Y-62630000D01*
D11*
X349435000Y-62630000D02*
X349435000Y-64230000D01*
X349235000Y-64430000D01*
X347635000Y-64430000D01*
X347435000Y-64230000D01*
X347435000Y-62630000D01*
X347635000Y-62430000D01*
X349235000Y-62430000D01*
X349435000Y-62630000D01*
G36*
X349435000Y-62630000D02*
G01*
X349435000Y-64230000D01*
X349235000Y-64430000D01*
X347635000Y-64430000D01*
X347435000Y-64230000D01*
X347435000Y-62630000D01*
X347635000Y-62430000D01*
X349235000Y-62430000D01*
X349435000Y-62630000D01*
G37*
D10*
X360385000Y-60090000D02*
X360385000Y-61690000D01*
X360585000Y-61890000D02*
X362185000Y-61890000D01*
X362385000Y-61690000D02*
X362385000Y-60090000D01*
X360585000Y-59890000D02*
X362185000Y-59890000D01*
D11*
X362385000Y-60090000D02*
X362385000Y-61690000D01*
X362185000Y-61890000D01*
X360585000Y-61890000D01*
X360385000Y-61690000D01*
X360385000Y-60090000D01*
X360585000Y-59890000D01*
X362185000Y-59890000D01*
X362385000Y-60090000D01*
G36*
X362385000Y-60090000D02*
G01*
X362385000Y-61690000D01*
X362185000Y-61890000D01*
X360585000Y-61890000D01*
X360385000Y-61690000D01*
X360385000Y-60090000D01*
X360585000Y-59890000D01*
X362185000Y-59890000D01*
X362385000Y-60090000D01*
G37*
D10*
%TO.C,SW28*%
X328385000Y-62630000D02*
G75*
G02*
X328585000Y-62430000I200000J0D01*
G01*
X330185000Y-62430000D02*
G75*
G02*
X330385000Y-62630000I0J-200000D01*
G01*
X330385000Y-64230000D02*
G75*
G02*
X330185000Y-64430000I-200000J0D01*
G01*
X328585000Y-64430000D02*
G75*
G02*
X328385000Y-64230000I0J200000D01*
G01*
X341335000Y-60090000D02*
G75*
G02*
X341535000Y-59890000I200000J0D01*
G01*
X343135000Y-59890000D02*
G75*
G02*
X343335000Y-60090000I0J-200000D01*
G01*
X341535000Y-61890000D02*
G75*
G02*
X341335000Y-61690000I0J200000D01*
G01*
X343335000Y-61690000D02*
G75*
G02*
X343135000Y-61890000I-200000J0D01*
G01*
X328585000Y-62430000D02*
X330185000Y-62430000D01*
X330385000Y-62630000D02*
X330385000Y-64230000D01*
X330185000Y-64430000D02*
X328585000Y-64430000D01*
X328385000Y-64230000D02*
X328385000Y-62630000D01*
D11*
X330385000Y-62630000D02*
X330385000Y-64230000D01*
X330185000Y-64430000D01*
X328585000Y-64430000D01*
X328385000Y-64230000D01*
X328385000Y-62630000D01*
X328585000Y-62430000D01*
X330185000Y-62430000D01*
X330385000Y-62630000D01*
G36*
X330385000Y-62630000D02*
G01*
X330385000Y-64230000D01*
X330185000Y-64430000D01*
X328585000Y-64430000D01*
X328385000Y-64230000D01*
X328385000Y-62630000D01*
X328585000Y-62430000D01*
X330185000Y-62430000D01*
X330385000Y-62630000D01*
G37*
D10*
X341335000Y-60090000D02*
X341335000Y-61690000D01*
X341535000Y-61890000D02*
X343135000Y-61890000D01*
X343335000Y-61690000D02*
X343335000Y-60090000D01*
X341535000Y-59890000D02*
X343135000Y-59890000D01*
D11*
X343335000Y-60090000D02*
X343335000Y-61690000D01*
X343135000Y-61890000D01*
X341535000Y-61890000D01*
X341335000Y-61690000D01*
X341335000Y-60090000D01*
X341535000Y-59890000D01*
X343135000Y-59890000D01*
X343335000Y-60090000D01*
G36*
X343335000Y-60090000D02*
G01*
X343335000Y-61690000D01*
X343135000Y-61890000D01*
X341535000Y-61890000D01*
X341335000Y-61690000D01*
X341335000Y-60090000D01*
X341535000Y-59890000D01*
X343135000Y-59890000D01*
X343335000Y-60090000D01*
G37*
D10*
%TO.C,SW27*%
X309335000Y-62630000D02*
G75*
G02*
X309535000Y-62430000I200000J0D01*
G01*
X311135000Y-62430000D02*
G75*
G02*
X311335000Y-62630000I0J-200000D01*
G01*
X311335000Y-64230000D02*
G75*
G02*
X311135000Y-64430000I-200000J0D01*
G01*
X309535000Y-64430000D02*
G75*
G02*
X309335000Y-64230000I0J200000D01*
G01*
X322285000Y-60090000D02*
G75*
G02*
X322485000Y-59890000I200000J0D01*
G01*
X324085000Y-59890000D02*
G75*
G02*
X324285000Y-60090000I0J-200000D01*
G01*
X322485000Y-61890000D02*
G75*
G02*
X322285000Y-61690000I0J200000D01*
G01*
X324285000Y-61690000D02*
G75*
G02*
X324085000Y-61890000I-200000J0D01*
G01*
X309535000Y-62430000D02*
X311135000Y-62430000D01*
X311335000Y-62630000D02*
X311335000Y-64230000D01*
X311135000Y-64430000D02*
X309535000Y-64430000D01*
X309335000Y-64230000D02*
X309335000Y-62630000D01*
D11*
X311335000Y-62630000D02*
X311335000Y-64230000D01*
X311135000Y-64430000D01*
X309535000Y-64430000D01*
X309335000Y-64230000D01*
X309335000Y-62630000D01*
X309535000Y-62430000D01*
X311135000Y-62430000D01*
X311335000Y-62630000D01*
G36*
X311335000Y-62630000D02*
G01*
X311335000Y-64230000D01*
X311135000Y-64430000D01*
X309535000Y-64430000D01*
X309335000Y-64230000D01*
X309335000Y-62630000D01*
X309535000Y-62430000D01*
X311135000Y-62430000D01*
X311335000Y-62630000D01*
G37*
D10*
X322285000Y-60090000D02*
X322285000Y-61690000D01*
X322485000Y-61890000D02*
X324085000Y-61890000D01*
X324285000Y-61690000D02*
X324285000Y-60090000D01*
X322485000Y-59890000D02*
X324085000Y-59890000D01*
D11*
X324285000Y-60090000D02*
X324285000Y-61690000D01*
X324085000Y-61890000D01*
X322485000Y-61890000D01*
X322285000Y-61690000D01*
X322285000Y-60090000D01*
X322485000Y-59890000D01*
X324085000Y-59890000D01*
X324285000Y-60090000D01*
G36*
X324285000Y-60090000D02*
G01*
X324285000Y-61690000D01*
X324085000Y-61890000D01*
X322485000Y-61890000D01*
X322285000Y-61690000D01*
X322285000Y-60090000D01*
X322485000Y-59890000D01*
X324085000Y-59890000D01*
X324285000Y-60090000D01*
G37*
D10*
%TO.C,SW26*%
X290285000Y-62630000D02*
G75*
G02*
X290485000Y-62430000I200000J0D01*
G01*
X292085000Y-62430000D02*
G75*
G02*
X292285000Y-62630000I0J-200000D01*
G01*
X292285000Y-64230000D02*
G75*
G02*
X292085000Y-64430000I-200000J0D01*
G01*
X290485000Y-64430000D02*
G75*
G02*
X290285000Y-64230000I0J200000D01*
G01*
X303235000Y-60090000D02*
G75*
G02*
X303435000Y-59890000I200000J0D01*
G01*
X305035000Y-59890000D02*
G75*
G02*
X305235000Y-60090000I0J-200000D01*
G01*
X303435000Y-61890000D02*
G75*
G02*
X303235000Y-61690000I0J200000D01*
G01*
X305235000Y-61690000D02*
G75*
G02*
X305035000Y-61890000I-200000J0D01*
G01*
X290485000Y-62430000D02*
X292085000Y-62430000D01*
X292285000Y-62630000D02*
X292285000Y-64230000D01*
X292085000Y-64430000D02*
X290485000Y-64430000D01*
X290285000Y-64230000D02*
X290285000Y-62630000D01*
D11*
X292285000Y-62630000D02*
X292285000Y-64230000D01*
X292085000Y-64430000D01*
X290485000Y-64430000D01*
X290285000Y-64230000D01*
X290285000Y-62630000D01*
X290485000Y-62430000D01*
X292085000Y-62430000D01*
X292285000Y-62630000D01*
G36*
X292285000Y-62630000D02*
G01*
X292285000Y-64230000D01*
X292085000Y-64430000D01*
X290485000Y-64430000D01*
X290285000Y-64230000D01*
X290285000Y-62630000D01*
X290485000Y-62430000D01*
X292085000Y-62430000D01*
X292285000Y-62630000D01*
G37*
D10*
X303235000Y-60090000D02*
X303235000Y-61690000D01*
X303435000Y-61890000D02*
X305035000Y-61890000D01*
X305235000Y-61690000D02*
X305235000Y-60090000D01*
X303435000Y-59890000D02*
X305035000Y-59890000D01*
D11*
X305235000Y-60090000D02*
X305235000Y-61690000D01*
X305035000Y-61890000D01*
X303435000Y-61890000D01*
X303235000Y-61690000D01*
X303235000Y-60090000D01*
X303435000Y-59890000D01*
X305035000Y-59890000D01*
X305235000Y-60090000D01*
G36*
X305235000Y-60090000D02*
G01*
X305235000Y-61690000D01*
X305035000Y-61890000D01*
X303435000Y-61890000D01*
X303235000Y-61690000D01*
X303235000Y-60090000D01*
X303435000Y-59890000D01*
X305035000Y-59890000D01*
X305235000Y-60090000D01*
G37*
D10*
%TO.C,SW25*%
X271235000Y-62630000D02*
G75*
G02*
X271435000Y-62430000I200000J0D01*
G01*
X273035000Y-62430000D02*
G75*
G02*
X273235000Y-62630000I0J-200000D01*
G01*
X273235000Y-64230000D02*
G75*
G02*
X273035000Y-64430000I-200000J0D01*
G01*
X271435000Y-64430000D02*
G75*
G02*
X271235000Y-64230000I0J200000D01*
G01*
X284185000Y-60090000D02*
G75*
G02*
X284385000Y-59890000I200000J0D01*
G01*
X285985000Y-59890000D02*
G75*
G02*
X286185000Y-60090000I0J-200000D01*
G01*
X284385000Y-61890000D02*
G75*
G02*
X284185000Y-61690000I0J200000D01*
G01*
X286185000Y-61690000D02*
G75*
G02*
X285985000Y-61890000I-200000J0D01*
G01*
X271435000Y-62430000D02*
X273035000Y-62430000D01*
X273235000Y-62630000D02*
X273235000Y-64230000D01*
X273035000Y-64430000D02*
X271435000Y-64430000D01*
X271235000Y-64230000D02*
X271235000Y-62630000D01*
D11*
X273235000Y-62630000D02*
X273235000Y-64230000D01*
X273035000Y-64430000D01*
X271435000Y-64430000D01*
X271235000Y-64230000D01*
X271235000Y-62630000D01*
X271435000Y-62430000D01*
X273035000Y-62430000D01*
X273235000Y-62630000D01*
G36*
X273235000Y-62630000D02*
G01*
X273235000Y-64230000D01*
X273035000Y-64430000D01*
X271435000Y-64430000D01*
X271235000Y-64230000D01*
X271235000Y-62630000D01*
X271435000Y-62430000D01*
X273035000Y-62430000D01*
X273235000Y-62630000D01*
G37*
D10*
X284185000Y-60090000D02*
X284185000Y-61690000D01*
X284385000Y-61890000D02*
X285985000Y-61890000D01*
X286185000Y-61690000D02*
X286185000Y-60090000D01*
X284385000Y-59890000D02*
X285985000Y-59890000D01*
D11*
X286185000Y-60090000D02*
X286185000Y-61690000D01*
X285985000Y-61890000D01*
X284385000Y-61890000D01*
X284185000Y-61690000D01*
X284185000Y-60090000D01*
X284385000Y-59890000D01*
X285985000Y-59890000D01*
X286185000Y-60090000D01*
G36*
X286185000Y-60090000D02*
G01*
X286185000Y-61690000D01*
X285985000Y-61890000D01*
X284385000Y-61890000D01*
X284185000Y-61690000D01*
X284185000Y-60090000D01*
X284385000Y-59890000D01*
X285985000Y-59890000D01*
X286185000Y-60090000D01*
G37*
D10*
%TO.C,SW24*%
X252185000Y-62630000D02*
G75*
G02*
X252385000Y-62430000I200000J0D01*
G01*
X253985000Y-62430000D02*
G75*
G02*
X254185000Y-62630000I0J-200000D01*
G01*
X254185000Y-64230000D02*
G75*
G02*
X253985000Y-64430000I-200000J0D01*
G01*
X252385000Y-64430000D02*
G75*
G02*
X252185000Y-64230000I0J200000D01*
G01*
X265135000Y-60090000D02*
G75*
G02*
X265335000Y-59890000I200000J0D01*
G01*
X266935000Y-59890000D02*
G75*
G02*
X267135000Y-60090000I0J-200000D01*
G01*
X265335000Y-61890000D02*
G75*
G02*
X265135000Y-61690000I0J200000D01*
G01*
X267135000Y-61690000D02*
G75*
G02*
X266935000Y-61890000I-200000J0D01*
G01*
X252385000Y-62430000D02*
X253985000Y-62430000D01*
X254185000Y-62630000D02*
X254185000Y-64230000D01*
X253985000Y-64430000D02*
X252385000Y-64430000D01*
X252185000Y-64230000D02*
X252185000Y-62630000D01*
D11*
X254185000Y-62630000D02*
X254185000Y-64230000D01*
X253985000Y-64430000D01*
X252385000Y-64430000D01*
X252185000Y-64230000D01*
X252185000Y-62630000D01*
X252385000Y-62430000D01*
X253985000Y-62430000D01*
X254185000Y-62630000D01*
G36*
X254185000Y-62630000D02*
G01*
X254185000Y-64230000D01*
X253985000Y-64430000D01*
X252385000Y-64430000D01*
X252185000Y-64230000D01*
X252185000Y-62630000D01*
X252385000Y-62430000D01*
X253985000Y-62430000D01*
X254185000Y-62630000D01*
G37*
D10*
X265135000Y-60090000D02*
X265135000Y-61690000D01*
X265335000Y-61890000D02*
X266935000Y-61890000D01*
X267135000Y-61690000D02*
X267135000Y-60090000D01*
X265335000Y-59890000D02*
X266935000Y-59890000D01*
D11*
X267135000Y-60090000D02*
X267135000Y-61690000D01*
X266935000Y-61890000D01*
X265335000Y-61890000D01*
X265135000Y-61690000D01*
X265135000Y-60090000D01*
X265335000Y-59890000D01*
X266935000Y-59890000D01*
X267135000Y-60090000D01*
G36*
X267135000Y-60090000D02*
G01*
X267135000Y-61690000D01*
X266935000Y-61890000D01*
X265335000Y-61890000D01*
X265135000Y-61690000D01*
X265135000Y-60090000D01*
X265335000Y-59890000D01*
X266935000Y-59890000D01*
X267135000Y-60090000D01*
G37*
D10*
%TO.C,SW23*%
X233135000Y-62630000D02*
G75*
G02*
X233335000Y-62430000I200000J0D01*
G01*
X234935000Y-62430000D02*
G75*
G02*
X235135000Y-62630000I0J-200000D01*
G01*
X235135000Y-64230000D02*
G75*
G02*
X234935000Y-64430000I-200000J0D01*
G01*
X233335000Y-64430000D02*
G75*
G02*
X233135000Y-64230000I0J200000D01*
G01*
X246085000Y-60090000D02*
G75*
G02*
X246285000Y-59890000I200000J0D01*
G01*
X247885000Y-59890000D02*
G75*
G02*
X248085000Y-60090000I0J-200000D01*
G01*
X246285000Y-61890000D02*
G75*
G02*
X246085000Y-61690000I0J200000D01*
G01*
X248085000Y-61690000D02*
G75*
G02*
X247885000Y-61890000I-200000J0D01*
G01*
X233335000Y-62430000D02*
X234935000Y-62430000D01*
X235135000Y-62630000D02*
X235135000Y-64230000D01*
X234935000Y-64430000D02*
X233335000Y-64430000D01*
X233135000Y-64230000D02*
X233135000Y-62630000D01*
D11*
X235135000Y-62630000D02*
X235135000Y-64230000D01*
X234935000Y-64430000D01*
X233335000Y-64430000D01*
X233135000Y-64230000D01*
X233135000Y-62630000D01*
X233335000Y-62430000D01*
X234935000Y-62430000D01*
X235135000Y-62630000D01*
G36*
X235135000Y-62630000D02*
G01*
X235135000Y-64230000D01*
X234935000Y-64430000D01*
X233335000Y-64430000D01*
X233135000Y-64230000D01*
X233135000Y-62630000D01*
X233335000Y-62430000D01*
X234935000Y-62430000D01*
X235135000Y-62630000D01*
G37*
D10*
X246085000Y-60090000D02*
X246085000Y-61690000D01*
X246285000Y-61890000D02*
X247885000Y-61890000D01*
X248085000Y-61690000D02*
X248085000Y-60090000D01*
X246285000Y-59890000D02*
X247885000Y-59890000D01*
D11*
X248085000Y-60090000D02*
X248085000Y-61690000D01*
X247885000Y-61890000D01*
X246285000Y-61890000D01*
X246085000Y-61690000D01*
X246085000Y-60090000D01*
X246285000Y-59890000D01*
X247885000Y-59890000D01*
X248085000Y-60090000D01*
G36*
X248085000Y-60090000D02*
G01*
X248085000Y-61690000D01*
X247885000Y-61890000D01*
X246285000Y-61890000D01*
X246085000Y-61690000D01*
X246085000Y-60090000D01*
X246285000Y-59890000D01*
X247885000Y-59890000D01*
X248085000Y-60090000D01*
G37*
D10*
%TO.C,SW22*%
X214085000Y-62630000D02*
G75*
G02*
X214285000Y-62430000I200000J0D01*
G01*
X215885000Y-62430000D02*
G75*
G02*
X216085000Y-62630000I0J-200000D01*
G01*
X216085000Y-64230000D02*
G75*
G02*
X215885000Y-64430000I-200000J0D01*
G01*
X214285000Y-64430000D02*
G75*
G02*
X214085000Y-64230000I0J200000D01*
G01*
X227035000Y-60090000D02*
G75*
G02*
X227235000Y-59890000I200000J0D01*
G01*
X228835000Y-59890000D02*
G75*
G02*
X229035000Y-60090000I0J-200000D01*
G01*
X227235000Y-61890000D02*
G75*
G02*
X227035000Y-61690000I0J200000D01*
G01*
X229035000Y-61690000D02*
G75*
G02*
X228835000Y-61890000I-200000J0D01*
G01*
X214285000Y-62430000D02*
X215885000Y-62430000D01*
X216085000Y-62630000D02*
X216085000Y-64230000D01*
X215885000Y-64430000D02*
X214285000Y-64430000D01*
X214085000Y-64230000D02*
X214085000Y-62630000D01*
D11*
X216085000Y-62630000D02*
X216085000Y-64230000D01*
X215885000Y-64430000D01*
X214285000Y-64430000D01*
X214085000Y-64230000D01*
X214085000Y-62630000D01*
X214285000Y-62430000D01*
X215885000Y-62430000D01*
X216085000Y-62630000D01*
G36*
X216085000Y-62630000D02*
G01*
X216085000Y-64230000D01*
X215885000Y-64430000D01*
X214285000Y-64430000D01*
X214085000Y-64230000D01*
X214085000Y-62630000D01*
X214285000Y-62430000D01*
X215885000Y-62430000D01*
X216085000Y-62630000D01*
G37*
D10*
X227035000Y-60090000D02*
X227035000Y-61690000D01*
X227235000Y-61890000D02*
X228835000Y-61890000D01*
X229035000Y-61690000D02*
X229035000Y-60090000D01*
X227235000Y-59890000D02*
X228835000Y-59890000D01*
D11*
X229035000Y-60090000D02*
X229035000Y-61690000D01*
X228835000Y-61890000D01*
X227235000Y-61890000D01*
X227035000Y-61690000D01*
X227035000Y-60090000D01*
X227235000Y-59890000D01*
X228835000Y-59890000D01*
X229035000Y-60090000D01*
G36*
X229035000Y-60090000D02*
G01*
X229035000Y-61690000D01*
X228835000Y-61890000D01*
X227235000Y-61890000D01*
X227035000Y-61690000D01*
X227035000Y-60090000D01*
X227235000Y-59890000D01*
X228835000Y-59890000D01*
X229035000Y-60090000D01*
G37*
D10*
%TO.C,SW21*%
X195035000Y-62630000D02*
G75*
G02*
X195235000Y-62430000I200000J0D01*
G01*
X196835000Y-62430000D02*
G75*
G02*
X197035000Y-62630000I0J-200000D01*
G01*
X197035000Y-64230000D02*
G75*
G02*
X196835000Y-64430000I-200000J0D01*
G01*
X195235000Y-64430000D02*
G75*
G02*
X195035000Y-64230000I0J200000D01*
G01*
X207985000Y-60090000D02*
G75*
G02*
X208185000Y-59890000I200000J0D01*
G01*
X209785000Y-59890000D02*
G75*
G02*
X209985000Y-60090000I0J-200000D01*
G01*
X208185000Y-61890000D02*
G75*
G02*
X207985000Y-61690000I0J200000D01*
G01*
X209985000Y-61690000D02*
G75*
G02*
X209785000Y-61890000I-200000J0D01*
G01*
X195235000Y-62430000D02*
X196835000Y-62430000D01*
X197035000Y-62630000D02*
X197035000Y-64230000D01*
X196835000Y-64430000D02*
X195235000Y-64430000D01*
X195035000Y-64230000D02*
X195035000Y-62630000D01*
D11*
X197035000Y-62630000D02*
X197035000Y-64230000D01*
X196835000Y-64430000D01*
X195235000Y-64430000D01*
X195035000Y-64230000D01*
X195035000Y-62630000D01*
X195235000Y-62430000D01*
X196835000Y-62430000D01*
X197035000Y-62630000D01*
G36*
X197035000Y-62630000D02*
G01*
X197035000Y-64230000D01*
X196835000Y-64430000D01*
X195235000Y-64430000D01*
X195035000Y-64230000D01*
X195035000Y-62630000D01*
X195235000Y-62430000D01*
X196835000Y-62430000D01*
X197035000Y-62630000D01*
G37*
D10*
X207985000Y-60090000D02*
X207985000Y-61690000D01*
X208185000Y-61890000D02*
X209785000Y-61890000D01*
X209985000Y-61690000D02*
X209985000Y-60090000D01*
X208185000Y-59890000D02*
X209785000Y-59890000D01*
D11*
X209985000Y-60090000D02*
X209985000Y-61690000D01*
X209785000Y-61890000D01*
X208185000Y-61890000D01*
X207985000Y-61690000D01*
X207985000Y-60090000D01*
X208185000Y-59890000D01*
X209785000Y-59890000D01*
X209985000Y-60090000D01*
G36*
X209985000Y-60090000D02*
G01*
X209985000Y-61690000D01*
X209785000Y-61890000D01*
X208185000Y-61890000D01*
X207985000Y-61690000D01*
X207985000Y-60090000D01*
X208185000Y-59890000D01*
X209785000Y-59890000D01*
X209985000Y-60090000D01*
G37*
D10*
%TO.C,SW20*%
X175985000Y-62630000D02*
G75*
G02*
X176185000Y-62430000I200000J0D01*
G01*
X177785000Y-62430000D02*
G75*
G02*
X177985000Y-62630000I0J-200000D01*
G01*
X177985000Y-64230000D02*
G75*
G02*
X177785000Y-64430000I-200000J0D01*
G01*
X176185000Y-64430000D02*
G75*
G02*
X175985000Y-64230000I0J200000D01*
G01*
X188935000Y-60090000D02*
G75*
G02*
X189135000Y-59890000I200000J0D01*
G01*
X190735000Y-59890000D02*
G75*
G02*
X190935000Y-60090000I0J-200000D01*
G01*
X189135000Y-61890000D02*
G75*
G02*
X188935000Y-61690000I0J200000D01*
G01*
X190935000Y-61690000D02*
G75*
G02*
X190735000Y-61890000I-200000J0D01*
G01*
X176185000Y-62430000D02*
X177785000Y-62430000D01*
X177985000Y-62630000D02*
X177985000Y-64230000D01*
X177785000Y-64430000D02*
X176185000Y-64430000D01*
X175985000Y-64230000D02*
X175985000Y-62630000D01*
D11*
X177985000Y-62630000D02*
X177985000Y-64230000D01*
X177785000Y-64430000D01*
X176185000Y-64430000D01*
X175985000Y-64230000D01*
X175985000Y-62630000D01*
X176185000Y-62430000D01*
X177785000Y-62430000D01*
X177985000Y-62630000D01*
G36*
X177985000Y-62630000D02*
G01*
X177985000Y-64230000D01*
X177785000Y-64430000D01*
X176185000Y-64430000D01*
X175985000Y-64230000D01*
X175985000Y-62630000D01*
X176185000Y-62430000D01*
X177785000Y-62430000D01*
X177985000Y-62630000D01*
G37*
D10*
X188935000Y-60090000D02*
X188935000Y-61690000D01*
X189135000Y-61890000D02*
X190735000Y-61890000D01*
X190935000Y-61690000D02*
X190935000Y-60090000D01*
X189135000Y-59890000D02*
X190735000Y-59890000D01*
D11*
X190935000Y-60090000D02*
X190935000Y-61690000D01*
X190735000Y-61890000D01*
X189135000Y-61890000D01*
X188935000Y-61690000D01*
X188935000Y-60090000D01*
X189135000Y-59890000D01*
X190735000Y-59890000D01*
X190935000Y-60090000D01*
G36*
X190935000Y-60090000D02*
G01*
X190935000Y-61690000D01*
X190735000Y-61890000D01*
X189135000Y-61890000D01*
X188935000Y-61690000D01*
X188935000Y-60090000D01*
X189135000Y-59890000D01*
X190735000Y-59890000D01*
X190935000Y-60090000D01*
G37*
D10*
%TO.C,SW19*%
X156935000Y-62630000D02*
G75*
G02*
X157135000Y-62430000I200000J0D01*
G01*
X158735000Y-62430000D02*
G75*
G02*
X158935000Y-62630000I0J-200000D01*
G01*
X158935000Y-64230000D02*
G75*
G02*
X158735000Y-64430000I-200000J0D01*
G01*
X157135000Y-64430000D02*
G75*
G02*
X156935000Y-64230000I0J200000D01*
G01*
X169885000Y-60090000D02*
G75*
G02*
X170085000Y-59890000I200000J0D01*
G01*
X171685000Y-59890000D02*
G75*
G02*
X171885000Y-60090000I0J-200000D01*
G01*
X170085000Y-61890000D02*
G75*
G02*
X169885000Y-61690000I0J200000D01*
G01*
X171885000Y-61690000D02*
G75*
G02*
X171685000Y-61890000I-200000J0D01*
G01*
X157135000Y-62430000D02*
X158735000Y-62430000D01*
X158935000Y-62630000D02*
X158935000Y-64230000D01*
X158735000Y-64430000D02*
X157135000Y-64430000D01*
X156935000Y-64230000D02*
X156935000Y-62630000D01*
D11*
X158935000Y-62630000D02*
X158935000Y-64230000D01*
X158735000Y-64430000D01*
X157135000Y-64430000D01*
X156935000Y-64230000D01*
X156935000Y-62630000D01*
X157135000Y-62430000D01*
X158735000Y-62430000D01*
X158935000Y-62630000D01*
G36*
X158935000Y-62630000D02*
G01*
X158935000Y-64230000D01*
X158735000Y-64430000D01*
X157135000Y-64430000D01*
X156935000Y-64230000D01*
X156935000Y-62630000D01*
X157135000Y-62430000D01*
X158735000Y-62430000D01*
X158935000Y-62630000D01*
G37*
D10*
X169885000Y-60090000D02*
X169885000Y-61690000D01*
X170085000Y-61890000D02*
X171685000Y-61890000D01*
X171885000Y-61690000D02*
X171885000Y-60090000D01*
X170085000Y-59890000D02*
X171685000Y-59890000D01*
D11*
X171885000Y-60090000D02*
X171885000Y-61690000D01*
X171685000Y-61890000D01*
X170085000Y-61890000D01*
X169885000Y-61690000D01*
X169885000Y-60090000D01*
X170085000Y-59890000D01*
X171685000Y-59890000D01*
X171885000Y-60090000D01*
G36*
X171885000Y-60090000D02*
G01*
X171885000Y-61690000D01*
X171685000Y-61890000D01*
X170085000Y-61890000D01*
X169885000Y-61690000D01*
X169885000Y-60090000D01*
X170085000Y-59890000D01*
X171685000Y-59890000D01*
X171885000Y-60090000D01*
G37*
D10*
%TO.C,SW18*%
X137885000Y-62630000D02*
G75*
G02*
X138085000Y-62430000I200000J0D01*
G01*
X139685000Y-62430000D02*
G75*
G02*
X139885000Y-62630000I0J-200000D01*
G01*
X139885000Y-64230000D02*
G75*
G02*
X139685000Y-64430000I-200000J0D01*
G01*
X138085000Y-64430000D02*
G75*
G02*
X137885000Y-64230000I0J200000D01*
G01*
X150835000Y-60090000D02*
G75*
G02*
X151035000Y-59890000I200000J0D01*
G01*
X152635000Y-59890000D02*
G75*
G02*
X152835000Y-60090000I0J-200000D01*
G01*
X151035000Y-61890000D02*
G75*
G02*
X150835000Y-61690000I0J200000D01*
G01*
X152835000Y-61690000D02*
G75*
G02*
X152635000Y-61890000I-200000J0D01*
G01*
X138085000Y-62430000D02*
X139685000Y-62430000D01*
X139885000Y-62630000D02*
X139885000Y-64230000D01*
X139685000Y-64430000D02*
X138085000Y-64430000D01*
X137885000Y-64230000D02*
X137885000Y-62630000D01*
D11*
X139885000Y-62630000D02*
X139885000Y-64230000D01*
X139685000Y-64430000D01*
X138085000Y-64430000D01*
X137885000Y-64230000D01*
X137885000Y-62630000D01*
X138085000Y-62430000D01*
X139685000Y-62430000D01*
X139885000Y-62630000D01*
G36*
X139885000Y-62630000D02*
G01*
X139885000Y-64230000D01*
X139685000Y-64430000D01*
X138085000Y-64430000D01*
X137885000Y-64230000D01*
X137885000Y-62630000D01*
X138085000Y-62430000D01*
X139685000Y-62430000D01*
X139885000Y-62630000D01*
G37*
D10*
X150835000Y-60090000D02*
X150835000Y-61690000D01*
X151035000Y-61890000D02*
X152635000Y-61890000D01*
X152835000Y-61690000D02*
X152835000Y-60090000D01*
X151035000Y-59890000D02*
X152635000Y-59890000D01*
D11*
X152835000Y-60090000D02*
X152835000Y-61690000D01*
X152635000Y-61890000D01*
X151035000Y-61890000D01*
X150835000Y-61690000D01*
X150835000Y-60090000D01*
X151035000Y-59890000D01*
X152635000Y-59890000D01*
X152835000Y-60090000D01*
G36*
X152835000Y-60090000D02*
G01*
X152835000Y-61690000D01*
X152635000Y-61890000D01*
X151035000Y-61890000D01*
X150835000Y-61690000D01*
X150835000Y-60090000D01*
X151035000Y-59890000D01*
X152635000Y-59890000D01*
X152835000Y-60090000D01*
G37*
D10*
%TO.C,SW17*%
X118835000Y-62630000D02*
G75*
G02*
X119035000Y-62430000I200000J0D01*
G01*
X120635000Y-62430000D02*
G75*
G02*
X120835000Y-62630000I0J-200000D01*
G01*
X120835000Y-64230000D02*
G75*
G02*
X120635000Y-64430000I-200000J0D01*
G01*
X119035000Y-64430000D02*
G75*
G02*
X118835000Y-64230000I0J200000D01*
G01*
X131785000Y-60090000D02*
G75*
G02*
X131985000Y-59890000I200000J0D01*
G01*
X133585000Y-59890000D02*
G75*
G02*
X133785000Y-60090000I0J-200000D01*
G01*
X131985000Y-61890000D02*
G75*
G02*
X131785000Y-61690000I0J200000D01*
G01*
X133785000Y-61690000D02*
G75*
G02*
X133585000Y-61890000I-200000J0D01*
G01*
X119035000Y-62430000D02*
X120635000Y-62430000D01*
X120835000Y-62630000D02*
X120835000Y-64230000D01*
X120635000Y-64430000D02*
X119035000Y-64430000D01*
X118835000Y-64230000D02*
X118835000Y-62630000D01*
D11*
X120835000Y-62630000D02*
X120835000Y-64230000D01*
X120635000Y-64430000D01*
X119035000Y-64430000D01*
X118835000Y-64230000D01*
X118835000Y-62630000D01*
X119035000Y-62430000D01*
X120635000Y-62430000D01*
X120835000Y-62630000D01*
G36*
X120835000Y-62630000D02*
G01*
X120835000Y-64230000D01*
X120635000Y-64430000D01*
X119035000Y-64430000D01*
X118835000Y-64230000D01*
X118835000Y-62630000D01*
X119035000Y-62430000D01*
X120635000Y-62430000D01*
X120835000Y-62630000D01*
G37*
D10*
X131785000Y-60090000D02*
X131785000Y-61690000D01*
X131985000Y-61890000D02*
X133585000Y-61890000D01*
X133785000Y-61690000D02*
X133785000Y-60090000D01*
X131985000Y-59890000D02*
X133585000Y-59890000D01*
D11*
X133785000Y-60090000D02*
X133785000Y-61690000D01*
X133585000Y-61890000D01*
X131985000Y-61890000D01*
X131785000Y-61690000D01*
X131785000Y-60090000D01*
X131985000Y-59890000D01*
X133585000Y-59890000D01*
X133785000Y-60090000D01*
G36*
X133785000Y-60090000D02*
G01*
X133785000Y-61690000D01*
X133585000Y-61890000D01*
X131985000Y-61890000D01*
X131785000Y-61690000D01*
X131785000Y-60090000D01*
X131985000Y-59890000D01*
X133585000Y-59890000D01*
X133785000Y-60090000D01*
G37*
D10*
%TO.C,SW16*%
X99785000Y-62630000D02*
G75*
G02*
X99985000Y-62430000I200000J0D01*
G01*
X101585000Y-62430000D02*
G75*
G02*
X101785000Y-62630000I0J-200000D01*
G01*
X101785000Y-64230000D02*
G75*
G02*
X101585000Y-64430000I-200000J0D01*
G01*
X99985000Y-64430000D02*
G75*
G02*
X99785000Y-64230000I0J200000D01*
G01*
X112735000Y-60090000D02*
G75*
G02*
X112935000Y-59890000I200000J0D01*
G01*
X114535000Y-59890000D02*
G75*
G02*
X114735000Y-60090000I0J-200000D01*
G01*
X112935000Y-61890000D02*
G75*
G02*
X112735000Y-61690000I0J200000D01*
G01*
X114735000Y-61690000D02*
G75*
G02*
X114535000Y-61890000I-200000J0D01*
G01*
X99985000Y-62430000D02*
X101585000Y-62430000D01*
X101785000Y-62630000D02*
X101785000Y-64230000D01*
X101585000Y-64430000D02*
X99985000Y-64430000D01*
X99785000Y-64230000D02*
X99785000Y-62630000D01*
D11*
X101785000Y-62630000D02*
X101785000Y-64230000D01*
X101585000Y-64430000D01*
X99985000Y-64430000D01*
X99785000Y-64230000D01*
X99785000Y-62630000D01*
X99985000Y-62430000D01*
X101585000Y-62430000D01*
X101785000Y-62630000D01*
G36*
X101785000Y-62630000D02*
G01*
X101785000Y-64230000D01*
X101585000Y-64430000D01*
X99985000Y-64430000D01*
X99785000Y-64230000D01*
X99785000Y-62630000D01*
X99985000Y-62430000D01*
X101585000Y-62430000D01*
X101785000Y-62630000D01*
G37*
D10*
X112735000Y-60090000D02*
X112735000Y-61690000D01*
X112935000Y-61890000D02*
X114535000Y-61890000D01*
X114735000Y-61690000D02*
X114735000Y-60090000D01*
X112935000Y-59890000D02*
X114535000Y-59890000D01*
D11*
X114735000Y-60090000D02*
X114735000Y-61690000D01*
X114535000Y-61890000D01*
X112935000Y-61890000D01*
X112735000Y-61690000D01*
X112735000Y-60090000D01*
X112935000Y-59890000D01*
X114535000Y-59890000D01*
X114735000Y-60090000D01*
G36*
X114735000Y-60090000D02*
G01*
X114735000Y-61690000D01*
X114535000Y-61890000D01*
X112935000Y-61890000D01*
X112735000Y-61690000D01*
X112735000Y-60090000D01*
X112935000Y-59890000D01*
X114535000Y-59890000D01*
X114735000Y-60090000D01*
G37*
D10*
%TO.C,SW15*%
X390297500Y-38817500D02*
G75*
G02*
X390497500Y-38617500I200000J0D01*
G01*
X392097500Y-38617500D02*
G75*
G02*
X392297500Y-38817500I0J-200000D01*
G01*
X392297500Y-40417500D02*
G75*
G02*
X392097500Y-40617500I-200000J0D01*
G01*
X390497500Y-40617500D02*
G75*
G02*
X390297500Y-40417500I0J200000D01*
G01*
X403247500Y-36277500D02*
G75*
G02*
X403447500Y-36077500I200000J0D01*
G01*
X405047500Y-36077500D02*
G75*
G02*
X405247500Y-36277500I0J-200000D01*
G01*
X403447500Y-38077500D02*
G75*
G02*
X403247500Y-37877500I0J200000D01*
G01*
X405247500Y-37877500D02*
G75*
G02*
X405047500Y-38077500I-200000J0D01*
G01*
X390497500Y-38617500D02*
X392097500Y-38617500D01*
X392297500Y-38817500D02*
X392297500Y-40417500D01*
X392097500Y-40617500D02*
X390497500Y-40617500D01*
X390297500Y-40417500D02*
X390297500Y-38817500D01*
D11*
X392297500Y-38817500D02*
X392297500Y-40417500D01*
X392097500Y-40617500D01*
X390497500Y-40617500D01*
X390297500Y-40417500D01*
X390297500Y-38817500D01*
X390497500Y-38617500D01*
X392097500Y-38617500D01*
X392297500Y-38817500D01*
G36*
X392297500Y-38817500D02*
G01*
X392297500Y-40417500D01*
X392097500Y-40617500D01*
X390497500Y-40617500D01*
X390297500Y-40417500D01*
X390297500Y-38817500D01*
X390497500Y-38617500D01*
X392097500Y-38617500D01*
X392297500Y-38817500D01*
G37*
D10*
X403247500Y-36277500D02*
X403247500Y-37877500D01*
X403447500Y-38077500D02*
X405047500Y-38077500D01*
X405247500Y-37877500D02*
X405247500Y-36277500D01*
X403447500Y-36077500D02*
X405047500Y-36077500D01*
D11*
X405247500Y-36277500D02*
X405247500Y-37877500D01*
X405047500Y-38077500D01*
X403447500Y-38077500D01*
X403247500Y-37877500D01*
X403247500Y-36277500D01*
X403447500Y-36077500D01*
X405047500Y-36077500D01*
X405247500Y-36277500D01*
G36*
X405247500Y-36277500D02*
G01*
X405247500Y-37877500D01*
X405047500Y-38077500D01*
X403447500Y-38077500D01*
X403247500Y-37877500D01*
X403247500Y-36277500D01*
X403447500Y-36077500D01*
X405047500Y-36077500D01*
X405247500Y-36277500D01*
G37*
D10*
%TO.C,SW14*%
X366485000Y-38817500D02*
G75*
G02*
X366685000Y-38617500I200000J0D01*
G01*
X368285000Y-38617500D02*
G75*
G02*
X368485000Y-38817500I0J-200000D01*
G01*
X368485000Y-40417500D02*
G75*
G02*
X368285000Y-40617500I-200000J0D01*
G01*
X366685000Y-40617500D02*
G75*
G02*
X366485000Y-40417500I0J200000D01*
G01*
X379435000Y-36277500D02*
G75*
G02*
X379635000Y-36077500I200000J0D01*
G01*
X381235000Y-36077500D02*
G75*
G02*
X381435000Y-36277500I0J-200000D01*
G01*
X379635000Y-38077500D02*
G75*
G02*
X379435000Y-37877500I0J200000D01*
G01*
X381435000Y-37877500D02*
G75*
G02*
X381235000Y-38077500I-200000J0D01*
G01*
X366685000Y-38617500D02*
X368285000Y-38617500D01*
X368485000Y-38817500D02*
X368485000Y-40417500D01*
X368285000Y-40617500D02*
X366685000Y-40617500D01*
X366485000Y-40417500D02*
X366485000Y-38817500D01*
D11*
X368485000Y-38817500D02*
X368485000Y-40417500D01*
X368285000Y-40617500D01*
X366685000Y-40617500D01*
X366485000Y-40417500D01*
X366485000Y-38817500D01*
X366685000Y-38617500D01*
X368285000Y-38617500D01*
X368485000Y-38817500D01*
G36*
X368485000Y-38817500D02*
G01*
X368485000Y-40417500D01*
X368285000Y-40617500D01*
X366685000Y-40617500D01*
X366485000Y-40417500D01*
X366485000Y-38817500D01*
X366685000Y-38617500D01*
X368285000Y-38617500D01*
X368485000Y-38817500D01*
G37*
D10*
X379435000Y-36277500D02*
X379435000Y-37877500D01*
X379635000Y-38077500D02*
X381235000Y-38077500D01*
X381435000Y-37877500D02*
X381435000Y-36277500D01*
X379635000Y-36077500D02*
X381235000Y-36077500D01*
D11*
X381435000Y-36277500D02*
X381435000Y-37877500D01*
X381235000Y-38077500D01*
X379635000Y-38077500D01*
X379435000Y-37877500D01*
X379435000Y-36277500D01*
X379635000Y-36077500D01*
X381235000Y-36077500D01*
X381435000Y-36277500D01*
G36*
X381435000Y-36277500D02*
G01*
X381435000Y-37877500D01*
X381235000Y-38077500D01*
X379635000Y-38077500D01*
X379435000Y-37877500D01*
X379435000Y-36277500D01*
X379635000Y-36077500D01*
X381235000Y-36077500D01*
X381435000Y-36277500D01*
G37*
D10*
%TO.C,SW13*%
X342672500Y-38817500D02*
G75*
G02*
X342872500Y-38617500I200000J0D01*
G01*
X344472500Y-38617500D02*
G75*
G02*
X344672500Y-38817500I0J-200000D01*
G01*
X344672500Y-40417500D02*
G75*
G02*
X344472500Y-40617500I-200000J0D01*
G01*
X342872500Y-40617500D02*
G75*
G02*
X342672500Y-40417500I0J200000D01*
G01*
X355622500Y-36277500D02*
G75*
G02*
X355822500Y-36077500I200000J0D01*
G01*
X357422500Y-36077500D02*
G75*
G02*
X357622500Y-36277500I0J-200000D01*
G01*
X355822500Y-38077500D02*
G75*
G02*
X355622500Y-37877500I0J200000D01*
G01*
X357622500Y-37877500D02*
G75*
G02*
X357422500Y-38077500I-200000J0D01*
G01*
X342872500Y-38617500D02*
X344472500Y-38617500D01*
X344672500Y-38817500D02*
X344672500Y-40417500D01*
X344472500Y-40617500D02*
X342872500Y-40617500D01*
X342672500Y-40417500D02*
X342672500Y-38817500D01*
D11*
X344672500Y-38817500D02*
X344672500Y-40417500D01*
X344472500Y-40617500D01*
X342872500Y-40617500D01*
X342672500Y-40417500D01*
X342672500Y-38817500D01*
X342872500Y-38617500D01*
X344472500Y-38617500D01*
X344672500Y-38817500D01*
G36*
X344672500Y-38817500D02*
G01*
X344672500Y-40417500D01*
X344472500Y-40617500D01*
X342872500Y-40617500D01*
X342672500Y-40417500D01*
X342672500Y-38817500D01*
X342872500Y-38617500D01*
X344472500Y-38617500D01*
X344672500Y-38817500D01*
G37*
D10*
X355622500Y-36277500D02*
X355622500Y-37877500D01*
X355822500Y-38077500D02*
X357422500Y-38077500D01*
X357622500Y-37877500D02*
X357622500Y-36277500D01*
X355822500Y-36077500D02*
X357422500Y-36077500D01*
D11*
X357622500Y-36277500D02*
X357622500Y-37877500D01*
X357422500Y-38077500D01*
X355822500Y-38077500D01*
X355622500Y-37877500D01*
X355622500Y-36277500D01*
X355822500Y-36077500D01*
X357422500Y-36077500D01*
X357622500Y-36277500D01*
G36*
X357622500Y-36277500D02*
G01*
X357622500Y-37877500D01*
X357422500Y-38077500D01*
X355822500Y-38077500D01*
X355622500Y-37877500D01*
X355622500Y-36277500D01*
X355822500Y-36077500D01*
X357422500Y-36077500D01*
X357622500Y-36277500D01*
G37*
D10*
%TO.C,SW12*%
X323622500Y-38817500D02*
G75*
G02*
X323822500Y-38617500I200000J0D01*
G01*
X325422500Y-38617500D02*
G75*
G02*
X325622500Y-38817500I0J-200000D01*
G01*
X325622500Y-40417500D02*
G75*
G02*
X325422500Y-40617500I-200000J0D01*
G01*
X323822500Y-40617500D02*
G75*
G02*
X323622500Y-40417500I0J200000D01*
G01*
X336572500Y-36277500D02*
G75*
G02*
X336772500Y-36077500I200000J0D01*
G01*
X338372500Y-36077500D02*
G75*
G02*
X338572500Y-36277500I0J-200000D01*
G01*
X336772500Y-38077500D02*
G75*
G02*
X336572500Y-37877500I0J200000D01*
G01*
X338572500Y-37877500D02*
G75*
G02*
X338372500Y-38077500I-200000J0D01*
G01*
X323822500Y-38617500D02*
X325422500Y-38617500D01*
X325622500Y-38817500D02*
X325622500Y-40417500D01*
X325422500Y-40617500D02*
X323822500Y-40617500D01*
X323622500Y-40417500D02*
X323622500Y-38817500D01*
D11*
X325622500Y-38817500D02*
X325622500Y-40417500D01*
X325422500Y-40617500D01*
X323822500Y-40617500D01*
X323622500Y-40417500D01*
X323622500Y-38817500D01*
X323822500Y-38617500D01*
X325422500Y-38617500D01*
X325622500Y-38817500D01*
G36*
X325622500Y-38817500D02*
G01*
X325622500Y-40417500D01*
X325422500Y-40617500D01*
X323822500Y-40617500D01*
X323622500Y-40417500D01*
X323622500Y-38817500D01*
X323822500Y-38617500D01*
X325422500Y-38617500D01*
X325622500Y-38817500D01*
G37*
D10*
X336572500Y-36277500D02*
X336572500Y-37877500D01*
X336772500Y-38077500D02*
X338372500Y-38077500D01*
X338572500Y-37877500D02*
X338572500Y-36277500D01*
X336772500Y-36077500D02*
X338372500Y-36077500D01*
D11*
X338572500Y-36277500D02*
X338572500Y-37877500D01*
X338372500Y-38077500D01*
X336772500Y-38077500D01*
X336572500Y-37877500D01*
X336572500Y-36277500D01*
X336772500Y-36077500D01*
X338372500Y-36077500D01*
X338572500Y-36277500D01*
G36*
X338572500Y-36277500D02*
G01*
X338572500Y-37877500D01*
X338372500Y-38077500D01*
X336772500Y-38077500D01*
X336572500Y-37877500D01*
X336572500Y-36277500D01*
X336772500Y-36077500D01*
X338372500Y-36077500D01*
X338572500Y-36277500D01*
G37*
D10*
%TO.C,SW11*%
X304572500Y-38817500D02*
G75*
G02*
X304772500Y-38617500I200000J0D01*
G01*
X306372500Y-38617500D02*
G75*
G02*
X306572500Y-38817500I0J-200000D01*
G01*
X306572500Y-40417500D02*
G75*
G02*
X306372500Y-40617500I-200000J0D01*
G01*
X304772500Y-40617500D02*
G75*
G02*
X304572500Y-40417500I0J200000D01*
G01*
X317522500Y-36277500D02*
G75*
G02*
X317722500Y-36077500I200000J0D01*
G01*
X319322500Y-36077500D02*
G75*
G02*
X319522500Y-36277500I0J-200000D01*
G01*
X317722500Y-38077500D02*
G75*
G02*
X317522500Y-37877500I0J200000D01*
G01*
X319522500Y-37877500D02*
G75*
G02*
X319322500Y-38077500I-200000J0D01*
G01*
X304772500Y-38617500D02*
X306372500Y-38617500D01*
X306572500Y-38817500D02*
X306572500Y-40417500D01*
X306372500Y-40617500D02*
X304772500Y-40617500D01*
X304572500Y-40417500D02*
X304572500Y-38817500D01*
D11*
X306572500Y-38817500D02*
X306572500Y-40417500D01*
X306372500Y-40617500D01*
X304772500Y-40617500D01*
X304572500Y-40417500D01*
X304572500Y-38817500D01*
X304772500Y-38617500D01*
X306372500Y-38617500D01*
X306572500Y-38817500D01*
G36*
X306572500Y-38817500D02*
G01*
X306572500Y-40417500D01*
X306372500Y-40617500D01*
X304772500Y-40617500D01*
X304572500Y-40417500D01*
X304572500Y-38817500D01*
X304772500Y-38617500D01*
X306372500Y-38617500D01*
X306572500Y-38817500D01*
G37*
D10*
X317522500Y-36277500D02*
X317522500Y-37877500D01*
X317722500Y-38077500D02*
X319322500Y-38077500D01*
X319522500Y-37877500D02*
X319522500Y-36277500D01*
X317722500Y-36077500D02*
X319322500Y-36077500D01*
D11*
X319522500Y-36277500D02*
X319522500Y-37877500D01*
X319322500Y-38077500D01*
X317722500Y-38077500D01*
X317522500Y-37877500D01*
X317522500Y-36277500D01*
X317722500Y-36077500D01*
X319322500Y-36077500D01*
X319522500Y-36277500D01*
G36*
X319522500Y-36277500D02*
G01*
X319522500Y-37877500D01*
X319322500Y-38077500D01*
X317722500Y-38077500D01*
X317522500Y-37877500D01*
X317522500Y-36277500D01*
X317722500Y-36077500D01*
X319322500Y-36077500D01*
X319522500Y-36277500D01*
G37*
D10*
%TO.C,SW10*%
X285522500Y-38817500D02*
G75*
G02*
X285722500Y-38617500I200000J0D01*
G01*
X287322500Y-38617500D02*
G75*
G02*
X287522500Y-38817500I0J-200000D01*
G01*
X287522500Y-40417500D02*
G75*
G02*
X287322500Y-40617500I-200000J0D01*
G01*
X285722500Y-40617500D02*
G75*
G02*
X285522500Y-40417500I0J200000D01*
G01*
X298472500Y-36277500D02*
G75*
G02*
X298672500Y-36077500I200000J0D01*
G01*
X300272500Y-36077500D02*
G75*
G02*
X300472500Y-36277500I0J-200000D01*
G01*
X298672500Y-38077500D02*
G75*
G02*
X298472500Y-37877500I0J200000D01*
G01*
X300472500Y-37877500D02*
G75*
G02*
X300272500Y-38077500I-200000J0D01*
G01*
X285722500Y-38617500D02*
X287322500Y-38617500D01*
X287522500Y-38817500D02*
X287522500Y-40417500D01*
X287322500Y-40617500D02*
X285722500Y-40617500D01*
X285522500Y-40417500D02*
X285522500Y-38817500D01*
D11*
X287522500Y-38817500D02*
X287522500Y-40417500D01*
X287322500Y-40617500D01*
X285722500Y-40617500D01*
X285522500Y-40417500D01*
X285522500Y-38817500D01*
X285722500Y-38617500D01*
X287322500Y-38617500D01*
X287522500Y-38817500D01*
G36*
X287522500Y-38817500D02*
G01*
X287522500Y-40417500D01*
X287322500Y-40617500D01*
X285722500Y-40617500D01*
X285522500Y-40417500D01*
X285522500Y-38817500D01*
X285722500Y-38617500D01*
X287322500Y-38617500D01*
X287522500Y-38817500D01*
G37*
D10*
X298472500Y-36277500D02*
X298472500Y-37877500D01*
X298672500Y-38077500D02*
X300272500Y-38077500D01*
X300472500Y-37877500D02*
X300472500Y-36277500D01*
X298672500Y-36077500D02*
X300272500Y-36077500D01*
D11*
X300472500Y-36277500D02*
X300472500Y-37877500D01*
X300272500Y-38077500D01*
X298672500Y-38077500D01*
X298472500Y-37877500D01*
X298472500Y-36277500D01*
X298672500Y-36077500D01*
X300272500Y-36077500D01*
X300472500Y-36277500D01*
G36*
X300472500Y-36277500D02*
G01*
X300472500Y-37877500D01*
X300272500Y-38077500D01*
X298672500Y-38077500D01*
X298472500Y-37877500D01*
X298472500Y-36277500D01*
X298672500Y-36077500D01*
X300272500Y-36077500D01*
X300472500Y-36277500D01*
G37*
D10*
%TO.C,SW9*%
X261710000Y-38817500D02*
G75*
G02*
X261910000Y-38617500I200000J0D01*
G01*
X263510000Y-38617500D02*
G75*
G02*
X263710000Y-38817500I0J-200000D01*
G01*
X263710000Y-40417500D02*
G75*
G02*
X263510000Y-40617500I-200000J0D01*
G01*
X261910000Y-40617500D02*
G75*
G02*
X261710000Y-40417500I0J200000D01*
G01*
X274660000Y-36277500D02*
G75*
G02*
X274860000Y-36077500I200000J0D01*
G01*
X276460000Y-36077500D02*
G75*
G02*
X276660000Y-36277500I0J-200000D01*
G01*
X274860000Y-38077500D02*
G75*
G02*
X274660000Y-37877500I0J200000D01*
G01*
X276660000Y-37877500D02*
G75*
G02*
X276460000Y-38077500I-200000J0D01*
G01*
X261910000Y-38617500D02*
X263510000Y-38617500D01*
X263710000Y-38817500D02*
X263710000Y-40417500D01*
X263510000Y-40617500D02*
X261910000Y-40617500D01*
X261710000Y-40417500D02*
X261710000Y-38817500D01*
D11*
X263710000Y-38817500D02*
X263710000Y-40417500D01*
X263510000Y-40617500D01*
X261910000Y-40617500D01*
X261710000Y-40417500D01*
X261710000Y-38817500D01*
X261910000Y-38617500D01*
X263510000Y-38617500D01*
X263710000Y-38817500D01*
G36*
X263710000Y-38817500D02*
G01*
X263710000Y-40417500D01*
X263510000Y-40617500D01*
X261910000Y-40617500D01*
X261710000Y-40417500D01*
X261710000Y-38817500D01*
X261910000Y-38617500D01*
X263510000Y-38617500D01*
X263710000Y-38817500D01*
G37*
D10*
X274660000Y-36277500D02*
X274660000Y-37877500D01*
X274860000Y-38077500D02*
X276460000Y-38077500D01*
X276660000Y-37877500D02*
X276660000Y-36277500D01*
X274860000Y-36077500D02*
X276460000Y-36077500D01*
D11*
X276660000Y-36277500D02*
X276660000Y-37877500D01*
X276460000Y-38077500D01*
X274860000Y-38077500D01*
X274660000Y-37877500D01*
X274660000Y-36277500D01*
X274860000Y-36077500D01*
X276460000Y-36077500D01*
X276660000Y-36277500D01*
G36*
X276660000Y-36277500D02*
G01*
X276660000Y-37877500D01*
X276460000Y-38077500D01*
X274860000Y-38077500D01*
X274660000Y-37877500D01*
X274660000Y-36277500D01*
X274860000Y-36077500D01*
X276460000Y-36077500D01*
X276660000Y-36277500D01*
G37*
D10*
%TO.C,SW8*%
X242660000Y-38817500D02*
G75*
G02*
X242860000Y-38617500I200000J0D01*
G01*
X244460000Y-38617500D02*
G75*
G02*
X244660000Y-38817500I0J-200000D01*
G01*
X244660000Y-40417500D02*
G75*
G02*
X244460000Y-40617500I-200000J0D01*
G01*
X242860000Y-40617500D02*
G75*
G02*
X242660000Y-40417500I0J200000D01*
G01*
X255610000Y-36277500D02*
G75*
G02*
X255810000Y-36077500I200000J0D01*
G01*
X257410000Y-36077500D02*
G75*
G02*
X257610000Y-36277500I0J-200000D01*
G01*
X255810000Y-38077500D02*
G75*
G02*
X255610000Y-37877500I0J200000D01*
G01*
X257610000Y-37877500D02*
G75*
G02*
X257410000Y-38077500I-200000J0D01*
G01*
X242860000Y-38617500D02*
X244460000Y-38617500D01*
X244660000Y-38817500D02*
X244660000Y-40417500D01*
X244460000Y-40617500D02*
X242860000Y-40617500D01*
X242660000Y-40417500D02*
X242660000Y-38817500D01*
D11*
X244660000Y-38817500D02*
X244660000Y-40417500D01*
X244460000Y-40617500D01*
X242860000Y-40617500D01*
X242660000Y-40417500D01*
X242660000Y-38817500D01*
X242860000Y-38617500D01*
X244460000Y-38617500D01*
X244660000Y-38817500D01*
G36*
X244660000Y-38817500D02*
G01*
X244660000Y-40417500D01*
X244460000Y-40617500D01*
X242860000Y-40617500D01*
X242660000Y-40417500D01*
X242660000Y-38817500D01*
X242860000Y-38617500D01*
X244460000Y-38617500D01*
X244660000Y-38817500D01*
G37*
D10*
X255610000Y-36277500D02*
X255610000Y-37877500D01*
X255810000Y-38077500D02*
X257410000Y-38077500D01*
X257610000Y-37877500D02*
X257610000Y-36277500D01*
X255810000Y-36077500D02*
X257410000Y-36077500D01*
D11*
X257610000Y-36277500D02*
X257610000Y-37877500D01*
X257410000Y-38077500D01*
X255810000Y-38077500D01*
X255610000Y-37877500D01*
X255610000Y-36277500D01*
X255810000Y-36077500D01*
X257410000Y-36077500D01*
X257610000Y-36277500D01*
G36*
X257610000Y-36277500D02*
G01*
X257610000Y-37877500D01*
X257410000Y-38077500D01*
X255810000Y-38077500D01*
X255610000Y-37877500D01*
X255610000Y-36277500D01*
X255810000Y-36077500D01*
X257410000Y-36077500D01*
X257610000Y-36277500D01*
G37*
D10*
%TO.C,SW7*%
X223610000Y-38817500D02*
G75*
G02*
X223810000Y-38617500I200000J0D01*
G01*
X225410000Y-38617500D02*
G75*
G02*
X225610000Y-38817500I0J-200000D01*
G01*
X225610000Y-40417500D02*
G75*
G02*
X225410000Y-40617500I-200000J0D01*
G01*
X223810000Y-40617500D02*
G75*
G02*
X223610000Y-40417500I0J200000D01*
G01*
X236560000Y-36277500D02*
G75*
G02*
X236760000Y-36077500I200000J0D01*
G01*
X238360000Y-36077500D02*
G75*
G02*
X238560000Y-36277500I0J-200000D01*
G01*
X236760000Y-38077500D02*
G75*
G02*
X236560000Y-37877500I0J200000D01*
G01*
X238560000Y-37877500D02*
G75*
G02*
X238360000Y-38077500I-200000J0D01*
G01*
X223810000Y-38617500D02*
X225410000Y-38617500D01*
X225610000Y-38817500D02*
X225610000Y-40417500D01*
X225410000Y-40617500D02*
X223810000Y-40617500D01*
X223610000Y-40417500D02*
X223610000Y-38817500D01*
D11*
X225610000Y-38817500D02*
X225610000Y-40417500D01*
X225410000Y-40617500D01*
X223810000Y-40617500D01*
X223610000Y-40417500D01*
X223610000Y-38817500D01*
X223810000Y-38617500D01*
X225410000Y-38617500D01*
X225610000Y-38817500D01*
G36*
X225610000Y-38817500D02*
G01*
X225610000Y-40417500D01*
X225410000Y-40617500D01*
X223810000Y-40617500D01*
X223610000Y-40417500D01*
X223610000Y-38817500D01*
X223810000Y-38617500D01*
X225410000Y-38617500D01*
X225610000Y-38817500D01*
G37*
D10*
X236560000Y-36277500D02*
X236560000Y-37877500D01*
X236760000Y-38077500D02*
X238360000Y-38077500D01*
X238560000Y-37877500D02*
X238560000Y-36277500D01*
X236760000Y-36077500D02*
X238360000Y-36077500D01*
D11*
X238560000Y-36277500D02*
X238560000Y-37877500D01*
X238360000Y-38077500D01*
X236760000Y-38077500D01*
X236560000Y-37877500D01*
X236560000Y-36277500D01*
X236760000Y-36077500D01*
X238360000Y-36077500D01*
X238560000Y-36277500D01*
G36*
X238560000Y-36277500D02*
G01*
X238560000Y-37877500D01*
X238360000Y-38077500D01*
X236760000Y-38077500D01*
X236560000Y-37877500D01*
X236560000Y-36277500D01*
X236760000Y-36077500D01*
X238360000Y-36077500D01*
X238560000Y-36277500D01*
G37*
D10*
%TO.C,SW6*%
X204560000Y-38817500D02*
G75*
G02*
X204760000Y-38617500I200000J0D01*
G01*
X206360000Y-38617500D02*
G75*
G02*
X206560000Y-38817500I0J-200000D01*
G01*
X206560000Y-40417500D02*
G75*
G02*
X206360000Y-40617500I-200000J0D01*
G01*
X204760000Y-40617500D02*
G75*
G02*
X204560000Y-40417500I0J200000D01*
G01*
X217510000Y-36277500D02*
G75*
G02*
X217710000Y-36077500I200000J0D01*
G01*
X219310000Y-36077500D02*
G75*
G02*
X219510000Y-36277500I0J-200000D01*
G01*
X217710000Y-38077500D02*
G75*
G02*
X217510000Y-37877500I0J200000D01*
G01*
X219510000Y-37877500D02*
G75*
G02*
X219310000Y-38077500I-200000J0D01*
G01*
X204760000Y-38617500D02*
X206360000Y-38617500D01*
X206560000Y-38817500D02*
X206560000Y-40417500D01*
X206360000Y-40617500D02*
X204760000Y-40617500D01*
X204560000Y-40417500D02*
X204560000Y-38817500D01*
D11*
X206560000Y-38817500D02*
X206560000Y-40417500D01*
X206360000Y-40617500D01*
X204760000Y-40617500D01*
X204560000Y-40417500D01*
X204560000Y-38817500D01*
X204760000Y-38617500D01*
X206360000Y-38617500D01*
X206560000Y-38817500D01*
G36*
X206560000Y-38817500D02*
G01*
X206560000Y-40417500D01*
X206360000Y-40617500D01*
X204760000Y-40617500D01*
X204560000Y-40417500D01*
X204560000Y-38817500D01*
X204760000Y-38617500D01*
X206360000Y-38617500D01*
X206560000Y-38817500D01*
G37*
D10*
X217510000Y-36277500D02*
X217510000Y-37877500D01*
X217710000Y-38077500D02*
X219310000Y-38077500D01*
X219510000Y-37877500D02*
X219510000Y-36277500D01*
X217710000Y-36077500D02*
X219310000Y-36077500D01*
D11*
X219510000Y-36277500D02*
X219510000Y-37877500D01*
X219310000Y-38077500D01*
X217710000Y-38077500D01*
X217510000Y-37877500D01*
X217510000Y-36277500D01*
X217710000Y-36077500D01*
X219310000Y-36077500D01*
X219510000Y-36277500D01*
G36*
X219510000Y-36277500D02*
G01*
X219510000Y-37877500D01*
X219310000Y-38077500D01*
X217710000Y-38077500D01*
X217510000Y-37877500D01*
X217510000Y-36277500D01*
X217710000Y-36077500D01*
X219310000Y-36077500D01*
X219510000Y-36277500D01*
G37*
D10*
%TO.C,SW5*%
X180747500Y-38817500D02*
G75*
G02*
X180947500Y-38617500I200000J0D01*
G01*
X182547500Y-38617500D02*
G75*
G02*
X182747500Y-38817500I0J-200000D01*
G01*
X182747500Y-40417500D02*
G75*
G02*
X182547500Y-40617500I-200000J0D01*
G01*
X180947500Y-40617500D02*
G75*
G02*
X180747500Y-40417500I0J200000D01*
G01*
X193697500Y-36277500D02*
G75*
G02*
X193897500Y-36077500I200000J0D01*
G01*
X195497500Y-36077500D02*
G75*
G02*
X195697500Y-36277500I0J-200000D01*
G01*
X193897500Y-38077500D02*
G75*
G02*
X193697500Y-37877500I0J200000D01*
G01*
X195697500Y-37877500D02*
G75*
G02*
X195497500Y-38077500I-200000J0D01*
G01*
X180947500Y-38617500D02*
X182547500Y-38617500D01*
X182747500Y-38817500D02*
X182747500Y-40417500D01*
X182547500Y-40617500D02*
X180947500Y-40617500D01*
X180747500Y-40417500D02*
X180747500Y-38817500D01*
D11*
X182747500Y-38817500D02*
X182747500Y-40417500D01*
X182547500Y-40617500D01*
X180947500Y-40617500D01*
X180747500Y-40417500D01*
X180747500Y-38817500D01*
X180947500Y-38617500D01*
X182547500Y-38617500D01*
X182747500Y-38817500D01*
G36*
X182747500Y-38817500D02*
G01*
X182747500Y-40417500D01*
X182547500Y-40617500D01*
X180947500Y-40617500D01*
X180747500Y-40417500D01*
X180747500Y-38817500D01*
X180947500Y-38617500D01*
X182547500Y-38617500D01*
X182747500Y-38817500D01*
G37*
D10*
X193697500Y-36277500D02*
X193697500Y-37877500D01*
X193897500Y-38077500D02*
X195497500Y-38077500D01*
X195697500Y-37877500D02*
X195697500Y-36277500D01*
X193897500Y-36077500D02*
X195497500Y-36077500D01*
D11*
X195697500Y-36277500D02*
X195697500Y-37877500D01*
X195497500Y-38077500D01*
X193897500Y-38077500D01*
X193697500Y-37877500D01*
X193697500Y-36277500D01*
X193897500Y-36077500D01*
X195497500Y-36077500D01*
X195697500Y-36277500D01*
G36*
X195697500Y-36277500D02*
G01*
X195697500Y-37877500D01*
X195497500Y-38077500D01*
X193897500Y-38077500D01*
X193697500Y-37877500D01*
X193697500Y-36277500D01*
X193897500Y-36077500D01*
X195497500Y-36077500D01*
X195697500Y-36277500D01*
G37*
D10*
%TO.C,SW4*%
X161697500Y-38817500D02*
G75*
G02*
X161897500Y-38617500I200000J0D01*
G01*
X163497500Y-38617500D02*
G75*
G02*
X163697500Y-38817500I0J-200000D01*
G01*
X163697500Y-40417500D02*
G75*
G02*
X163497500Y-40617500I-200000J0D01*
G01*
X161897500Y-40617500D02*
G75*
G02*
X161697500Y-40417500I0J200000D01*
G01*
X174647500Y-36277500D02*
G75*
G02*
X174847500Y-36077500I200000J0D01*
G01*
X176447500Y-36077500D02*
G75*
G02*
X176647500Y-36277500I0J-200000D01*
G01*
X174847500Y-38077500D02*
G75*
G02*
X174647500Y-37877500I0J200000D01*
G01*
X176647500Y-37877500D02*
G75*
G02*
X176447500Y-38077500I-200000J0D01*
G01*
X161897500Y-38617500D02*
X163497500Y-38617500D01*
X163697500Y-38817500D02*
X163697500Y-40417500D01*
X163497500Y-40617500D02*
X161897500Y-40617500D01*
X161697500Y-40417500D02*
X161697500Y-38817500D01*
D11*
X163697500Y-38817500D02*
X163697500Y-40417500D01*
X163497500Y-40617500D01*
X161897500Y-40617500D01*
X161697500Y-40417500D01*
X161697500Y-38817500D01*
X161897500Y-38617500D01*
X163497500Y-38617500D01*
X163697500Y-38817500D01*
G36*
X163697500Y-38817500D02*
G01*
X163697500Y-40417500D01*
X163497500Y-40617500D01*
X161897500Y-40617500D01*
X161697500Y-40417500D01*
X161697500Y-38817500D01*
X161897500Y-38617500D01*
X163497500Y-38617500D01*
X163697500Y-38817500D01*
G37*
D10*
X174647500Y-36277500D02*
X174647500Y-37877500D01*
X174847500Y-38077500D02*
X176447500Y-38077500D01*
X176647500Y-37877500D02*
X176647500Y-36277500D01*
X174847500Y-36077500D02*
X176447500Y-36077500D01*
D11*
X176647500Y-36277500D02*
X176647500Y-37877500D01*
X176447500Y-38077500D01*
X174847500Y-38077500D01*
X174647500Y-37877500D01*
X174647500Y-36277500D01*
X174847500Y-36077500D01*
X176447500Y-36077500D01*
X176647500Y-36277500D01*
G36*
X176647500Y-36277500D02*
G01*
X176647500Y-37877500D01*
X176447500Y-38077500D01*
X174847500Y-38077500D01*
X174647500Y-37877500D01*
X174647500Y-36277500D01*
X174847500Y-36077500D01*
X176447500Y-36077500D01*
X176647500Y-36277500D01*
G37*
D10*
%TO.C,SW3*%
X142647500Y-38817500D02*
G75*
G02*
X142847500Y-38617500I200000J0D01*
G01*
X144447500Y-38617500D02*
G75*
G02*
X144647500Y-38817500I0J-200000D01*
G01*
X144647500Y-40417500D02*
G75*
G02*
X144447500Y-40617500I-200000J0D01*
G01*
X142847500Y-40617500D02*
G75*
G02*
X142647500Y-40417500I0J200000D01*
G01*
X155597500Y-36277500D02*
G75*
G02*
X155797500Y-36077500I200000J0D01*
G01*
X157397500Y-36077500D02*
G75*
G02*
X157597500Y-36277500I0J-200000D01*
G01*
X155797500Y-38077500D02*
G75*
G02*
X155597500Y-37877500I0J200000D01*
G01*
X157597500Y-37877500D02*
G75*
G02*
X157397500Y-38077500I-200000J0D01*
G01*
X142847500Y-38617500D02*
X144447500Y-38617500D01*
X144647500Y-38817500D02*
X144647500Y-40417500D01*
X144447500Y-40617500D02*
X142847500Y-40617500D01*
X142647500Y-40417500D02*
X142647500Y-38817500D01*
D11*
X144647500Y-38817500D02*
X144647500Y-40417500D01*
X144447500Y-40617500D01*
X142847500Y-40617500D01*
X142647500Y-40417500D01*
X142647500Y-38817500D01*
X142847500Y-38617500D01*
X144447500Y-38617500D01*
X144647500Y-38817500D01*
G36*
X144647500Y-38817500D02*
G01*
X144647500Y-40417500D01*
X144447500Y-40617500D01*
X142847500Y-40617500D01*
X142647500Y-40417500D01*
X142647500Y-38817500D01*
X142847500Y-38617500D01*
X144447500Y-38617500D01*
X144647500Y-38817500D01*
G37*
D10*
X155597500Y-36277500D02*
X155597500Y-37877500D01*
X155797500Y-38077500D02*
X157397500Y-38077500D01*
X157597500Y-37877500D02*
X157597500Y-36277500D01*
X155797500Y-36077500D02*
X157397500Y-36077500D01*
D11*
X157597500Y-36277500D02*
X157597500Y-37877500D01*
X157397500Y-38077500D01*
X155797500Y-38077500D01*
X155597500Y-37877500D01*
X155597500Y-36277500D01*
X155797500Y-36077500D01*
X157397500Y-36077500D01*
X157597500Y-36277500D01*
G36*
X157597500Y-36277500D02*
G01*
X157597500Y-37877500D01*
X157397500Y-38077500D01*
X155797500Y-38077500D01*
X155597500Y-37877500D01*
X155597500Y-36277500D01*
X155797500Y-36077500D01*
X157397500Y-36077500D01*
X157597500Y-36277500D01*
G37*
D10*
%TO.C,SW2*%
X123597500Y-38817500D02*
G75*
G02*
X123797500Y-38617500I200000J0D01*
G01*
X125397500Y-38617500D02*
G75*
G02*
X125597500Y-38817500I0J-200000D01*
G01*
X125597500Y-40417500D02*
G75*
G02*
X125397500Y-40617500I-200000J0D01*
G01*
X123797500Y-40617500D02*
G75*
G02*
X123597500Y-40417500I0J200000D01*
G01*
X136547500Y-36277500D02*
G75*
G02*
X136747500Y-36077500I200000J0D01*
G01*
X138347500Y-36077500D02*
G75*
G02*
X138547500Y-36277500I0J-200000D01*
G01*
X136747500Y-38077500D02*
G75*
G02*
X136547500Y-37877500I0J200000D01*
G01*
X138547500Y-37877500D02*
G75*
G02*
X138347500Y-38077500I-200000J0D01*
G01*
X123797500Y-38617500D02*
X125397500Y-38617500D01*
X125597500Y-38817500D02*
X125597500Y-40417500D01*
X125397500Y-40617500D02*
X123797500Y-40617500D01*
X123597500Y-40417500D02*
X123597500Y-38817500D01*
D11*
X125597500Y-38817500D02*
X125597500Y-40417500D01*
X125397500Y-40617500D01*
X123797500Y-40617500D01*
X123597500Y-40417500D01*
X123597500Y-38817500D01*
X123797500Y-38617500D01*
X125397500Y-38617500D01*
X125597500Y-38817500D01*
G36*
X125597500Y-38817500D02*
G01*
X125597500Y-40417500D01*
X125397500Y-40617500D01*
X123797500Y-40617500D01*
X123597500Y-40417500D01*
X123597500Y-38817500D01*
X123797500Y-38617500D01*
X125397500Y-38617500D01*
X125597500Y-38817500D01*
G37*
D10*
X136547500Y-36277500D02*
X136547500Y-37877500D01*
X136747500Y-38077500D02*
X138347500Y-38077500D01*
X138547500Y-37877500D02*
X138547500Y-36277500D01*
X136747500Y-36077500D02*
X138347500Y-36077500D01*
D11*
X138547500Y-36277500D02*
X138547500Y-37877500D01*
X138347500Y-38077500D01*
X136747500Y-38077500D01*
X136547500Y-37877500D01*
X136547500Y-36277500D01*
X136747500Y-36077500D01*
X138347500Y-36077500D01*
X138547500Y-36277500D01*
G36*
X138547500Y-36277500D02*
G01*
X138547500Y-37877500D01*
X138347500Y-38077500D01*
X136747500Y-38077500D01*
X136547500Y-37877500D01*
X136547500Y-36277500D01*
X136747500Y-36077500D01*
X138347500Y-36077500D01*
X138547500Y-36277500D01*
G37*
D10*
%TO.C,SW1*%
X99785000Y-38817500D02*
G75*
G02*
X99985000Y-38617500I200000J0D01*
G01*
X101585000Y-38617500D02*
G75*
G02*
X101785000Y-38817500I0J-200000D01*
G01*
X101785000Y-40417500D02*
G75*
G02*
X101585000Y-40617500I-200000J0D01*
G01*
X99985000Y-40617500D02*
G75*
G02*
X99785000Y-40417500I0J200000D01*
G01*
X112735000Y-36277500D02*
G75*
G02*
X112935000Y-36077500I200000J0D01*
G01*
X114535000Y-36077500D02*
G75*
G02*
X114735000Y-36277500I0J-200000D01*
G01*
X112935000Y-38077500D02*
G75*
G02*
X112735000Y-37877500I0J200000D01*
G01*
X114735000Y-37877500D02*
G75*
G02*
X114535000Y-38077500I-200000J0D01*
G01*
X99985000Y-38617500D02*
X101585000Y-38617500D01*
X101785000Y-38817500D02*
X101785000Y-40417500D01*
X101585000Y-40617500D02*
X99985000Y-40617500D01*
X99785000Y-40417500D02*
X99785000Y-38817500D01*
D11*
X101785000Y-38817500D02*
X101785000Y-40417500D01*
X101585000Y-40617500D01*
X99985000Y-40617500D01*
X99785000Y-40417500D01*
X99785000Y-38817500D01*
X99985000Y-38617500D01*
X101585000Y-38617500D01*
X101785000Y-38817500D01*
G36*
X101785000Y-38817500D02*
G01*
X101785000Y-40417500D01*
X101585000Y-40617500D01*
X99985000Y-40617500D01*
X99785000Y-40417500D01*
X99785000Y-38817500D01*
X99985000Y-38617500D01*
X101585000Y-38617500D01*
X101785000Y-38817500D01*
G37*
D10*
X112735000Y-36277500D02*
X112735000Y-37877500D01*
X112935000Y-38077500D02*
X114535000Y-38077500D01*
X114735000Y-37877500D02*
X114735000Y-36277500D01*
X112935000Y-36077500D02*
X114535000Y-36077500D01*
D11*
X114735000Y-36277500D02*
X114735000Y-37877500D01*
X114535000Y-38077500D01*
X112935000Y-38077500D01*
X112735000Y-37877500D01*
X112735000Y-36277500D01*
X112935000Y-36077500D01*
X114535000Y-36077500D01*
X114735000Y-36277500D01*
G36*
X114735000Y-36277500D02*
G01*
X114735000Y-37877500D01*
X114535000Y-38077500D01*
X112935000Y-38077500D01*
X112735000Y-37877500D01*
X112735000Y-36277500D01*
X112935000Y-36077500D01*
X114535000Y-36077500D01*
X114735000Y-36277500D01*
G37*
%TD*%
D12*
%TO.C,D90*%
X363045000Y-143320000D03*
X363045000Y-140020000D03*
%TD*%
%TO.C,D89*%
X320182500Y-143320000D03*
X320182500Y-140020000D03*
%TD*%
%TO.C,D88*%
X282082500Y-143320000D03*
X282082500Y-140020000D03*
%TD*%
%TO.C,D87*%
X201120000Y-143320000D03*
X201120000Y-140020000D03*
%TD*%
%TO.C,D86*%
X163020000Y-143320000D03*
X163020000Y-140020000D03*
%TD*%
%TO.C,D85*%
X117776250Y-143320000D03*
X117776250Y-140020000D03*
%TD*%
%TO.C,D84*%
X382095000Y-124270000D03*
X382095000Y-120970000D03*
%TD*%
D13*
%TO.C,D82*%
X382095000Y-140020000D03*
X382095000Y-143320000D03*
%TD*%
%TO.C,D81*%
X343995000Y-140020000D03*
X343995000Y-143320000D03*
%TD*%
%TO.C,D80*%
X301132500Y-140020000D03*
X301132500Y-143320000D03*
%TD*%
%TO.C,D79*%
X241601250Y-140020000D03*
X241601250Y-143320000D03*
%TD*%
%TO.C,D78*%
X182070000Y-140020000D03*
X182070000Y-143320000D03*
%TD*%
%TO.C,D77*%
X143970000Y-140020000D03*
X143970000Y-143320000D03*
%TD*%
%TO.C,D76*%
X405907500Y-120970000D03*
X405907500Y-124270000D03*
%TD*%
D12*
%TO.C,D75*%
X324945000Y-124270000D03*
X324945000Y-120970000D03*
%TD*%
%TO.C,D74*%
X286845000Y-124270000D03*
X286845000Y-120970000D03*
%TD*%
%TO.C,D73*%
X248745000Y-124270000D03*
X248745000Y-120970000D03*
%TD*%
%TO.C,D72*%
X210645000Y-124270000D03*
X210645000Y-120970000D03*
%TD*%
%TO.C,D71*%
X172545000Y-124270000D03*
X172545000Y-120970000D03*
%TD*%
%TO.C,D70*%
X124920000Y-124270000D03*
X124920000Y-120970000D03*
%TD*%
%TO.C,D69*%
X358282500Y-105220000D03*
X358282500Y-101920000D03*
%TD*%
D13*
%TO.C,D68*%
X363045000Y-120970000D03*
X363045000Y-124270000D03*
%TD*%
%TO.C,D67*%
X343995000Y-120970000D03*
X343995000Y-124270000D03*
%TD*%
%TO.C,D66*%
X305895000Y-120970000D03*
X305895000Y-124270000D03*
%TD*%
%TO.C,D65*%
X267795000Y-120970000D03*
X267795000Y-124270000D03*
%TD*%
%TO.C,D64*%
X229695000Y-120970000D03*
X229695000Y-124270000D03*
%TD*%
%TO.C,D63*%
X191595000Y-120970000D03*
X191595000Y-124270000D03*
%TD*%
%TO.C,D62*%
X153495000Y-120970000D03*
X153495000Y-124270000D03*
%TD*%
%TO.C,D61*%
X405907500Y-101920000D03*
X405907500Y-105220000D03*
%TD*%
D12*
%TO.C,D60*%
X301132500Y-105220000D03*
X301132500Y-101920000D03*
%TD*%
%TO.C,D59*%
X263032500Y-105220000D03*
X263032500Y-101920000D03*
%TD*%
%TO.C,D58*%
X224932500Y-105220000D03*
X224932500Y-101920000D03*
%TD*%
%TO.C,D57*%
X186832500Y-105220000D03*
X186832500Y-101920000D03*
%TD*%
%TO.C,D56*%
X148732500Y-105220000D03*
X148732500Y-101920000D03*
%TD*%
%TO.C,D55*%
X405907500Y-86170000D03*
X405907500Y-82870000D03*
%TD*%
%TO.C,D54*%
X353520000Y-86170000D03*
X353520000Y-82870000D03*
%TD*%
D13*
%TO.C,D53*%
X339232500Y-101920000D03*
X339232500Y-105220000D03*
%TD*%
%TO.C,D52*%
X320182500Y-101920000D03*
X320182500Y-105220000D03*
%TD*%
%TO.C,D51*%
X282082500Y-101920000D03*
X282082500Y-105220000D03*
%TD*%
%TO.C,D50*%
X243982500Y-101920000D03*
X243982500Y-105220000D03*
%TD*%
%TO.C,D49*%
X205882500Y-101920000D03*
X205882500Y-105220000D03*
%TD*%
%TO.C,D48*%
X167782500Y-101920000D03*
X167782500Y-105220000D03*
%TD*%
%TO.C,D47*%
X122538750Y-101920000D03*
X122538750Y-105220000D03*
%TD*%
%TO.C,D46*%
X379713750Y-92395000D03*
X379713750Y-95695000D03*
%TD*%
D12*
%TO.C,D45*%
X296370000Y-86170000D03*
X296370000Y-82870000D03*
%TD*%
%TO.C,D44*%
X258270000Y-86170000D03*
X258270000Y-82870000D03*
%TD*%
%TO.C,D43*%
X220170000Y-86170000D03*
X220170000Y-82870000D03*
%TD*%
%TO.C,D42*%
X182070000Y-86170000D03*
X182070000Y-82870000D03*
%TD*%
%TO.C,D41*%
X143970000Y-86170000D03*
X143970000Y-82870000D03*
%TD*%
%TO.C,D40*%
X405907500Y-67120000D03*
X405907500Y-63820000D03*
%TD*%
%TO.C,D39*%
X363045000Y-67120000D03*
X363045000Y-63820000D03*
%TD*%
D13*
%TO.C,D38*%
X334470000Y-82870000D03*
X334470000Y-86170000D03*
%TD*%
%TO.C,D37*%
X315420000Y-82870000D03*
X315420000Y-86170000D03*
%TD*%
%TO.C,D36*%
X277320000Y-82870000D03*
X277320000Y-86170000D03*
%TD*%
%TO.C,D35*%
X239220000Y-82870000D03*
X239220000Y-86170000D03*
%TD*%
%TO.C,D34*%
X201120000Y-82870000D03*
X201120000Y-86170000D03*
%TD*%
%TO.C,D33*%
X163020000Y-82870000D03*
X163020000Y-86170000D03*
%TD*%
%TO.C,D32*%
X120157500Y-82870000D03*
X120157500Y-86170000D03*
%TD*%
%TO.C,D31*%
X382095000Y-63820000D03*
X382095000Y-67120000D03*
%TD*%
D12*
%TO.C,D30*%
X324945000Y-67120000D03*
X324945000Y-63820000D03*
%TD*%
%TO.C,D29*%
X286845000Y-67120000D03*
X286845000Y-63820000D03*
%TD*%
%TO.C,D28*%
X248745000Y-67120000D03*
X248745000Y-63820000D03*
%TD*%
%TO.C,D27*%
X210645000Y-67120000D03*
X210645000Y-63820000D03*
%TD*%
%TO.C,D26*%
X172545000Y-67120000D03*
X172545000Y-63820000D03*
%TD*%
%TO.C,D25*%
X134445000Y-67120000D03*
X134445000Y-63820000D03*
%TD*%
%TO.C,D24*%
X405907500Y-43307500D03*
X405907500Y-40007500D03*
%TD*%
D13*
%TO.C,D23*%
X343995000Y-63820000D03*
X343995000Y-67120000D03*
%TD*%
%TO.C,D22*%
X305895000Y-63820000D03*
X305895000Y-67120000D03*
%TD*%
%TO.C,D21*%
X267795000Y-63820000D03*
X267795000Y-67120000D03*
%TD*%
%TO.C,D20*%
X229695000Y-63820000D03*
X229695000Y-67120000D03*
%TD*%
%TO.C,D19*%
X191595000Y-63820000D03*
X191595000Y-67120000D03*
%TD*%
%TO.C,D18*%
X153495000Y-63820000D03*
X153495000Y-67120000D03*
%TD*%
%TO.C,D17*%
X115395000Y-63820000D03*
X115395000Y-67120000D03*
%TD*%
D12*
%TO.C,D16*%
X358282500Y-43307500D03*
X358282500Y-40007500D03*
%TD*%
%TO.C,D15*%
X320182500Y-43307500D03*
X320182500Y-40007500D03*
%TD*%
%TO.C,D14*%
X277320000Y-43307500D03*
X277320000Y-40007500D03*
%TD*%
%TO.C,D13*%
X239220000Y-43307500D03*
X239220000Y-40007500D03*
%TD*%
%TO.C,D12*%
X196357500Y-43307500D03*
X196357500Y-40007500D03*
%TD*%
%TO.C,D11*%
X158257500Y-43307500D03*
X158257500Y-40007500D03*
%TD*%
%TO.C,D10*%
X115395000Y-43307500D03*
X115395000Y-40007500D03*
%TD*%
D13*
%TO.C,D9*%
X382095000Y-40007500D03*
X382095000Y-43307500D03*
%TD*%
%TO.C,D8*%
X339232500Y-40007500D03*
X339232500Y-43307500D03*
%TD*%
%TO.C,D7*%
X301132500Y-40007500D03*
X301132500Y-43307500D03*
%TD*%
%TO.C,D6*%
X258270000Y-40007500D03*
X258270000Y-43307500D03*
%TD*%
%TO.C,D5*%
X220170000Y-40007500D03*
X220170000Y-43307500D03*
%TD*%
%TO.C,D4*%
X177307500Y-40007500D03*
X177307500Y-43307500D03*
%TD*%
%TO.C,D3*%
X139207500Y-40007500D03*
X139207500Y-43307500D03*
%TD*%
D14*
%TO.C,R10*%
X32033600Y-73217800D03*
X30208600Y-73217800D03*
%TD*%
D15*
%TO.C,Q2*%
X43870000Y-74153000D03*
X44820000Y-72278000D03*
X42920000Y-72278000D03*
%TD*%
D16*
%TO.C,R1*%
X35970600Y-61098200D03*
X35970600Y-59273200D03*
%TD*%
%TO.C,R19*%
X49005400Y-83475900D03*
X49005400Y-81650900D03*
%TD*%
D17*
%TO.C,C8*%
X69520000Y-54171100D03*
X69520000Y-55896100D03*
%TD*%
D18*
%TO.C,R22*%
X59161000Y-128411500D03*
X59161000Y-130236500D03*
%TD*%
D19*
%TO.C,J2*%
X46443000Y-59635000D03*
D20*
X46443000Y-55455000D03*
D19*
X37803000Y-59635000D03*
D20*
X37803000Y-55455000D03*
D21*
X38923000Y-60210000D03*
X39723000Y-60210000D03*
D22*
X40373000Y-60210000D03*
X41373000Y-60210000D03*
X42873000Y-60210000D03*
X43873000Y-60210000D03*
D21*
X44523000Y-60210000D03*
X45323000Y-60210000D03*
X45323000Y-60210000D03*
X44523000Y-60210000D03*
D22*
X43373000Y-60210000D03*
X42373000Y-60210000D03*
X41873000Y-60210000D03*
X40873000Y-60210000D03*
D21*
X39723000Y-60210000D03*
X38923000Y-60210000D03*
%TD*%
D23*
%TO.C,C11*%
X80137000Y-83273500D03*
X80137000Y-81548500D03*
%TD*%
D14*
%TO.C,R5*%
X44782500Y-70500000D03*
X42957500Y-70500000D03*
%TD*%
D17*
%TO.C,C7*%
X72441000Y-54197600D03*
X72441000Y-55922600D03*
%TD*%
%TO.C,C1*%
X42727000Y-63287500D03*
X42727000Y-65012500D03*
%TD*%
D24*
%TO.C,U3*%
X43059600Y-77104000D03*
D25*
X36908000Y-74804000D03*
X36908000Y-77104000D03*
X36908000Y-79404000D03*
%TD*%
D14*
%TO.C,R15*%
X77089000Y-90335800D03*
X75264000Y-90335800D03*
%TD*%
D16*
%TO.C,R4*%
X35996000Y-57593000D03*
X35996000Y-55768000D03*
%TD*%
D17*
%TO.C,C2*%
X42727000Y-66716500D03*
X42727000Y-68441500D03*
%TD*%
D26*
%TO.C,U1*%
X44188000Y-68468000D03*
X45188000Y-68468000D03*
X46188000Y-68468000D03*
X47188000Y-68468000D03*
X48188000Y-68468000D03*
X48188000Y-63193000D03*
X47188000Y-63193000D03*
X46188000Y-63193000D03*
X45188000Y-63193000D03*
X44188000Y-63193000D03*
D27*
X46188000Y-65830500D03*
%TD*%
D18*
%TO.C,R20*%
X78613000Y-81498500D03*
X78613000Y-83323500D03*
%TD*%
D28*
%TO.C,R2*%
X39071300Y-62372000D03*
X40896300Y-62372000D03*
%TD*%
D16*
%TO.C,R24*%
X38947000Y-85367500D03*
X38947000Y-83542500D03*
%TD*%
D29*
%TO.C,U2*%
X37367600Y-65352750D03*
X36097600Y-65352750D03*
X34827600Y-65352750D03*
X33557600Y-65352750D03*
X33557600Y-70204150D03*
X34827600Y-70204150D03*
X36097600Y-70204150D03*
X37367600Y-70204150D03*
%TD*%
D14*
%TO.C,R14*%
X77087100Y-81344200D03*
X75262100Y-81344200D03*
%TD*%
D17*
%TO.C,C12*%
X80137000Y-88406500D03*
X80137000Y-90131500D03*
%TD*%
D16*
%TO.C,R18*%
X49005400Y-90206900D03*
X49005400Y-88381900D03*
%TD*%
D14*
%TO.C,R7*%
X37269800Y-63663650D03*
X35444800Y-63663650D03*
%TD*%
D15*
%TO.C,Q4*%
X31144600Y-67375800D03*
X32094600Y-65500800D03*
X30194600Y-65500800D03*
%TD*%
D28*
%TO.C,R6*%
X46363000Y-70500000D03*
X48188000Y-70500000D03*
%TD*%
D16*
%TO.C,R16*%
X57383000Y-130236500D03*
X57383000Y-128411500D03*
%TD*%
D28*
%TO.C,R9*%
X38868100Y-72477450D03*
X40693100Y-72477450D03*
%TD*%
D16*
%TO.C,R23*%
X68305000Y-130236500D03*
X68305000Y-128411500D03*
%TD*%
%TO.C,R17*%
X70083000Y-130236500D03*
X70083000Y-128411500D03*
%TD*%
D30*
%TO.C,C3*%
X36528300Y-72481200D03*
X34803300Y-72481200D03*
%TD*%
D31*
%TO.C,Q3*%
X39780600Y-64730450D03*
X38830600Y-66605450D03*
X40730600Y-66605450D03*
%TD*%
D30*
%TO.C,C13*%
X62563500Y-128308000D03*
X60838500Y-128308000D03*
%TD*%
D15*
%TO.C,Q6*%
X31144600Y-71439800D03*
X32094600Y-69564800D03*
X30194600Y-69564800D03*
%TD*%
D17*
%TO.C,C5*%
X34700600Y-75377900D03*
X34700600Y-77102900D03*
%TD*%
D18*
%TO.C,R21*%
X78613000Y-88356500D03*
X78613000Y-90181500D03*
%TD*%
D15*
%TO.C,Q1*%
X47299000Y-74153000D03*
X48249000Y-72278000D03*
X46349000Y-72278000D03*
%TD*%
D18*
%TO.C,R3*%
X48188000Y-59277000D03*
X48188000Y-61102000D03*
%TD*%
%TO.C,R25*%
X88773000Y-86324500D03*
X88773000Y-88149500D03*
%TD*%
D28*
%TO.C,R13*%
X50505900Y-81420400D03*
X52330900Y-81420400D03*
%TD*%
%TO.C,R26*%
X64344500Y-117894000D03*
X66169500Y-117894000D03*
%TD*%
D14*
%TO.C,R8*%
X32057100Y-63692800D03*
X30232100Y-63692800D03*
%TD*%
D32*
%TO.C,C14*%
X64902500Y-128308000D03*
X66627500Y-128308000D03*
%TD*%
D17*
%TO.C,C9*%
X47481400Y-88431900D03*
X47481400Y-90156900D03*
%TD*%
D28*
%TO.C,R12*%
X50529400Y-90310400D03*
X52354400Y-90310400D03*
%TD*%
D23*
%TO.C,C10*%
X47481400Y-83425900D03*
X47481400Y-81700900D03*
%TD*%
D31*
%TO.C,Q5*%
X39780600Y-68794450D03*
X38830600Y-70669450D03*
X40730600Y-70669450D03*
%TD*%
D33*
%TO.C,U4*%
X50119000Y-53837600D03*
X50119000Y-55107600D03*
X50119000Y-56377600D03*
X50119000Y-57647600D03*
X50119000Y-58917600D03*
X50119000Y-60187600D03*
X50119000Y-61457600D03*
X50119000Y-62727600D03*
X50119000Y-63997600D03*
X50119000Y-65267600D03*
X50119000Y-66537600D03*
X50119000Y-67807600D03*
X50119000Y-69077600D03*
X50119000Y-70347600D03*
D34*
X51884000Y-71597600D03*
X53154000Y-71597600D03*
X54424000Y-71597600D03*
X55694000Y-71597600D03*
X56964000Y-71597600D03*
X58234000Y-71597600D03*
X59504000Y-71597600D03*
X60774000Y-71597600D03*
X62044000Y-71597600D03*
X63314000Y-71597600D03*
X64584000Y-71597600D03*
X65854000Y-71597600D03*
D33*
X67619000Y-70347600D03*
X67619000Y-69077600D03*
X67619000Y-67807600D03*
X67619000Y-66537600D03*
X67619000Y-65267600D03*
X67619000Y-63997600D03*
X67619000Y-62727600D03*
X67619000Y-61457600D03*
X67619000Y-60187600D03*
X67619000Y-58917600D03*
X67619000Y-57647600D03*
X67619000Y-56377600D03*
X67619000Y-55107600D03*
X67619000Y-53837600D03*
D35*
X58969000Y-60157600D03*
X58969000Y-61557600D03*
X58969000Y-62957600D03*
X60369000Y-60157600D03*
X60369000Y-61557600D03*
X60369000Y-62957600D03*
X61769000Y-60157600D03*
X61769000Y-61557600D03*
X61769000Y-62957600D03*
%TD*%
M02*
