%TF.GenerationSoftware,KiCad,Pcbnew,8.0.5*%
%TF.CreationDate,2025-01-01T22:16:47+09:00*%
%TF.ProjectId,Davinci-Keyboard,44617669-6e63-4692-9d4b-6579626f6172,rev?*%
%TF.SameCoordinates,Original*%
%TF.FileFunction,Copper,L2,Bot*%
%TF.FilePolarity,Positive*%
%FSLAX46Y46*%
G04 Gerber Fmt 4.6, Leading zero omitted, Abs format (unit mm)*
G04 Created by KiCad (PCBNEW 8.0.5) date 2025-01-01 22:16:47*
%MOMM*%
%LPD*%
G01*
G04 APERTURE LIST*
G04 Aperture macros list*
%AMRoundRect*
0 Rectangle with rounded corners*
0 $1 Rounding radius*
0 $2 $3 $4 $5 $6 $7 $8 $9 X,Y pos of 4 corners*
0 Add a 4 corners polygon primitive as box body*
4,1,4,$2,$3,$4,$5,$6,$7,$8,$9,$2,$3,0*
0 Add four circle primitives for the rounded corners*
1,1,$1+$1,$2,$3*
1,1,$1+$1,$4,$5*
1,1,$1+$1,$6,$7*
1,1,$1+$1,$8,$9*
0 Add four rect primitives between the rounded corners*
20,1,$1+$1,$2,$3,$4,$5,0*
20,1,$1+$1,$4,$5,$6,$7,0*
20,1,$1+$1,$6,$7,$8,$9,0*
20,1,$1+$1,$8,$9,$2,$3,0*%
G04 Aperture macros list end*
%TA.AperFunction,SMDPad,CuDef*%
%ADD10RoundRect,0.249000X1.251000X1.251000X-1.251000X1.251000X-1.251000X-1.251000X1.251000X-1.251000X0*%
%TD*%
%TA.AperFunction,ComponentPad*%
%ADD11C,0.500000*%
%TD*%
%TA.AperFunction,SMDPad,CuDef*%
%ADD12RoundRect,0.225000X-0.375000X0.225000X-0.375000X-0.225000X0.375000X-0.225000X0.375000X0.225000X0*%
%TD*%
%TA.AperFunction,SMDPad,CuDef*%
%ADD13RoundRect,0.225000X0.375000X-0.225000X0.375000X0.225000X-0.375000X0.225000X-0.375000X-0.225000X0*%
%TD*%
%TA.AperFunction,ComponentPad*%
%ADD14C,2.000000*%
%TD*%
%TA.AperFunction,ComponentPad*%
%ADD15R,3.200000X2.000000*%
%TD*%
%TA.AperFunction,ComponentPad*%
%ADD16R,2.000000X3.200000*%
%TD*%
%TA.AperFunction,SMDPad,CuDef*%
%ADD17RoundRect,0.237500X-0.250000X-0.237500X0.250000X-0.237500X0.250000X0.237500X-0.250000X0.237500X0*%
%TD*%
%TA.AperFunction,SMDPad,CuDef*%
%ADD18RoundRect,0.150000X-0.150000X0.587500X-0.150000X-0.587500X0.150000X-0.587500X0.150000X0.587500X0*%
%TD*%
%TA.AperFunction,SMDPad,CuDef*%
%ADD19RoundRect,0.237500X-0.237500X0.250000X-0.237500X-0.250000X0.237500X-0.250000X0.237500X0.250000X0*%
%TD*%
%TA.AperFunction,SMDPad,CuDef*%
%ADD20RoundRect,0.237500X0.237500X-0.300000X0.237500X0.300000X-0.237500X0.300000X-0.237500X-0.300000X0*%
%TD*%
%TA.AperFunction,SMDPad,CuDef*%
%ADD21RoundRect,0.237500X0.237500X-0.250000X0.237500X0.250000X-0.237500X0.250000X-0.237500X-0.250000X0*%
%TD*%
%TA.AperFunction,ComponentPad*%
%ADD22O,1.000000X2.100000*%
%TD*%
%TA.AperFunction,ComponentPad*%
%ADD23O,1.000000X1.800000*%
%TD*%
%TA.AperFunction,SMDPad,CuDef*%
%ADD24RoundRect,0.150000X-0.150000X-0.425000X0.150000X-0.425000X0.150000X0.425000X-0.150000X0.425000X0*%
%TD*%
%TA.AperFunction,SMDPad,CuDef*%
%ADD25RoundRect,0.075000X-0.075000X-0.500000X0.075000X-0.500000X0.075000X0.500000X-0.075000X0.500000X0*%
%TD*%
%TA.AperFunction,SMDPad,CuDef*%
%ADD26RoundRect,0.237500X-0.237500X0.300000X-0.237500X-0.300000X0.237500X-0.300000X0.237500X0.300000X0*%
%TD*%
%TA.AperFunction,SMDPad,CuDef*%
%ADD27R,2.066000X3.201599*%
%TD*%
%TA.AperFunction,SMDPad,CuDef*%
%ADD28R,2.066000X0.901600*%
%TD*%
%TA.AperFunction,HeatsinkPad*%
%ADD29R,3.300000X2.100000*%
%TD*%
%TA.AperFunction,SMDPad,CuDef*%
%ADD30RoundRect,0.150000X-0.150000X0.687500X-0.150000X-0.687500X0.150000X-0.687500X0.150000X0.687500X0*%
%TD*%
%TA.AperFunction,SMDPad,CuDef*%
%ADD31RoundRect,0.237500X0.250000X0.237500X-0.250000X0.237500X-0.250000X-0.237500X0.250000X-0.237500X0*%
%TD*%
%TA.AperFunction,SMDPad,CuDef*%
%ADD32R,0.431800X1.447800*%
%TD*%
%TA.AperFunction,SMDPad,CuDef*%
%ADD33RoundRect,0.237500X-0.300000X-0.237500X0.300000X-0.237500X0.300000X0.237500X-0.300000X0.237500X0*%
%TD*%
%TA.AperFunction,SMDPad,CuDef*%
%ADD34RoundRect,0.150000X0.150000X-0.587500X0.150000X0.587500X-0.150000X0.587500X-0.150000X-0.587500X0*%
%TD*%
%TA.AperFunction,ComponentPad*%
%ADD35O,1.700000X1.700000*%
%TD*%
%TA.AperFunction,ComponentPad*%
%ADD36R,1.700000X1.700000*%
%TD*%
%TA.AperFunction,SMDPad,CuDef*%
%ADD37RoundRect,0.237500X0.300000X0.237500X-0.300000X0.237500X-0.300000X-0.237500X0.300000X-0.237500X0*%
%TD*%
%TA.AperFunction,HeatsinkPad*%
%ADD38C,0.600000*%
%TD*%
%TA.AperFunction,SMDPad,CuDef*%
%ADD39R,3.900000X3.900000*%
%TD*%
%TA.AperFunction,SMDPad,CuDef*%
%ADD40R,1.500000X0.900000*%
%TD*%
%TA.AperFunction,SMDPad,CuDef*%
%ADD41R,0.900000X1.500000*%
%TD*%
%TA.AperFunction,ViaPad*%
%ADD42C,0.500000*%
%TD*%
%TA.AperFunction,ViaPad*%
%ADD43C,0.600000*%
%TD*%
%TA.AperFunction,ViaPad*%
%ADD44C,0.800000*%
%TD*%
%TA.AperFunction,Conductor*%
%ADD45C,0.200000*%
%TD*%
%TA.AperFunction,Conductor*%
%ADD46C,0.300000*%
%TD*%
%TA.AperFunction,Conductor*%
%ADD47C,1.000000*%
%TD*%
%TA.AperFunction,Conductor*%
%ADD48C,0.700000*%
%TD*%
%TA.AperFunction,Conductor*%
%ADD49C,0.500000*%
%TD*%
%TA.AperFunction,Conductor*%
%ADD50C,0.250000*%
%TD*%
G04 APERTURE END LIST*
D10*
%TO.P,SW87,1,1*%
%TO.N,/ESP32-S3/IO16*%
X367485000Y-139630000D03*
%TO.P,SW87,2,2*%
%TO.N,Net-(D82-A)*%
X380435000Y-137090000D03*
D11*
%TO.P,SW87,1,1*%
%TO.N,/ESP32-S3/IO16*%
X366285000Y-138430000D03*
X368685000Y-138430000D03*
X366285000Y-140830000D03*
X368685000Y-140830000D03*
%TO.P,SW87,2,2*%
%TO.N,Net-(D82-A)*%
X379235000Y-135890000D03*
X381635000Y-135890000D03*
X379235000Y-138290000D03*
X381635000Y-138290000D03*
%TD*%
D10*
%TO.P,SW86,1,1*%
%TO.N,/ESP32-S3/IO16*%
X348435000Y-139630000D03*
%TO.P,SW86,2,2*%
%TO.N,Net-(D90-K)*%
X361385000Y-137090000D03*
D11*
%TO.P,SW86,1,1*%
%TO.N,/ESP32-S3/IO16*%
X347235000Y-138430000D03*
X349635000Y-138430000D03*
X347235000Y-140830000D03*
X349635000Y-140830000D03*
%TO.P,SW86,2,2*%
%TO.N,Net-(D90-K)*%
X360185000Y-135890000D03*
X362585000Y-135890000D03*
X360185000Y-138290000D03*
X362585000Y-138290000D03*
%TD*%
D10*
%TO.P,SW85,1,1*%
%TO.N,/ESP32-S3/IO16*%
X329385000Y-139630000D03*
%TO.P,SW85,2,2*%
%TO.N,Net-(D81-A)*%
X342335000Y-137090000D03*
D11*
%TO.P,SW85,1,1*%
%TO.N,/ESP32-S3/IO16*%
X328185000Y-138430000D03*
X330585000Y-138430000D03*
X328185000Y-140830000D03*
X330585000Y-140830000D03*
%TO.P,SW85,2,2*%
%TO.N,Net-(D81-A)*%
X341135000Y-135890000D03*
X343535000Y-135890000D03*
X341135000Y-138290000D03*
X343535000Y-138290000D03*
%TD*%
D10*
%TO.P,SW84,1,1*%
%TO.N,/ESP32-S3/IO16*%
X305572500Y-139630000D03*
%TO.P,SW84,2,2*%
%TO.N,Net-(D89-K)*%
X318522500Y-137090000D03*
D11*
%TO.P,SW84,1,1*%
%TO.N,/ESP32-S3/IO16*%
X304372500Y-138430000D03*
X306772500Y-138430000D03*
X304372500Y-140830000D03*
X306772500Y-140830000D03*
%TO.P,SW84,2,2*%
%TO.N,Net-(D89-K)*%
X317322500Y-135890000D03*
X319722500Y-135890000D03*
X317322500Y-138290000D03*
X319722500Y-138290000D03*
%TD*%
D10*
%TO.P,SW83,1,1*%
%TO.N,/ESP32-S3/IO16*%
X286522500Y-139630000D03*
%TO.P,SW83,2,2*%
%TO.N,Net-(D80-A)*%
X299472500Y-137090000D03*
D11*
%TO.P,SW83,1,1*%
%TO.N,/ESP32-S3/IO16*%
X285322500Y-138430000D03*
X287722500Y-138430000D03*
X285322500Y-140830000D03*
X287722500Y-140830000D03*
%TO.P,SW83,2,2*%
%TO.N,Net-(D80-A)*%
X298272500Y-135890000D03*
X300672500Y-135890000D03*
X298272500Y-138290000D03*
X300672500Y-138290000D03*
%TD*%
D10*
%TO.P,SW82,1,1*%
%TO.N,/ESP32-S3/IO16*%
X267472500Y-139630000D03*
%TO.P,SW82,2,2*%
%TO.N,Net-(D88-K)*%
X280422500Y-137090000D03*
D11*
%TO.P,SW82,1,1*%
%TO.N,/ESP32-S3/IO16*%
X266272500Y-138430000D03*
X268672500Y-138430000D03*
X266272500Y-140830000D03*
X268672500Y-140830000D03*
%TO.P,SW82,2,2*%
%TO.N,Net-(D88-K)*%
X279222500Y-135890000D03*
X281622500Y-135890000D03*
X279222500Y-138290000D03*
X281622500Y-138290000D03*
%TD*%
D10*
%TO.P,SW81,1,1*%
%TO.N,/ESP32-S3/IO16*%
X226991250Y-139630000D03*
%TO.P,SW81,2,2*%
%TO.N,Net-(D79-A)*%
X239941250Y-137090000D03*
D11*
%TO.P,SW81,1,1*%
%TO.N,/ESP32-S3/IO16*%
X225791250Y-138430000D03*
X228191250Y-138430000D03*
X225791250Y-140830000D03*
X228191250Y-140830000D03*
%TO.P,SW81,2,2*%
%TO.N,Net-(D79-A)*%
X238741250Y-135890000D03*
X241141250Y-135890000D03*
X238741250Y-138290000D03*
X241141250Y-138290000D03*
%TD*%
D10*
%TO.P,SW80,1,1*%
%TO.N,/ESP32-S3/IO16*%
X186510000Y-139630000D03*
%TO.P,SW80,2,2*%
%TO.N,Net-(D87-K)*%
X199460000Y-137090000D03*
D11*
%TO.P,SW80,1,1*%
%TO.N,/ESP32-S3/IO16*%
X185310000Y-138430000D03*
X187710000Y-138430000D03*
X185310000Y-140830000D03*
X187710000Y-140830000D03*
%TO.P,SW80,2,2*%
%TO.N,Net-(D87-K)*%
X198260000Y-135890000D03*
X200660000Y-135890000D03*
X198260000Y-138290000D03*
X200660000Y-138290000D03*
%TD*%
D10*
%TO.P,SW79,1,1*%
%TO.N,/ESP32-S3/IO16*%
X167460000Y-139630000D03*
%TO.P,SW79,2,2*%
%TO.N,Net-(D78-A)*%
X180410000Y-137090000D03*
D11*
%TO.P,SW79,1,1*%
%TO.N,/ESP32-S3/IO16*%
X166260000Y-138430000D03*
X168660000Y-138430000D03*
X166260000Y-140830000D03*
X168660000Y-140830000D03*
%TO.P,SW79,2,2*%
%TO.N,Net-(D78-A)*%
X179210000Y-135890000D03*
X181610000Y-135890000D03*
X179210000Y-138290000D03*
X181610000Y-138290000D03*
%TD*%
D10*
%TO.P,SW78,1,1*%
%TO.N,/ESP32-S3/IO16*%
X148410000Y-139630000D03*
%TO.P,SW78,2,2*%
%TO.N,Net-(D86-K)*%
X161360000Y-137090000D03*
D11*
%TO.P,SW78,1,1*%
%TO.N,/ESP32-S3/IO16*%
X147210000Y-138430000D03*
X149610000Y-138430000D03*
X147210000Y-140830000D03*
X149610000Y-140830000D03*
%TO.P,SW78,2,2*%
%TO.N,Net-(D86-K)*%
X160160000Y-135890000D03*
X162560000Y-135890000D03*
X160160000Y-138290000D03*
X162560000Y-138290000D03*
%TD*%
D10*
%TO.P,SW77,1,1*%
%TO.N,/ESP32-S3/IO16*%
X129360000Y-139630000D03*
%TO.P,SW77,2,2*%
%TO.N,Net-(D77-A)*%
X142310000Y-137090000D03*
D11*
%TO.P,SW77,1,1*%
%TO.N,/ESP32-S3/IO16*%
X128160000Y-138430000D03*
X130560000Y-138430000D03*
X128160000Y-140830000D03*
X130560000Y-140830000D03*
%TO.P,SW77,2,2*%
%TO.N,Net-(D77-A)*%
X141110000Y-135890000D03*
X143510000Y-135890000D03*
X141110000Y-138290000D03*
X143510000Y-138290000D03*
%TD*%
D10*
%TO.P,SW76,1,1*%
%TO.N,/ESP32-S3/IO16*%
X103166250Y-139630000D03*
%TO.P,SW76,2,2*%
%TO.N,Net-(D85-K)*%
X116116250Y-137090000D03*
D11*
%TO.P,SW76,1,1*%
%TO.N,/ESP32-S3/IO16*%
X101966250Y-138430000D03*
X104366250Y-138430000D03*
X101966250Y-140830000D03*
X104366250Y-140830000D03*
%TO.P,SW76,2,2*%
%TO.N,Net-(D85-K)*%
X114916250Y-135890000D03*
X117316250Y-135890000D03*
X114916250Y-138290000D03*
X117316250Y-138290000D03*
%TD*%
D10*
%TO.P,SW75,1,1*%
%TO.N,/ESP32-S3/IO16*%
X391297500Y-120580000D03*
%TO.P,SW75,2,2*%
%TO.N,Net-(D76-A)*%
X404247500Y-118040000D03*
D11*
%TO.P,SW75,1,1*%
%TO.N,/ESP32-S3/IO16*%
X390097500Y-119380000D03*
X392497500Y-119380000D03*
X390097500Y-121780000D03*
X392497500Y-121780000D03*
%TO.P,SW75,2,2*%
%TO.N,Net-(D76-A)*%
X403047500Y-116840000D03*
X405447500Y-116840000D03*
X403047500Y-119240000D03*
X405447500Y-119240000D03*
%TD*%
D10*
%TO.P,SW74,1,1*%
%TO.N,/ESP32-S3/IO16*%
X367485000Y-120580000D03*
%TO.P,SW74,2,2*%
%TO.N,Net-(D84-K)*%
X380435000Y-118040000D03*
D11*
%TO.P,SW74,1,1*%
%TO.N,/ESP32-S3/IO16*%
X366285000Y-119380000D03*
X368685000Y-119380000D03*
X366285000Y-121780000D03*
X368685000Y-121780000D03*
%TO.P,SW74,2,2*%
%TO.N,Net-(D84-K)*%
X379235000Y-116840000D03*
X381635000Y-116840000D03*
X379235000Y-119240000D03*
X381635000Y-119240000D03*
%TD*%
D10*
%TO.P,SW73,1,1*%
%TO.N,/ESP32-S3/IO15*%
X348435000Y-120580000D03*
%TO.P,SW73,2,2*%
%TO.N,Net-(D68-A)*%
X361385000Y-118040000D03*
D11*
%TO.P,SW73,1,1*%
%TO.N,/ESP32-S3/IO15*%
X347235000Y-119380000D03*
X349635000Y-119380000D03*
X347235000Y-121780000D03*
X349635000Y-121780000D03*
%TO.P,SW73,2,2*%
%TO.N,Net-(D68-A)*%
X360185000Y-116840000D03*
X362585000Y-116840000D03*
X360185000Y-119240000D03*
X362585000Y-119240000D03*
%TD*%
D10*
%TO.P,SW72,1,1*%
%TO.N,/ESP32-S3/IO15*%
X329385000Y-120580000D03*
%TO.P,SW72,2,2*%
%TO.N,Net-(D67-A)*%
X342335000Y-118040000D03*
D11*
%TO.P,SW72,1,1*%
%TO.N,/ESP32-S3/IO15*%
X328185000Y-119380000D03*
X330585000Y-119380000D03*
X328185000Y-121780000D03*
X330585000Y-121780000D03*
%TO.P,SW72,2,2*%
%TO.N,Net-(D67-A)*%
X341135000Y-116840000D03*
X343535000Y-116840000D03*
X341135000Y-119240000D03*
X343535000Y-119240000D03*
%TD*%
D10*
%TO.P,SW71,1,1*%
%TO.N,/ESP32-S3/IO15*%
X310335000Y-120580000D03*
%TO.P,SW71,2,2*%
%TO.N,Net-(D75-K)*%
X323285000Y-118040000D03*
D11*
%TO.P,SW71,1,1*%
%TO.N,/ESP32-S3/IO15*%
X309135000Y-119380000D03*
X311535000Y-119380000D03*
X309135000Y-121780000D03*
X311535000Y-121780000D03*
%TO.P,SW71,2,2*%
%TO.N,Net-(D75-K)*%
X322085000Y-116840000D03*
X324485000Y-116840000D03*
X322085000Y-119240000D03*
X324485000Y-119240000D03*
%TD*%
D10*
%TO.P,SW70,1,1*%
%TO.N,/ESP32-S3/IO15*%
X291285000Y-120580000D03*
%TO.P,SW70,2,2*%
%TO.N,Net-(D66-A)*%
X304235000Y-118040000D03*
D11*
%TO.P,SW70,1,1*%
%TO.N,/ESP32-S3/IO15*%
X290085000Y-119380000D03*
X292485000Y-119380000D03*
X290085000Y-121780000D03*
X292485000Y-121780000D03*
%TO.P,SW70,2,2*%
%TO.N,Net-(D66-A)*%
X303035000Y-116840000D03*
X305435000Y-116840000D03*
X303035000Y-119240000D03*
X305435000Y-119240000D03*
%TD*%
D10*
%TO.P,SW69,1,1*%
%TO.N,/ESP32-S3/IO15*%
X272235000Y-120580000D03*
%TO.P,SW69,2,2*%
%TO.N,Net-(D74-K)*%
X285185000Y-118040000D03*
D11*
%TO.P,SW69,1,1*%
%TO.N,/ESP32-S3/IO15*%
X271035000Y-119380000D03*
X273435000Y-119380000D03*
X271035000Y-121780000D03*
X273435000Y-121780000D03*
%TO.P,SW69,2,2*%
%TO.N,Net-(D74-K)*%
X283985000Y-116840000D03*
X286385000Y-116840000D03*
X283985000Y-119240000D03*
X286385000Y-119240000D03*
%TD*%
D10*
%TO.P,SW68,1,1*%
%TO.N,/ESP32-S3/IO15*%
X253185000Y-120580000D03*
%TO.P,SW68,2,2*%
%TO.N,Net-(D65-A)*%
X266135000Y-118040000D03*
D11*
%TO.P,SW68,1,1*%
%TO.N,/ESP32-S3/IO15*%
X251985000Y-119380000D03*
X254385000Y-119380000D03*
X251985000Y-121780000D03*
X254385000Y-121780000D03*
%TO.P,SW68,2,2*%
%TO.N,Net-(D65-A)*%
X264935000Y-116840000D03*
X267335000Y-116840000D03*
X264935000Y-119240000D03*
X267335000Y-119240000D03*
%TD*%
D10*
%TO.P,SW67,1,1*%
%TO.N,/ESP32-S3/IO15*%
X234135000Y-120580000D03*
%TO.P,SW67,2,2*%
%TO.N,Net-(D73-K)*%
X247085000Y-118040000D03*
D11*
%TO.P,SW67,1,1*%
%TO.N,/ESP32-S3/IO15*%
X232935000Y-119380000D03*
X235335000Y-119380000D03*
X232935000Y-121780000D03*
X235335000Y-121780000D03*
%TO.P,SW67,2,2*%
%TO.N,Net-(D73-K)*%
X245885000Y-116840000D03*
X248285000Y-116840000D03*
X245885000Y-119240000D03*
X248285000Y-119240000D03*
%TD*%
D10*
%TO.P,SW66,1,1*%
%TO.N,/ESP32-S3/IO15*%
X215085000Y-120580000D03*
%TO.P,SW66,2,2*%
%TO.N,Net-(D64-A)*%
X228035000Y-118040000D03*
D11*
%TO.P,SW66,1,1*%
%TO.N,/ESP32-S3/IO15*%
X213885000Y-119380000D03*
X216285000Y-119380000D03*
X213885000Y-121780000D03*
X216285000Y-121780000D03*
%TO.P,SW66,2,2*%
%TO.N,Net-(D64-A)*%
X226835000Y-116840000D03*
X229235000Y-116840000D03*
X226835000Y-119240000D03*
X229235000Y-119240000D03*
%TD*%
D10*
%TO.P,SW65,1,1*%
%TO.N,/ESP32-S3/IO15*%
X196035000Y-120580000D03*
%TO.P,SW65,2,2*%
%TO.N,Net-(D72-K)*%
X208985000Y-118040000D03*
D11*
%TO.P,SW65,1,1*%
%TO.N,/ESP32-S3/IO15*%
X194835000Y-119380000D03*
X197235000Y-119380000D03*
X194835000Y-121780000D03*
X197235000Y-121780000D03*
%TO.P,SW65,2,2*%
%TO.N,Net-(D72-K)*%
X207785000Y-116840000D03*
X210185000Y-116840000D03*
X207785000Y-119240000D03*
X210185000Y-119240000D03*
%TD*%
D10*
%TO.P,SW64,1,1*%
%TO.N,/ESP32-S3/IO15*%
X176985000Y-120580000D03*
%TO.P,SW64,2,2*%
%TO.N,Net-(D63-A)*%
X189935000Y-118040000D03*
D11*
%TO.P,SW64,1,1*%
%TO.N,/ESP32-S3/IO15*%
X175785000Y-119380000D03*
X178185000Y-119380000D03*
X175785000Y-121780000D03*
X178185000Y-121780000D03*
%TO.P,SW64,2,2*%
%TO.N,Net-(D63-A)*%
X188735000Y-116840000D03*
X191135000Y-116840000D03*
X188735000Y-119240000D03*
X191135000Y-119240000D03*
%TD*%
D10*
%TO.P,SW63,1,1*%
%TO.N,/ESP32-S3/IO15*%
X157935000Y-120580000D03*
%TO.P,SW63,2,2*%
%TO.N,Net-(D71-K)*%
X170885000Y-118040000D03*
D11*
%TO.P,SW63,1,1*%
%TO.N,/ESP32-S3/IO15*%
X156735000Y-119380000D03*
X159135000Y-119380000D03*
X156735000Y-121780000D03*
X159135000Y-121780000D03*
%TO.P,SW63,2,2*%
%TO.N,Net-(D71-K)*%
X169685000Y-116840000D03*
X172085000Y-116840000D03*
X169685000Y-119240000D03*
X172085000Y-119240000D03*
%TD*%
D10*
%TO.P,SW62,1,1*%
%TO.N,/ESP32-S3/IO15*%
X138885000Y-120580000D03*
%TO.P,SW62,2,2*%
%TO.N,Net-(D62-A)*%
X151835000Y-118040000D03*
D11*
%TO.P,SW62,1,1*%
%TO.N,/ESP32-S3/IO15*%
X137685000Y-119380000D03*
X140085000Y-119380000D03*
X137685000Y-121780000D03*
X140085000Y-121780000D03*
%TO.P,SW62,2,2*%
%TO.N,Net-(D62-A)*%
X150635000Y-116840000D03*
X153035000Y-116840000D03*
X150635000Y-119240000D03*
X153035000Y-119240000D03*
%TD*%
D10*
%TO.P,SW61,1,1*%
%TO.N,/ESP32-S3/IO15*%
X110310000Y-120580000D03*
%TO.P,SW61,2,2*%
%TO.N,Net-(D70-K)*%
X123260000Y-118040000D03*
D11*
%TO.P,SW61,1,1*%
%TO.N,/ESP32-S3/IO15*%
X109110000Y-119380000D03*
X111510000Y-119380000D03*
X109110000Y-121780000D03*
X111510000Y-121780000D03*
%TO.P,SW61,2,2*%
%TO.N,Net-(D70-K)*%
X122060000Y-116840000D03*
X124460000Y-116840000D03*
X122060000Y-119240000D03*
X124460000Y-119240000D03*
%TD*%
D10*
%TO.P,SW60,1,1*%
%TO.N,/ESP32-S3/IO15*%
X391297500Y-101530000D03*
%TO.P,SW60,2,2*%
%TO.N,Net-(D61-A)*%
X404247500Y-98990000D03*
D11*
%TO.P,SW60,1,1*%
%TO.N,/ESP32-S3/IO15*%
X390097500Y-100330000D03*
X392497500Y-100330000D03*
X390097500Y-102730000D03*
X392497500Y-102730000D03*
%TO.P,SW60,2,2*%
%TO.N,Net-(D61-A)*%
X403047500Y-97790000D03*
X405447500Y-97790000D03*
X403047500Y-100190000D03*
X405447500Y-100190000D03*
%TD*%
D10*
%TO.P,SW59,1,1*%
%TO.N,/ESP32-S3/IO15*%
X343672500Y-101530000D03*
%TO.P,SW59,2,2*%
%TO.N,Net-(D69-K)*%
X356622500Y-98990000D03*
D11*
%TO.P,SW59,1,1*%
%TO.N,/ESP32-S3/IO15*%
X342472500Y-100330000D03*
X344872500Y-100330000D03*
X342472500Y-102730000D03*
X344872500Y-102730000D03*
%TO.P,SW59,2,2*%
%TO.N,Net-(D69-K)*%
X355422500Y-97790000D03*
X357822500Y-97790000D03*
X355422500Y-100190000D03*
X357822500Y-100190000D03*
%TD*%
D10*
%TO.P,SW58,1,1*%
%TO.N,/ESP32-S3/IO7*%
X324622500Y-101530000D03*
%TO.P,SW58,2,2*%
%TO.N,Net-(D53-A)*%
X337572500Y-98990000D03*
D11*
%TO.P,SW58,1,1*%
%TO.N,/ESP32-S3/IO7*%
X323422500Y-100330000D03*
X325822500Y-100330000D03*
X323422500Y-102730000D03*
X325822500Y-102730000D03*
%TO.P,SW58,2,2*%
%TO.N,Net-(D53-A)*%
X336372500Y-97790000D03*
X338772500Y-97790000D03*
X336372500Y-100190000D03*
X338772500Y-100190000D03*
%TD*%
D10*
%TO.P,SW57,1,1*%
%TO.N,/ESP32-S3/IO7*%
X305572500Y-101530000D03*
%TO.P,SW57,2,2*%
%TO.N,Net-(D52-A)*%
X318522500Y-98990000D03*
D11*
%TO.P,SW57,1,1*%
%TO.N,/ESP32-S3/IO7*%
X304372500Y-100330000D03*
X306772500Y-100330000D03*
X304372500Y-102730000D03*
X306772500Y-102730000D03*
%TO.P,SW57,2,2*%
%TO.N,Net-(D52-A)*%
X317322500Y-97790000D03*
X319722500Y-97790000D03*
X317322500Y-100190000D03*
X319722500Y-100190000D03*
%TD*%
D10*
%TO.P,SW56,1,1*%
%TO.N,/ESP32-S3/IO7*%
X286522500Y-101530000D03*
%TO.P,SW56,2,2*%
%TO.N,Net-(D60-K)*%
X299472500Y-98990000D03*
D11*
%TO.P,SW56,1,1*%
%TO.N,/ESP32-S3/IO7*%
X285322500Y-100330000D03*
X287722500Y-100330000D03*
X285322500Y-102730000D03*
X287722500Y-102730000D03*
%TO.P,SW56,2,2*%
%TO.N,Net-(D60-K)*%
X298272500Y-97790000D03*
X300672500Y-97790000D03*
X298272500Y-100190000D03*
X300672500Y-100190000D03*
%TD*%
D10*
%TO.P,SW55,1,1*%
%TO.N,/ESP32-S3/IO7*%
X267472500Y-101530000D03*
%TO.P,SW55,2,2*%
%TO.N,Net-(D51-A)*%
X280422500Y-98990000D03*
D11*
%TO.P,SW55,1,1*%
%TO.N,/ESP32-S3/IO7*%
X266272500Y-100330000D03*
X268672500Y-100330000D03*
X266272500Y-102730000D03*
X268672500Y-102730000D03*
%TO.P,SW55,2,2*%
%TO.N,Net-(D51-A)*%
X279222500Y-97790000D03*
X281622500Y-97790000D03*
X279222500Y-100190000D03*
X281622500Y-100190000D03*
%TD*%
D10*
%TO.P,SW54,1,1*%
%TO.N,/ESP32-S3/IO7*%
X248422500Y-101530000D03*
%TO.P,SW54,2,2*%
%TO.N,Net-(D59-K)*%
X261372500Y-98990000D03*
D11*
%TO.P,SW54,1,1*%
%TO.N,/ESP32-S3/IO7*%
X247222500Y-100330000D03*
X249622500Y-100330000D03*
X247222500Y-102730000D03*
X249622500Y-102730000D03*
%TO.P,SW54,2,2*%
%TO.N,Net-(D59-K)*%
X260172500Y-97790000D03*
X262572500Y-97790000D03*
X260172500Y-100190000D03*
X262572500Y-100190000D03*
%TD*%
D10*
%TO.P,SW53,1,1*%
%TO.N,/ESP32-S3/IO7*%
X229372500Y-101530000D03*
%TO.P,SW53,2,2*%
%TO.N,Net-(D50-A)*%
X242322500Y-98990000D03*
D11*
%TO.P,SW53,1,1*%
%TO.N,/ESP32-S3/IO7*%
X228172500Y-100330000D03*
X230572500Y-100330000D03*
X228172500Y-102730000D03*
X230572500Y-102730000D03*
%TO.P,SW53,2,2*%
%TO.N,Net-(D50-A)*%
X241122500Y-97790000D03*
X243522500Y-97790000D03*
X241122500Y-100190000D03*
X243522500Y-100190000D03*
%TD*%
D10*
%TO.P,SW52,1,1*%
%TO.N,/ESP32-S3/IO7*%
X210322500Y-101530000D03*
%TO.P,SW52,2,2*%
%TO.N,Net-(D58-K)*%
X223272500Y-98990000D03*
D11*
%TO.P,SW52,1,1*%
%TO.N,/ESP32-S3/IO7*%
X209122500Y-100330000D03*
X211522500Y-100330000D03*
X209122500Y-102730000D03*
X211522500Y-102730000D03*
%TO.P,SW52,2,2*%
%TO.N,Net-(D58-K)*%
X222072500Y-97790000D03*
X224472500Y-97790000D03*
X222072500Y-100190000D03*
X224472500Y-100190000D03*
%TD*%
D10*
%TO.P,SW51,1,1*%
%TO.N,/ESP32-S3/IO7*%
X191272500Y-101530000D03*
%TO.P,SW51,2,2*%
%TO.N,Net-(D49-A)*%
X204222500Y-98990000D03*
D11*
%TO.P,SW51,1,1*%
%TO.N,/ESP32-S3/IO7*%
X190072500Y-100330000D03*
X192472500Y-100330000D03*
X190072500Y-102730000D03*
X192472500Y-102730000D03*
%TO.P,SW51,2,2*%
%TO.N,Net-(D49-A)*%
X203022500Y-97790000D03*
X205422500Y-97790000D03*
X203022500Y-100190000D03*
X205422500Y-100190000D03*
%TD*%
D10*
%TO.P,SW50,1,1*%
%TO.N,/ESP32-S3/IO7*%
X172222500Y-101530000D03*
%TO.P,SW50,2,2*%
%TO.N,Net-(D57-K)*%
X185172500Y-98990000D03*
D11*
%TO.P,SW50,1,1*%
%TO.N,/ESP32-S3/IO7*%
X171022500Y-100330000D03*
X173422500Y-100330000D03*
X171022500Y-102730000D03*
X173422500Y-102730000D03*
%TO.P,SW50,2,2*%
%TO.N,Net-(D57-K)*%
X183972500Y-97790000D03*
X186372500Y-97790000D03*
X183972500Y-100190000D03*
X186372500Y-100190000D03*
%TD*%
D10*
%TO.P,SW49,1,1*%
%TO.N,/ESP32-S3/IO7*%
X153172500Y-101530000D03*
%TO.P,SW49,2,2*%
%TO.N,Net-(D48-A)*%
X166122500Y-98990000D03*
D11*
%TO.P,SW49,1,1*%
%TO.N,/ESP32-S3/IO7*%
X151972500Y-100330000D03*
X154372500Y-100330000D03*
X151972500Y-102730000D03*
X154372500Y-102730000D03*
%TO.P,SW49,2,2*%
%TO.N,Net-(D48-A)*%
X164922500Y-97790000D03*
X167322500Y-97790000D03*
X164922500Y-100190000D03*
X167322500Y-100190000D03*
%TD*%
D10*
%TO.P,SW48,1,1*%
%TO.N,/ESP32-S3/IO7*%
X134122500Y-101530000D03*
%TO.P,SW48,2,2*%
%TO.N,Net-(D56-K)*%
X147072500Y-98990000D03*
D11*
%TO.P,SW48,1,1*%
%TO.N,/ESP32-S3/IO7*%
X132922500Y-100330000D03*
X135322500Y-100330000D03*
X132922500Y-102730000D03*
X135322500Y-102730000D03*
%TO.P,SW48,2,2*%
%TO.N,Net-(D56-K)*%
X145872500Y-97790000D03*
X148272500Y-97790000D03*
X145872500Y-100190000D03*
X148272500Y-100190000D03*
%TD*%
D10*
%TO.P,SW47,1,1*%
%TO.N,/ESP32-S3/IO7*%
X107928750Y-101530000D03*
%TO.P,SW47,2,2*%
%TO.N,Net-(D47-A)*%
X120878750Y-98990000D03*
D11*
%TO.P,SW47,1,1*%
%TO.N,/ESP32-S3/IO7*%
X106728750Y-100330000D03*
X109128750Y-100330000D03*
X106728750Y-102730000D03*
X109128750Y-102730000D03*
%TO.P,SW47,2,2*%
%TO.N,Net-(D47-A)*%
X119678750Y-97790000D03*
X122078750Y-97790000D03*
X119678750Y-100190000D03*
X122078750Y-100190000D03*
%TD*%
D10*
%TO.P,SW46,1,1*%
%TO.N,/ESP32-S3/IO7*%
X391297500Y-82480000D03*
%TO.P,SW46,2,2*%
%TO.N,Net-(D55-K)*%
X404247500Y-79940000D03*
D11*
%TO.P,SW46,1,1*%
%TO.N,/ESP32-S3/IO7*%
X390097500Y-81280000D03*
X392497500Y-81280000D03*
X390097500Y-83680000D03*
X392497500Y-83680000D03*
%TO.P,SW46,2,2*%
%TO.N,Net-(D55-K)*%
X403047500Y-78740000D03*
X405447500Y-78740000D03*
X403047500Y-81140000D03*
X405447500Y-81140000D03*
%TD*%
D10*
%TO.P,SW45,1,1*%
%TO.N,/ESP32-S3/IO7*%
X365103750Y-92005000D03*
%TO.P,SW45,2,2*%
%TO.N,Net-(D46-A)*%
X378053750Y-89465000D03*
D11*
%TO.P,SW45,1,1*%
%TO.N,/ESP32-S3/IO7*%
X363903750Y-90805000D03*
X366303750Y-90805000D03*
X363903750Y-93205000D03*
X366303750Y-93205000D03*
%TO.P,SW45,2,2*%
%TO.N,Net-(D46-A)*%
X376853750Y-88265000D03*
X379253750Y-88265000D03*
X376853750Y-90665000D03*
X379253750Y-90665000D03*
%TD*%
D10*
%TO.P,SW44,1,1*%
%TO.N,/ESP32-S3/IO7*%
X338910000Y-82480000D03*
%TO.P,SW44,2,2*%
%TO.N,Net-(D54-K)*%
X351860000Y-79940000D03*
D11*
%TO.P,SW44,1,1*%
%TO.N,/ESP32-S3/IO7*%
X337710000Y-81280000D03*
X340110000Y-81280000D03*
X337710000Y-83680000D03*
X340110000Y-83680000D03*
%TO.P,SW44,2,2*%
%TO.N,Net-(D54-K)*%
X350660000Y-78740000D03*
X353060000Y-78740000D03*
X350660000Y-81140000D03*
X353060000Y-81140000D03*
%TD*%
D10*
%TO.P,SW43,1,1*%
%TO.N,/ESP32-S3/IO6*%
X319860000Y-82480000D03*
%TO.P,SW43,2,2*%
%TO.N,Net-(D38-A)*%
X332810000Y-79940000D03*
D11*
%TO.P,SW43,1,1*%
%TO.N,/ESP32-S3/IO6*%
X318660000Y-81280000D03*
X321060000Y-81280000D03*
X318660000Y-83680000D03*
X321060000Y-83680000D03*
%TO.P,SW43,2,2*%
%TO.N,Net-(D38-A)*%
X331610000Y-78740000D03*
X334010000Y-78740000D03*
X331610000Y-81140000D03*
X334010000Y-81140000D03*
%TD*%
D10*
%TO.P,SW42,1,1*%
%TO.N,/ESP32-S3/IO6*%
X300810000Y-82480000D03*
%TO.P,SW42,2,2*%
%TO.N,Net-(D37-A)*%
X313760000Y-79940000D03*
D11*
%TO.P,SW42,1,1*%
%TO.N,/ESP32-S3/IO6*%
X299610000Y-81280000D03*
X302010000Y-81280000D03*
X299610000Y-83680000D03*
X302010000Y-83680000D03*
%TO.P,SW42,2,2*%
%TO.N,Net-(D37-A)*%
X312560000Y-78740000D03*
X314960000Y-78740000D03*
X312560000Y-81140000D03*
X314960000Y-81140000D03*
%TD*%
D10*
%TO.P,SW41,1,1*%
%TO.N,/ESP32-S3/IO6*%
X281760000Y-82480000D03*
%TO.P,SW41,2,2*%
%TO.N,Net-(D45-K)*%
X294710000Y-79940000D03*
D11*
%TO.P,SW41,1,1*%
%TO.N,/ESP32-S3/IO6*%
X280560000Y-81280000D03*
X282960000Y-81280000D03*
X280560000Y-83680000D03*
X282960000Y-83680000D03*
%TO.P,SW41,2,2*%
%TO.N,Net-(D45-K)*%
X293510000Y-78740000D03*
X295910000Y-78740000D03*
X293510000Y-81140000D03*
X295910000Y-81140000D03*
%TD*%
D10*
%TO.P,SW40,1,1*%
%TO.N,/ESP32-S3/IO6*%
X262710000Y-82480000D03*
%TO.P,SW40,2,2*%
%TO.N,Net-(D36-A)*%
X275660000Y-79940000D03*
D11*
%TO.P,SW40,1,1*%
%TO.N,/ESP32-S3/IO6*%
X261510000Y-81280000D03*
X263910000Y-81280000D03*
X261510000Y-83680000D03*
X263910000Y-83680000D03*
%TO.P,SW40,2,2*%
%TO.N,Net-(D36-A)*%
X274460000Y-78740000D03*
X276860000Y-78740000D03*
X274460000Y-81140000D03*
X276860000Y-81140000D03*
%TD*%
D10*
%TO.P,SW39,1,1*%
%TO.N,/ESP32-S3/IO6*%
X243660000Y-82480000D03*
%TO.P,SW39,2,2*%
%TO.N,Net-(D44-K)*%
X256610000Y-79940000D03*
D11*
%TO.P,SW39,1,1*%
%TO.N,/ESP32-S3/IO6*%
X242460000Y-81280000D03*
X244860000Y-81280000D03*
X242460000Y-83680000D03*
X244860000Y-83680000D03*
%TO.P,SW39,2,2*%
%TO.N,Net-(D44-K)*%
X255410000Y-78740000D03*
X257810000Y-78740000D03*
X255410000Y-81140000D03*
X257810000Y-81140000D03*
%TD*%
D10*
%TO.P,SW38,1,1*%
%TO.N,/ESP32-S3/IO6*%
X224610000Y-82480000D03*
%TO.P,SW38,2,2*%
%TO.N,Net-(D35-A)*%
X237560000Y-79940000D03*
D11*
%TO.P,SW38,1,1*%
%TO.N,/ESP32-S3/IO6*%
X223410000Y-81280000D03*
X225810000Y-81280000D03*
X223410000Y-83680000D03*
X225810000Y-83680000D03*
%TO.P,SW38,2,2*%
%TO.N,Net-(D35-A)*%
X236360000Y-78740000D03*
X238760000Y-78740000D03*
X236360000Y-81140000D03*
X238760000Y-81140000D03*
%TD*%
D10*
%TO.P,SW37,1,1*%
%TO.N,/ESP32-S3/IO6*%
X205560000Y-82480000D03*
%TO.P,SW37,2,2*%
%TO.N,Net-(D43-K)*%
X218510000Y-79940000D03*
D11*
%TO.P,SW37,1,1*%
%TO.N,/ESP32-S3/IO6*%
X204360000Y-81280000D03*
X206760000Y-81280000D03*
X204360000Y-83680000D03*
X206760000Y-83680000D03*
%TO.P,SW37,2,2*%
%TO.N,Net-(D43-K)*%
X217310000Y-78740000D03*
X219710000Y-78740000D03*
X217310000Y-81140000D03*
X219710000Y-81140000D03*
%TD*%
D10*
%TO.P,SW36,1,1*%
%TO.N,/ESP32-S3/IO6*%
X186510000Y-82480000D03*
%TO.P,SW36,2,2*%
%TO.N,Net-(D34-A)*%
X199460000Y-79940000D03*
D11*
%TO.P,SW36,1,1*%
%TO.N,/ESP32-S3/IO6*%
X185310000Y-81280000D03*
X187710000Y-81280000D03*
X185310000Y-83680000D03*
X187710000Y-83680000D03*
%TO.P,SW36,2,2*%
%TO.N,Net-(D34-A)*%
X198260000Y-78740000D03*
X200660000Y-78740000D03*
X198260000Y-81140000D03*
X200660000Y-81140000D03*
%TD*%
D10*
%TO.P,SW35,1,1*%
%TO.N,/ESP32-S3/IO6*%
X167460000Y-82480000D03*
%TO.P,SW35,2,2*%
%TO.N,Net-(D42-K)*%
X180410000Y-79940000D03*
D11*
%TO.P,SW35,1,1*%
%TO.N,/ESP32-S3/IO6*%
X166260000Y-81280000D03*
X168660000Y-81280000D03*
X166260000Y-83680000D03*
X168660000Y-83680000D03*
%TO.P,SW35,2,2*%
%TO.N,Net-(D42-K)*%
X179210000Y-78740000D03*
X181610000Y-78740000D03*
X179210000Y-81140000D03*
X181610000Y-81140000D03*
%TD*%
D10*
%TO.P,SW34,1,1*%
%TO.N,/ESP32-S3/IO6*%
X148410000Y-82480000D03*
%TO.P,SW34,2,2*%
%TO.N,Net-(D33-A)*%
X161360000Y-79940000D03*
D11*
%TO.P,SW34,1,1*%
%TO.N,/ESP32-S3/IO6*%
X147210000Y-81280000D03*
X149610000Y-81280000D03*
X147210000Y-83680000D03*
X149610000Y-83680000D03*
%TO.P,SW34,2,2*%
%TO.N,Net-(D33-A)*%
X160160000Y-78740000D03*
X162560000Y-78740000D03*
X160160000Y-81140000D03*
X162560000Y-81140000D03*
%TD*%
D10*
%TO.P,SW33,1,1*%
%TO.N,/ESP32-S3/IO6*%
X129360000Y-82480000D03*
%TO.P,SW33,2,2*%
%TO.N,Net-(D41-K)*%
X142310000Y-79940000D03*
D11*
%TO.P,SW33,1,1*%
%TO.N,/ESP32-S3/IO6*%
X128160000Y-81280000D03*
X130560000Y-81280000D03*
X128160000Y-83680000D03*
X130560000Y-83680000D03*
%TO.P,SW33,2,2*%
%TO.N,Net-(D41-K)*%
X141110000Y-78740000D03*
X143510000Y-78740000D03*
X141110000Y-81140000D03*
X143510000Y-81140000D03*
%TD*%
D10*
%TO.P,SW32,1,1*%
%TO.N,/ESP32-S3/IO6*%
X105547500Y-82480000D03*
%TO.P,SW32,2,2*%
%TO.N,Net-(D32-A)*%
X118497500Y-79940000D03*
D11*
%TO.P,SW32,1,1*%
%TO.N,/ESP32-S3/IO6*%
X104347500Y-81280000D03*
X106747500Y-81280000D03*
X104347500Y-83680000D03*
X106747500Y-83680000D03*
%TO.P,SW32,2,2*%
%TO.N,Net-(D32-A)*%
X117297500Y-78740000D03*
X119697500Y-78740000D03*
X117297500Y-81140000D03*
X119697500Y-81140000D03*
%TD*%
D10*
%TO.P,SW31,1,1*%
%TO.N,/ESP32-S3/IO6*%
X391297500Y-63430000D03*
%TO.P,SW31,2,2*%
%TO.N,Net-(D40-K)*%
X404247500Y-60890000D03*
D11*
%TO.P,SW31,1,1*%
%TO.N,/ESP32-S3/IO6*%
X390097500Y-62230000D03*
X392497500Y-62230000D03*
X390097500Y-64630000D03*
X392497500Y-64630000D03*
%TO.P,SW31,2,2*%
%TO.N,Net-(D40-K)*%
X403047500Y-59690000D03*
X405447500Y-59690000D03*
X403047500Y-62090000D03*
X405447500Y-62090000D03*
%TD*%
D10*
%TO.P,SW30,1,1*%
%TO.N,/ESP32-S3/IO6*%
X367485000Y-63430000D03*
%TO.P,SW30,2,2*%
%TO.N,Net-(D31-A)*%
X380435000Y-60890000D03*
D11*
%TO.P,SW30,1,1*%
%TO.N,/ESP32-S3/IO6*%
X366285000Y-62230000D03*
X368685000Y-62230000D03*
X366285000Y-64630000D03*
X368685000Y-64630000D03*
%TO.P,SW30,2,2*%
%TO.N,Net-(D31-A)*%
X379235000Y-59690000D03*
X381635000Y-59690000D03*
X379235000Y-62090000D03*
X381635000Y-62090000D03*
%TD*%
D10*
%TO.P,SW29,1,1*%
%TO.N,/ESP32-S3/IO6*%
X348435000Y-63430000D03*
%TO.P,SW29,2,2*%
%TO.N,Net-(D39-K)*%
X361385000Y-60890000D03*
D11*
%TO.P,SW29,1,1*%
%TO.N,/ESP32-S3/IO6*%
X347235000Y-62230000D03*
X349635000Y-62230000D03*
X347235000Y-64630000D03*
X349635000Y-64630000D03*
%TO.P,SW29,2,2*%
%TO.N,Net-(D39-K)*%
X360185000Y-59690000D03*
X362585000Y-59690000D03*
X360185000Y-62090000D03*
X362585000Y-62090000D03*
%TD*%
D10*
%TO.P,SW28,1,1*%
%TO.N,/ESP32-S3/IO5*%
X329385000Y-63430000D03*
%TO.P,SW28,2,2*%
%TO.N,Net-(D23-A)*%
X342335000Y-60890000D03*
D11*
%TO.P,SW28,1,1*%
%TO.N,/ESP32-S3/IO5*%
X328185000Y-62230000D03*
X330585000Y-62230000D03*
X328185000Y-64630000D03*
X330585000Y-64630000D03*
%TO.P,SW28,2,2*%
%TO.N,Net-(D23-A)*%
X341135000Y-59690000D03*
X343535000Y-59690000D03*
X341135000Y-62090000D03*
X343535000Y-62090000D03*
%TD*%
D10*
%TO.P,SW27,1,1*%
%TO.N,/ESP32-S3/IO5*%
X310335000Y-63430000D03*
%TO.P,SW27,2,2*%
%TO.N,Net-(D30-K)*%
X323285000Y-60890000D03*
D11*
%TO.P,SW27,1,1*%
%TO.N,/ESP32-S3/IO5*%
X309135000Y-62230000D03*
X311535000Y-62230000D03*
X309135000Y-64630000D03*
X311535000Y-64630000D03*
%TO.P,SW27,2,2*%
%TO.N,Net-(D30-K)*%
X322085000Y-59690000D03*
X324485000Y-59690000D03*
X322085000Y-62090000D03*
X324485000Y-62090000D03*
%TD*%
D10*
%TO.P,SW26,1,1*%
%TO.N,/ESP32-S3/IO5*%
X291285000Y-63430000D03*
%TO.P,SW26,2,2*%
%TO.N,Net-(D22-A)*%
X304235000Y-60890000D03*
D11*
%TO.P,SW26,1,1*%
%TO.N,/ESP32-S3/IO5*%
X290085000Y-62230000D03*
X292485000Y-62230000D03*
X290085000Y-64630000D03*
X292485000Y-64630000D03*
%TO.P,SW26,2,2*%
%TO.N,Net-(D22-A)*%
X303035000Y-59690000D03*
X305435000Y-59690000D03*
X303035000Y-62090000D03*
X305435000Y-62090000D03*
%TD*%
D10*
%TO.P,SW25,1,1*%
%TO.N,/ESP32-S3/IO5*%
X272235000Y-63430000D03*
%TO.P,SW25,2,2*%
%TO.N,Net-(D29-K)*%
X285185000Y-60890000D03*
D11*
%TO.P,SW25,1,1*%
%TO.N,/ESP32-S3/IO5*%
X271035000Y-62230000D03*
X273435000Y-62230000D03*
X271035000Y-64630000D03*
X273435000Y-64630000D03*
%TO.P,SW25,2,2*%
%TO.N,Net-(D29-K)*%
X283985000Y-59690000D03*
X286385000Y-59690000D03*
X283985000Y-62090000D03*
X286385000Y-62090000D03*
%TD*%
D10*
%TO.P,SW24,1,1*%
%TO.N,/ESP32-S3/IO5*%
X253185000Y-63430000D03*
%TO.P,SW24,2,2*%
%TO.N,Net-(D21-A)*%
X266135000Y-60890000D03*
D11*
%TO.P,SW24,1,1*%
%TO.N,/ESP32-S3/IO5*%
X251985000Y-62230000D03*
X254385000Y-62230000D03*
X251985000Y-64630000D03*
X254385000Y-64630000D03*
%TO.P,SW24,2,2*%
%TO.N,Net-(D21-A)*%
X264935000Y-59690000D03*
X267335000Y-59690000D03*
X264935000Y-62090000D03*
X267335000Y-62090000D03*
%TD*%
D10*
%TO.P,SW23,1,1*%
%TO.N,/ESP32-S3/IO5*%
X234135000Y-63430000D03*
%TO.P,SW23,2,2*%
%TO.N,Net-(D28-K)*%
X247085000Y-60890000D03*
D11*
%TO.P,SW23,1,1*%
%TO.N,/ESP32-S3/IO5*%
X232935000Y-62230000D03*
X235335000Y-62230000D03*
X232935000Y-64630000D03*
X235335000Y-64630000D03*
%TO.P,SW23,2,2*%
%TO.N,Net-(D28-K)*%
X245885000Y-59690000D03*
X248285000Y-59690000D03*
X245885000Y-62090000D03*
X248285000Y-62090000D03*
%TD*%
D10*
%TO.P,SW22,1,1*%
%TO.N,/ESP32-S3/IO5*%
X215085000Y-63430000D03*
%TO.P,SW22,2,2*%
%TO.N,Net-(D20-A)*%
X228035000Y-60890000D03*
D11*
%TO.P,SW22,1,1*%
%TO.N,/ESP32-S3/IO5*%
X213885000Y-62230000D03*
X216285000Y-62230000D03*
X213885000Y-64630000D03*
X216285000Y-64630000D03*
%TO.P,SW22,2,2*%
%TO.N,Net-(D20-A)*%
X226835000Y-59690000D03*
X229235000Y-59690000D03*
X226835000Y-62090000D03*
X229235000Y-62090000D03*
%TD*%
D10*
%TO.P,SW21,1,1*%
%TO.N,/ESP32-S3/IO5*%
X196035000Y-63430000D03*
%TO.P,SW21,2,2*%
%TO.N,Net-(D27-K)*%
X208985000Y-60890000D03*
D11*
%TO.P,SW21,1,1*%
%TO.N,/ESP32-S3/IO5*%
X194835000Y-62230000D03*
X197235000Y-62230000D03*
X194835000Y-64630000D03*
X197235000Y-64630000D03*
%TO.P,SW21,2,2*%
%TO.N,Net-(D27-K)*%
X207785000Y-59690000D03*
X210185000Y-59690000D03*
X207785000Y-62090000D03*
X210185000Y-62090000D03*
%TD*%
D10*
%TO.P,SW20,1,1*%
%TO.N,/ESP32-S3/IO5*%
X176985000Y-63430000D03*
%TO.P,SW20,2,2*%
%TO.N,Net-(D19-A)*%
X189935000Y-60890000D03*
D11*
%TO.P,SW20,1,1*%
%TO.N,/ESP32-S3/IO5*%
X175785000Y-62230000D03*
X178185000Y-62230000D03*
X175785000Y-64630000D03*
X178185000Y-64630000D03*
%TO.P,SW20,2,2*%
%TO.N,Net-(D19-A)*%
X188735000Y-59690000D03*
X191135000Y-59690000D03*
X188735000Y-62090000D03*
X191135000Y-62090000D03*
%TD*%
D10*
%TO.P,SW19,1,1*%
%TO.N,/ESP32-S3/IO5*%
X157935000Y-63430000D03*
%TO.P,SW19,2,2*%
%TO.N,Net-(D26-K)*%
X170885000Y-60890000D03*
D11*
%TO.P,SW19,1,1*%
%TO.N,/ESP32-S3/IO5*%
X156735000Y-62230000D03*
X159135000Y-62230000D03*
X156735000Y-64630000D03*
X159135000Y-64630000D03*
%TO.P,SW19,2,2*%
%TO.N,Net-(D26-K)*%
X169685000Y-59690000D03*
X172085000Y-59690000D03*
X169685000Y-62090000D03*
X172085000Y-62090000D03*
%TD*%
D10*
%TO.P,SW18,1,1*%
%TO.N,/ESP32-S3/IO5*%
X138885000Y-63430000D03*
%TO.P,SW18,2,2*%
%TO.N,Net-(D18-A)*%
X151835000Y-60890000D03*
D11*
%TO.P,SW18,1,1*%
%TO.N,/ESP32-S3/IO5*%
X137685000Y-62230000D03*
X140085000Y-62230000D03*
X137685000Y-64630000D03*
X140085000Y-64630000D03*
%TO.P,SW18,2,2*%
%TO.N,Net-(D18-A)*%
X150635000Y-59690000D03*
X153035000Y-59690000D03*
X150635000Y-62090000D03*
X153035000Y-62090000D03*
%TD*%
D10*
%TO.P,SW17,1,1*%
%TO.N,/ESP32-S3/IO5*%
X119835000Y-63430000D03*
%TO.P,SW17,2,2*%
%TO.N,Net-(D25-K)*%
X132785000Y-60890000D03*
D11*
%TO.P,SW17,1,1*%
%TO.N,/ESP32-S3/IO5*%
X118635000Y-62230000D03*
X121035000Y-62230000D03*
X118635000Y-64630000D03*
X121035000Y-64630000D03*
%TO.P,SW17,2,2*%
%TO.N,Net-(D25-K)*%
X131585000Y-59690000D03*
X133985000Y-59690000D03*
X131585000Y-62090000D03*
X133985000Y-62090000D03*
%TD*%
D10*
%TO.P,SW16,1,1*%
%TO.N,/ESP32-S3/IO5*%
X100785000Y-63430000D03*
%TO.P,SW16,2,2*%
%TO.N,Net-(D17-A)*%
X113735000Y-60890000D03*
D11*
%TO.P,SW16,1,1*%
%TO.N,/ESP32-S3/IO5*%
X99585000Y-62230000D03*
X101985000Y-62230000D03*
X99585000Y-64630000D03*
X101985000Y-64630000D03*
%TO.P,SW16,2,2*%
%TO.N,Net-(D17-A)*%
X112535000Y-59690000D03*
X114935000Y-59690000D03*
X112535000Y-62090000D03*
X114935000Y-62090000D03*
%TD*%
D10*
%TO.P,SW15,1,1*%
%TO.N,/ESP32-S3/IO5*%
X391297500Y-39617500D03*
%TO.P,SW15,2,2*%
%TO.N,Net-(D24-K)*%
X404247500Y-37077500D03*
D11*
%TO.P,SW15,1,1*%
%TO.N,/ESP32-S3/IO5*%
X390097500Y-38417500D03*
X392497500Y-38417500D03*
X390097500Y-40817500D03*
X392497500Y-40817500D03*
%TO.P,SW15,2,2*%
%TO.N,Net-(D24-K)*%
X403047500Y-35877500D03*
X405447500Y-35877500D03*
X403047500Y-38277500D03*
X405447500Y-38277500D03*
%TD*%
D10*
%TO.P,SW14,1,1*%
%TO.N,/ESP32-S3/IO4*%
X367485000Y-39617500D03*
%TO.P,SW14,2,2*%
%TO.N,Net-(D9-A)*%
X380435000Y-37077500D03*
D11*
%TO.P,SW14,1,1*%
%TO.N,/ESP32-S3/IO4*%
X366285000Y-38417500D03*
X368685000Y-38417500D03*
X366285000Y-40817500D03*
X368685000Y-40817500D03*
%TO.P,SW14,2,2*%
%TO.N,Net-(D9-A)*%
X379235000Y-35877500D03*
X381635000Y-35877500D03*
X379235000Y-38277500D03*
X381635000Y-38277500D03*
%TD*%
D10*
%TO.P,SW13,1,1*%
%TO.N,/ESP32-S3/IO4*%
X343672500Y-39617500D03*
%TO.P,SW13,2,2*%
%TO.N,Net-(D16-K)*%
X356622500Y-37077500D03*
D11*
%TO.P,SW13,1,1*%
%TO.N,/ESP32-S3/IO4*%
X342472500Y-38417500D03*
X344872500Y-38417500D03*
X342472500Y-40817500D03*
X344872500Y-40817500D03*
%TO.P,SW13,2,2*%
%TO.N,Net-(D16-K)*%
X355422500Y-35877500D03*
X357822500Y-35877500D03*
X355422500Y-38277500D03*
X357822500Y-38277500D03*
%TD*%
D10*
%TO.P,SW12,1,1*%
%TO.N,/ESP32-S3/IO4*%
X324622500Y-39617500D03*
%TO.P,SW12,2,2*%
%TO.N,Net-(D8-A)*%
X337572500Y-37077500D03*
D11*
%TO.P,SW12,1,1*%
%TO.N,/ESP32-S3/IO4*%
X323422500Y-38417500D03*
X325822500Y-38417500D03*
X323422500Y-40817500D03*
X325822500Y-40817500D03*
%TO.P,SW12,2,2*%
%TO.N,Net-(D8-A)*%
X336372500Y-35877500D03*
X338772500Y-35877500D03*
X336372500Y-38277500D03*
X338772500Y-38277500D03*
%TD*%
D10*
%TO.P,SW11,1,1*%
%TO.N,/ESP32-S3/IO4*%
X305572500Y-39617500D03*
%TO.P,SW11,2,2*%
%TO.N,Net-(D15-K)*%
X318522500Y-37077500D03*
D11*
%TO.P,SW11,1,1*%
%TO.N,/ESP32-S3/IO4*%
X304372500Y-38417500D03*
X306772500Y-38417500D03*
X304372500Y-40817500D03*
X306772500Y-40817500D03*
%TO.P,SW11,2,2*%
%TO.N,Net-(D15-K)*%
X317322500Y-35877500D03*
X319722500Y-35877500D03*
X317322500Y-38277500D03*
X319722500Y-38277500D03*
%TD*%
D10*
%TO.P,SW10,1,1*%
%TO.N,/ESP32-S3/IO4*%
X286522500Y-39617500D03*
%TO.P,SW10,2,2*%
%TO.N,Net-(D7-A)*%
X299472500Y-37077500D03*
D11*
%TO.P,SW10,1,1*%
%TO.N,/ESP32-S3/IO4*%
X285322500Y-38417500D03*
X287722500Y-38417500D03*
X285322500Y-40817500D03*
X287722500Y-40817500D03*
%TO.P,SW10,2,2*%
%TO.N,Net-(D7-A)*%
X298272500Y-35877500D03*
X300672500Y-35877500D03*
X298272500Y-38277500D03*
X300672500Y-38277500D03*
%TD*%
D10*
%TO.P,SW9,1,1*%
%TO.N,/ESP32-S3/IO4*%
X262710000Y-39617500D03*
%TO.P,SW9,2,2*%
%TO.N,Net-(D14-K)*%
X275660000Y-37077500D03*
D11*
%TO.P,SW9,1,1*%
%TO.N,/ESP32-S3/IO4*%
X261510000Y-38417500D03*
X263910000Y-38417500D03*
X261510000Y-40817500D03*
X263910000Y-40817500D03*
%TO.P,SW9,2,2*%
%TO.N,Net-(D14-K)*%
X274460000Y-35877500D03*
X276860000Y-35877500D03*
X274460000Y-38277500D03*
X276860000Y-38277500D03*
%TD*%
D10*
%TO.P,SW8,1,1*%
%TO.N,/ESP32-S3/IO4*%
X243660000Y-39617500D03*
%TO.P,SW8,2,2*%
%TO.N,Net-(D6-A)*%
X256610000Y-37077500D03*
D11*
%TO.P,SW8,1,1*%
%TO.N,/ESP32-S3/IO4*%
X242460000Y-38417500D03*
X244860000Y-38417500D03*
X242460000Y-40817500D03*
X244860000Y-40817500D03*
%TO.P,SW8,2,2*%
%TO.N,Net-(D6-A)*%
X255410000Y-35877500D03*
X257810000Y-35877500D03*
X255410000Y-38277500D03*
X257810000Y-38277500D03*
%TD*%
D10*
%TO.P,SW7,1,1*%
%TO.N,/ESP32-S3/IO4*%
X224610000Y-39617500D03*
%TO.P,SW7,2,2*%
%TO.N,Net-(D13-K)*%
X237560000Y-37077500D03*
D11*
%TO.P,SW7,1,1*%
%TO.N,/ESP32-S3/IO4*%
X223410000Y-38417500D03*
X225810000Y-38417500D03*
X223410000Y-40817500D03*
X225810000Y-40817500D03*
%TO.P,SW7,2,2*%
%TO.N,Net-(D13-K)*%
X236360000Y-35877500D03*
X238760000Y-35877500D03*
X236360000Y-38277500D03*
X238760000Y-38277500D03*
%TD*%
D10*
%TO.P,SW6,1,1*%
%TO.N,/ESP32-S3/IO4*%
X205560000Y-39617500D03*
%TO.P,SW6,2,2*%
%TO.N,Net-(D5-A)*%
X218510000Y-37077500D03*
D11*
%TO.P,SW6,1,1*%
%TO.N,/ESP32-S3/IO4*%
X204360000Y-38417500D03*
X206760000Y-38417500D03*
X204360000Y-40817500D03*
X206760000Y-40817500D03*
%TO.P,SW6,2,2*%
%TO.N,Net-(D5-A)*%
X217310000Y-35877500D03*
X219710000Y-35877500D03*
X217310000Y-38277500D03*
X219710000Y-38277500D03*
%TD*%
D10*
%TO.P,SW5,1,1*%
%TO.N,/ESP32-S3/IO4*%
X181747500Y-39617500D03*
%TO.P,SW5,2,2*%
%TO.N,Net-(D12-K)*%
X194697500Y-37077500D03*
D11*
%TO.P,SW5,1,1*%
%TO.N,/ESP32-S3/IO4*%
X180547500Y-38417500D03*
X182947500Y-38417500D03*
X180547500Y-40817500D03*
X182947500Y-40817500D03*
%TO.P,SW5,2,2*%
%TO.N,Net-(D12-K)*%
X193497500Y-35877500D03*
X195897500Y-35877500D03*
X193497500Y-38277500D03*
X195897500Y-38277500D03*
%TD*%
D10*
%TO.P,SW4,1,1*%
%TO.N,/ESP32-S3/IO4*%
X162697500Y-39617500D03*
%TO.P,SW4,2,2*%
%TO.N,Net-(D4-A)*%
X175647500Y-37077500D03*
D11*
%TO.P,SW4,1,1*%
%TO.N,/ESP32-S3/IO4*%
X161497500Y-38417500D03*
X163897500Y-38417500D03*
X161497500Y-40817500D03*
X163897500Y-40817500D03*
%TO.P,SW4,2,2*%
%TO.N,Net-(D4-A)*%
X174447500Y-35877500D03*
X176847500Y-35877500D03*
X174447500Y-38277500D03*
X176847500Y-38277500D03*
%TD*%
D10*
%TO.P,SW3,1,1*%
%TO.N,/ESP32-S3/IO4*%
X143647500Y-39617500D03*
%TO.P,SW3,2,2*%
%TO.N,Net-(D11-K)*%
X156597500Y-37077500D03*
D11*
%TO.P,SW3,1,1*%
%TO.N,/ESP32-S3/IO4*%
X142447500Y-38417500D03*
X144847500Y-38417500D03*
X142447500Y-40817500D03*
X144847500Y-40817500D03*
%TO.P,SW3,2,2*%
%TO.N,Net-(D11-K)*%
X155397500Y-35877500D03*
X157797500Y-35877500D03*
X155397500Y-38277500D03*
X157797500Y-38277500D03*
%TD*%
D10*
%TO.P,SW2,1,1*%
%TO.N,/ESP32-S3/IO4*%
X124597500Y-39617500D03*
%TO.P,SW2,2,2*%
%TO.N,Net-(D3-A)*%
X137547500Y-37077500D03*
D11*
%TO.P,SW2,1,1*%
%TO.N,/ESP32-S3/IO4*%
X123397500Y-38417500D03*
X125797500Y-38417500D03*
X123397500Y-40817500D03*
X125797500Y-40817500D03*
%TO.P,SW2,2,2*%
%TO.N,Net-(D3-A)*%
X136347500Y-35877500D03*
X138747500Y-35877500D03*
X136347500Y-38277500D03*
X138747500Y-38277500D03*
%TD*%
D10*
%TO.P,SW1,1,1*%
%TO.N,/ESP32-S3/IO4*%
X100785000Y-39617500D03*
%TO.P,SW1,2,2*%
%TO.N,Net-(D10-K)*%
X113735000Y-37077500D03*
D11*
%TO.P,SW1,1,1*%
%TO.N,/ESP32-S3/IO4*%
X99585000Y-38417500D03*
X101985000Y-38417500D03*
X99585000Y-40817500D03*
X101985000Y-40817500D03*
%TO.P,SW1,2,2*%
%TO.N,Net-(D10-K)*%
X112535000Y-35877500D03*
X114935000Y-35877500D03*
X112535000Y-38277500D03*
X114935000Y-38277500D03*
%TD*%
D12*
%TO.P,D90,2,A*%
%TO.N,/ESP32-S3/IO12*%
X363045000Y-143320000D03*
%TO.P,D90,1,K*%
%TO.N,Net-(D90-K)*%
X363045000Y-140020000D03*
%TD*%
%TO.P,D89,2,A*%
%TO.N,/ESP32-S3/IO11*%
X320182500Y-143320000D03*
%TO.P,D89,1,K*%
%TO.N,Net-(D89-K)*%
X320182500Y-140020000D03*
%TD*%
%TO.P,D88,2,A*%
%TO.N,/ESP32-S3/IO10*%
X282082500Y-143320000D03*
%TO.P,D88,1,K*%
%TO.N,Net-(D88-K)*%
X282082500Y-140020000D03*
%TD*%
%TO.P,D87,2,A*%
%TO.N,/ESP32-S3/IO9*%
X201120000Y-143320000D03*
%TO.P,D87,1,K*%
%TO.N,Net-(D87-K)*%
X201120000Y-140020000D03*
%TD*%
%TO.P,D86,2,A*%
%TO.N,/ESP32-S3/IO8*%
X163020000Y-143320000D03*
%TO.P,D86,1,K*%
%TO.N,Net-(D86-K)*%
X163020000Y-140020000D03*
%TD*%
%TO.P,D85,2,A*%
%TO.N,/ESP32-S3/IO18*%
X117776250Y-143320000D03*
%TO.P,D85,1,K*%
%TO.N,Net-(D85-K)*%
X117776250Y-140020000D03*
%TD*%
%TO.P,D84,2,A*%
%TO.N,/ESP32-S3/IO17*%
X382095000Y-124270000D03*
%TO.P,D84,1,K*%
%TO.N,Net-(D84-K)*%
X382095000Y-120970000D03*
%TD*%
D13*
%TO.P,D82,2,A*%
%TO.N,Net-(D82-A)*%
X382095000Y-140020000D03*
%TO.P,D82,1,K*%
%TO.N,/ESP32-S3/IO12*%
X382095000Y-143320000D03*
%TD*%
%TO.P,D81,2,A*%
%TO.N,Net-(D81-A)*%
X343995000Y-140020000D03*
%TO.P,D81,1,K*%
%TO.N,/ESP32-S3/IO11*%
X343995000Y-143320000D03*
%TD*%
%TO.P,D80,2,A*%
%TO.N,Net-(D80-A)*%
X301132500Y-140020000D03*
%TO.P,D80,1,K*%
%TO.N,/ESP32-S3/IO10*%
X301132500Y-143320000D03*
%TD*%
%TO.P,D79,2,A*%
%TO.N,Net-(D79-A)*%
X241601250Y-140020000D03*
%TO.P,D79,1,K*%
%TO.N,/ESP32-S3/IO9*%
X241601250Y-143320000D03*
%TD*%
%TO.P,D78,2,A*%
%TO.N,Net-(D78-A)*%
X182070000Y-140020000D03*
%TO.P,D78,1,K*%
%TO.N,/ESP32-S3/IO8*%
X182070000Y-143320000D03*
%TD*%
%TO.P,D77,2,A*%
%TO.N,Net-(D77-A)*%
X143970000Y-140020000D03*
%TO.P,D77,1,K*%
%TO.N,/ESP32-S3/IO18*%
X143970000Y-143320000D03*
%TD*%
%TO.P,D76,2,A*%
%TO.N,Net-(D76-A)*%
X405907500Y-120970000D03*
%TO.P,D76,1,K*%
%TO.N,/ESP32-S3/IO17*%
X405907500Y-124270000D03*
%TD*%
D12*
%TO.P,D75,2,A*%
%TO.N,/ESP32-S3/IO12*%
X324945000Y-124270000D03*
%TO.P,D75,1,K*%
%TO.N,Net-(D75-K)*%
X324945000Y-120970000D03*
%TD*%
%TO.P,D74,2,A*%
%TO.N,/ESP32-S3/IO11*%
X286845000Y-124270000D03*
%TO.P,D74,1,K*%
%TO.N,Net-(D74-K)*%
X286845000Y-120970000D03*
%TD*%
%TO.P,D73,2,A*%
%TO.N,/ESP32-S3/IO10*%
X248745000Y-124270000D03*
%TO.P,D73,1,K*%
%TO.N,Net-(D73-K)*%
X248745000Y-120970000D03*
%TD*%
%TO.P,D72,2,A*%
%TO.N,/ESP32-S3/IO9*%
X210645000Y-124270000D03*
%TO.P,D72,1,K*%
%TO.N,Net-(D72-K)*%
X210645000Y-120970000D03*
%TD*%
%TO.P,D71,2,A*%
%TO.N,/ESP32-S3/IO8*%
X172545000Y-124270000D03*
%TO.P,D71,1,K*%
%TO.N,Net-(D71-K)*%
X172545000Y-120970000D03*
%TD*%
%TO.P,D70,2,A*%
%TO.N,/ESP32-S3/IO18*%
X124920000Y-124270000D03*
%TO.P,D70,1,K*%
%TO.N,Net-(D70-K)*%
X124920000Y-120970000D03*
%TD*%
%TO.P,D69,2,A*%
%TO.N,/ESP32-S3/IO17*%
X358282500Y-105220000D03*
%TO.P,D69,1,K*%
%TO.N,Net-(D69-K)*%
X358282500Y-101920000D03*
%TD*%
D13*
%TO.P,D68,2,A*%
%TO.N,Net-(D68-A)*%
X363045000Y-120970000D03*
%TO.P,D68,1,K*%
%TO.N,/ESP32-S3/IO13*%
X363045000Y-124270000D03*
%TD*%
%TO.P,D67,2,A*%
%TO.N,Net-(D67-A)*%
X343995000Y-120970000D03*
%TO.P,D67,1,K*%
%TO.N,/ESP32-S3/IO12*%
X343995000Y-124270000D03*
%TD*%
%TO.P,D66,2,A*%
%TO.N,Net-(D66-A)*%
X305895000Y-120970000D03*
%TO.P,D66,1,K*%
%TO.N,/ESP32-S3/IO11*%
X305895000Y-124270000D03*
%TD*%
%TO.P,D65,2,A*%
%TO.N,Net-(D65-A)*%
X267795000Y-120970000D03*
%TO.P,D65,1,K*%
%TO.N,/ESP32-S3/IO10*%
X267795000Y-124270000D03*
%TD*%
%TO.P,D64,2,A*%
%TO.N,Net-(D64-A)*%
X229695000Y-120970000D03*
%TO.P,D64,1,K*%
%TO.N,/ESP32-S3/IO9*%
X229695000Y-124270000D03*
%TD*%
%TO.P,D63,2,A*%
%TO.N,Net-(D63-A)*%
X191595000Y-120970000D03*
%TO.P,D63,1,K*%
%TO.N,/ESP32-S3/IO8*%
X191595000Y-124270000D03*
%TD*%
%TO.P,D62,2,A*%
%TO.N,Net-(D62-A)*%
X153495000Y-120970000D03*
%TO.P,D62,1,K*%
%TO.N,/ESP32-S3/IO18*%
X153495000Y-124270000D03*
%TD*%
%TO.P,D61,2,A*%
%TO.N,Net-(D61-A)*%
X405907500Y-101920000D03*
%TO.P,D61,1,K*%
%TO.N,/ESP32-S3/IO17*%
X405907500Y-105220000D03*
%TD*%
D12*
%TO.P,D60,2,A*%
%TO.N,/ESP32-S3/IO12*%
X301132500Y-105220000D03*
%TO.P,D60,1,K*%
%TO.N,Net-(D60-K)*%
X301132500Y-101920000D03*
%TD*%
%TO.P,D59,2,A*%
%TO.N,/ESP32-S3/IO11*%
X263032500Y-105220000D03*
%TO.P,D59,1,K*%
%TO.N,Net-(D59-K)*%
X263032500Y-101920000D03*
%TD*%
%TO.P,D58,2,A*%
%TO.N,/ESP32-S3/IO10*%
X224932500Y-105220000D03*
%TO.P,D58,1,K*%
%TO.N,Net-(D58-K)*%
X224932500Y-101920000D03*
%TD*%
%TO.P,D57,2,A*%
%TO.N,/ESP32-S3/IO9*%
X186832500Y-105220000D03*
%TO.P,D57,1,K*%
%TO.N,Net-(D57-K)*%
X186832500Y-101920000D03*
%TD*%
%TO.P,D56,2,A*%
%TO.N,/ESP32-S3/IO8*%
X148732500Y-105220000D03*
%TO.P,D56,1,K*%
%TO.N,Net-(D56-K)*%
X148732500Y-101920000D03*
%TD*%
%TO.P,D55,2,A*%
%TO.N,/ESP32-S3/IO18*%
X405907500Y-86170000D03*
%TO.P,D55,1,K*%
%TO.N,Net-(D55-K)*%
X405907500Y-82870000D03*
%TD*%
%TO.P,D54,2,A*%
%TO.N,/ESP32-S3/IO17*%
X353520000Y-86170000D03*
%TO.P,D54,1,K*%
%TO.N,Net-(D54-K)*%
X353520000Y-82870000D03*
%TD*%
D13*
%TO.P,D53,2,A*%
%TO.N,Net-(D53-A)*%
X339232500Y-101920000D03*
%TO.P,D53,1,K*%
%TO.N,/ESP32-S3/IO13*%
X339232500Y-105220000D03*
%TD*%
%TO.P,D52,2,A*%
%TO.N,Net-(D52-A)*%
X320182500Y-101920000D03*
%TO.P,D52,1,K*%
%TO.N,/ESP32-S3/IO12*%
X320182500Y-105220000D03*
%TD*%
%TO.P,D51,2,A*%
%TO.N,Net-(D51-A)*%
X282082500Y-101920000D03*
%TO.P,D51,1,K*%
%TO.N,/ESP32-S3/IO11*%
X282082500Y-105220000D03*
%TD*%
%TO.P,D50,2,A*%
%TO.N,Net-(D50-A)*%
X243982500Y-101920000D03*
%TO.P,D50,1,K*%
%TO.N,/ESP32-S3/IO10*%
X243982500Y-105220000D03*
%TD*%
%TO.P,D49,2,A*%
%TO.N,Net-(D49-A)*%
X205882500Y-101920000D03*
%TO.P,D49,1,K*%
%TO.N,/ESP32-S3/IO9*%
X205882500Y-105220000D03*
%TD*%
%TO.P,D48,2,A*%
%TO.N,Net-(D48-A)*%
X167782500Y-101920000D03*
%TO.P,D48,1,K*%
%TO.N,/ESP32-S3/IO8*%
X167782500Y-105220000D03*
%TD*%
%TO.P,D47,2,A*%
%TO.N,Net-(D47-A)*%
X122538750Y-101920000D03*
%TO.P,D47,1,K*%
%TO.N,/ESP32-S3/IO18*%
X122538750Y-105220000D03*
%TD*%
%TO.P,D46,2,A*%
%TO.N,Net-(D46-A)*%
X379713750Y-92395000D03*
%TO.P,D46,1,K*%
%TO.N,/ESP32-S3/IO17*%
X379713750Y-95695000D03*
%TD*%
D12*
%TO.P,D45,2,A*%
%TO.N,/ESP32-S3/IO12*%
X296370000Y-86170000D03*
%TO.P,D45,1,K*%
%TO.N,Net-(D45-K)*%
X296370000Y-82870000D03*
%TD*%
%TO.P,D44,2,A*%
%TO.N,/ESP32-S3/IO11*%
X258270000Y-86170000D03*
%TO.P,D44,1,K*%
%TO.N,Net-(D44-K)*%
X258270000Y-82870000D03*
%TD*%
%TO.P,D43,2,A*%
%TO.N,/ESP32-S3/IO10*%
X220170000Y-86170000D03*
%TO.P,D43,1,K*%
%TO.N,Net-(D43-K)*%
X220170000Y-82870000D03*
%TD*%
%TO.P,D42,2,A*%
%TO.N,/ESP32-S3/IO9*%
X182070000Y-86170000D03*
%TO.P,D42,1,K*%
%TO.N,Net-(D42-K)*%
X182070000Y-82870000D03*
%TD*%
%TO.P,D41,2,A*%
%TO.N,/ESP32-S3/IO8*%
X143970000Y-86170000D03*
%TO.P,D41,1,K*%
%TO.N,Net-(D41-K)*%
X143970000Y-82870000D03*
%TD*%
%TO.P,D40,2,A*%
%TO.N,/ESP32-S3/IO18*%
X405907500Y-67120000D03*
%TO.P,D40,1,K*%
%TO.N,Net-(D40-K)*%
X405907500Y-63820000D03*
%TD*%
%TO.P,D39,2,A*%
%TO.N,/ESP32-S3/IO17*%
X363045000Y-67120000D03*
%TO.P,D39,1,K*%
%TO.N,Net-(D39-K)*%
X363045000Y-63820000D03*
%TD*%
D13*
%TO.P,D38,2,A*%
%TO.N,Net-(D38-A)*%
X334470000Y-82870000D03*
%TO.P,D38,1,K*%
%TO.N,/ESP32-S3/IO13*%
X334470000Y-86170000D03*
%TD*%
%TO.P,D37,2,A*%
%TO.N,Net-(D37-A)*%
X315420000Y-82870000D03*
%TO.P,D37,1,K*%
%TO.N,/ESP32-S3/IO12*%
X315420000Y-86170000D03*
%TD*%
%TO.P,D36,2,A*%
%TO.N,Net-(D36-A)*%
X277320000Y-82870000D03*
%TO.P,D36,1,K*%
%TO.N,/ESP32-S3/IO11*%
X277320000Y-86170000D03*
%TD*%
%TO.P,D35,2,A*%
%TO.N,Net-(D35-A)*%
X239220000Y-82870000D03*
%TO.P,D35,1,K*%
%TO.N,/ESP32-S3/IO10*%
X239220000Y-86170000D03*
%TD*%
%TO.P,D34,2,A*%
%TO.N,Net-(D34-A)*%
X201120000Y-82870000D03*
%TO.P,D34,1,K*%
%TO.N,/ESP32-S3/IO9*%
X201120000Y-86170000D03*
%TD*%
%TO.P,D33,2,A*%
%TO.N,Net-(D33-A)*%
X163020000Y-82870000D03*
%TO.P,D33,1,K*%
%TO.N,/ESP32-S3/IO8*%
X163020000Y-86170000D03*
%TD*%
%TO.P,D32,2,A*%
%TO.N,Net-(D32-A)*%
X120157500Y-82870000D03*
%TO.P,D32,1,K*%
%TO.N,/ESP32-S3/IO18*%
X120157500Y-86170000D03*
%TD*%
%TO.P,D31,2,A*%
%TO.N,Net-(D31-A)*%
X382095000Y-63820000D03*
%TO.P,D31,1,K*%
%TO.N,/ESP32-S3/IO17*%
X382095000Y-67120000D03*
%TD*%
D12*
%TO.P,D30,2,A*%
%TO.N,/ESP32-S3/IO12*%
X324945000Y-67120000D03*
%TO.P,D30,1,K*%
%TO.N,Net-(D30-K)*%
X324945000Y-63820000D03*
%TD*%
%TO.P,D29,2,A*%
%TO.N,/ESP32-S3/IO11*%
X286845000Y-67120000D03*
%TO.P,D29,1,K*%
%TO.N,Net-(D29-K)*%
X286845000Y-63820000D03*
%TD*%
%TO.P,D28,2,A*%
%TO.N,/ESP32-S3/IO10*%
X248745000Y-67120000D03*
%TO.P,D28,1,K*%
%TO.N,Net-(D28-K)*%
X248745000Y-63820000D03*
%TD*%
%TO.P,D27,2,A*%
%TO.N,/ESP32-S3/IO9*%
X210645000Y-67120000D03*
%TO.P,D27,1,K*%
%TO.N,Net-(D27-K)*%
X210645000Y-63820000D03*
%TD*%
%TO.P,D26,2,A*%
%TO.N,/ESP32-S3/IO8*%
X172545000Y-67120000D03*
%TO.P,D26,1,K*%
%TO.N,Net-(D26-K)*%
X172545000Y-63820000D03*
%TD*%
%TO.P,D25,2,A*%
%TO.N,/ESP32-S3/IO18*%
X134445000Y-67120000D03*
%TO.P,D25,1,K*%
%TO.N,Net-(D25-K)*%
X134445000Y-63820000D03*
%TD*%
%TO.P,D24,2,A*%
%TO.N,/ESP32-S3/IO17*%
X405907500Y-43307500D03*
%TO.P,D24,1,K*%
%TO.N,Net-(D24-K)*%
X405907500Y-40007500D03*
%TD*%
D13*
%TO.P,D23,2,A*%
%TO.N,Net-(D23-A)*%
X343995000Y-63820000D03*
%TO.P,D23,1,K*%
%TO.N,/ESP32-S3/IO12*%
X343995000Y-67120000D03*
%TD*%
%TO.P,D22,2,A*%
%TO.N,Net-(D22-A)*%
X305895000Y-63820000D03*
%TO.P,D22,1,K*%
%TO.N,/ESP32-S3/IO11*%
X305895000Y-67120000D03*
%TD*%
%TO.P,D21,2,A*%
%TO.N,Net-(D21-A)*%
X267795000Y-63820000D03*
%TO.P,D21,1,K*%
%TO.N,/ESP32-S3/IO10*%
X267795000Y-67120000D03*
%TD*%
%TO.P,D20,2,A*%
%TO.N,Net-(D20-A)*%
X229695000Y-63820000D03*
%TO.P,D20,1,K*%
%TO.N,/ESP32-S3/IO9*%
X229695000Y-67120000D03*
%TD*%
%TO.P,D19,2,A*%
%TO.N,Net-(D19-A)*%
X191595000Y-63820000D03*
%TO.P,D19,1,K*%
%TO.N,/ESP32-S3/IO8*%
X191595000Y-67120000D03*
%TD*%
%TO.P,D18,2,A*%
%TO.N,Net-(D18-A)*%
X153495000Y-63820000D03*
%TO.P,D18,1,K*%
%TO.N,/ESP32-S3/IO18*%
X153495000Y-67120000D03*
%TD*%
%TO.P,D17,2,A*%
%TO.N,Net-(D17-A)*%
X115395000Y-63820000D03*
%TO.P,D17,1,K*%
%TO.N,/ESP32-S3/IO17*%
X115395000Y-67120000D03*
%TD*%
D12*
%TO.P,D16,2,A*%
%TO.N,/ESP32-S3/IO12*%
X358282500Y-43307500D03*
%TO.P,D16,1,K*%
%TO.N,Net-(D16-K)*%
X358282500Y-40007500D03*
%TD*%
%TO.P,D15,2,A*%
%TO.N,/ESP32-S3/IO11*%
X320182500Y-43307500D03*
%TO.P,D15,1,K*%
%TO.N,Net-(D15-K)*%
X320182500Y-40007500D03*
%TD*%
%TO.P,D14,2,A*%
%TO.N,/ESP32-S3/IO10*%
X277320000Y-43307500D03*
%TO.P,D14,1,K*%
%TO.N,Net-(D14-K)*%
X277320000Y-40007500D03*
%TD*%
%TO.P,D13,2,A*%
%TO.N,/ESP32-S3/IO9*%
X239220000Y-43307500D03*
%TO.P,D13,1,K*%
%TO.N,Net-(D13-K)*%
X239220000Y-40007500D03*
%TD*%
%TO.P,D12,2,A*%
%TO.N,/ESP32-S3/IO8*%
X196357500Y-43307500D03*
%TO.P,D12,1,K*%
%TO.N,Net-(D12-K)*%
X196357500Y-40007500D03*
%TD*%
%TO.P,D11,2,A*%
%TO.N,/ESP32-S3/IO18*%
X158257500Y-43307500D03*
%TO.P,D11,1,K*%
%TO.N,Net-(D11-K)*%
X158257500Y-40007500D03*
%TD*%
%TO.P,D10,2,A*%
%TO.N,/ESP32-S3/IO17*%
X115395000Y-43307500D03*
%TO.P,D10,1,K*%
%TO.N,Net-(D10-K)*%
X115395000Y-40007500D03*
%TD*%
D13*
%TO.P,D9,2,A*%
%TO.N,Net-(D9-A)*%
X382095000Y-40007500D03*
%TO.P,D9,1,K*%
%TO.N,/ESP32-S3/IO12*%
X382095000Y-43307500D03*
%TD*%
%TO.P,D8,2,A*%
%TO.N,Net-(D8-A)*%
X339232500Y-40007500D03*
%TO.P,D8,1,K*%
%TO.N,/ESP32-S3/IO11*%
X339232500Y-43307500D03*
%TD*%
%TO.P,D7,2,A*%
%TO.N,Net-(D7-A)*%
X301132500Y-40007500D03*
%TO.P,D7,1,K*%
%TO.N,/ESP32-S3/IO10*%
X301132500Y-43307500D03*
%TD*%
%TO.P,D6,2,A*%
%TO.N,Net-(D6-A)*%
X258270000Y-40007500D03*
%TO.P,D6,1,K*%
%TO.N,/ESP32-S3/IO9*%
X258270000Y-43307500D03*
%TD*%
%TO.P,D5,2,A*%
%TO.N,Net-(D5-A)*%
X220170000Y-40007500D03*
%TO.P,D5,1,K*%
%TO.N,/ESP32-S3/IO8*%
X220170000Y-43307500D03*
%TD*%
%TO.P,D4,2,A*%
%TO.N,Net-(D4-A)*%
X177307500Y-40007500D03*
%TO.P,D4,1,K*%
%TO.N,/ESP32-S3/IO18*%
X177307500Y-43307500D03*
%TD*%
%TO.P,D3,2,A*%
%TO.N,Net-(D3-A)*%
X139207500Y-40007500D03*
%TO.P,D3,1,K*%
%TO.N,/ESP32-S3/IO17*%
X139207500Y-43307500D03*
%TD*%
D14*
%TO.P,EN2,S2,S2*%
%TO.N,/ESP32-S3/enc2_SW_IO48*%
X90820000Y-88340000D03*
%TO.P,EN2,S1,S1*%
%TO.N,+3.3V*%
X90820000Y-83340000D03*
D15*
%TO.P,EN2,MP*%
%TO.N,N/C*%
X83820000Y-91440000D03*
X83820000Y-80240000D03*
D14*
%TO.P,EN2,C,C*%
%TO.N,GND*%
X76320000Y-85840000D03*
%TO.P,EN2,B,B*%
%TO.N,Net-(EN2-PadB)*%
X76320000Y-88340000D03*
%TO.P,EN2,A,A*%
%TO.N,Net-(EN2-PadA)*%
X76320000Y-83340000D03*
%TD*%
%TO.P,EN3,S2,S2*%
%TO.N,/ESP32-S3/enc3_SW_IO47*%
X66273000Y-115840000D03*
%TO.P,EN3,S1,S1*%
%TO.N,+3.3V*%
X61273000Y-115840000D03*
D16*
%TO.P,EN3,MP*%
%TO.N,N/C*%
X69373000Y-122840000D03*
X58173000Y-122840000D03*
D14*
%TO.P,EN3,C,C*%
%TO.N,GND*%
X63773000Y-130340000D03*
%TO.P,EN3,B,B*%
%TO.N,Net-(EN3-PadB)*%
X66273000Y-130340000D03*
%TO.P,EN3,A,A*%
%TO.N,Net-(EN3-PadA)*%
X61273000Y-130340000D03*
%TD*%
%TO.P,EN1,S2,S2*%
%TO.N,/ESP32-S3/enc1_SW_IO38*%
X36773000Y-83340000D03*
%TO.P,EN1,S1,S1*%
%TO.N,+3.3V*%
X36773000Y-88340000D03*
D15*
%TO.P,EN1,MP*%
%TO.N,N/C*%
X43773000Y-80240000D03*
X43773000Y-91440000D03*
D14*
%TO.P,EN1,C,C*%
%TO.N,GND*%
X51273000Y-85840000D03*
%TO.P,EN1,B,B*%
%TO.N,Net-(EN1-PadB)*%
X51273000Y-83340000D03*
%TO.P,EN1,A,A*%
%TO.N,Net-(EN1-PadA)*%
X51273000Y-88340000D03*
%TD*%
D17*
%TO.P,R10,2*%
%TO.N,GND*%
X32033600Y-73217800D03*
%TO.P,R10,1*%
%TO.N,Net-(Q6-C)*%
X30208600Y-73217800D03*
%TD*%
D18*
%TO.P,Q2,3,D*%
%TO.N,/ESP32-S3/IO0*%
X43870000Y-74153000D03*
%TO.P,Q2,2,S*%
%TO.N,/ESP32-S3/DTR*%
X44820000Y-72278000D03*
%TO.P,Q2,1,G*%
%TO.N,Net-(Q2-G)*%
X42920000Y-72278000D03*
%TD*%
D19*
%TO.P,R1,2*%
%TO.N,Net-(J1-Pin_2)*%
X35970600Y-61098200D03*
%TO.P,R1,1*%
%TO.N,Net-(D1-A)*%
X35970600Y-59273200D03*
%TD*%
%TO.P,R19,2*%
%TO.N,Net-(EN1-PadB)*%
X49005400Y-83475900D03*
%TO.P,R19,1*%
%TO.N,/ESP32-S3/enc1_B_IO42*%
X49005400Y-81650900D03*
%TD*%
D20*
%TO.P,C8,2*%
%TO.N,GND*%
X69520000Y-54171100D03*
%TO.P,C8,1*%
%TO.N,+3.3V*%
X69520000Y-55896100D03*
%TD*%
D21*
%TO.P,R22,2*%
%TO.N,/ESP32-S3/enc3_A_IO2*%
X59161000Y-128411500D03*
%TO.P,R22,1*%
%TO.N,Net-(EN3-PadA)*%
X59161000Y-130236500D03*
%TD*%
D22*
%TO.P,J2,S1,SHIELD*%
%TO.N,GND*%
X46443000Y-59635000D03*
D23*
X46443000Y-55455000D03*
D22*
X37803000Y-59635000D03*
D23*
X37803000Y-55455000D03*
D24*
%TO.P,J2,B12,GND*%
X38923000Y-60210000D03*
%TO.P,J2,B9,VBUS*%
%TO.N,Net-(Q3-E)*%
X39723000Y-60210000D03*
D25*
%TO.P,J2,B8,SBU2*%
%TO.N,unconnected-(J2-SBU2-PadB8)*%
X40373000Y-60210000D03*
%TO.P,J2,B7,D-*%
%TO.N,/ESP32-S3/D-*%
X41373000Y-60210000D03*
%TO.P,J2,B6,D+*%
%TO.N,/ESP32-S3/D+*%
X42873000Y-60210000D03*
%TO.P,J2,B5,CC2*%
%TO.N,Net-(J2-CC2)*%
X43873000Y-60210000D03*
D24*
%TO.P,J2,B4,VBUS*%
%TO.N,Net-(Q3-E)*%
X44523000Y-60210000D03*
%TO.P,J2,B1,GND*%
%TO.N,GND*%
X45323000Y-60210000D03*
%TO.P,J2,A12,GND*%
X45323000Y-60210000D03*
%TO.P,J2,A9,VBUS*%
%TO.N,Net-(Q3-E)*%
X44523000Y-60210000D03*
D25*
%TO.P,J2,A8,SBU1*%
%TO.N,unconnected-(J2-SBU1-PadA8)*%
X43373000Y-60210000D03*
%TO.P,J2,A7,D-*%
%TO.N,/ESP32-S3/D-*%
X42373000Y-60210000D03*
%TO.P,J2,A6,D+*%
%TO.N,/ESP32-S3/D+*%
X41873000Y-60210000D03*
%TO.P,J2,A5,CC1*%
%TO.N,Net-(J2-CC1)*%
X40873000Y-60210000D03*
D24*
%TO.P,J2,A4,VBUS*%
%TO.N,Net-(Q3-E)*%
X39723000Y-60210000D03*
%TO.P,J2,A1,GND*%
%TO.N,GND*%
X38923000Y-60210000D03*
%TD*%
D26*
%TO.P,C11,2*%
%TO.N,GND*%
X80137000Y-83273500D03*
%TO.P,C11,1*%
%TO.N,/ESP32-S3/enc2_A_IO39*%
X80137000Y-81548500D03*
%TD*%
D17*
%TO.P,R5,2*%
%TO.N,Net-(Q1-G)*%
X44782500Y-70500000D03*
%TO.P,R5,1*%
%TO.N,/ESP32-S3/DTR*%
X42957500Y-70500000D03*
%TD*%
D20*
%TO.P,C7,2*%
%TO.N,GND*%
X72441000Y-54197600D03*
%TO.P,C7,1*%
%TO.N,+3.3V*%
X72441000Y-55922600D03*
%TD*%
%TO.P,C1,2*%
%TO.N,GND*%
X42727000Y-63287500D03*
%TO.P,C1,1*%
%TO.N,VDD*%
X42727000Y-65012500D03*
%TD*%
D27*
%TO.P,U3,4,EPAD*%
%TO.N,unconnected-(U3-EPAD-Pad4)*%
X43059600Y-77104000D03*
D28*
%TO.P,U3,3,INPUT*%
%TO.N,VDD*%
X36908000Y-74804000D03*
%TO.P,U3,2,OUTPUT*%
%TO.N,+3.3V*%
X36908000Y-77104000D03*
%TO.P,U3,1,ADJ/GND*%
%TO.N,GND*%
X36908000Y-79404000D03*
%TD*%
D17*
%TO.P,R15,2*%
%TO.N,Net-(EN2-PadB)*%
X77089000Y-90335800D03*
%TO.P,R15,1*%
%TO.N,+3.3V*%
X75264000Y-90335800D03*
%TD*%
D19*
%TO.P,R4,2*%
%TO.N,Net-(Q3-E)*%
X35996000Y-57593000D03*
%TO.P,R4,1*%
%TO.N,Net-(D2-A)*%
X35996000Y-55768000D03*
%TD*%
D20*
%TO.P,C2,2*%
%TO.N,GND*%
X42727000Y-66716500D03*
%TO.P,C2,1*%
%TO.N,Net-(U1-V3)*%
X42727000Y-68441500D03*
%TD*%
D29*
%TO.P,U1,11,GND*%
%TO.N,GND*%
X46188000Y-65830500D03*
D30*
%TO.P,U1,10,V3*%
%TO.N,Net-(U1-V3)*%
X44188000Y-68468000D03*
%TO.P,U1,9,RXD*%
%TO.N,/ESP32-S3/TX*%
X45188000Y-68468000D03*
%TO.P,U1,8,TXD*%
%TO.N,/ESP32-S3/RX*%
X46188000Y-68468000D03*
%TO.P,U1,7,VCC*%
%TO.N,VDD*%
X47188000Y-68468000D03*
%TO.P,U1,6,~{RTS}*%
%TO.N,/ESP32-S3/RTS*%
X48188000Y-68468000D03*
%TO.P,U1,5,~{CTS}*%
%TO.N,unconnected-(U1-~{CTS}-Pad5)*%
X48188000Y-63193000D03*
%TO.P,U1,4,~{DTR}*%
%TO.N,/ESP32-S3/DTR*%
X47188000Y-63193000D03*
%TO.P,U1,3,GND*%
%TO.N,GND*%
X46188000Y-63193000D03*
%TO.P,U1,2,UD-*%
%TO.N,/ESP32-S3/D-*%
X45188000Y-63193000D03*
%TO.P,U1,1,UD+*%
%TO.N,/ESP32-S3/D+*%
X44188000Y-63193000D03*
%TD*%
D21*
%TO.P,R20,2*%
%TO.N,/ESP32-S3/enc2_A_IO39*%
X78613000Y-81498500D03*
%TO.P,R20,1*%
%TO.N,Net-(EN2-PadA)*%
X78613000Y-83323500D03*
%TD*%
D31*
%TO.P,R2,2*%
%TO.N,GND*%
X39071300Y-62372000D03*
%TO.P,R2,1*%
%TO.N,Net-(J2-CC1)*%
X40896300Y-62372000D03*
%TD*%
D19*
%TO.P,R24,2*%
%TO.N,GND*%
X38947000Y-85367500D03*
%TO.P,R24,1*%
%TO.N,/ESP32-S3/enc1_SW_IO38*%
X38947000Y-83542500D03*
%TD*%
D32*
%TO.P,U2,8,D2*%
%TO.N,Net-(Q3-E)*%
X37367600Y-65352750D03*
%TO.P,U2,7,D2*%
X36097600Y-65352750D03*
%TO.P,U2,6,D1*%
%TO.N,Net-(J1-Pin_2)*%
X34827600Y-65352750D03*
%TO.P,U2,5,D1*%
X33557600Y-65352750D03*
%TO.P,U2,4,G1*%
%TO.N,Net-(Q6-C)*%
X33557600Y-70204150D03*
%TO.P,U2,3,S1*%
%TO.N,VDD*%
X34827600Y-70204150D03*
%TO.P,U2,2,G2*%
%TO.N,Net-(Q5-C)*%
X36097600Y-70204150D03*
%TO.P,U2,1,S2*%
%TO.N,VDD*%
X37367600Y-70204150D03*
%TD*%
D17*
%TO.P,R14,2*%
%TO.N,Net-(EN2-PadA)*%
X77087100Y-81344200D03*
%TO.P,R14,1*%
%TO.N,+3.3V*%
X75262100Y-81344200D03*
%TD*%
D20*
%TO.P,C12,2*%
%TO.N,GND*%
X80137000Y-88406500D03*
%TO.P,C12,1*%
%TO.N,/ESP32-S3/enc2_B_IO40*%
X80137000Y-90131500D03*
%TD*%
D19*
%TO.P,R18,2*%
%TO.N,/ESP32-S3/enc1_A_IO41*%
X49005400Y-90206900D03*
%TO.P,R18,1*%
%TO.N,Net-(EN1-PadA)*%
X49005400Y-88381900D03*
%TD*%
D17*
%TO.P,R7,2*%
%TO.N,Net-(Q3-B)*%
X37269800Y-63663650D03*
%TO.P,R7,1*%
%TO.N,GND*%
X35444800Y-63663650D03*
%TD*%
D18*
%TO.P,Q4,3,C*%
%TO.N,Net-(Q4-B)*%
X31144600Y-67375800D03*
%TO.P,Q4,2,E*%
%TO.N,Net-(J1-Pin_2)*%
X32094600Y-65500800D03*
%TO.P,Q4,1,B*%
%TO.N,Net-(Q4-B)*%
X30194600Y-65500800D03*
%TD*%
D31*
%TO.P,R6,2*%
%TO.N,Net-(Q2-G)*%
X46363000Y-70500000D03*
%TO.P,R6,1*%
%TO.N,/ESP32-S3/RTS*%
X48188000Y-70500000D03*
%TD*%
D19*
%TO.P,R16,2*%
%TO.N,Net-(EN3-PadA)*%
X57383000Y-130236500D03*
%TO.P,R16,1*%
%TO.N,+3.3V*%
X57383000Y-128411500D03*
%TD*%
D31*
%TO.P,R9,2*%
%TO.N,Net-(Q5-C)*%
X38868100Y-72477450D03*
%TO.P,R9,1*%
%TO.N,GND*%
X40693100Y-72477450D03*
%TD*%
D19*
%TO.P,R23,2*%
%TO.N,Net-(EN3-PadB)*%
X68305000Y-130236500D03*
%TO.P,R23,1*%
%TO.N,/ESP32-S3/enc3_B_IO1*%
X68305000Y-128411500D03*
%TD*%
%TO.P,R17,2*%
%TO.N,Net-(EN3-PadB)*%
X70083000Y-130236500D03*
%TO.P,R17,1*%
%TO.N,+3.3V*%
X70083000Y-128411500D03*
%TD*%
D33*
%TO.P,C3,2*%
%TO.N,GND*%
X36528300Y-72481200D03*
%TO.P,C3,1*%
%TO.N,VDD*%
X34803300Y-72481200D03*
%TD*%
D34*
%TO.P,Q3,3,C*%
%TO.N,Net-(Q3-B)*%
X39780600Y-64730450D03*
%TO.P,Q3,2,E*%
%TO.N,Net-(Q3-E)*%
X38830600Y-66605450D03*
%TO.P,Q3,1,B*%
%TO.N,Net-(Q3-B)*%
X40730600Y-66605450D03*
%TD*%
D33*
%TO.P,C13,2*%
%TO.N,GND*%
X62563500Y-128308000D03*
%TO.P,C13,1*%
%TO.N,/ESP32-S3/enc3_A_IO2*%
X60838500Y-128308000D03*
%TD*%
D18*
%TO.P,Q6,3,C*%
%TO.N,Net-(Q6-C)*%
X31144600Y-71439800D03*
%TO.P,Q6,2,E*%
%TO.N,VDD*%
X32094600Y-69564800D03*
%TO.P,Q6,1,B*%
%TO.N,Net-(Q4-B)*%
X30194600Y-69564800D03*
%TD*%
D20*
%TO.P,C5,2*%
%TO.N,GND*%
X34700600Y-75377900D03*
%TO.P,C5,1*%
%TO.N,+3.3V*%
X34700600Y-77102900D03*
%TD*%
D21*
%TO.P,R21,2*%
%TO.N,Net-(EN2-PadB)*%
X78613000Y-88356500D03*
%TO.P,R21,1*%
%TO.N,/ESP32-S3/enc2_B_IO40*%
X78613000Y-90181500D03*
%TD*%
D18*
%TO.P,Q1,3,D*%
%TO.N,/ESP32-S3/en*%
X47299000Y-74153000D03*
%TO.P,Q1,2,S*%
%TO.N,/ESP32-S3/RTS*%
X48249000Y-72278000D03*
%TO.P,Q1,1,G*%
%TO.N,Net-(Q1-G)*%
X46349000Y-72278000D03*
%TD*%
D21*
%TO.P,R3,2*%
%TO.N,GND*%
X48188000Y-59277000D03*
%TO.P,R3,1*%
%TO.N,Net-(J2-CC2)*%
X48188000Y-61102000D03*
%TD*%
%TO.P,R25,2*%
%TO.N,GND*%
X88773000Y-86324500D03*
%TO.P,R25,1*%
%TO.N,/ESP32-S3/enc2_SW_IO48*%
X88773000Y-88149500D03*
%TD*%
D35*
%TO.P,J1,2,Pin_2*%
%TO.N,Net-(J1-Pin_2)*%
X33324000Y-61102000D03*
D36*
%TO.P,J1,1,Pin_1*%
%TO.N,GND*%
X30784000Y-61102000D03*
%TD*%
D31*
%TO.P,R13,2*%
%TO.N,Net-(EN1-PadB)*%
X50505900Y-81420400D03*
%TO.P,R13,1*%
%TO.N,+3.3V*%
X52330900Y-81420400D03*
%TD*%
%TO.P,R26,2*%
%TO.N,GND*%
X64344500Y-117894000D03*
%TO.P,R26,1*%
%TO.N,/ESP32-S3/enc3_SW_IO47*%
X66169500Y-117894000D03*
%TD*%
D17*
%TO.P,R8,2*%
%TO.N,GND*%
X32057100Y-63692800D03*
%TO.P,R8,1*%
%TO.N,Net-(Q4-B)*%
X30232100Y-63692800D03*
%TD*%
D37*
%TO.P,C14,2*%
%TO.N,GND*%
X64902500Y-128308000D03*
%TO.P,C14,1*%
%TO.N,/ESP32-S3/enc3_B_IO1*%
X66627500Y-128308000D03*
%TD*%
D20*
%TO.P,C9,2*%
%TO.N,GND*%
X47481400Y-88431900D03*
%TO.P,C9,1*%
%TO.N,/ESP32-S3/enc1_A_IO41*%
X47481400Y-90156900D03*
%TD*%
D31*
%TO.P,R12,2*%
%TO.N,Net-(EN1-PadA)*%
X50529400Y-90310400D03*
%TO.P,R12,1*%
%TO.N,+3.3V*%
X52354400Y-90310400D03*
%TD*%
D26*
%TO.P,C10,2*%
%TO.N,GND*%
X47481400Y-83425900D03*
%TO.P,C10,1*%
%TO.N,/ESP32-S3/enc1_B_IO42*%
X47481400Y-81700900D03*
%TD*%
D34*
%TO.P,Q5,3,C*%
%TO.N,Net-(Q5-C)*%
X39780600Y-68794450D03*
%TO.P,Q5,2,E*%
%TO.N,VDD*%
X38830600Y-70669450D03*
%TO.P,Q5,1,B*%
%TO.N,Net-(Q3-B)*%
X40730600Y-70669450D03*
%TD*%
D38*
%TO.P,U4,41,GND*%
%TO.N,GND*%
X58969000Y-60857600D03*
X58969000Y-62257600D03*
X59669000Y-60157600D03*
X59669000Y-61557600D03*
X59669000Y-62957600D03*
X60369000Y-60857600D03*
D39*
X60369000Y-61557600D03*
D38*
X60369000Y-62257600D03*
X61069000Y-60157600D03*
X61069000Y-61557600D03*
X61069000Y-62957600D03*
X61769000Y-60857600D03*
X61769000Y-62257600D03*
D40*
%TO.P,U4,40,GND*%
X50119000Y-53837600D03*
%TO.P,U4,39,IO1*%
%TO.N,/ESP32-S3/enc3_B_IO1*%
X50119000Y-55107600D03*
%TO.P,U4,38,IO2*%
%TO.N,/ESP32-S3/enc3_A_IO2*%
X50119000Y-56377600D03*
%TO.P,U4,37,TXD0*%
%TO.N,/ESP32-S3/TX*%
X50119000Y-57647600D03*
%TO.P,U4,36,RXD0*%
%TO.N,/ESP32-S3/RX*%
X50119000Y-58917600D03*
%TO.P,U4,35,IO42*%
%TO.N,/ESP32-S3/enc1_B_IO42*%
X50119000Y-60187600D03*
%TO.P,U4,34,IO41*%
%TO.N,/ESP32-S3/enc1_A_IO41*%
X50119000Y-61457600D03*
%TO.P,U4,33,IO40*%
%TO.N,/ESP32-S3/enc2_B_IO40*%
X50119000Y-62727600D03*
%TO.P,U4,32,IO39*%
%TO.N,/ESP32-S3/enc2_A_IO39*%
X50119000Y-63997600D03*
%TO.P,U4,31,IO38*%
%TO.N,/ESP32-S3/enc1_SW_IO38*%
X50119000Y-65267600D03*
%TO.P,U4,30,IO37*%
%TO.N,unconnected-(U4-IO37-Pad30)*%
X50119000Y-66537600D03*
%TO.P,U4,29,IO36*%
%TO.N,unconnected-(U4-IO36-Pad29)*%
X50119000Y-67807600D03*
%TO.P,U4,28,IO35*%
%TO.N,unconnected-(U4-IO35-Pad28)*%
X50119000Y-69077600D03*
%TO.P,U4,27,IO0*%
%TO.N,/ESP32-S3/IO0*%
X50119000Y-70347600D03*
D41*
%TO.P,U4,26,IO45*%
%TO.N,unconnected-(U4-IO45-Pad26)*%
X51884000Y-71597600D03*
%TO.P,U4,25,IO48*%
%TO.N,/ESP32-S3/enc2_SW_IO48*%
X53154000Y-71597600D03*
%TO.P,U4,24,IO47*%
%TO.N,/ESP32-S3/enc3_SW_IO47*%
X54424000Y-71597600D03*
%TO.P,U4,23,IO21*%
%TO.N,/ESP32-S3/IO21*%
X55694000Y-71597600D03*
%TO.P,U4,22,IO14*%
%TO.N,/ESP32-S3/IO14*%
X56964000Y-71597600D03*
%TO.P,U4,21,IO13*%
%TO.N,/ESP32-S3/IO13*%
X58234000Y-71597600D03*
%TO.P,U4,20,IO12*%
%TO.N,/ESP32-S3/IO12*%
X59504000Y-71597600D03*
%TO.P,U4,19,IO11*%
%TO.N,/ESP32-S3/IO11*%
X60774000Y-71597600D03*
%TO.P,U4,18,IO10*%
%TO.N,/ESP32-S3/IO10*%
X62044000Y-71597600D03*
%TO.P,U4,17,IO9*%
%TO.N,/ESP32-S3/IO9*%
X63314000Y-71597600D03*
%TO.P,U4,16,IO46*%
%TO.N,unconnected-(U4-IO46-Pad16)*%
X64584000Y-71597600D03*
%TO.P,U4,15,IO3*%
%TO.N,unconnected-(U4-IO3-Pad15)*%
X65854000Y-71597600D03*
D40*
%TO.P,U4,14,IO20*%
%TO.N,unconnected-(U4-IO20-Pad14)*%
X67619000Y-70347600D03*
%TO.P,U4,13,IO19*%
%TO.N,unconnected-(U4-IO19-Pad13)*%
X67619000Y-69077600D03*
%TO.P,U4,12,IO8*%
%TO.N,/ESP32-S3/IO8*%
X67619000Y-67807600D03*
%TO.P,U4,11,IO18*%
%TO.N,/ESP32-S3/IO18*%
X67619000Y-66537600D03*
%TO.P,U4,10,IO17*%
%TO.N,/ESP32-S3/IO17*%
X67619000Y-65267600D03*
%TO.P,U4,9,IO16*%
%TO.N,/ESP32-S3/IO16*%
X67619000Y-63997600D03*
%TO.P,U4,8,IO15*%
%TO.N,/ESP32-S3/IO15*%
X67619000Y-62727600D03*
%TO.P,U4,7,IO7*%
%TO.N,/ESP32-S3/IO7*%
X67619000Y-61457600D03*
%TO.P,U4,6,IO6*%
%TO.N,/ESP32-S3/IO6*%
X67619000Y-60187600D03*
%TO.P,U4,5,IO5*%
%TO.N,/ESP32-S3/IO5*%
X67619000Y-58917600D03*
%TO.P,U4,4,IO4*%
%TO.N,/ESP32-S3/IO4*%
X67619000Y-57647600D03*
%TO.P,U4,3,EN*%
%TO.N,/ESP32-S3/en*%
X67619000Y-56377600D03*
%TO.P,U4,2,3V3*%
%TO.N,+3.3V*%
X67619000Y-55107600D03*
%TO.P,U4,1,GND*%
%TO.N,GND*%
X67619000Y-53837600D03*
%TD*%
D42*
%TO.N,GND*%
X62132600Y-85536800D03*
X59592600Y-116118400D03*
X32313000Y-141620000D03*
X51951000Y-54339600D03*
X65245000Y-54466600D03*
X67517400Y-92344000D03*
X34700600Y-59933600D03*
X44809800Y-65064400D03*
X55376200Y-78374000D03*
X56595400Y-57596800D03*
X87278600Y-88432400D03*
X57255800Y-65216800D03*
X62386600Y-81320400D03*
X36326200Y-85435200D03*
X67669800Y-79644000D03*
X73867400Y-79644000D03*
X52633000Y-141620000D03*
X55935000Y-92090000D03*
X51566200Y-80202800D03*
X86059400Y-80914000D03*
X39475800Y-62829200D03*
X83773400Y-88584800D03*
X35996000Y-54004000D03*
X65434600Y-69636400D03*
X36528300Y-72481200D03*
X32313000Y-85740000D03*
X65383800Y-58308000D03*
X49889800Y-80101200D03*
X54411000Y-59527200D03*
X63809000Y-104028000D03*
X36908000Y-79404000D03*
X57865400Y-101081600D03*
X41761800Y-70754000D03*
X78033000Y-60340000D03*
X42676200Y-74157600D03*
X56189000Y-54339600D03*
X46283000Y-82438000D03*
X69520000Y-54171100D03*
X61116600Y-54466600D03*
X65180600Y-65013600D03*
X54360200Y-82996800D03*
X95813000Y-78120000D03*
X78287000Y-85689200D03*
X55122200Y-105145600D03*
X59948200Y-79593200D03*
X73867400Y-88737200D03*
X95813000Y-141620000D03*
X55274600Y-112105200D03*
X73765800Y-81422000D03*
X48111800Y-79796400D03*
X95813000Y-60340000D03*
X54157000Y-69382400D03*
X58170200Y-125668800D03*
X95813000Y-121300000D03*
X64418600Y-79644000D03*
X47481400Y-88431900D03*
X49966000Y-86959200D03*
X41609400Y-68772800D03*
X49940600Y-84698600D03*
X32313000Y-121300000D03*
X57205000Y-69636400D03*
X40847400Y-58892200D03*
X75493000Y-75580000D03*
X41152200Y-90870800D03*
X58779800Y-88940400D03*
X41203000Y-64099200D03*
X42879400Y-56225200D03*
X58932200Y-81828400D03*
X54207800Y-64759600D03*
X49788200Y-77104000D03*
X32313000Y-103520000D03*
X95813000Y-103520000D03*
X75493000Y-141620000D03*
X54004600Y-89042000D03*
X75493000Y-121300000D03*
X54004600Y-93918800D03*
X31144600Y-65928000D03*
X33430600Y-71820800D03*
X81385800Y-90972400D03*
X81385800Y-79745600D03*
X57611400Y-117490000D03*
X75493000Y-103520000D03*
X54157000Y-97627200D03*
X50855000Y-92090000D03*
X43184200Y-82311000D03*
X44809800Y-66588400D03*
X57814600Y-84978000D03*
X45323000Y-60210000D03*
X52633000Y-121300000D03*
X35444800Y-63663650D03*
X57154200Y-60594000D03*
X39171000Y-53990000D03*
X34853000Y-62067200D03*
X62335800Y-124856000D03*
D43*
%TO.N,+3.3V*%
X62412000Y-123306600D03*
X57383000Y-128411500D03*
D44*
X52074200Y-93664800D03*
D43*
X75264000Y-90335800D03*
D42*
X67619000Y-55107600D03*
D44*
X69496050Y-55872150D03*
D43*
%TO.N,VDD*%
X38830600Y-70669450D03*
X41838000Y-69738000D03*
%TO.N,/ESP32-S3/en*%
X55074000Y-76646800D03*
X46283000Y-74564000D03*
X65245000Y-56616600D03*
X46537000Y-76103000D03*
%TO.N,/ESP32-S3/IO0*%
X51951000Y-56489600D03*
X50119000Y-70347600D03*
X49977800Y-73764800D03*
%TO.N,Net-(D1-A)*%
X39171000Y-55740000D03*
%TO.N,Net-(D2-A)*%
X35996000Y-55768000D03*
D42*
%TO.N,/ESP32-S3/D+*%
X42940379Y-61256074D03*
D43*
X44188000Y-63320000D03*
D42*
%TO.N,/ESP32-S3/DTR*%
X43997000Y-65293000D03*
D43*
X42969250Y-70511750D03*
%TO.N,Net-(Q2-G)*%
X46363000Y-70500000D03*
X42920000Y-72278000D03*
D44*
%TO.N,/ESP32-S3/enc1_A_IO41*%
X50119000Y-61457600D03*
X49005400Y-90206900D03*
%TO.N,/ESP32-S3/enc1_B_IO42*%
X50119000Y-60187600D03*
X47299000Y-79009000D03*
D42*
%TO.N,/ESP32-S3/enc2_A_IO39*%
X50208000Y-63997600D03*
X52248000Y-72797602D03*
D43*
%TO.N,/ESP32-S3/RX*%
X46188000Y-68468000D03*
X50119000Y-58917600D03*
D42*
%TO.N,/ESP32-S3/enc2_B_IO40*%
X50119000Y-62727600D03*
X50759000Y-76799200D03*
%TO.N,/ESP32-S3/enc3_A_IO2*%
X51359000Y-78124000D03*
X51359000Y-66172128D03*
D43*
%TO.N,/ESP32-S3/TX*%
X50119000Y-57647600D03*
X45188000Y-68468000D03*
%TO.N,/ESP32-S3/enc3_B_IO1*%
X53293400Y-69990200D03*
X66627500Y-128308000D03*
X55808000Y-114061000D03*
X53313499Y-81751134D03*
D42*
%TO.N,/ESP32-S3/enc1_SW_IO38*%
X47984800Y-76672200D03*
D43*
X48271012Y-67130500D03*
D42*
%TO.N,/ESP32-S3/enc3_SW_IO47*%
X54411000Y-80152000D03*
X54424000Y-71597600D03*
D43*
%TO.N,Net-(Q3-E)*%
X35996000Y-57593000D03*
D44*
X37367600Y-65352750D03*
D43*
X44523000Y-60520000D03*
X39723000Y-60520000D03*
%TD*%
D45*
%TO.N,Net-(D10-K)*%
X114935000Y-39547500D02*
X115395000Y-40007500D01*
X114935000Y-38277500D02*
X114935000Y-39547500D01*
%TO.N,Net-(D3-A)*%
X138747500Y-39547500D02*
X139207500Y-40007500D01*
X138747500Y-38277500D02*
X138747500Y-39547500D01*
%TO.N,Net-(D11-K)*%
X157797500Y-39547500D02*
X158257500Y-40007500D01*
X157797500Y-38277500D02*
X157797500Y-39547500D01*
%TO.N,Net-(D4-A)*%
X176847500Y-39547500D02*
X177307500Y-40007500D01*
X176847500Y-38277500D02*
X176847500Y-39547500D01*
%TO.N,Net-(D12-K)*%
X195897500Y-39547500D02*
X196357500Y-40007500D01*
X195897500Y-38277500D02*
X195897500Y-39547500D01*
%TO.N,Net-(D5-A)*%
X219710000Y-39547500D02*
X220170000Y-40007500D01*
X219710000Y-38277500D02*
X219710000Y-39547500D01*
%TO.N,Net-(D13-K)*%
X238760000Y-39547500D02*
X239220000Y-40007500D01*
X238760000Y-38277500D02*
X238760000Y-39547500D01*
%TO.N,Net-(D6-A)*%
X257810000Y-39547500D02*
X258270000Y-40007500D01*
X257810000Y-38277500D02*
X257810000Y-39547500D01*
%TO.N,Net-(D14-K)*%
X276860000Y-39547500D02*
X277320000Y-40007500D01*
X276860000Y-38277500D02*
X276860000Y-39547500D01*
%TO.N,Net-(D7-A)*%
X300672500Y-39547500D02*
X301132500Y-40007500D01*
X300672500Y-38277500D02*
X300672500Y-39547500D01*
%TO.N,Net-(D15-K)*%
X319722500Y-39547500D02*
X320182500Y-40007500D01*
X319722500Y-38277500D02*
X319722500Y-39547500D01*
%TO.N,Net-(D8-A)*%
X338772500Y-39547500D02*
X339232500Y-40007500D01*
X338772500Y-38277500D02*
X338772500Y-39547500D01*
%TO.N,Net-(D16-K)*%
X357822500Y-39547500D02*
X358282500Y-40007500D01*
X357822500Y-38277500D02*
X357822500Y-39547500D01*
%TO.N,Net-(D9-A)*%
X381635000Y-39547500D02*
X382095000Y-40007500D01*
X381635000Y-38277500D02*
X381635000Y-39547500D01*
%TO.N,Net-(D24-K)*%
X405447500Y-39547500D02*
X405907500Y-40007500D01*
X405447500Y-38277500D02*
X405447500Y-39547500D01*
%TO.N,Net-(D17-A)*%
X114935000Y-63360000D02*
X115395000Y-63820000D01*
X114935000Y-62090000D02*
X114935000Y-63360000D01*
%TO.N,Net-(D25-K)*%
X133985000Y-63360000D02*
X134445000Y-63820000D01*
X133985000Y-62090000D02*
X133985000Y-63360000D01*
%TO.N,Net-(D18-A)*%
X153035000Y-63360000D02*
X153495000Y-63820000D01*
X153035000Y-62090000D02*
X153035000Y-63360000D01*
%TO.N,Net-(D26-K)*%
X172085000Y-63360000D02*
X172545000Y-63820000D01*
X172085000Y-62090000D02*
X172085000Y-63360000D01*
%TO.N,Net-(D19-A)*%
X191135000Y-63360000D02*
X191595000Y-63820000D01*
X191135000Y-62090000D02*
X191135000Y-63360000D01*
%TO.N,Net-(D27-K)*%
X210185000Y-63360000D02*
X210645000Y-63820000D01*
X210185000Y-62090000D02*
X210185000Y-63360000D01*
%TO.N,Net-(D20-A)*%
X229235000Y-63360000D02*
X229695000Y-63820000D01*
X229235000Y-62090000D02*
X229235000Y-63360000D01*
%TO.N,Net-(D28-K)*%
X248285000Y-63360000D02*
X248745000Y-63820000D01*
X248285000Y-62090000D02*
X248285000Y-63360000D01*
%TO.N,Net-(D21-A)*%
X267335000Y-63360000D02*
X267795000Y-63820000D01*
X267335000Y-62090000D02*
X267335000Y-63360000D01*
%TO.N,Net-(D29-K)*%
X286385000Y-63360000D02*
X286845000Y-63820000D01*
X286385000Y-62090000D02*
X286385000Y-63360000D01*
%TO.N,Net-(D22-A)*%
X305435000Y-63360000D02*
X305895000Y-63820000D01*
X305435000Y-62090000D02*
X305435000Y-63360000D01*
%TO.N,Net-(D30-K)*%
X324485000Y-63360000D02*
X324945000Y-63820000D01*
X324485000Y-62090000D02*
X324485000Y-63360000D01*
%TO.N,Net-(D23-A)*%
X343535000Y-63360000D02*
X343995000Y-63820000D01*
X343535000Y-62090000D02*
X343535000Y-63360000D01*
%TO.N,Net-(D39-K)*%
X362585000Y-63360000D02*
X363045000Y-63820000D01*
X362585000Y-62090000D02*
X362585000Y-63360000D01*
%TO.N,Net-(D31-A)*%
X381635000Y-63360000D02*
X382095000Y-63820000D01*
X381635000Y-62090000D02*
X381635000Y-63360000D01*
%TO.N,Net-(D40-K)*%
X405447500Y-63360000D02*
X405907500Y-63820000D01*
X405447500Y-62090000D02*
X405447500Y-63360000D01*
%TO.N,Net-(D32-A)*%
X119697500Y-82410000D02*
X120157500Y-82870000D01*
X119697500Y-81140000D02*
X119697500Y-82410000D01*
%TO.N,Net-(D41-K)*%
X143510000Y-82410000D02*
X143970000Y-82870000D01*
X143510000Y-81140000D02*
X143510000Y-82410000D01*
%TO.N,Net-(D33-A)*%
X162560000Y-82410000D02*
X163020000Y-82870000D01*
X162560000Y-81140000D02*
X162560000Y-82410000D01*
%TO.N,Net-(D42-K)*%
X181610000Y-82410000D02*
X182070000Y-82870000D01*
X181610000Y-81140000D02*
X181610000Y-82410000D01*
%TO.N,Net-(D34-A)*%
X200660000Y-82410000D02*
X201120000Y-82870000D01*
X200660000Y-81140000D02*
X200660000Y-82410000D01*
%TO.N,Net-(D43-K)*%
X219710000Y-82410000D02*
X220170000Y-82870000D01*
X219710000Y-81140000D02*
X219710000Y-82410000D01*
%TO.N,Net-(D35-A)*%
X238760000Y-82410000D02*
X239220000Y-82870000D01*
X238760000Y-81140000D02*
X238760000Y-82410000D01*
%TO.N,Net-(D44-K)*%
X257810000Y-82410000D02*
X258270000Y-82870000D01*
X257810000Y-81140000D02*
X257810000Y-82410000D01*
%TO.N,Net-(D36-A)*%
X276860000Y-82410000D02*
X277320000Y-82870000D01*
X276860000Y-81140000D02*
X276860000Y-82410000D01*
%TO.N,Net-(D45-K)*%
X295910000Y-82410000D02*
X296370000Y-82870000D01*
X295910000Y-81140000D02*
X295910000Y-82410000D01*
%TO.N,Net-(D37-A)*%
X314960000Y-82410000D02*
X315420000Y-82870000D01*
X314960000Y-81140000D02*
X314960000Y-82410000D01*
%TO.N,Net-(D38-A)*%
X334010000Y-82410000D02*
X334470000Y-82870000D01*
X334010000Y-81140000D02*
X334010000Y-82410000D01*
%TO.N,Net-(D54-K)*%
X353060000Y-82410000D02*
X353520000Y-82870000D01*
X353060000Y-81140000D02*
X353060000Y-82410000D01*
%TO.N,Net-(D46-A)*%
X379253750Y-91935000D02*
X379713750Y-92395000D01*
X379253750Y-90665000D02*
X379253750Y-91935000D01*
%TO.N,Net-(D55-K)*%
X405447500Y-82410000D02*
X405907500Y-82870000D01*
X405447500Y-81140000D02*
X405447500Y-82410000D01*
%TO.N,Net-(D47-A)*%
X122078750Y-101460000D02*
X122538750Y-101920000D01*
X122078750Y-100190000D02*
X122078750Y-101460000D01*
%TO.N,Net-(D56-K)*%
X148272500Y-101460000D02*
X148732500Y-101920000D01*
X148272500Y-100190000D02*
X148272500Y-101460000D01*
%TO.N,Net-(D48-A)*%
X167322500Y-101460000D02*
X167782500Y-101920000D01*
X167322500Y-100190000D02*
X167322500Y-101460000D01*
%TO.N,Net-(D57-K)*%
X186372500Y-101460000D02*
X186832500Y-101920000D01*
X186372500Y-100190000D02*
X186372500Y-101460000D01*
%TO.N,Net-(D49-A)*%
X205422500Y-101460000D02*
X205882500Y-101920000D01*
X205422500Y-100190000D02*
X205422500Y-101460000D01*
%TO.N,Net-(D58-K)*%
X224472500Y-101460000D02*
X224932500Y-101920000D01*
X224472500Y-100190000D02*
X224472500Y-101460000D01*
%TO.N,Net-(D50-A)*%
X243522500Y-101460000D02*
X243982500Y-101920000D01*
X243522500Y-100190000D02*
X243522500Y-101460000D01*
%TO.N,Net-(D59-K)*%
X262572500Y-101460000D02*
X263032500Y-101920000D01*
X262572500Y-100190000D02*
X262572500Y-101460000D01*
%TO.N,Net-(D51-A)*%
X281622500Y-101460000D02*
X282082500Y-101920000D01*
X281622500Y-100190000D02*
X281622500Y-101460000D01*
%TO.N,Net-(D60-K)*%
X300672500Y-101460000D02*
X301132500Y-101920000D01*
X300672500Y-100190000D02*
X300672500Y-101460000D01*
%TO.N,Net-(D52-A)*%
X319722500Y-101460000D02*
X320182500Y-101920000D01*
X319722500Y-100190000D02*
X319722500Y-101460000D01*
%TO.N,Net-(D53-A)*%
X338772500Y-101460000D02*
X339232500Y-101920000D01*
X338772500Y-100190000D02*
X338772500Y-101460000D01*
%TO.N,Net-(D69-K)*%
X357822500Y-101460000D02*
X358282500Y-101920000D01*
X357822500Y-100190000D02*
X357822500Y-101460000D01*
%TO.N,Net-(D61-A)*%
X405447500Y-101460000D02*
X405907500Y-101920000D01*
X405447500Y-100190000D02*
X405447500Y-101460000D01*
%TO.N,Net-(D70-K)*%
X124460000Y-120510000D02*
X124920000Y-120970000D01*
X124460000Y-119240000D02*
X124460000Y-120510000D01*
%TO.N,Net-(D62-A)*%
X153035000Y-120510000D02*
X153495000Y-120970000D01*
X153035000Y-119240000D02*
X153035000Y-120510000D01*
%TO.N,Net-(D71-K)*%
X172085000Y-120510000D02*
X172545000Y-120970000D01*
X172085000Y-119240000D02*
X172085000Y-120510000D01*
%TO.N,Net-(D63-A)*%
X191135000Y-120510000D02*
X191595000Y-120970000D01*
X191135000Y-119240000D02*
X191135000Y-120510000D01*
%TO.N,Net-(D72-K)*%
X210185000Y-120510000D02*
X210645000Y-120970000D01*
X210185000Y-119240000D02*
X210185000Y-120510000D01*
%TO.N,Net-(D64-A)*%
X229235000Y-120510000D02*
X229695000Y-120970000D01*
X229235000Y-119240000D02*
X229235000Y-120510000D01*
%TO.N,Net-(D73-K)*%
X248285000Y-120510000D02*
X248745000Y-120970000D01*
X248285000Y-119240000D02*
X248285000Y-120510000D01*
%TO.N,Net-(D65-A)*%
X267335000Y-120510000D02*
X267795000Y-120970000D01*
X267335000Y-119240000D02*
X267335000Y-120510000D01*
%TO.N,Net-(D74-K)*%
X286385000Y-120510000D02*
X286845000Y-120970000D01*
X286385000Y-119240000D02*
X286385000Y-120510000D01*
%TO.N,Net-(D66-A)*%
X305435000Y-120510000D02*
X305895000Y-120970000D01*
X305435000Y-119240000D02*
X305435000Y-120510000D01*
%TO.N,Net-(D75-K)*%
X324485000Y-120510000D02*
X324945000Y-120970000D01*
X324485000Y-119240000D02*
X324485000Y-120510000D01*
%TO.N,Net-(D67-A)*%
X343535000Y-120510000D02*
X343995000Y-120970000D01*
X343535000Y-119240000D02*
X343535000Y-120510000D01*
%TO.N,Net-(D68-A)*%
X362585000Y-120510000D02*
X363045000Y-120970000D01*
X362585000Y-119240000D02*
X362585000Y-120510000D01*
%TO.N,Net-(D84-K)*%
X381635000Y-120510000D02*
X382095000Y-120970000D01*
X381635000Y-119240000D02*
X381635000Y-120510000D01*
%TO.N,Net-(D76-A)*%
X405447500Y-120510000D02*
X405907500Y-120970000D01*
X405447500Y-119240000D02*
X405447500Y-120510000D01*
%TO.N,Net-(D85-K)*%
X117316250Y-139560000D02*
X117776250Y-140020000D01*
X117316250Y-138290000D02*
X117316250Y-139560000D01*
%TO.N,Net-(D77-A)*%
X143510000Y-139560000D02*
X143970000Y-140020000D01*
X143510000Y-138290000D02*
X143510000Y-139560000D01*
%TO.N,Net-(D86-K)*%
X162560000Y-139560000D02*
X163020000Y-140020000D01*
X162560000Y-138290000D02*
X162560000Y-139560000D01*
%TO.N,Net-(D78-A)*%
X181610000Y-139560000D02*
X182070000Y-140020000D01*
X181610000Y-138290000D02*
X181610000Y-139560000D01*
%TO.N,Net-(D87-K)*%
X200660000Y-139560000D02*
X201120000Y-140020000D01*
X200660000Y-138290000D02*
X200660000Y-139560000D01*
%TO.N,Net-(D79-A)*%
X241141250Y-139560000D02*
X241601250Y-140020000D01*
X241141250Y-138290000D02*
X241141250Y-139560000D01*
%TO.N,Net-(D88-K)*%
X281622500Y-139560000D02*
X282082500Y-140020000D01*
X281622500Y-138290000D02*
X281622500Y-139560000D01*
%TO.N,Net-(D80-A)*%
X300672500Y-139560000D02*
X301132500Y-140020000D01*
X300672500Y-138290000D02*
X300672500Y-139560000D01*
%TO.N,Net-(D89-K)*%
X319722500Y-139560000D02*
X320182500Y-140020000D01*
X319722500Y-138290000D02*
X319722500Y-139560000D01*
%TO.N,Net-(D81-A)*%
X343535000Y-139560000D02*
X343995000Y-140020000D01*
X343535000Y-138290000D02*
X343535000Y-139560000D01*
%TO.N,Net-(D90-K)*%
X362585000Y-139560000D02*
X363045000Y-140020000D01*
X362585000Y-138290000D02*
X362585000Y-139560000D01*
%TO.N,Net-(D82-A)*%
X381635000Y-139560000D02*
X382095000Y-140020000D01*
X381635000Y-138290000D02*
X381635000Y-139560000D01*
D46*
%TO.N,GND*%
X45567700Y-65830500D02*
X44809800Y-66588400D01*
X49000100Y-61939500D02*
X49000100Y-64226900D01*
X46188000Y-63193000D02*
X46188000Y-62355501D01*
X45575900Y-65830500D02*
X44809800Y-65064400D01*
X46188000Y-62355501D02*
X46604001Y-61939500D01*
X49000100Y-64226900D02*
X47396500Y-65830500D01*
X47396500Y-65830500D02*
X46188000Y-65830500D01*
X46604001Y-61939500D02*
X49000100Y-61939500D01*
D47*
%TO.N,+3.3V*%
X34700600Y-77102900D02*
X34700600Y-86267600D01*
D48*
X69496050Y-55872150D02*
X69520000Y-55896100D01*
D46*
X52330900Y-81420400D02*
X52623000Y-81712500D01*
X52623000Y-81712500D02*
X52623000Y-90041800D01*
X75262100Y-81344200D02*
X74970000Y-81636300D01*
X74970000Y-90041800D02*
X75264000Y-90335800D01*
X74970000Y-81636300D02*
X74970000Y-90041800D01*
D47*
X34701700Y-77104000D02*
X34700600Y-77102900D01*
D46*
X52354400Y-90310400D02*
X52354400Y-93384600D01*
X61273000Y-122167600D02*
X61273000Y-115840000D01*
D47*
X34700600Y-86267600D02*
X36773000Y-88340000D01*
D48*
X69520000Y-55896100D02*
X72414500Y-55896100D01*
D46*
X52623000Y-90041800D02*
X52354400Y-90310400D01*
D48*
X67619000Y-55107600D02*
X68731500Y-55107600D01*
D46*
X52354400Y-93384600D02*
X52074200Y-93664800D01*
D47*
X36908000Y-77104000D02*
X34701700Y-77104000D01*
D46*
X62412000Y-123306600D02*
X65231400Y-126126000D01*
D48*
X72414500Y-55896100D02*
X72441000Y-55922600D01*
D46*
X65231400Y-126126000D02*
X67797500Y-126126000D01*
X62412000Y-123306600D02*
X61273000Y-122167600D01*
D47*
X42097800Y-93664800D02*
X52074200Y-93664800D01*
D46*
X67797500Y-126126000D02*
X70083000Y-128411500D01*
D48*
X68731500Y-55107600D02*
X69496050Y-55872150D01*
D47*
X36773000Y-88340000D02*
X42097800Y-93664800D01*
D49*
%TO.N,VDD*%
X34827600Y-70204150D02*
X34827600Y-69634350D01*
X34223500Y-69030250D02*
X32629150Y-69030250D01*
X36714400Y-69030250D02*
X37367600Y-69683450D01*
D46*
X47188000Y-67919238D02*
X47188000Y-68468000D01*
D49*
X35487150Y-69030250D02*
X36714400Y-69030250D01*
X34827600Y-69689800D02*
X35487150Y-69030250D01*
X37367600Y-69683450D02*
X37367600Y-70204150D01*
X32629150Y-69030250D02*
X32094600Y-69564800D01*
D46*
X47188000Y-69305499D02*
X46837999Y-69655500D01*
X47188000Y-68468000D02*
X47188000Y-69305499D01*
D49*
X34827600Y-70204150D02*
X34827600Y-69689800D01*
D46*
X46499262Y-67230500D02*
X47188000Y-67919238D01*
X44188000Y-66473500D02*
X44188000Y-67230500D01*
X42727000Y-65012500D02*
X44188000Y-66473500D01*
D49*
X37832900Y-70669450D02*
X37367600Y-70204150D01*
D46*
X44188000Y-67230500D02*
X46499262Y-67230500D01*
D49*
X38830600Y-70669450D02*
X37832900Y-70669450D01*
D46*
X41920500Y-69655500D02*
X41838000Y-69738000D01*
D49*
X34827600Y-69634350D02*
X34223500Y-69030250D01*
D47*
X34827600Y-72723600D02*
X34827600Y-70204150D01*
X36908000Y-74804000D02*
X34827600Y-72723600D01*
D46*
X46837999Y-69655500D02*
X41920500Y-69655500D01*
%TO.N,Net-(U1-V3)*%
X44188000Y-68468000D02*
X42753500Y-68468000D01*
X42753500Y-68468000D02*
X42727000Y-68441500D01*
%TO.N,/ESP32-S3/en*%
X53480800Y-76072200D02*
X54055400Y-76646800D01*
X46567800Y-76072200D02*
X53480800Y-76072200D01*
X46694000Y-74153000D02*
X46283000Y-74564000D01*
X67380000Y-56616600D02*
X67619000Y-56377600D01*
X54055400Y-76646800D02*
X55074000Y-76646800D01*
X65245000Y-56616600D02*
X67380000Y-56616600D01*
X46537000Y-76103000D02*
X46567800Y-76072200D01*
X47299000Y-74153000D02*
X46694000Y-74153000D01*
%TO.N,/ESP32-S3/IO0*%
X51169000Y-70347600D02*
X50119000Y-70347600D01*
X45170000Y-75453000D02*
X43870000Y-74153000D01*
X49977800Y-73764800D02*
X48289600Y-75453000D01*
X52121000Y-56659600D02*
X52121000Y-69395600D01*
X52121000Y-69395600D02*
X51169000Y-70347600D01*
X51951000Y-56489600D02*
X52121000Y-56659600D01*
X48289600Y-75453000D02*
X45170000Y-75453000D01*
%TO.N,Net-(D1-A)*%
X39171000Y-56072800D02*
X39171000Y-55740000D01*
X35970600Y-59273200D02*
X39171000Y-56072800D01*
D47*
%TO.N,Net-(J1-Pin_2)*%
X33324000Y-65119150D02*
X33557600Y-65352750D01*
D49*
X33557600Y-65352750D02*
X32242650Y-65352750D01*
X33557600Y-65352750D02*
X34827600Y-65352750D01*
D47*
X33324000Y-61102000D02*
X33324000Y-65119150D01*
D46*
X33327800Y-61098200D02*
X33324000Y-61102000D01*
X35970600Y-61098200D02*
X33327800Y-61098200D01*
D49*
X32242650Y-65352750D02*
X32094600Y-65500800D01*
D46*
%TO.N,/ESP32-S3/D+*%
X41873000Y-60210000D02*
X41873000Y-59531880D01*
X42873000Y-59368400D02*
X42873000Y-60210000D01*
X41873000Y-59531880D02*
X42119880Y-59285000D01*
D50*
X42940379Y-61256074D02*
X42873000Y-61188695D01*
X42873000Y-61188695D02*
X42873000Y-60210000D01*
D46*
X42789600Y-59285000D02*
X42873000Y-59368400D01*
X42119880Y-59285000D02*
X42789600Y-59285000D01*
%TO.N,Net-(J2-CC1)*%
X40896300Y-62372000D02*
X40873000Y-62348700D01*
X40873000Y-62348700D02*
X40873000Y-60520000D01*
D50*
%TO.N,/ESP32-S3/D-*%
X45188000Y-63320000D02*
X45188000Y-62343800D01*
X42115764Y-61420000D02*
X42373000Y-61162764D01*
X44809800Y-61965600D02*
X42383600Y-61965600D01*
X45188000Y-62343800D02*
X44809800Y-61965600D01*
X41630236Y-61420000D02*
X41838000Y-61420000D01*
X41838000Y-61420000D02*
X42115764Y-61420000D01*
X41373000Y-61162764D02*
X41630236Y-61420000D01*
X42373000Y-61162764D02*
X42373000Y-60520000D01*
X42383600Y-61965600D02*
X41838000Y-61420000D01*
X41373000Y-60520000D02*
X41373000Y-61162764D01*
%TO.N,Net-(J2-CC2)*%
X47870000Y-61420000D02*
X43934000Y-61420000D01*
X48188000Y-61102000D02*
X47870000Y-61420000D01*
X43873000Y-61359000D02*
X43873000Y-60520000D01*
X43934000Y-61420000D02*
X43873000Y-61359000D01*
D49*
%TO.N,Net-(Q3-B)*%
X40730600Y-66605450D02*
X40730600Y-70669450D01*
D46*
X37269800Y-63663650D02*
X38713800Y-63663650D01*
X38713800Y-63663650D02*
X39780600Y-64730450D01*
D49*
X40730600Y-65680450D02*
X39780600Y-64730450D01*
X40730600Y-66605450D02*
X40730600Y-65680450D01*
D46*
%TO.N,Net-(Q5-C)*%
X38001100Y-72477450D02*
X36097600Y-70573950D01*
X39780600Y-71564950D02*
X38868100Y-72477450D01*
X38868100Y-72477450D02*
X38001100Y-72477450D01*
X36097600Y-70573950D02*
X36097600Y-70204150D01*
X39780600Y-68794450D02*
X39780600Y-71564950D01*
D49*
%TO.N,Net-(Q4-B)*%
X30232100Y-63692800D02*
X30232100Y-65463300D01*
X30232100Y-65463300D02*
X30194600Y-65500800D01*
X30194600Y-65500800D02*
X30194600Y-69564800D01*
X30194600Y-65500800D02*
X30194600Y-66425800D01*
X30194600Y-66425800D02*
X31144600Y-67375800D01*
D46*
%TO.N,/ESP32-S3/DTR*%
X44820000Y-72278000D02*
X44735500Y-72278000D01*
X43997000Y-64621500D02*
X43997000Y-65293000D01*
X47188000Y-64030499D02*
X46787999Y-64430500D01*
X44188000Y-64430500D02*
X43997000Y-64621500D01*
X44735500Y-72278000D02*
X42969250Y-70511750D01*
X47188000Y-63193000D02*
X47188000Y-64030499D01*
X42969250Y-70511750D02*
X42957500Y-70500000D01*
X46787999Y-64430500D02*
X44188000Y-64430500D01*
%TO.N,/ESP32-S3/RTS*%
X48188000Y-70500000D02*
X48188000Y-72217000D01*
X48188000Y-70500000D02*
X48188000Y-68595000D01*
X48188000Y-72217000D02*
X48249000Y-72278000D01*
%TO.N,Net-(Q1-G)*%
X44782500Y-70711500D02*
X46349000Y-72278000D01*
X44782500Y-70500000D02*
X44782500Y-70711500D01*
D49*
%TO.N,Net-(Q6-C)*%
X30208600Y-72375800D02*
X31144600Y-71439800D01*
X31512900Y-71071500D02*
X32690250Y-71071500D01*
X32690250Y-71071500D02*
X33557600Y-70204150D01*
X31512900Y-71071500D02*
X31144600Y-71439800D01*
X30208600Y-73217800D02*
X30208600Y-72375800D01*
D45*
%TO.N,/ESP32-S3/enc1_A_IO41*%
X47531400Y-90206900D02*
X47481400Y-90156900D01*
X49005400Y-90206900D02*
X47531400Y-90206900D01*
%TO.N,/ESP32-S3/enc1_B_IO42*%
X49247000Y-82115000D02*
X49297000Y-82065000D01*
X47773000Y-82115000D02*
X49247000Y-82115000D01*
D46*
X47299000Y-79009000D02*
X47299000Y-81518500D01*
X47299000Y-81518500D02*
X47481400Y-81700900D01*
D45*
%TO.N,/ESP32-S3/enc2_A_IO39*%
X80137000Y-81548500D02*
X78663000Y-81548500D01*
X52248000Y-72797602D02*
X52248000Y-72929901D01*
X52248000Y-72929901D02*
X59622499Y-80304400D01*
X77418900Y-80304400D02*
X78613000Y-81498500D01*
X59622499Y-80304400D02*
X77418900Y-80304400D01*
X78663000Y-81548500D02*
X78613000Y-81498500D01*
%TO.N,/ESP32-S3/enc2_B_IO40*%
X51871000Y-76799200D02*
X66182600Y-91110800D01*
X50759000Y-76799200D02*
X51871000Y-76799200D01*
X66182600Y-91110800D02*
X77683700Y-91110800D01*
X80137000Y-90131500D02*
X78663000Y-90131500D01*
X77683700Y-91110800D02*
X78613000Y-90181500D01*
X78663000Y-90131500D02*
X78613000Y-90181500D01*
D46*
%TO.N,/ESP32-S3/enc3_A_IO2*%
X51359000Y-78124000D02*
X51359000Y-78497000D01*
X51359000Y-56987600D02*
X50749000Y-56377600D01*
X51359000Y-66172128D02*
X51359000Y-56987600D01*
X56823000Y-83961000D02*
X56823000Y-126073500D01*
X50749000Y-56377600D02*
X50119000Y-56377600D01*
X56823000Y-126073500D02*
X59161000Y-128411500D01*
X59161000Y-128411500D02*
X60735000Y-128411500D01*
X60735000Y-128411500D02*
X60838500Y-128308000D01*
X51359000Y-78497000D02*
X56823000Y-83961000D01*
%TO.N,/ESP32-S3/enc3_B_IO1*%
X51687000Y-55107600D02*
X50119000Y-55107600D01*
X53191900Y-111444900D02*
X55808000Y-114061000D01*
X53313499Y-81751134D02*
X53191900Y-81872733D01*
X53293400Y-56714000D02*
X51687000Y-55107600D01*
X68305000Y-128411500D02*
X66731000Y-128411500D01*
X53293400Y-69990200D02*
X53293400Y-56714000D01*
X66731000Y-128411500D02*
X66627500Y-128308000D01*
X53191900Y-81872733D02*
X53191900Y-111444900D01*
%TO.N,/ESP32-S3/enc1_SW_IO38*%
X47984800Y-76672200D02*
X46283000Y-78374000D01*
X43654500Y-83542500D02*
X38947000Y-83542500D01*
X46283000Y-80914000D02*
X43654500Y-83542500D01*
D45*
X38947000Y-83542500D02*
X36975500Y-83542500D01*
D46*
X48271012Y-66485588D02*
X49489000Y-65267600D01*
D45*
X36975500Y-83542500D02*
X36773000Y-83340000D01*
D46*
X49489000Y-65267600D02*
X50119000Y-65267600D01*
X48271012Y-67130500D02*
X48271012Y-66485588D01*
X46283000Y-78374000D02*
X46283000Y-80914000D01*
D45*
%TO.N,Net-(EN2-PadA)*%
X76320000Y-83340000D02*
X77087100Y-82572900D01*
X76320000Y-83340000D02*
X78596500Y-83340000D01*
X78596500Y-83340000D02*
X78613000Y-83323500D01*
X77087100Y-82572900D02*
X77087100Y-81344200D01*
%TO.N,Net-(EN2-PadB)*%
X77089000Y-89109000D02*
X77089000Y-90335800D01*
X76320000Y-88340000D02*
X78596500Y-88340000D01*
X76320000Y-88340000D02*
X77089000Y-89109000D01*
X78596500Y-88340000D02*
X78613000Y-88356500D01*
%TO.N,Net-(EN1-PadB)*%
X50505900Y-82572900D02*
X50505900Y-81420400D01*
X49141300Y-83340000D02*
X49005400Y-83475900D01*
X51273000Y-83340000D02*
X49141300Y-83340000D01*
X51273000Y-83340000D02*
X50505900Y-82572900D01*
%TO.N,/ESP32-S3/enc2_SW_IO48*%
X53154000Y-72547600D02*
X53154000Y-71597600D01*
X88773000Y-88149500D02*
X87998000Y-87374500D01*
X85584000Y-78940000D02*
X59546400Y-78940000D01*
X87998000Y-81354000D02*
X85584000Y-78940000D01*
X87998000Y-87374500D02*
X87998000Y-81354000D01*
X59546400Y-78940000D02*
X53154000Y-72547600D01*
X88773000Y-88149500D02*
X90629500Y-88149500D01*
X90629500Y-88149500D02*
X90820000Y-88340000D01*
D46*
%TO.N,Net-(EN3-PadA)*%
X57383000Y-130236500D02*
X59161000Y-130236500D01*
X59161000Y-130236500D02*
X61169500Y-130236500D01*
X61169500Y-130236500D02*
X61273000Y-130340000D01*
D45*
%TO.N,Net-(EN1-PadA)*%
X51273000Y-88340000D02*
X50529400Y-89083600D01*
X51273000Y-88340000D02*
X49047300Y-88340000D01*
X49047300Y-88340000D02*
X49005400Y-88381900D01*
X50529400Y-89083600D02*
X50529400Y-90310400D01*
D46*
%TO.N,Net-(EN3-PadB)*%
X68201500Y-130340000D02*
X68305000Y-130236500D01*
X66273000Y-130340000D02*
X68201500Y-130340000D01*
X70083000Y-130236500D02*
X68305000Y-130236500D01*
%TO.N,/ESP32-S3/enc3_SW_IO47*%
X66273000Y-92014000D02*
X54411000Y-80152000D01*
X66273000Y-115840000D02*
X66273000Y-92014000D01*
X66169500Y-115943500D02*
X66273000Y-115840000D01*
X66169500Y-117894000D02*
X66169500Y-115943500D01*
D49*
%TO.N,Net-(Q3-E)*%
X36097600Y-65352750D02*
X37367600Y-65352750D01*
X38830600Y-66605450D02*
X38620300Y-66605450D01*
X38620300Y-66605450D02*
X37367600Y-65352750D01*
%TD*%
M02*
